<?xml version="1.0" encoding="UTF-8"?><svg id="Layer_1" xmlns="http://www.w3.org/2000/svg" viewBox="0 0 297.33 29.55"><defs><style>.cls-1{fill:#c9aa6b;}</style></defs><polygon class="cls-1" points="189.57 12.99 189.57 .36 187.57 .36 187.57 12.99 183.09 12.99 183.09 .36 181.09 .36 181.09 12.99 176.61 12.99 176.61 .36 174.61 .36 174.61 12.99 157.95 12.99 162.68 .72 160.81 0 155.8 12.99 150.91 12.99 155.64 .72 153.77 0 148.76 12.99 144.6 12.99 149.33 .72 147.46 0 142.46 12.99 137.78 12.99 142.51 .72 140.64 0 135.63 12.99 130.67 12.99 135.4 .72 133.53 0 128.52 12.99 114.18 12.99 112.92 12.99 112.92 10.05 110.92 10.05 110.92 12.99 109.51 12.99 6.7 12.99 6.7 14.99 109.51 14.99 110.92 14.99 110.92 17.84 112.92 17.84 112.92 14.99 114.18 14.99 127.75 14.99 122.42 28.84 124.29 29.55 129.9 14.99 134.86 14.99 129.53 28.84 131.4 29.55 137.01 14.99 141.69 14.99 136.35 28.84 138.22 29.55 143.83 14.99 147.99 14.99 142.66 28.84 144.52 29.55 150.13 14.99 155.03 14.99 149.7 28.84 151.57 29.55 157.18 14.99 290.63 14.99 290.63 12.99 189.57 12.99"/></svg>