<?xml version="1.0" encoding="UTF-8"?><svg id="Isolation_Mode" xmlns="http://www.w3.org/2000/svg" viewBox="0 0 297.33 29.55"><defs><style>.cls-1{fill:#c9a96a;}</style></defs><path class="cls-1" d="M291.35,13.97v.05l5.98,4.96v1.75l-6.7-5.73h-24.71v12.55h-2v-12.55h-4.48v12.55h-2v-12.55h-4.48v12.55h-2v-12.55h-4.48v12.55h-2v-12.55h-12.66l-5.61,14.56-1.87-.72,5.33-13.84h-4.36l-5.61,14.56-1.87-.72,5.33-13.84h-14.52v12.55h-2v-12.55h-4.48v12.55h-2v-12.55h-4.48v12.55h-2v-12.55h-4.48v12.55h-2v-12.55h-9.51l-2.33,3.09-2.33-3.09h-2.04l-2.33,3.09-2.33-3.09h-1.98l-2.33,3.09-2.33-3.09h-1.98l-2.33,3.09-2.33-3.09h-2.09l-2.33,3.09-2.33-3.09h-9.29v13.42h-2v-13.42h-4.48v13.42h-2v-13.42h-8.49l-2.33,3.09-2.33-3.09h-1.98l-2.33,3.09-2.33-3.09h-1.98l-2.33,3.09-2.33-3.09h-2.09l-2.33,3.09-2.33-3.09h-9.53l-2.33,3.09-2.33-3.09h-1.98l-2.33,3.09-2.33-3.09h-1.98l-2.33,3.09-2.33-3.09h-2.09l-2.33,3.09-2.33-3.09h-14.63v13.42h-2v-13.42h-4.48v13.42h-2v-13.42h-4.48v13.42h-2v-13.42H6.7L0,20.72v-1.75l5.98-4.96v-.05L0,9.01v-1.75l6.7,5.73h54.3l2.33-3.09,2.33,3.09h2.09l2.33-3.09,2.33,3.09h1.98l2.33-3.09,2.33,3.09h1.98l2.33-3.09,2.33,3.09h9.53l2.33-3.09,2.33,3.09h2.09l2.33-3.09,2.33,3.09h1.98l2.33-3.09,2.33,3.09h1.98l2.33-3.09,2.33,3.09h26.27l2.33-3.09,2.33,3.09h2.09l2.33-3.09,2.33,3.09h1.98l2.33-3.09,2.33,3.09h1.98l2.33-3.09,2.33,3.09h2.04l2.33-3.09,2.33,3.09h46.25l5.01-12.99,1.87.72-4.73,12.28h4.36l5.01-12.99,1.87.72-4.73,12.28h58.04l6.7-5.73v1.75l-5.98,4.96Z"/></svg>