<?xml version="1.0" encoding="UTF-8"?><svg id="Isolation_Mode" xmlns="http://www.w3.org/2000/svg" viewBox="0 0 297.33 29.55"><defs><style>.cls-1{fill:#c9aa6b;}</style></defs><polygon class="cls-1" points="290.63 12.99 232.59 12.99 237.32 .72 235.46 0 230.45 12.99 226.09 12.99 230.82 .72 228.96 0 223.95 12.99 177.7 12.99 176.09 12.99 176.09 9.97 174.09 9.97 174.09 12.99 173.03 12.99 170.99 12.99 169.72 12.99 169.72 9.97 167.72 9.97 167.72 12.99 166.32 12.99 164.34 12.99 163.26 12.99 163.26 9.97 161.26 9.97 161.26 12.99 159.67 12.99 157.68 12.99 156.38 12.99 156.38 9.97 154.38 9.97 154.38 12.99 153.02 12.99 150.93 12.99 149.63 12.99 149.63 9.97 147.63 9.97 147.63 12.99 146.26 12.99 119.99 12.99 118.05 12.99 118.05 9.97 116.05 9.97 116.05 12.99 115.32 12.99 113.34 12.99 111.42 12.99 111.42 9.97 109.42 9.97 109.42 12.99 108.67 12.99 106.68 12.99 104.71 12.99 104.71 9.97 102.71 9.97 102.71 12.99 102.02 12.99 99.93 12.99 97.72 12.99 97.72 9.97 95.72 9.97 95.72 12.99 95.26 12.99 85.73 12.99 84.77 12.99 84.77 9.97 82.77 9.97 82.77 12.99 81.06 12.99 79.08 12.99 78.14 12.99 78.14 9.97 76.14 9.97 76.14 12.99 74.41 12.99 72.42 12.99 71.43 12.99 71.43 9.97 69.43 9.97 69.43 12.99 67.76 12.99 65.67 12.99 64.44 12.99 64.44 9.97 62.44 9.97 62.44 12.99 61 12.99 6.7 12.99 6.7 14.99 31.4 14.99 31.4 28.41 33.4 28.41 33.4 14.99 37.89 14.99 37.89 28.41 39.89 28.41 39.89 14.99 44.37 14.99 44.37 28.41 46.37 28.41 46.37 14.99 61 14.99 62.44 14.99 62.44 17.76 64.44 17.76 64.44 14.99 65.67 14.99 67.76 14.99 69.43 14.99 69.43 17.76 71.43 17.76 71.43 14.99 72.42 14.99 74.41 14.99 76.14 14.99 76.14 17.76 78.14 17.76 78.14 14.99 79.08 14.99 81.06 14.99 82.77 14.99 82.77 17.76 84.77 17.76 84.77 14.99 85.73 14.99 95.26 14.99 95.72 14.99 95.72 17.76 97.72 17.76 97.72 14.99 99.93 14.99 102.02 14.99 102.71 14.99 102.71 17.76 104.71 17.76 104.71 14.99 106.68 14.99 108.67 14.99 109.42 14.99 109.42 17.76 111.42 17.76 111.42 14.99 113.34 14.99 115.32 14.99 116.05 14.99 116.05 17.76 118.05 17.76 118.05 14.99 119.99 14.99 128.48 14.99 128.48 28.41 130.48 28.41 130.48 14.99 134.96 14.99 134.96 28.41 136.96 28.41 136.96 14.99 146.26 14.99 147.63 14.99 147.63 17.76 149.63 17.76 149.63 14.99 150.93 14.99 153.02 14.99 154.38 14.99 154.38 17.76 156.38 17.76 156.38 14.99 157.68 14.99 159.67 14.99 161.26 14.99 161.26 17.76 163.26 17.76 163.26 14.99 164.34 14.99 166.32 14.99 167.72 14.99 167.72 17.76 169.72 17.76 169.72 14.99 170.99 14.99 173.03 14.99 174.09 14.99 174.09 17.76 176.09 17.76 176.09 14.99 177.7 14.99 187.21 14.99 187.21 27.54 189.21 27.54 189.21 14.99 193.69 14.99 193.69 27.54 195.69 27.54 195.69 14.99 200.18 14.99 200.18 27.54 202.18 27.54 202.18 14.99 206.66 14.99 206.66 27.54 208.66 27.54 208.66 14.99 223.18 14.99 217.85 28.84 219.71 29.55 225.32 14.99 229.68 14.99 224.35 28.84 226.21 29.55 231.82 14.99 244.48 14.99 244.48 27.54 246.48 27.54 246.48 14.99 250.96 14.99 250.96 27.54 252.96 27.54 252.96 14.99 257.44 14.99 257.44 27.54 259.44 27.54 259.44 14.99 263.92 14.99 263.92 27.54 265.92 27.54 265.92 14.99 290.63 14.99 290.63 12.99"/></svg>