<?xml version="1.0" encoding="UTF-8"?><svg id="Layer_1" xmlns="http://www.w3.org/2000/svg" viewBox="0 0 297.33 29.55"><defs><style>.cls-1{fill:#c9a96a;}</style></defs><path class="cls-1" d="M291.35,13.97v.05l5.98,4.96v1.75l-6.7-5.73h-20.72l-2.33,3.09-2.33-3.09h-1.98l-2.33,3.09-2.33-3.09h-1.98l-2.33,3.09-2.33-3.09h-2.09l-2.33,3.09-2.33-3.09h-13.82l-5.61,14.56-1.87-.72,5.33-13.84h-4.36l-5.61,14.56-1.87-.72,5.33-13.84h-14.99l-2.33,3.09-2.33-3.09h-41.42l-2.33,3.09-2.33-3.09h-1.44l-2.33,3.09-2.33-3.09h-1.99l-2.33,3.09-2.33-3.09h-1.98l-2.33,3.09-2.33-3.09h-2.09l-2.33,3.09-2.33-3.09h-14.6l-5.61,14.56-1.87-.72,5.33-13.84h-4.9l-5.61,14.56-1.87-.72,5.33-13.84h-4.16l-5.61,14.56-1.87-.72,5.33-13.84h-4.68l-5.61,14.56-1.87-.72,5.33-13.84h-4.97l-5.61,14.56-1.87-.72,5.33-13.84h-13.51l-2.33,3.09-2.33-3.09h-1.98l-2.33,3.09-2.33-3.09h-1.98l-2.33,3.09-2.33-3.09h-2.09l-2.33,3.09-2.33-3.09H6.7L0,20.72v-1.75l5.98-4.96v-.05L0,9.01v-1.75l6.7,5.73h26.53V.36h2v12.64h13.31l2.33-3.09,2.33,3.09h2.09l2.33-3.09,2.33,3.09h1.98l2.33-3.09,2.33,3.09h1.98l2.33-3.09,2.33,3.09h14.28l5.01-12.99,1.87.72-4.73,12.28h4.97l5.01-12.99,1.87.72-4.73,12.28h4.68l5.01-12.99,1.87.72-4.73,12.28h4.16l5.01-12.99,1.87.72-4.73,12.28h4.9l5.01-12.99,1.87.72-4.73,12.28h13.83l2.33-3.09,2.33,3.09h2.09l2.33-3.09,2.33,3.09h1.98l2.33-3.09,2.33,3.09h1.98l2.33-3.09,2.33,3.09h1.44l2.33-3.09,2.33,3.09h12.99V.36h2v12.64h4.48V.36h2v12.64h4.48V.36h2v12.64h13.47l2.33-3.09,2.33,3.09h15.76l5.01-12.99,1.87.72-4.73,12.28h4.36l5.01-12.99,1.87.72-4.73,12.28h13.05l2.33-3.09,2.33,3.09h2.09l2.33-3.09,2.33,3.09h1.98l2.33-3.09,2.33,3.09h1.98l2.33-3.09,2.33,3.09h20.72l6.7-5.73v1.75l-5.98,4.96Z"/></svg>