<?xml version="1.0" encoding="UTF-8"?><svg id="Layer_1" xmlns="http://www.w3.org/2000/svg" viewBox="0 0 297.33 29.55"><defs><style>.cls-1{fill:#c9aa6b;}</style></defs><path class="cls-1" d="M290.63,14.99h-59.27l-5.61,14.56-1.87-.72,5.33-13.84h-4.36l-5.61,14.56-1.87-.72,5.33-13.84h-62.12v2.87h-2v-2.87h-4.37v2.87h-2v-2.87h-4.46v2.87h-2v-2.87h-4.89v2.87h-2v-2.87h-4.74v2.87h-2v-2.87h-15.94l-5.61,14.56-1.87-.72,5.33-13.84h-4.9l-5.61,14.56-1.87-.72,5.33-13.84h-4.16l-5.61,14.56-1.87-.72,5.33-13.84h-4.68l-5.61,14.56-1.87-.72,5.33-13.84h-4.97l-5.61,14.56-1.87-.72,5.33-13.84h-14.83v2.87h-2v-2.87h-4.63v2.87h-2v-2.87h-4.71v2.87h-2v-2.87h-4.98v2.87h-2v-2.87H6.7v-2h26.53V.36h2v12.64h14.39v-2.91h2v2.91h4.98v-2.91h2v2.91h4.71v-2.91h2v2.91h4.63v-2.91h2v2.91h15.6l5.01-12.99,1.87.72-4.73,12.28h4.97l5.01-12.99,1.87.72-4.73,12.28h4.68l5.01-12.99,1.87.72-4.73,12.28h4.16l5.01-12.99,1.87.72-4.73,12.28h4.9l5.01-12.99,1.87.72-4.73,12.28h15.17v-2.91h2v2.91h4.74v-2.91h2v2.91h4.89v-2.91h2v2.91h4.46v-2.91h2v2.91h4.37v-2.91h2v2.91h14.04V.36h2v12.64h4.48V.36h2v12.64h4.48V.36h2v12.64h33.9l5.01-12.99,1.87.72-4.73,12.28h4.36l5.01-12.99,1.87.72-4.73,12.28h58.49v2Z"/></svg>