<?xml version="1.0" encoding="UTF-8"?>
<svg id="Layer_1" xmlns="http://www.w3.org/2000/svg" version="1.1" viewBox="0 0 630 100">
  <!-- Generator: Adobe Illustrator 29.8.2, SVG Export Plug-In . SVG Version: 2.1.1 Build 3)  -->
  <defs>
    <style>
      .st0 {
        fill: #c8a96a;
      }
    </style>
  </defs>
  <path class="st0" d="M46.7,20.3s0-.1.1-.1c0,0,.1,0-.1.1ZM52.7,21.1s0,0,0,0c0,0,.1,0,.2,0,0,0,.3,0-.3-.1h0ZM52.8,21.2c-.2,0,.2.1,0,0h0ZM53.8,21.5c.3,0,.3,0,.1-.1h-.3c0,0,.3.1.2.1ZM54.3,21.4h-.2s0,0,.2,0ZM53.9,21.3s0,0-.2,0c.1,0,.2,0,.4,0,0,0,0-.1-.2,0ZM55.9,22.2s0-.1,0-.2h-.2c.1,0,.3.1.3.2h0ZM55.8,22h.4c-.3,0-.4,0-.4,0ZM57.3,22.8h-.2s-.2,0-.2,0h.4s0,0,0,0ZM58,23.3c.2,0,.5.1.7.2-.2,0-.4-.2-.6-.4-.2,0,.1.2,0,.2h0ZM58.7,23.5c.1,0,.2,0,.3,0,0,0-.2,0-.3,0ZM57,22.6v-.2c0,0-.2,0-.2,0,0,0,0,.1.2.2h0ZM56.9,22.4h0c.1,0,.2.1.3.1,0,0-.1,0-.3-.1ZM56.7,22.3s0,0,0,0c0,0,0,0,0,0ZM56.2,22.1h.4c0,0-.4,0-.4,0,0,0,0,0,0,0ZM58.4,23.2c.2,0,.3.1.5.2-.2-.1-.4-.2-.6-.4,0,0-.2,0,0,.1ZM57.7,22.8s0,0,0,0c0,0,0,0,0,0ZM60.8,24.4s0,0,0,0h0,0ZM58.3,23c-.2,0-.2-.1-.3-.1.1,0,.2,0,.4.2,0,0,0,0,0,0h0ZM59.5,23.8c0,0-.2-.1-.2-.2,0,0,.2.2.2.2ZM57.8,22.9h0s0,0,0,0ZM57.8,22.9c0,0,.2,0,.2,0,0,0-.2,0-.3,0,0,0,0,0,0,0ZM60.4,24.3c.2.1.3,0,.3,0l-.7-.4h0s-.2,0-.2,0c.2.1.2.2.4.4h0ZM60.8,24.5h-.1s.4.1.4.1c0,0-.3-.1-.3-.1ZM61.5,24.9h0c0,0,.2.1.2.1h-.1c0-.1,0-.1,0-.1ZM75,40.7h0c0-.3-.2-.4-.2-.5,0,.3,0,.6.1.5ZM68.1,30.4c.1.2.2.4.4.5-.2-.2-.2-.5-.4-.5ZM77.8,65.4c0,.1,0,.2,0,.2,0-.1,0-.2,0-.2ZM68.4,30.8c.1.2.2.4.5.5,0,0,0,0,0-.1-.1-.1-.2-.2-.4-.4h0ZM49.3,93.6c0,0-.2,0-.3,0,0,0,.2,0,.3,0ZM64.2,26.9c-.1-.1,0,0,0,0h0ZM64,26.7s0,.1.2.2c0,0,0,0-.2-.2ZM64,26.8s0,0-.1-.1c0,0,0,0,.1.1ZM64.2,26.9s0,0,.2.1c0,0-.2-.1-.2-.2,0,0,0,0,0,0ZM62.8,25.8s0,0,0,0l.3.2c-.2-.1-.2-.2-.3-.2h0ZM62.8,25.9h0s0,0,0,0ZM64.7,27.2c0-.1-.1,0-.2,0-.2,0,.8.4.2,0ZM84,43c0-.1-.1-.3-.2-.5,0,.2-.3-.6.2.7,0,0,0,0,0-.1ZM84,43c.2.5,0-.4,0,0h0ZM83.3,41.2c0-.2-.3-.8-.2-.6-.2-.4-.3-.5-.3-.5,0,0,0,.2,0,.4,0,0,.4.7.4.7ZM80.5,36.3c0,0,0,.3,0,.3l.4.5c-.1-.3-.4-.7-.4-.8h0ZM80.5,36.7l-.5-.7c.4.6.5.7.5.7ZM78.9,34l-.7-.6.3.3.4.3h0ZM76.5,31.3c.2.2.4.4.6.7.3.2-.2-.5,0-.2-.2-.2-.4-.4-.6-.6-.2-.2-.4-.3-.6-.5.2.2.4.3.5.5ZM75.4,30.3c.2.2.4.3.6.5-.2-.2-.4-.3-.6-.5ZM79,34.5c0,0,.1.2.2.3,0,0,0-.2-.3-.6,0,0,.1.3.1.3ZM79,34.5h0c-.2-.3-.4-.5-.4-.6,0,0,.2.2.4.6ZM79.2,34.9s0,0,0,0c0,0,0,0,0,0ZM79.1,34.9l.3.3-.2-.3h0ZM76.3,31.5c0,.1.2.2.3.3,0,0,.3.2-.1-.2-.3-.2-.6-.5-1-.9.2.2.4.4.5.6,0,0,.2.2.3.3ZM77.7,32.9s0,0,0,0c0,0,0,0,0,0ZM71.8,27.5s0,0,0,0h0,0ZM76.6,31.8c.2.3.4.5.6.6-.2-.2-.4-.4-.6-.7,0,0,0,0,0,0ZM74.4,29.5c.1.1.3.3.5.5-.1-.2-.4-.5-.5-.5ZM77.6,32.8h0c0,0,0,0,0,0ZM77.6,32.8c-.2-.1-.3-.2-.4-.3l.5.5s0,0,0-.1ZM73.2,28.6l.3.2c-.3-.3-.5-.5-.9-.9-.5-.4-.6-.4-.7-.4.5.4.9.8,1.4,1.1h-.1c0,0,0,0,0,0ZM72,27.4l-.8-.4.6.4s.2,0,.2,0ZM70.3,26.2l-.4-.2.3.3h.1ZM13.5,76l.3.3c-.1-.2-.2-.3-.3-.3ZM12,73.4h0c0,0,.1.1,0,0ZM24.9,25h.2c.4-.2.6-.4.9-.5-.6.2-1.2.5-1.1.5ZM8.2,48.8c0,.2,0,.4,0,.6,0,0,0-.1,0-.2v-.4h0ZM8.2,50.7c0-.2.1-.4.2-.8l-.2.8ZM25.2,87.3l.5.2c-.6-.4-.4-.2-.5-.2ZM11.9,75.5c.1.2.2.3.2.3-.2-.2-.2-.3-.2-.3ZM49.4,19.1c0,0,.2,0,.3,0,.4,0,.8,0,1.3,0-.5,0-1-.1-1.5-.1h0ZM63.6,22.5c.4.1,0,0,0,0h0ZM45.4,19.7h0c.1,0,0,0,0,0ZM64.1,22.8c-.1,0-.3-.1-.5-.2,0,0,.2.1.5.2ZM64.1,22.7c.1,0,.2.1.3.2,0,0,0,0-.3-.2ZM63.6,22.5c-.1,0-.3-.1-.5-.2.2,0,.4.2.6.3,0,0,0,0,0,0h0ZM18.5,31.5s0,0,0,0h0s0,0,0,0h0ZM17.8,32.1l-.2.5c.3-.5.6-.8.9-1.1h-.5c0,.1-.2.6-.2.6h0ZM42.8,93.3h0,0ZM70.5,87.3s0,0,0,0c0,0,0,0,0,0ZM12.8,74.9s0,0,0,.1c0,0,0,0,0-.1ZM8.4,49.8c0,0,0,0,0,.1,0,.1,0,.1,0-.1ZM25.2,87.3h0s0,0,0,0h0ZM40.1,20.6c-.3,0-.4,0-.5,0,0,0,.1,0,.5,0ZM67.2,24.3h0s0,0,0,0ZM67.2,24.3s0-.1,0,0l-.7-.4c.4.2.5.3.7.4ZM38.5,20.5h.3c0,0,0-.3,0-.3,0,0-.2.3-.2.3ZM26.5,25.4c-.6.4-1,.6-.6.6.5-.3.6-.4.6-.4s0-.1.6-.3c.2-.2-.8.4-.6.2h0ZM26.5,25.4c.1,0,.2-.1.3-.2-.2.1-.3.2-.3.2ZM9.6,67.1c0,.1,0,.3.1.7v-.6c0,0-.1,0-.1,0h0ZM14.2,76.9v-.2s0-.2,0-.2v.4ZM19.5,82.7c0,0-.1-.1-.2-.2,0,0,.1.1.2.2ZM20.2,83.3c-.2-.2-.4-.4-.6-.6.4.4.6.7.6.6ZM36.6,16.1c0,0,0,0,0,0,.1,0,0-.1,0,0ZM38.1,15.9c0,0,0,0-.2,0,0,0,0,0,0,0,0,0,.1,0,.2,0ZM38.6,15.9s0,0,0,0c0,0,0,0,0,.1.3,0,.6-.1.8-.1-.2-.1-.5,0-.7,0ZM39.8,16h.2s.1,0-.2,0ZM39.9,16c-.1,0,0,0,0,0h0ZM40.5,16c0,0,0,0-.2,0,0,0,.2,0,.2,0,.2,0,.1,0,0-.1ZM40.6,15.9s0,0,0,0c0,0,0,0,0,0ZM40.5,15.9s0,0,0,0c0,0,.1,0,.2,0,0,0,0,0,0,0ZM40.3,15.9c-.1,0-.2,0,0,0-.3,0-.3.1,0,0ZM39.3,15.7c0,0,0,0-.1,0,0,0,0,0-.1,0,0,0,.3,0,.2,0ZM41.6,15.9s0,0,0,0c0,0,0,0-.1,0,0,0,.2,0,.2,0h0ZM41.5,15.8c0,0,.1,0,.2,0-.2,0-.2,0-.2,0ZM40.7,15.7c-.1,0-.2,0-.3.1.2,0,.2,0,.4-.1h0ZM42.4,15.8s0,0,0,0c0,0,.1,0,.2-.1,0,0,0,0,0,0ZM43.3,15.7c0,0-.2,0-.4,0,0,0,.1,0,0,.1.1,0,.2,0,.3-.1h0ZM43.3,15.7c0,0,.1,0,.2,0,0,0,0,0-.2,0ZM42.2,15.8s0,0,0,0h0s0,0,.2,0h0ZM42.1,15.7h0c0,0,.1,0,.2,0,0,0,0,0-.2,0ZM42,15.7h0,0ZM41.2,15.7c.1,0,.3-.1,0-.2,0,0,0,0,0,.2ZM41.7,15.6s0,0,0,0c0,0,.1,0,.2,0h-.2ZM42,15.6s0,0,0,0h0s0,0,0,0h0ZM43,15.6c0,0,.2,0,.3,0-.1,0-.2,0-.4,0,0,0,0,0,0,0h0ZM42.6,15.6h0,0ZM44.4,15.3s0,0,0,0h0s0,0,0,0ZM43,15.5c0,0-.1,0-.2,0,0,0,.1,0,.2,0,0,0,0,0,0,0ZM43.7,15.5s-.1,0-.2,0c0,0,.2,0,.2,0ZM42.7,15.6h0s0,0,0,0ZM42.7,15.6s0,0,.1,0c0,0,0,0-.1,0,0,0,0,0,0,0h0ZM44.8,14.8c0,0-.1,0-.2,0,0,0,0,0,0,0,0,0-.2.2-.4.1-.2,0,0,.3.2.4,0,0,0,0,.2-.1,0,0-.5,0-.3-.1.3,0,.2,0,.4,0-.1,0,.3-.2.2-.3h0ZM44,15.4s0,0,0,0c0,0,.2,0,.3,0,.1,0,.2,0,.2-.1-.2,0-.2,0-.4,0,0,0,0,0,0,0ZM43.6,15.3c-.2,0-.2,0-.3.1.4,0,0,0,.2,0,0,0-.1,0-.2,0h.2,0s0,0,0,0h0s0,0,0,0c.1,0,0,0,0,0h0c.2,0,.2,0,.4,0,0,0-.2,0-.4,0,0,0,.2-.1,0-.2h0ZM41.5,15.4s0,0,0,0c0,0,0,0,0,0ZM41.5,15.5c.1,0,.3,0,.3,0,0,0-.1,0-.2-.1,0,0,0,0-.1,0,0,0,0,0,0,0,0,0-.2,0,0,0,0,0,0,0,0,0ZM41.8,15.5s0,0,0,0h0ZM42.6,15.4c.1,0,.2,0,.3,0,0,0-.1,0-.2,0,0,0,0,0,0,0-.2,0-.1,0-.2,0h0ZM44.4,15.4c0,0,0,0,.2-.1,0,0,0,0-.1,0,0,0,0,0,0,0ZM44.9,15.3s0,0,0,0h0c0,0,0,0,0,0ZM55.2,12.4s0,0,0,0c0,0-.2,0-.2,0,.2,0,.3,0,.3,0ZM58.5,7.8s0,0,0,0h0c0,0,0,0,.1,0h0ZM49.2,14.3c.1,0,.2,0,.3,0-.2,0-.3,0-.3,0ZM53.8,5.7s0,0,0,0c0,0,0,0,0,0ZM49.8,14.2h0c0,0-.2,0-.3,0,.1,0,.2,0,.3,0ZM35.3,14.6s.1,0,.2,0c0,0-.1,0-.2,0h0s0,0,0,0ZM46.6,15c0,0,0,0,0,0h0ZM46.1,14.7s0,0,0,0c0,0,0,0,0,0ZM50.5,13.5h0s0,0,0,0ZM46.5,15h.1-.1ZM46.5,15h0s0,0,0,0ZM46.6,15s0,0,.1,0c0,0,0,0-.2,0,0,0,0,0,0,0h0ZM35.6,14.5c.2,0,.3,0,0,0,.3,0,.5,0,.8-.1.1,0,.2,0,.3,0,0,0,.2,0,.2,0,.3,0,.6-.1.9-.2.6-.2,1.1-.4,1.7-.5,0,0,0,0,0,0,.2,0,.2-.1.3-.2.2,0,.2,0,.4,0,0,0,0,0,0-.1.5-.2,1.2-.3,1.5-.5.2,0,0,.1.2,0-.3,0,.5-.3.3-.3.3,0,.7-.2.7,0,.2,0,.1-.2,0-.2.3-.1.5-.2.6-.3.2,0,1.1-.6,1.4-.5-.2,0,0,0,0-.2,0,0-.1,0-.2,0,.1,0,.2,0,.3-.1,0,0,0,0,0,0,0,0,0,0,.2,0,.2-.1.2-.1.3-.2h0c0,0,0,0,.1,0,.1,0-.3.3,0,.1,0,0,.1-.2.2-.2-.2,0-.1.1,0,.1,0,0,.2,0,.2-.1,0,0,0,0-.2,0,.7-.4,1.5-.7,2.2-1.1,0,.1.5-.3.5-.1h0c0,0,0,0,0,0,0,0,.2,0,.2-.1,0,0,0-.2-.2,0,0,0,.1-.1.2-.2,0-.4.8-.4,1.1-.8,0,0,0,0,0,0,.3-.3.9-.5.9-.6,0,0,0,0,0,0,.2-.3.3-.3.7-.6,0,0,0,0,0,0,0-.1,0-.2.3-.4h0c.2,0,.2-.1.4-.2.2.2.5-.6.8-.5,0-.1.3-.3.4-.5,0,0,0,0,0,0,0-.1.2-.2.3-.2.2,0,.3,0,.4-.1.1,0,0,0,0-.1.2,0,.3,0,.5-.1,0,0,.2,0,.2,0,0,0,.1,0,.2,0,.2,0,0,.1.1.2.3,0,0-.2.4,0,0,0-.2,0-.1,0,0,0,.2.1.2.2,0,0,.2.2.2.2,0,0,0,0,0,0,0,0,.1,0,.2,0s.1,0,.2.1c0,0,.2.2.2,0,0,0,0,0,0,0,0,0,.1.1.2.2,0,0,0,0,0,0,0,0,0,0,.3.2h0c.2.1.2.3.3.2,0,0,0,0,0,0,0,0,.1.1.2.2s0,0,.2.2c0,0,.1,0,.1.2,0,0,.2,0,.2.2,0,.2.2.3.2.4-.1-.2-.1,0-.1,0,.1,0,.2.1.2.3,0,0,.2,0,.2,0,0,0,0,0,.1,0,0,0,0,.1,0,.2,0,0,0-.1,0,0s0,.1,0,.1c0,0,0,0-.1,0,0,.1.1.2.1.3s0,.2,0,.4c0-.1,0,0-.1,0,0,0,0,.1,0,.2,0,0,0,.2,0,.1-.2.3-.3.7-.6,1,0,0-.1.1-.2.2,0,0-.1.1-.2.2,0,0-.1,0-.2.1s0,0-.1,0c0,0-.2.2-.3.3,0,0,0,0,0,0,0,.1-.2.2-.2.2,0,0-.1.1-.3.2.1-.1,0-.1-.2-.1,0,.1-.1.1-.2.2,0,0,0,0,0,0,0,0-.2.1-.3.1,0,0,0,0,0,0,0,.1-.4.3-.5.4-.2,0-.3.1-.4,0,0,0,0,0-.1.1,0,0,.1,0,0,.1,0,0,0,0,0,0,0,0,0,0,0,0,0,0-.2.1-.3.1h.1s0,0-.1,0c0,0,0,0,0,0,0,0,0,0,0,0,0,0-.1,0-.2,0-.4,0-.7.5-1.2.4,0,0,.2,0,.2,0-.3.1-.7.1-.9.3,0,0,0,0,0,0-.2.1-.4.2-.6.3,0,0,0,0,0,0-.3,0-.9.4-1.1.3,0,0-.4.1-.6.2,0,0,0,0,0,0-.2,0-.4.1-.5.2-.5,0-.9.2-1.3.3,0,0,0,0,0,0-.2,0-.2,0-.4.1,0,0,0,0-.2,0-.1,0-.3.1-.5,0,0,0-.2,0-.3,0,.3-.1,0,0,0-.2,0,0,0,0-.2.1,0,0,0,0,0,0,0,0-.4.1-.5.2,0,0,0,0,.1,0t0,0h0,0s0,0,0,0c-.2,0-.1,0-.1,0-.3,0-.4,0-.6,0,.3.1-.5.1-.3.2-.2,0-.1,0-.3,0,.3,0,.5-.2.7-.3,0,0-.1,0-.2,0,0-.2.5,0,.6-.1,0,0-.3,0-.3,0,0,0,0,0,0,0,.3,0,.5-.1.7-.2-.2,0,.2-.1,0-.1,0,0,0,0-.1,0,0,0,0,0,.1-.1.5,0,1.3-.3,1.5-.2,0,0-.3,0-.3.1,0,0,.1,0,.2,0-.2,0-.3,0-.6,0,0,0,0,.2.1.2.5,0,.3-.3,1-.4,0,0,0,.1.2,0,.3-.1.5-.3.6-.5-.1,0-.2,0-.3,0,0,0,0,0-.1,0-4,1-8.1,1.6-12.4,1.9,0-.2-.2-.3-.2-.4,0,0,0,0,0,0,0,0,0,.2-.2.1,0,0,0,0,0,0,0,0,0,0,0,0,0,0,0,0-.1,0,0,0,0-.1-.1-.2,0-.1-.2-.3-.3-.4,0-.1,0-.2,0-.4.1,0,.2,0,.3,0,0,0,0-.1-.2,0h0ZM47.6,14.7h0c0,0,.2,0,0,0ZM50.8,13.3c-.5.1-.9.3-1.4.4h0c.4-.1.6-.1,1-.2,0,0,0,0,0,0,0,0,.2-.1.3-.2h0ZM52.2,12.9c-.2,0-.4.1-.6.2,0,0,0,0,0,0,.1,0,.6,0,.6,0,0,0,0-.2,0-.3ZM54.2,12.2c-.1,0-.3.1-.4.1-.1.2-.2.3-.3.4,0,0,.2,0,.2-.2,0,0,0,0,0,0,.2-.1.3-.3.4-.4ZM56.8,11.2c0,0-.1,0-.2,0,0,0,0,0,0,.1,0,0,0-.1,0-.2ZM58.6,8.9c0,0,0-.1,0-.2,0,.1,0,.3,0,.4,0,0,0,0,0,0,0-.1,0-.2,0-.3ZM58.2,7.6s0,0,0,.1c0,0,0,0,0,0,0,0,0,0,0,.1,0,0,.2,0,.2,0,0,0,0,0,0,0,0,0,.1,0,.1,0,0,0-.1-.2-.2-.3,0,0,0,0,0,.2,0,0,0,0-.2-.1h0ZM45.2,11.1h0s0,0,0,0ZM45.7,15.2c0,0,.1,0,.2,0,0,0-.1,0-.2,0,0,0,0,0,0,0h0ZM43.8,15s0,0,0,0c0,0,0,0,0,0,.1,0,.2,0,0,0h0ZM45.2,15c0,.1.1,0,.3,0,0,0-.2,0-.3,0h0ZM45,15s0,0,.1,0c0,0,0,0-.1,0ZM46.9,14.9c0,0,0,.1,0,0,0,.1.4-.2,0,0ZM45.2,14.8s0,0,0,0c0,0,0,0,0,0h-.1ZM46.3,14.6c0,0-.1,0-.2,0,0,0,0,0,0,0,.1,0,.3,0,.3,0ZM46.1,14.7c0,0-.1,0-.2,0,0,0,.1,0,.2,0ZM45.8,14.7c0,0-.1,0-.2,0h0c0,0,0,0,.2,0ZM48.7,14s-.1,0,0,0c0,0,.1,0,.2,0,0,0,0,0-.1,0h0ZM51.9,13c0,0,0,.1,0,.2,0,0,0-.1,0-.2,0,0,0,0,0,0ZM35.8,15.6c0,0,0-.1,0-.2,0,0,0,0,0,0,0,.1,0,.1.1.2ZM36,15.8c0,0,0,0,.2,0,0,0,0,0,0-.1,0,0,0,0,0,0ZM60.6,92.5s-.2,0-.7.3c0,0,0,0,.1,0,.1,0,.3,0,.5-.2,0,0,0,0,0,0ZM60.6,92.5s0,0,0,0h0ZM60,92.8c-.5.2.4,0,0,0h0ZM62.5,91.8c-.2.1-.4.2-.7.3.2,0,.8-.2.6-.1.7-.3.5-.3.1-.2ZM63,91.4l-.3.2c0,0,.2,0,.3-.2ZM62,92c.2-.1.5-.2.7-.3-.1,0-.1,0-.3.2,0,0,0,0-.4.2ZM61.3,92.1c-1.3.5-1.1.6.2,0-.4.1-.9.3-.2,0ZM66.7,89.9c0,0-.3,0-.3,0l-.5.3c.3-.1.7-.3.8-.3h0ZM66.3,89.9l.7-.4c-.6.3-.7.4-.7.4ZM69,88.7c.2-.2.4-.4.6-.6l-.3.2c-.1.1-.2.2-.3.3h0ZM71.2,87.2c.4-.3.8-.7,1.1-1-.3.3-.8.6-1.3.9-.2.3.4-.2.2,0ZM72.3,86.2c.2-.2.3-.3.5-.5-.2.2-.3.3-.5.5ZM68.2,88.8c0,0,.2,0,.6-.2h-.3c0,.1-.2.2-.3.2ZM68.5,88.7h0c.1,0,.2-.2.3-.2,0,0-.2.1-.4.2ZM68.8,88.4c.1,0,.2-.1.2-.2,0,0-.1,0-.2.2ZM68.2,88.8s0,0,0,0c0,0,0,0,0,0ZM67,89.4s.2,0,0,.1l.4-.2.4-.3-.4.2-.4.2h0ZM68,88.8h0c0,0-.3.2-.3.2l.3-.2h0ZM71.6,86.6c.1-.1.3-.3.4-.4.2-.1.3-.3.5-.4-.4.3-.8.6-1.2.9,0,0-.2.2.2,0h0ZM70.1,87.6s0,0,0,0c0,0,0,0,0,0ZM75.9,82.7s0,0,0,0h0s0,0,0,0h0ZM71.3,86.7c-.3.2-.5.4-.6.5.2-.2.4-.4.7-.5,0,0,0,0,0,0ZM73.8,84.9c-.2.1-.3.2-.5.4.2,0,.5-.3.5-.4ZM70.3,87.5s0,0,0,0c.1,0,0,0,0,0ZM70.3,87.5c.2-.1.3-.2.4-.3-.2.1-.3.3-.5.4,0,0,0,0,.1,0ZM74.9,83.7l-.3.3h0c0,0-.2.2-.2.2.3-.3.6-.4,1-.7.4-.4.4-.6.4-.6l-.6.6-.3.3h0ZM67.5,88.9h0s0,0,0,0ZM76,82.8c.2-.2.3-.4.4-.7-.1.2-.3.3-.4.5v.2c0,0,0,0,0,0ZM77.3,81.4l.3-.4-.3.3h0c0,.1,0,.1,0,.1ZM82,38.8v.2c.2.4.3.6.5.9-.2-.6-.4-1.2-.5-1.1ZM85.7,65c.2-.5.2-.9.3-1.2,0,.3-.2.6-.2.8s-.1.4,0,.5ZM58.6,23.2c.2.1.3.1.3.1-.2-.1-.4-.1-.3-.1ZM86.2,63.1c0-.1,0-.2,0-.4,0-.1,0-.3,0-.4,0,0,0,.2,0,.3,0,.4-.1.8-.2,1.2,0-.2.1-.5.2-.7h0ZM52.1,93.1c-.1,0-.3,0-.7.2.2,0,.4,0,.7-.2ZM81.6,75.5c-.2.3,0,0,0,0h0ZM81.3,75.9c0-.1.2-.2.3-.4,0,0-.1.2-.3.4ZM81.4,75.9c0,.1-.1.2-.2.3,0,0,0,0,.2-.3ZM81.6,75.5c0,0,.1-.2.3-.5-.1.2-.2.4-.3.5,0,0,0,0,0,0ZM86.9,56.7c0,.4,0,.7-.1.9,0,.2,0,.6,0,1.1,0,.5-.1,1.1-.1,1.5v.2c-.1.1-.1.2-.2.3,0,.1,0,.2,0,.3,0,.2,0,.4,0,.6,0,.3,0,.6,0,.9-.5,1.9-.8,3.8-1.3,5.4h0c-.2.6-.3,1.1-.5,1.7,0-.5,0,.3-.3.8,0,.3-.2.6-.4,1-.2.3-.4.7-.5,1-.2.3-.3.7-.5,1,.5-1.1,0-.1-.3,0,0,0,0,.1,0,.2l-.2.5c0,.1,0,0,0,0-.1.2-.2.5-.4.7-.3.5-.7,1.2-.8,1.5,0,0,.2-.2.3-.3,0,0,0,0,0,0,0,0,0,0,0,0,0,0,0,0,0,0,0,0,0,.2,0,.2-.2.4-.3.5-.3.5s0,0,0,0c-.4.4-.6.7-.8,1-.1.2-.2.3-.3.4-.1.1-.3.3-.4.4.4-.4,0,.1-.3.6-.4.5-.8,1-.5.8-.6.5-.3.4-.8.7.3-.4.6-.8.9-1.2-.3.2-.5.5-.8.7-.3.5,0,.2,0,.2-.6.8-1.3,1.5-2,2.1,0,0,0,0,0,0,0,0,0,.1,0,.1,0,0-.2.1-.3.2-.7.6-1.3,1.2-1.9,1.7,0,.2-.3.4-.4.5.3-.2.5-.5.7-.6s.3-.3.5-.4c-.4.4-.8.8-1.2,1.1h0c.1-.1.4-.4,0,0,0,0,0,0,0,0,0,0,0,0,0,0,0,0,0,0,0,0h0s0,0,0,0c-.2.2-.5.3-.7.5.2-.2.4-.4.7-.6-.7.5-.2,0-.1,0-.2.2-.4.3-.6.5-.6.4,0-.2-.7.3,1.1-.5-1.7,1.4-1.4,1.4-.4.2-1.1.6-1.6.9-.6.3-1,.6-.9.3-.4.3-.6.4-.7.5h0c0,0,.2,0,.3,0,0,0-.1,0-.2,0,0,0,.1,0,.2,0-.6.3-1.1.6-1.5.8,0,0,0,0,0,0,.1,0-.4.3-.7.5.4-.2.3-.3.3-.3,0,0-.1,0-.2,0-.2.1-.4.3-.7.4-.2,0-.6.3-1.1.5,0,0-.1,0-.2,0l-.6.3c-.2.1-.5.2-.7.4.2,0,.4-.2.6-.3l.5-.3c-.5.2-1,.4-1.5.6-.3.1-.7.3-1.1.4-.3.1-.7.2-1,.3-.3,0-.6.2-.8.2s-.5,0-.6,0c.8,0,0,0-.7.3h.7s-.8.2-.8.2h-.4c0,.1-.4.2-.4.2-.3,0-.4,0-.4,0-.3,0,0,0-.6,0-.3,0-.6.2-.8.2,0,0,0,0,0,0-.1,0-.2,0-.3,0-.2,0-.4.1-.7.2h.2-.8c-.6.2,2-.3.1-.1,0,0-1.1.4-1.6.3,1-.1.8-.2.5-.2-.4,0-.9.1-1.3.1.2,0,.3,0,.5.1-.5,0-1,0-1.4,0-.2,0-.5,0-.7,0-.2,0-.5,0-.7,0-.5,0-1,0-1.5,0h-.1l.2.2s0-.1.3-.1c0,0,.3,0-.3.1h-.7s0-.2,0-.2c-.3,0-.6,0-.9,0-.5,0-1,0-1.5-.1-.5,0-1,0-1.5-.2-.5,0-1-.1-1.5-.2-.5,0-1-.2-1.5-.3,0,0-.2,0-.4-.1s-.6-.1-.9-.2c-.7-.2-1.3-.3-1.1-.4,0,0,0,0,.2,0,.5,0,.4,0,.2,0s-.8-.3-1.2-.4c.8.3-1.5-.2.5.4-.5-.1-1-.2-1.6-.3-.2,0-.6,0-1.1-.2-.2,0-.5-.1-.8-.2-.3,0-.5-.2-.8-.3-.3-.1-.6-.2-.9-.4-.3-.1-.6-.3-.9-.4-.3-.1-.6-.3-.9-.4-.3-.1-.6-.3-.9-.4.2,0,.2,0,.2,0-.5-.2-1-.4-1.5-.7-.5-.3-1-.5-1.4-.8-.8-.6-1.5-1-1.7-1.1v-.2c-.5-.2-.8-.4-1.1-.5-.3-.2-.5-.3-.7-.5-.2-.2-.5-.3-.8-.6-.3-.2-.6-.5-1-.9,0,0,.2.1,0,0-.5-.3-.9-.6-2-1.6h0s-.8-.8-.8-.8c-.3-.3-.6-.6-.8-.8,0,0,0-.3-.3-.6-.1-.1-.3-.3-.5-.5-.2-.2-.4-.4-.5-.6-.8-.8-1.5-1.7-1.6-2.1-.2-.2-.5-.6-.9-1.1-.2-.2-.4-.5-.5-.7-.2-.2-.3-.4-.4-.6,0,0,0,0,0-.2-.2-.2-.3-.4-.5-.7-.1-.3-.3-.6-.4-.9-.1-.3-.3-.6-.4-.9-.1-.3-.2-.6-.4-.8-.3-.6-.3-.3-.2,0-.1-.3-.3-.7-.4-1-.2-.4-.4-.8-.5-1.1-.2-.3-.3-.7-.4-1-.1-.3-.2-.5-.2-.6-.3-.9,0-.4,0-.7-.4-1.3-.2.3-.7-1.5,0,.2.2.6.2.4,0-.2,0-.4-.1-.6,0-.2,0-.5,0-.8,0-.5,0-1-.2-1.4,0,.2,0,.3,0,.5-.2-.6-.2-1.4-.3-2,0-.6,0-1.1-.2-1.2h0c0-.4,0-.8,0-1,0-.2,0-.3,0-.5,0-.1,0-.2,0-.5,0-.2,0-.6,0-1.2h0c0-1,0-1.5,0-2v.3c0-.6,0-1,0-1.3,0-.3,0-.7,0-1.3,0-.2,0-.8,0-.9,0,0,0-.8.1-1.6,0-.4.1-.8.2-1.2,0-.3.1-.6.2-.8-.2,1,0,.5,0,.3,0-.6,0-1,.4-1.8-.2-.2-.3-.4.1-1.9,0,.2-.1.6,0,.5,0-.2.1-.5.2-.7,0-.1,0,.4,0,.2,0-.3,0-.5.2-.8s.2-.5.3-.7.2-.5.3-.8c.1-.3.2-.6.4-1-.1.5,0,0,.2,0,0,0,.2-.6.4-1,.2-.4.4-.7.2-.5.7-1.4,1.7-3.1,2.7-4.5.2-.4.5-.7.7-1,.2-.3.5-.6.7-.9s.4-.5.6-.7c.2-.2.3-.3.4-.4.1,0,.3-.3.5-.6,0-.1.2-.3.3-.4.1-.1.2-.2.3-.3h0c.4-.5.6-.7.8-1,.2-.2.5-.5,1-1.2-.4.6-.2.4.4,0l.8-1h.3c.3-.4.8-.8,1.2-1.1.1-.2.5-.6.9-.9.5-.4,1-.8,1.1-.9.6-.1,1.2-.9,1.6-.9.1-.1.3-.3.5-.4-.3,0-.4,0,0-.2,0,0,0,0,.1,0h.2c.2-.1.4-.3.6-.4.2-.1.4-.2.5-.3-.1,0-.3.1-.5.2.2,0,.4-.2.6-.2,0,0,.1,0,.2,0,0,0,0,0,0,0,.3-.1.6-.3.9-.5.4-.1.8-.4,1.3-.6.4-.2.9-.4,1.3-.7.9-.5,1.8-.8,2.8-1.1-.3,0-.7.2-.8.3.8-.3,1.5-.5,2.2-.7.3-.1.7-.2,1-.3s.6-.2.8-.2h0c.6-.3,1.1-.4,1.6-.5.5-.1.9-.2,1.4-.3h0c.3-.2.8-.3,1.3-.3.5,0,1-.1,1.5-.2.5,0,1-.1,1.4-.1.4,0,.8,0,1,0,.2,0,.7,0,1.2,0h1.7c.2.1.4.1.6.1.7,0-1-.3.3-.2.1,0,.2.1.5.2h0c.4,0,.7,0,1,0,.2,0,.3,0,.5,0,.1,0,.3,0,.6,0h0s0,0,0,0c.1,0,.2,0,.4,0,.5,0,1,.1,1.5.2h0c-.2,0-.3-.1-.4-.1.2,0,.4.1.6.2.4,0,.8.1,1.2.2.2,0,.5,0,.7.1.2,0,.5.1.7.1h0c.6.1,1.2.2,1.8.4-.5,0,.4,0,.9.2.2,0,.3,0,.5.1.2,0,.4.1.5.2.4.1.8.3,1.1.4.3.1.7.3,1,.4.2,0,.6.2,1.1.3-.2,0-.5-.1-.5-.1,0,0,0,0,.2,0,.3,0,.8.2.6.2,0,0,0,0-.1,0h0c.1.1-.3,0-.2,0,.5.1.9.3,1.4.5.2.1.5.2.7.4,0,0,0,0,0,0,0,0-.2-.1-.3-.2q0,0,0,0s0,0,0,0c0,0,0,0,0,0,0,0,.2,0,.2,0,.8.4.6.2.5.2.8.6,1.4.8,2,1.3h0c-.3-.2.2,0,.8.3.6.3,1.2.7.9.5.6.6.5.3.8.7-.4-.3-.9-.6-1.4-.8,0,0-.2-.1-.3-.1.4.2.7.5,1.1.7.4.2.7.5,1.1.7.4.2.7.5,1,.7,0,0,.2.1.2.2,0,0,0,0,0,0,.8.5.8.5.8.4.1.2.2.3.3.5.2.1.3.3.4.4.5.4.8.7,1,1,0,.1.3.3.6.5,0,0,0,0-.2-.1-.3-.5.4.1.6.2-.6-.5-1-.9-1.2-1.1l1.3,1.1h0c-.1-.1-.4-.4,0,0,0,0,0,0,0,0,0,0,0,0,0,0,0,0,0,0,0,0h0s0,0,0,0c.2.2.4.4.6.7-.2-.2-.4-.4-.7-.6.9.9-.8-.6.5.6-.3-.2-.3-.2-.5-.3,0,0,.1.1.2.2h-.1c.6.5.8.6,1,.9.2.2.5.4,1.1,1-.5-.4-.4-.2-.1.2l.4.4c.2.2.4.3.6.5v.3c.4.3.7.7,1,1.2.2.1.5.5.8.9h0c-.1-.2-.2-.3-.3-.5.2.2.4.5.6.8-.1-.2-.1,0-.1,0,.3.4.6.7.7.8.1.5.8,1.2.8,1.6.1.1.2.3.4.5,0-.3,0-.4.2,0,0,0,0,0,0,0v.2c.2.4.5.8.7,1.1,0,0,0-.2-.1-.3v-.2c-.1,0,0,0,0,0,0,0,0,0,0-.1,0,0,0,0,0,.1,0,.1.1.2.1.2h0s0,0,.1.1c0,0,0,0,0-.1.2.2.3.5.4.7-.2-.3-.3-.4-.2-.4,0,0-.1-.2-.2-.2,0,0,0,0,0,0,0,0,0,.1,0,.2,0,0,0,0,0,0,0,.3.2.5.4.9,0,.1,0,.3.2.4.3.5,0,0,0-.4.2.3.3.6.4.8,0,.2.1.3,0,.3,0,0-.1-.2-.4-.7.3.6.6,1.3.9,2,.4.9.8,1.8.9,2.7,0-.3-.2-.7-.2-.7.5,1.5.7,3,.9,3.9h0c.1.5.2,1,.3,1.4,0,.5.1.9.2,1.4h.1c0,.4,0,.8.1,1.3,0,.2,0,.5,0,.7,0,.1,0,.2,0,.4,0,.1,0,.2,0,.4,0,.5,0,1,0,1.4h0ZM67.1,84.7h0c0,0,0,0,0,0h0ZM65.8,28.1h0c.1.1.2.2,0,0ZM59.1,21.5c.1,0,.2,0,.3.1,0,0,0,0,0,0l-.7-.2c0,0,.2.1.3.2h0ZM76.7,32.5c-.2-.1-.4-.3-.6-.4.2.2.4.4.6.7,0,0,0-.2.1-.1,0,0,0,0,0,0h0c0,0,0,0,0,0h0c0,0,0,0,0,0ZM63.6,26.1c0,0,.2.1.3.2,0,0-.2-.1-.3-.2ZM66.1,28.2s0,0,.1.1c0,0,0,0-.1-.1ZM76.8,43.8s0,.1,0,.2c0,0,0,0,0-.1,0,0,0,0,0,0ZM77.2,44.2c0-.1,0-.2-.1-.4,0,.3,0,.2,0,0,0,0,0,0,0,0,.1,0,.2.2.3.3h0ZM47,93.7h0,0ZM86.2,58.3c0-.3,0-.6,0-.9,0,.3,0,.7,0,1,0,0,0-.2,0-.2h0ZM85.5,50.6c0,.4.2.9.2,1.3h.2c0,.1-.2.2-.2.2,0,.4.1.9.2,1.3,0,0,0,0,0-.1,0-.2,0-.8,0-1.4,0-.3,0-.5,0-.8,0-.2,0-.3,0-.4,0-.2-.2-.2-.4-.2h0ZM84.7,45.7h0c0,0,0,0,0,0,0,0,0,0,0,0ZM83,42.5c.3.6.5,1.2.8,1.9.3.5.6.9.8,1.2,0,0,0,0,0-.1l-.4-.9v-.3c-.1-.2-.2-.4-.3-.5s-.2-.3-.3-.5c-.2-.3-.3-.5-.5-.7h0ZM78.8,34.8s0,0,0,0c-.1-.2,0,0,0,0ZM60.9,21.6c0,0,.2,0,.4,0-.5-.1-.5-.1-.4,0ZM59.4,21h0c-.4-.2-.6-.2,0,0ZM58.1,20.8c0,0-.2,0-.3,0,.2,0,.5.1.7.2.3.1.6.2.7.2-.9-.3-.5,0-.3,0,.2,0,.5,0,.7.1,0,0-.2-.1-.3-.2-.3-.1-.5-.2-.7-.2-.2,0-.4-.1-.5-.1ZM20.8,28.4s0,0,0,0c-.2.2,0,0,0,0ZM8.6,48.2c0-.2.1-.3.2-.5,0-.2,0-.3,0-.4-.1.3-.2.6-.3.9h0ZM10.5,70.3c0-.2-.3-.7-.4-1,.1.5.2.7.4,1ZM46.9,93.7c0,0-.2,0-.2,0h0c-.1,0,0-.1,0-.2,0,0,0,0-1.1,0,.6,0,1.2,0,1.8,0h-.2c0,0,.3,0,.3,0h0c.3,0,.6,0,.9,0-.2,0-.3,0-.5,0,.2,0,.5,0,.7,0h-.2c0,0,0,0,.1,0l-.7.2c.1,0,.2,0,.4,0,0,0,0,0,0,0h0c.2,0,.4,0,.5,0h0c0,0,.2,0,.2,0,0,0,.2,0,.3,0,0,0,0,0,0,0,.2,0,.5,0,.1-.1.2,0,.5,0,.7,0h.9c0,0,.1,0,.2,0,.3,0,.6-.1.9-.2,0,0,0,0,.2,0,0,0,0-.1-.1,0,.5-.1.9-.2.3-.2,1.4-.2,2.7-.6,4-1.1,0,0,0,0,0,0,.5,0,.3-.2.6-.3.2,0,.3,0,.5,0,0,0,.2,0,.2-.1,0,0,0,0,0,0,.3-.1.5-.2.8-.4s.5-.2.8-.4.5-.2.7-.4.4-.3.6-.4c0,0,.1,0,.1,0,0,0,.2-.1.3-.2,0,0,.1,0,.2-.1.3-.2.5-.4.4-.3.1,0,.3,0,.5-.2,1-.7,2-1.4,2.9-2.1.1,0,.2-.2.4-.3.2-.2.4-.3.6-.5,0,0,0,0-.2,0,.6-.4.6-.6.8-.8h0s.1,0,.1,0c0,0,0,0,.1-.1h.1c0,0,.2-.3.2-.3,0-.1.1-.1.1-.1,0,0,0,0,.2,0h.2c.2-.3.3-.5.3-.6,0,0,0,0,0,0h0c0-.1,0-.1,0-.2h0s.2-.2.2-.2c0,0,0,0,0,.2.1-.1.3-.3.4-.4,0,0,0,0,0-.1,0,0,.1-.1.2-.2h0c.6-.6,1.1-1.2,1.7-1.9.7-.8,1.4-1.7,1.9-2.5.3-.4.2,0,.3-.2,0,0,0-.1.1-.2,0,0,0,0,0-.1-.4.4,0-.1.3-.7,0,0,0-.1.1-.2,0-.3.2-.7.5-1.1.2-.2.3-.5.5-.7.2-.2.3-.5.4-.8,0,0,0,0,0,.1.2-.4.4-.9.7-1.3.2-.4.4-.7.4-.8h0c0,0,0-.1,0-.2,0-.3,0-.5.2-.7,0-.1,0-.2.2-.4,0-.1.2-.3.2-.5,0,0,0,0,0,0,0,0,0,0,0-.2,0-.2,0-.5.2-.9h0c.1-.3.2-.6.3-.9,0,0,0,0,0,0,0-.3.2-.6.3-.9,0,0,0,0,0,0,0-.4.1-.7.3-.9,0-.2,0-.3.2-.5,0-.3.1-.7.1-.9,0,0,0,0,0,0,0-.2,0-.5.1-.8,0-.1.1-.3.2-.4,0-.1,0-.2,0-.3h0c0,.1-.2.3-.3.5,0-.2,0-.5.2-.7,0,0,0,0,0,0,0,0,0-.2,0-.2,0,0,0-.2,0-.2,0-.5,0-1.1,0-1.3,0-.4.2-.1.2-.2,0-.6-.3,0,0-.8,0,0,0,.3,0,.2,0-.1,0-.2.2-.4,0-.2,0-.4,0-.6v.2s0-.7,0-.7c0-.5,0,1.9.2.2,0,0,0-.3,0-.6v-.5c0-.2,0-.3,0-.4,0,.4,0,.6,0,.7,0,0,0,0,0-.2,0-.4,0-.8,0-1.2l-.2.4c0-1.7,0-3.4-.1-5.1-.1,0-.2-.2-.3-.7,0,.1,0,.3.1.2,0,0,0-.2,0-.3,0,0,0,.2.2,0-.2-.5,0-.8-.3-1.5,0,.2,0,0,.1,0h0c-.1,0,0-.4,0-.6s0-.1,0-.2c0,0,0,0,0,0,0-.3,0-.7-.2-1.1s-.2-.8-.2-1.2c-.2-.7-.4-1.3-.3-1.6,0,0,0-.1,0-.2,0,0,0-.1,0-.2,0-.1-.1-.3-.2-.4h0s0,0,0,0c-.3-.5-.2-.4-.6-1.1.2.2.2.2.2,0,0-.2-.1-.3-.2-.5l-.2-.2h0c0-.2,0-.3-.1-.4-.3-.3-.7-1.2-1.2-2.3,0,0,0,0,0,0,0,0,0,0-.1,0,0,0,0,0,0,0h0c0-.2,0-.3-.1-.4,0-.1-.1-.2-.2-.3,0,0,0,.1,0,.2,0,0,0-.2,0-.3,0,0,0,0,0,0,0,0,0,0,0,0,0-.1,0-.3-.2-.4,0-.4-.4-.7-.6-1.1-.2-.4-.5-.7-.6-1.2,0,.1.1.3.2.3-.2-.2-.3-.5-.4-.8,0-.1-.1-.2-.2-.3-.1-.2-.2-.3-.3-.5h0c-.3-.3-.6-.6-.8-1h-.1c-.2-.2-.5-.6-.8-.9-.3-.4-.5-.7-.6-.9-.2,0-.5-.7-.8-.9h0c-.3-.5-.5-.7-.7-.9-.2-.4-.5-.7-.8-1-.2-.1-.3-.3-.5-.4-.2-.1-.3-.3-.4-.4h0s-.6-.5-.6-.5c.2,0-.2,0-.3-.2-.2-.1-.5-.4-.7-.7l-.4-.4c.4.2.2,0,.1-.1,0,0-.2-.1-.2-.2h0s-.1,0-.1,0c0,0,0,0,0,0,0,0,0,0,0,0,0,0,0,0,0,0-.2,0-.7-.5-1-.5,0,0,0,.1.1.2,0,0,0,0,0,0,0,0,0,0,0,0,0,0,0,0,0,0,0,0,0,0,0,0-.3-.3-.2-.1-.2-.1-.3-.4-.6-.5-.7-.8.1.2,0,0-.3-.1s-.5-.3-.4-.2c-.2-.3-.2-.1-.3-.4.2.2.4.3.6.4.1,0,.2.1.3.1-.7-.4-1.3-.8-1.4-1.1,0,0,0,0,0,0h0c-.1,0-.3-.1-.4-.2.1,0,.2.2.2.2-.4-.1-.4-.1-.4,0,0,0,0-.2-.1-.3-.3-.2-.7-.4-1-.5,0,0-.2,0-.3,0,.2,0,.3.1.4.2,0,0,.2.1.2.2-.2-.1-.5-.2-.7-.3h0s0,0,0,0c0,0,.2.1,0,0,0,0,0,0,0,0h0s0,0,0,0h0c0,0-.2-.1-.3-.2.1,0,.2.1.4.2-.3-.2,0-.1,0-.1-.2,0-.3-.1-.4-.2,0,0,0,0-.1-.1-.5-.1-1.3-.6-2-1h0s-.1,0-.1,0h.2c-.4-.1-.7-.3-1-.4,0,0-.2,0-.2,0,0,0,0,0,0,0,0,0,0,0,0,0,0,0,.1.1.2.2-.3-.1-.6-.3-1-.4-.3-.1-.7-.2-1.1-.3,0,0-.1,0-.2,0,0,0,0,0,.1,0-.2,0-.3,0-.4-.1-.2,0-.4,0-.5-.1-.3,0-.5,0-.6-.1-.8-.2-.3-.2-.5-.3-.6-.1-.6,0-.6,0,0,0,0,0-.9-.1.2,0,.6,0,.4,0-.2,0-.4-.1-.7-.2h-.3c-.2,0,0,0,.2,0,0,0-.1,0-.2,0h-.8c-.2,0-.5,0-.7,0-.4,0-.8,0-1.2,0v-.5h-1.3c0,0-.3,0-.2-.1-.5,0-1,.1-1.4.3s-.6.2-.4.3c-.3,0-.5,0-.6,0-.2,0-.3,0-.4,0-.3,0-.5,0-.9.1,1.4,0-.3,0-.4.2-.9.2-.3,0-.8,0-.2,0-.5.2-.5.2-.6,0,1-.5.3-.5-.2,0-.8,0-1.4,0-.6,0-1.1.1-1.2.1-.4.2-.1.8.5.8,0,0-.2,0-.5,0-.1,0-.3,0-.4,0s-.3,0-.3,0c-.6,0-1,.2-1.4.4-.4.2-.8.3-1.2.5l.7-.3c0,0-.5.1-.8.3-.2,0-.4.1-.5.2-.2,0-.3.1-.3.2,0,0,.1-.1.2-.3,0-.1.2-.2,0-.2-.4.1-.8.3-1.2.5-.2,0-.4.2-.5.2s-.3.2-.4.3c-.5.3-.8.6-.8.6l1.2-.6c.4-.2.8-.4,1.2-.5,0,0-.4.2-.8.4-.1,0-.2.1-.3.1s-.2.1-.3.1c-.1,0-.2.2-.2.2l-1.1.5c-.4.2-.7.3-1.1.5.3-.1,1.1-.6.7-.5-.9.5-.5.2-1.2.5.5-.3,1.2-.9,1.9-1.3.3-.2.7-.5,1-.7.3-.2.5-.4.7-.5-.4.2-.8.4-1.2.5h-.3c-.4.2-.7.4-1.1.7-.3.2-.6.5-.9.7-.2.2-.5.4-.6.6-.2.2-.3.3-.4.4-.9.4-.7,0-.5-.1-.8.4-1.2.8-1.5,1.1s-.4.3-.6.5-.5.4-.9.6l.6-.3c-.2.1-.6.4-1,.7-.4.2-.6.5-.6.4-.3.1-.7.2-.5,0l-.5.5-.3.3-.3.3c.2-.2-.1-.3,0-.4-.5.4-.7.9-.4.7-.6.4-.8.5-.9.6-.2.1-.3.2-.8.5-.3.3.2.2.4,0-.3.3-.6.5-.8.8-.2.2-.4.4-.5.5,1-1.1,0-.6,0-1l-.9,1.4c-.3.5-.5.9-.8,1.4,0,0,0-.4,0-.4,0,0-.2.3-.4.6-.2.3-.6.7-.9,1.2-.4.5-.7,1-1.1,1.4-.2.2-.3.5-.5.7-.1.2-.3.4-.4.6v-.2c.2-.2,0,0-.2.4-.1.2-.2.4-.4.5s-.2.4-.3.5c0-.1.1-.2.2-.5-.4.5-.5.8-.6,1.2-.1.4-.2.7-.6,1.2.5-.9.6-1.2.5-1.2-.2.4-.5,1-.8,1.6-.2.5-.4.9-.2.8-.3.5-.5,1-.6.9l-.4,1c-.1.3-.2.7-.3,1,0-.2,0-.3-.2.3.2-.6.4-1.1.6-1.6,0-.2.2-.5.2-.7,0-.2.2-.4.3-.5-.1,0-.4.3-.2-.3-.9,2.2-1.1,3.5-1.4,4.9l-.4,1-.3,1h0c0,0-.2.4-.2.4,0,.3,0,.4,0,.5,0,0,0,0,0-.1,0,.2,0,.4,0,.5-.1,0-.1-.3-.1-.7,0-.2.1-.3.2-.5,0-.4,0-.7-.2-.2,0,0,0,.2,0,.3,0-.3,0-.4,0-.3l-.2.8c0,.3,0,.5-.1.8,0-.2.2-.4.3-.7,0,1-.2,2.1.1,1.3l-.2.6c0,.2,0,.4-.1.6,0,.7,0,1,0,1.3v1.5c0,0,0-.4-.2,0,0,.3,0,.7,0,1s0,.7,0,1c0,.6,0,1.2,0,1.3,0,1,.2.4.2,1,0,0,0,0,0,0l.2.8c0,.3-.1-.7-.1.2,0,.7.2,1.3.3,1.8,0,.5.2,1,.3,1.7.4,1.7.1-.8.4.7,0,.2-.1.4,0,1.3.2.4.2.4.5,1.1h-.2c.2.7.4,1.3.3,1.3.3.6.4,1,.5,1.3.1.3.2.3.2.3,0,0,0-.2,0-.4,0-.4-.2-.9-.2-1.1.1.6.3,1,.4,1.4.1.4.2.7.3,1.1l-.4-.9c.6,2.1,1,1.8,1.1,2.8-.3-.7-.8-1.4-.6-1l.5.9c0,.1-.3-.5-.1,0,0,.1.2.3.3.5.1.2.3.4.4.5h0c.3.5.6,1,.9,1.5-.1-.2-.2-.2,0,0,.2.3.5.7.7,1-.1-.2-.1-.1,0,0,0,.1.2.3.3.6.9,1.4,1,.9,1.6,2-.1-.2-.1-.2-.2-.3l.3.6c.2,0,.8.7,1.4,1.4.6.7,1.3,1.4,1.5,1.3.3.4.3.4,0,.2,0,0-.2-.2-.4-.4s-.4-.3-.6-.5c.2.3.4.5.6.8-.3-.3-.5-.6-.8-.8.2.3.4.5.6.7.2.2.4.4.6.6.4.4.8.7,1.1.9.3.4-.5,0,.6.8.4.3.6.4.6.5,0,0,0,0,0-.1-.1-.2-.3-.4.2,0l.6.7c1.3.8,2.1,1.6,3.2,2.3.2.2.4.2.5.2.3.2.6.4.9.5s.6.3.9.5c.3.1.6.3.9.4.3.1.5.3.8.4-.2,0,.5.3.6.4.3.1.6.2.9.3l.9.3c-.8-.3-.8-.2-1-.2.5.2.8.3,1.2.4-.2,0-.5-.1-.2,0,.6.2,1.3.4,1.9.6,0,0-.3-.1-.5-.2.2,0,.6.2,1,.3s.8.3,1.1.4c0,0-.3,0-.4,0-.3-.1-.5-.2-.7-.3s-.3,0-.5,0c.6.2.7.2.7.3,0,0,0,0,.2.2.9.3,1.3.3,1.1.1.2,0,.5.2.7.2.2,0,.4.1.5.2.2,0,.3,0,.5.1s.4,0,.7.1h-.2c0,0,1,.2,1,.2h-.8c.9.2,1,.2,1.2.2.1,0,.3,0,1.3.2h0c.4.2.7.2.9.2.3,0,.5,0,.8.1.8,0-1.3-.3.5-.1.2,0,.4.1.7.2.3,0,.6,0,.9.1.6,0-.3-.2-.7-.2,1.3,0,1.8.2,2.2.3.2,0,.4,0,.7.1.2,0,.3,0,.5,0,.2,0,.5,0,.7,0h0ZM55.7,93.6h.3c.2,0,.3-.2-.3,0ZM83.5,71.7h0c.2-.4.3-.6,0,0ZM84.1,69.9c-.1.3-.3.7-.4,1-.1.3-.2.6-.3.8,0,0,0,0,0-.1.4-.9.6-1.3.7-1.7h0ZM79.5,78.7h0c0,0,0,0,0,0ZM79.5,78.7s.1,0,0,0l.4-.6c-.2.3-.3.4-.5.6ZM82.2,74.3c-.2.2,0,.2,0,.3,0,.3.7-1.7,0-.3ZM51.9,19.4s0,0,0,0c.2,0,.3,0,.4,0-.3,0-.5,0-.7-.1,0,0-.2,0-.2,0h0s0,0,0,0c-.1,0-.2,0-.3,0,.3,0,.5.1.7.2,0,0,.2,0,.2,0h0ZM148,56.7c0-19.8,16.1-35.9,36-35.9s20.7,4.9,27.3,12.5h-3.9c-6-6-14.3-9.7-23.4-9.7-18.3,0-33.1,14.8-33.1,33s14.9,33.1,33.1,33.1,17.6-3.8,23.6-9.9h3.9c-6.6,7.8-16.5,12.8-27.5,12.8-19.8,0-36-16.1-36-35.9h0ZM279.1,20.8l37.4,71.8h-2.8l-13.2-25.4h-42.9l-13.3,25.4h-2.6l37.4-71.8h0ZM279.1,26l-20,38.3h40c0,0-19.9-38.3-19.9-38.3h0ZM324.1,20.8l2.6-.2,34.2,66.7,34.2-66.7,2.6.2-36.8,71.8-36.8-71.8h0ZM433,20.8h2.6v71.8h-2.7V20.8s0,0,0,0ZM502.3,20.8l37.4,71.8h-2.8l-13.2-25.4h-42.9l-13.3,25.4h-2.6l37.4-71.8h0ZM502.3,26l-20,38.3h40c0,0-19.9-38.3-19.9-38.3h0ZM570,21.5h31.2c13.6,0,21.2,6,21.8,17.2v1.3c-.5,11.7-8.1,18.1-21.8,18.1h-10.3l31.9,31.1v3.4l-35.1-34.5h-15.1v34.5h-2.6V21.5ZM601.2,55.6c10.9,0,19-4.5,19.3-16.3-.3-9.9-7.1-15.6-19.3-15.6h-28.7v31.9h28.7Z"/>
</svg>