<?xml version="1.0" encoding="UTF-8"?>
<svg id="Layer_1" xmlns="http://www.w3.org/2000/svg" version="1.1" viewBox="0 0 630 100">
  <!-- Generator: Adobe Illustrator 30.1.0, SVG Export Plug-In . SVG Version: 2.1.1 Build 136)  -->
  <path d="M45.47363,95.18284l-.37842-.01562c-.35645-.00586-.72461-.03906-1.09375-.07227l-.8208-.07031c-.37695-.03125-.75488-.0625-1.13135-.12012l-1.48584-.18945-2.34131-.39941.05078-.08398-.6001-.14258c-.75293-.17383-1.22852-.28418-1.43457-.54297l-.04395.17969-.51904-.10254c-.32471-.06348-.64941-.12695-.97314-.19727-.03613.00195-.07422.00391-.11377.00391-.27783,0-.62402-.06055-1.08838-.18945-.24609-.06934-.51514-.14941-.79688-.25098-.28418-.11035-.5708-.22559-.86719-.34961l-.90234-.37891-.93457-.43652-.90332-.40527c-.29834-.14258-.57959-.27051-.85205-.38379l.01416-.03711c-.4458-.1875-.91064-.39941-1.35742-.6582l-.27002-.15137c-.40918-.22852-.80713-.45215-1.15771-.6875l-.78271-.51855c-.43262-.28809-.75195-.50293-.89062-.58008l-.16309-.09082-.09229-.20312-.83252-.45312c-.28906-.16602-.5166-.32129-.75-.48145-.26611-.18457-.50781-.36328-.80078-.58984-.20264-.15527-.42285-.34766-.68213-.57617l-.67529-.58691c-.36865-.2373-.86328-.61719-1.72412-1.42578l-1.50537-1.41406.15137.0332c-.09521-.09766-.18896-.19727-.28027-.2998l-.38574-.42871.09082-.0791c-.0127-.01367-.02588-.0293-.04053-.04492-.12451-.1377-.27686-.2959-.44531-.46582l-.55127-.59961c-.42334-.44336-1.37305-1.48926-1.63428-2.20996-.20996-.20996-.46631-.54395-.82324-1.01855l-.14404-.19238c-.13184-.17676-.26416-.35352-.38379-.52246l-.34473-.50586c-.11035-.0957-.2041-.22754-.3042-.36914l-.08301-.11719-.01807-.14746c-.06787-.09668-.13721-.20117-.2085-.31543-.1626-.27539-.30664-.5752-.45117-.87988l-.43555-.94043c-.12305-.2998-.23242-.55664-.33984-.76855-.02832-.04883-.0542-.09277-.07617-.12793l-.15137.04199c-.06348-.19922-.16162-.41211-.26367-.6377l-.15039-.33789c-.15723-.35645-.33838-.72852-.5127-1.07617-.16895-.32227-.31006-.64453-.42822-.91699-.19727-.45703-.27148-.65918-.30225-.80566-.10107-.28906-.20117-.58398-.10791-.84668-.28516-.16797-.38232-.61328-.53955-1.33594l.09912-.03027c-.00928-.07031-.01855-.14453-.02637-.2207l-.03711-.78906c-.00977-.2793-.02979-.5332-.05811-.74902l-.05518.01172c-.17773-.5791-.24414-1.24414-.30273-1.83008l-.01562-.15137-.21094.29395-.146-2.12598c-.01953-.26562-.03369-.45801-.03809-.6084-.01123-.19238-.02539-.30078-.04053-.40918-.01855-.13672-.03662-.26758-.0542-.51562l-.00732-.12207c-.01465-.24414-.03516-.58691-.01074-1.10156l.00977-.20508c-.00586-.28027-.00098-.52246.00391-.7373.00635-.29297.01074-.51172-.01562-.68945l-.10059-.00586c.00928-.625.01807-.9668.03076-1.30957.00293-.28613.0293-.58691.07324-1.06738l.02441-.27539c-.00342,0-.00244-.49805.04932-.8457-.04785-.32324.021-.83105.13428-1.6709.03809-.33252.11035-.68262.17627-.99756l.19922-.95117.09131.01709c.02051-.44678.11523-.82861.28809-1.33008-.17822-.38623-.1582-.97119.20508-2.17871l.08057.01953c.00684-.03369.03857-.20947.03857-.20947l.16699-.2876c.01953-.08301.04199-.16602.06836-.24854.07715-.25049.16797-.49854.26855-.76074l.30859-.80762.12012-.29639c.08496-.20752.17676-.43066.26709-.6792l.10791.03516-.00342-.00391c.01758-.02441.03369-.04639.04932-.06689.04102-.23779.17725-.57324.48242-1.07861.09717-.16504.18604-.30908.22168-.39258l-.08301-.06445c.77246-1.48975,1.77393-3.19971,2.6792-4.57422l.70605-1.03223c.17773-.25.35156-.47266.51416-.68115l.16602-.21289c.21191-.27051.40186-.50684.56641-.70361.20264-.22168.36182-.38135.48535-.49219.07373-.05859.16797-.15479.4209-.50586l.26025-.36426c.15088-.19434.25684-.32324.354-.43066l.66504-.7373c.06201-.07666.11963-.14648.1792-.21826l.17969-.20361c.18408-.20703.42578-.47852.84863-.99121l.16309.12744c.07373-.0542.16455-.125.27051-.20752l.85791-1.07666.29199-.05127c.29248-.30713.64014-.56982.97754-.82471l.11572-.08789c.22754-.30273.65283-.68457.97119-.93701l.19824-.1626c.30518-.24951.72314-.5918.8042-.68213l.11719-.13086.18066-.05371c.17773-.04346.43994-.23584.6709-.40576.26904-.19775.52588-.38672.80273-.47852.02295-.11768.0835-.21484.16016-.2959.06885-.33301.40234-.46631,1.27197-.81445l.76562-.32178.10791-.06055.00684.01123c.25244-.11182.48877-.23291.7915-.43457l.05469-.03662.06104-.02295c.36865-.1377.76074-.31396,1.19824-.53955.41211-.22119.85449-.43799,1.30322-.65674,1.00586-.51953,1.98828-.89355,2.92871-1.1167l.00391.01465c.33057-.10303.65918-.19287.98145-.28125l.47412-.13135c.22656-.06738.45557-.12305.67432-.17627l.16162-.04004-.06201-.05469.93359-.31299c.44043-.14746.85156-.25049,1.24072-.34766l.35938-.09082c.33057-.08301.65527-.1626.9873-.22803l.16406-.27197.03711.10303.32373-.04395c.33936-.04639.77197-.12354,1.24463-.21191.45459-.07031.92773-.13477,1.39209-.19727l.15967-.02197c.44092-.06641.91748-.10596,1.49219-.12354l.33057-.00488c.26709,0,.47852.01172.65088.03662.23535-.04736.56201-.05029,1.06641-.05078l1.81104.0083.07471.03711c.10449-.07129.25488-.12012.47168-.12012.08301,0,.50684.01807.50684.01807l.11328.06201c.12646.07031.19238.10742.29004.14111l.57324.01709.00195-.03418c.11035-.00635.22168-.00977.33252-.00977.42676,0,.87988.04541,1.34668.13428l.12451.01758.0625-.02637.26562.03613c.0708.02246.1416.04785.21191.07373.20752.03516.43066.07568.67725.12451l.11523.02295.021-.06396-.01709.06445.03467.00684.02002-.05859c.12451.04199.51904.16016.51904.16016l.68213.08447,1.12256.16113,1.01807.21582.00732.01904.1665.03027c.45996.08154.92041.16357,1.37402.27832l-.00195.01074c.26855.04395.63623.11035.93457.2041.09814.01611.28174.05371.47461.10791.19189.05762.38721.12061.58398.18799.39258.13428.79395.28564,1.12646.42529.21191.06982.45898.16406.70557.2583l.31543.11914c.22021.04248.59131.1582,1.05664.33203v.00098c.29395.0918.51025.21289.61084.396.00684.00244.01416.00537.02148.00781l.03271-.07861.479.19922c.18213.04932.30713.12109.39258.20117.01953.00977.0376.01904.05518.02783l-.05078-.33447,1.07275.72559c.33838.229.62891.39844.89258.55273.21436.12598.42236.24756.62939.38525l.04932-.0957.79443.39795-.06201.11963c.0376.02051.07666.04199.11865.06592l.02295-.0127.02588.04053c.08057.04639.16992.09863.26904.15771.30371.18506.72314.44043.83447.48438l-.06348.15967c.02881.01807.05762.03662.08594.05469l.1792-.17578c.24463.23047.33936.29346.40967.33838.14844.09473.24268.17139.43945.40186l-.06543.06885c.00195.00098.21875.14893.21875.14893l.12939-.19775,1.61084.83545-.55029.19385c.02686.02051.17725.13477.17725.13477l.0835-.14697.77002.37988-.04053.13379.02979.03564c.15918.06396.37402.19287.72803.44482l.04688.0332.03906.04199c.36523.3916.56396.60303.86279.86914l.65283.5498.0332-.04785c.0835.03271.2373.09375.67822.64258.00879.0083.0293.0293.0293.0293.10693.10889.21191.22559.31934.34473.00879.00928.01709.01904.02588.02832l.08057-.10254c.21875.1582.42383.32666.62744.50439l.1123.08789c.1499.11719.30615.24023.46387.37598.21191.19238.4209.39209.63574.61719l-.20752.21729.22949-.09424c.09131.15674.20898.3584.17725.58252h.12012l.22168.35449-.01953.01465.20996.22217-.0376.2417.16699.14453.00928.08105.21289-.22949.65381.58789-.17822.20312c.03662.04492.07422.09277.11377.14404l.09131-.04639c.25879.38232.33936.57812.3877.73291l-.0835.04395.19238.27051.13916.15967c.16357.18604.32715.37256.47754.56885l.03223-.02344.08838.11182h.02881l.64111.21875-.12402.34033c.05078.09277.30371.52783.30371.52783l-.1792.12012c.06787.11621.15234.2417.23096.3584.18018.26807.35254.52441.43652.79346.1167.02344.21094.08008.2876.15186.33545.07666.45703.42627.68896,1.09473l.08984.25537c.2417.07666.40967.32471.63037.75586l-.17773.10059c.00293.00537.00586.01074.0083.01562l.1748-.04541c.01172.03564.03809.1001.06689.17188.07031.17578.14746.38281.16602.47363l-.18604.0708.03809.09082.08057-.03467c.17676.36133.30029.61572.37451.80811-.04443-.0293-.09961-.05713-.16504-.07471.03906.09131.07861.18359.11963.27588l.1001-.05127c.01318.03809.0249.07275.03516.10449l.13379-.0293.12451.3042c.12744.17432.21826.49365.21777.61377l-.00146.375c.02344.04883.11279.24365.11279.24365.37305.88721.75928,1.80469.89502,2.77979l-.00537.00098c.16846.63721.29785,1.25732.41602,1.82471.0249.11963.04932.23633.07324.34912l.09912-.0957.33008,1.43604c.08887.38037.17188.73389.23682,1.07568.0542.32959.10254.64014.146.94873l.29102.19336-.13525.03906.0332.25586c.02539.20117.04639.43555.06934.69336l.15918,1.64648.01758.39941c.02002.50684.03223.99512.0249,1.40918-.00732.34863-.04932.68945-.11768.96191.02295.21191.01611.53613-.01807,1.1377l-.05322.51855c-.03711.34277-.07373.67578-.08203.92383l-.00439.14551-.11963.20215s-.12158.93848-.14062,1.10742c-.02441.2168-.04297.41406-.05957.60449l.03467.00391c.00049.14648-.00391.2959-.01904.44336-.02002.1543-.04395.29199-.07129.42773-.05225.25586-.1167.50195-.18262.73047-.08154.38965-.16748.79395-.3418,1.29297l-.1167.33203c-.19971.91992-.40088,1.79688-.68115,2.65039l-.1001.30664-.02002.00391c-.08252.27148-.43408,1.38086-.43408,1.38086l-.01221-.00293c-.0752.29492-.17725.63965-.31787.91992-.06055.20605-.20508.57031-.36865.93945-.15576.35059-.35303.69238-.52344.98633l-.18018.36621c-.10986.23145-.22021.46191-.34375.68652l-.15479-.07617.00049.14551c0,.0127-.16748,1.1582-.73096,1.36621l.10352.06152-.25049.42188c-.0542.12891-.13477.26367-.25293.35645-.00684.00977-.01367.01953-.021.0293h.41895l-.90723.95703c-.31006.32715-.51953.60742-.72266.87891-.13525.18066-.23584.31445-.33691.43652l.08789.0625-.48291.69727-.11035-.0791c-.0293.04102-.06055.08301-.09375.12695l.00586.0166-.02539.01074c-.05029.06641-.10449.13867-.16309.21582-.09912.13867-.21191.28516-.31299.41699-.11084.14551-.20752.26562-.24707.33496l-.14697-.08398c-.02539.02344-.05078.0459-.07666.06934l.14941.21387c-.26953.20703-.32568.27734-.3667.32812-.10205.12598-.19141.21289-.41846.36426-.05225.06152-.10498.12402-.15869.18555l.11035.09766-1.00977,1.41504-.09814-.42578c-.01953.01953-.03906.04004-.05908.05957l.06348.04297c-.12549.21191-.26221.41309-.40039.61426l-.06885.10059-.12695-.05762-.04102.02539c-.08301.14355-.22852.32617-.48291.62207l-.03857.04395s-.35938.27148-.48828.36719c-.17773.13086-.3291.24219-.5.38281,0,0-.43604.4209-.46729.45215l-.04297.09863c-.03906.09082-.11963.27832-.74609.62988-.12646.08984-.25635.18359-.38916.28125l.09375.08984c-.17139.19434-.35303.37598-.54248.55469-.39209.39062-.75879.7168-1.15332,1.02637l-.21289-.24707.07715.26172c-.16504.07324-.2832.125-.43066.125h-.02881l.00537.02441-.50635.22754-.0083-.01465-.23633.19238-.25244-.08789c-.06689.03906-.13477.08008-.20361.12207l.22168.25195-.19971.18359c-.14502.13574-.29102.27051-.44482.39551l-.17432-.20898c-.01807.01074-.13672.08105-.13672.08105l.03662.0957c-.39355.21094-.59131.26758-.74658.29785l-.03467-.08594-.25879.14648-.35498.25391-.39404.25586.021.03516-.09082.05859-.28223.67578-.35352-.18164c-.06396.03516-.17529.08789-.2793.13477l-.22266.09961-.13574-.25391c-.14746.10254-.33252.2168-.55762.35449l-.05811-.08691c-.17432.09766-.34619.19824-.51709.30273l-.05225.03223-.05713.01953c-.06641.02344-.17578.07422-.32178.14062-.20215.0918-.46387.20996-.76953.33496l-.13135.05664-.0957.05078c.00635.06055.00342.11621-.00732.16797l.00293.00586c-.00146.00098-.00342.00195-.00488.00293-.06738.29102-.39258.44629-.78223.63281l-.09277-.18359c-.03711.01758-.07373.03516-.10986.05176l-.00146.1543h.0083c.05176,0-.00391.01758-.06592.03613-.2251.06836-.37061.11133-.4917.12207l-.09131-.32812c-.02441.00879-.04932.01758-.07373.02637l.07178.21582c-.17725.07031-.32959.12793-.46045.17578l.01709.05859-.49707.1875-.03271-.0752c-.02393.00684-.0459.0127-.06641.01758l.021.13867-.28955.09277c-.24072.15918-.56396.16602-.56934.16602v-.36035c-.01465.00391-.0293.00879-.04346.0127,0,0-.18018.05176-.2666.07715-.32275.09277-.61719.1709-.86768.23047-.04053.00879-.07959.0166-.11719.02441-.14209.08301-.31641.13477-.47461.18066-.02197.00684-.04443.01367-.06787.02051l.02686.17188-1.22168.31641-.43652.09277c-.32422.08594-.43457.10352-.52393.10547-.05176.00684-.08984.00781-.11914.00781h-.14355l-.01855-.00781h-.21777c-.0127.00195-.02637.00391-.04053.00586-.31201.08301-.57861.15039-.8335.19238l-.00342-.01172c-.08545.01953-.15869.03809-.22461.05762-.10205.0293-.46582.15039-.58252.18652l.00439.03809-.81592.15234-.12988.00977h-.49609l-.00098-.00781c-.4248.07617-.79492.0918-.80322.0918l-.13086-.00488-.00244-.12402c-.09668.01172-.19336.02246-.29053.0332l-.01221.17383c-.33057.03516-.66357.05566-.99756.07617l-1.19092.0752c-.17627.00586-.75439.01074-.75439.01074l-.64355.00684c-.14307.13086-.37695.20703-.7002.22754l-1.24072.08105-.01562-.34961-.00004-.00014ZM51.19531,93.36154l-.1001-.55762.23438-.04395-.02002-.07617c.35352-.09375.56641-.14062.69824-.16211.10596-.02344.20801-.0459.29199-.06641l-.01172-.08984c1.25-.19531,2.56201-.56055,3.89893-1.08691l.07715.19629.00732-.22363c-.00928.00977-.02002.02051-.02832.03125.00879-.0127.01807-.02637.02832-.04102,0,0,.00195-.02539.00244-.02539.00732,0,.01221.00098.01465.00293.06543-.08691.15967-.19141.31836-.27148l.10107-.05176s.19775-.01562.23975-.01953l-.00049-.02344.31543-.16016c.27783-.14062.56055-.26562.84229-.38379l.76123-.34863c.27783-.12793.49756-.22852.70166-.33984.18896-.11133.38184-.23535.5542-.37012l.0835-.06543.10205-.03027c.05322-.01562.10352-.02734.15137-.03418l.1167-.07129c.02588-.02148.10107-.07227.1792-.125.11572-.0791.23975-.16309.29834-.21973l.36084.37109-.00488-.16895-.08154-.42285.08105-.01074c.02441-.00586.08691-.02637.21533-.09082.82227-.55371,1.75244-1.22852,2.78516-2.0293l.36768-.29688c.16357-.14258.34375-.2959.51709-.43652l-.03809-.05859c.40234-.25488.46094-.35254.54248-.4873l.06787-.11035.17871.11621-.13623-.20898.06934-.06348c.03467-.04395.15918-.17969.15918-.17969l.17871-.125.13818-.13379c.04443-.05371.11768-.13867.2251-.20117l.09326-.0791.16211-.01562.04053-.02832c.02344-.02344.04248-.04395.05908-.0625l-.00488-.14551.19922-.20703.01904-.03613.01025.00586.02295-.02441.01172.01172.00342-.00391-.0459-.04785.396-.44922.10986-.00879.59131-.64551c.47656-.51562.96191-1.04199,1.43896-1.58887.77344-.9082,1.36377-1.70801,1.80029-2.43945.10742-.13379.21973-.26855.35547-.35938.08789-.19629.24463-.44629.47217-.80859l.01709-.03125c.02881-.42676.3042-.8457.61084-1.27148.16406-.21973.32471-.45312.47168-.69238.16895-.27148.28027-.48438.35156-.66992l.03906.0127c.22607-.5498.50537-1.03906.65674-1.28906l.17676-.29297c.07715-.12598.14502-.23047.18213-.30664l.01953-.37305.20215-.04004c.04834-.23535.09229-.40918.15381-.58496.04688-.13477.10498-.27051.18359-.43555.07178-.14551.15186-.30762.24805-.52051.02246-.05371.03857-.0918.05273-.12598.03369-.28809.12207-.58789.2876-.98145l.18408-.43848c.01855-.06055.31836-1.0293.31836-1.0293l.07178.02539c.0376-.11719.07568-.2334.11426-.34863.07227-.38184.14111-.74316.29736-1.02051l.1167-.40039c.00391-.05762.02441-.19141.04443-.32422.02197-.1416.04443-.28223.05615-.39648-.01709-.08105-.02441-.17578-.01807-.28711l.01758-.2959.02588-.01562.00195-.05176h.06689c.0332-.1582.08447-.31543.13965-.4668l.04102-.10938-.07617-.02734c.0542-.22656.09814-.45703.14014-.68652l.19629.03613-.20117-.10938c.01904-.04102.03223-.08691.04395-.13672l.02051-.11914c.04443-.31641.04199-.5918.0415-.81543-.00049-.26953-.00098-.44629.03906-.59668.021-.11328.05176-.20801.08838-.28711-.07031-.24023.00977-.49902.08154-.7334l.09668.0127c.02686-.05859.05713-.11719.08984-.1748-.00342-.0918-.02051-.35254-.02051-.35254l-.03857-.00488.0708-1.25293.09326-.01367c-.00244-.12598-.00098-.25391.00537-.37695.0083-.18945.0166-.37012.05908-.53711l.12061.0166c.00244-.07617.00781-.24414.00781-.24414l-.17139-.04199c.06689-1.50391.03174-3.08789-.10791-4.83398-.21582-.25879-.29395-.61523-.3374-.9209l.06494-.01758-.03027-.07715.04834-.24219c-.03467-.16309-.04688-.31738-.05908-.46289-.00146-.02344-.00342-.0459-.00537-.06934l-.12988.17578-.04932-1.63965c-.00977-.33105-.08057-.72266-.1416-1.02686-.07568-.38721-.15869-.78125-.24316-1.14844-.2124-.78906-.3501-1.32471-.36523-1.68555l-.07178-.24756c-.08154-.14795-.14746-.27979-.18506-.3916l-.11816-.35547c-.021-.04395-.04004-.08643-.06006-.12988-.05371-.11963-.11377-.24951-.30371-.55762l.14355-.10352c-.05029-.1123-.10156-.22363-.15381-.33545l-.40381-.46875.09668-.14453c-.33545-.4043-.65137-1.12158-1.05664-2.11719-.39795-.10596-.45068-.5874-.47754-.8335l-.01953-.16504-.03955-.15771.23438-.16504-.25732.06641c-.02148-.08252-.04346-.13867-.104-.21777l-.06836-.08936-.0293-.1084c-.06934-.25635-.26807-.53662-.47852-.8335l-.14795-.21289c-.23486-.34082-.50049-.72656-.62842-1.19678,0,0-.12061-.24121-.17773-.3584l-.09131-.15137-.00684.0083-.43115-.52832c-.21875-.26758-.40039-.49951-.56641-.72559l-.14062.06348-.26172-.4209c-.10107-.16162-.26758-.36719-.44189-.58594l-.37695-.48389c-.21143-.28125-.40186-.53467-.49805-.79541-.11816-.11914-.22559-.27539-.34717-.45117-.0918-.1333-.21777-.31543-.28809-.38037l-.20947-.19287.01855-.17969c-.08398-.10107-.16162-.18408-.23584-.25928l-.0874-.05225c-.30225-.18213-.48291-.4458-.61523-.64941-.1167-.13281-.24072-.29102-.37988-.49951l-.07861-.11816-.53125-.48584c-.11621-.10254-.23096-.2041-.33789-.31201l-.16113-.16211-.41504-.3374.00391-.00684c-.11377-.07129-.22559-.14893-.32227-.24023-.27832-.18604-.57617-.48828-.771-.73389l-.34961-.31201.03223-.04102c-.2085-.05713-.50488-.18164-.64502-.41748l-.0752-.05664-.14062.35889-.60254-.90674c-.08789-.13232-.17383-.20898-.28271-.30615-.03809-.03418-.07861-.07031-.12061-.11084l-.05029.07861-.35791-.22021.07422-.1123c-.05469-.03809-.1123-.08057-.17529-.12646-.14355-.10986-.22217-.15527-.24072-.16406l.06738-.14355c-.07178-.04785-.14014-.09326-.20508-.1377l-.20605.10107c-.07715-.06445-.13965-.12646-.19385-.19873l-.03662.05957-1.18506-.40039.14355-.11719-1.97412-.27588,1.13037-.44238-.07568.00195c-.12988,0-.30615-.0332-.54834-.26758l-.0293-.00488s-.01416-.03906-.01514-.04004l-.01904.07861c-.14014-.01953-.271-.05371-.39893-.09717-.21777-.04541-.44922-.11084-.70557-.20898l.09668-.34619c-.0127-.01367-.0249-.02686-.03613-.04053-.00293-.00098-.02393-.00537-.03174-.00635l-.24854.15625c-.06396-.08105-.10693-.15869-.13379-.23145l-.01514-.01562-.0459-.0127-.03076-.05127-.06592-.01904-.01123.08301-.39209-.04053.01904-.25586-.16504-.07959-.07324.07129c-.12061-.07568-.21387-.14941-.2876-.22852l-.24463-.10352-.92578.72998.06641-.95557-.00391-.00098-.00244-.02246-.03516-.02148.02539-.06104-.00488-.04199-.13965-.05908.03955-.01367c-.15625-.06738-.33984-.12988-.5332-.19336l-.1333-.02979-.02393.07324-.14355.00439.10156.14697-.42627-.1377c-.06006-.00098-.15723-.01074-.29834-.03809l.00586-.05664-.14648-.04736-.01465.02393c-.06689-.03027-.12842-.05811-.18457-.08838,0,0-.54541-.17676-.55615-.18018v.00146c-.12744,0-.34814-.05664-.50342-.20264-.19824-.03516-.3457-.06348-.46973-.11377-.22949-.04932-.49414-.11035-.66748-.28857-.08936.04834-.19824.07666-.32812.07666-.14502,0-.35693-.02979-.96387-.17871l.01709-.10498c-.06592-.02148-.13525-.04443-.20654-.06885l-.23926.02344-.55371-.12451-.00244-.03369-.28662.00293-.66895.02295c-.2334.00684-.45312.01025-.67139.01025-.04785,0-.09521,0-.14307-.00049-.1001.06055-.23145.10254-.40137.11182l-1.88916.09863.99854-.73535h-.44629l-.12646-.01807.00049-.00635-.00781-.00195c-.08398-.01855-.18848-.04248-.29199-.08496-.29688.03369-.66846.11035-1.0708.22266-.23828.06836-.3125.10742-.31299.10791.0874-.04688.25635-.23145.22119-.50342l-.41064.05322-.04736.62012c-.21436.01758-.38916.02686-.53857.03418l-.34912.02344.00342.07031-.67041.07031c-.25146.02539-.43164.04883-.53906.06982l-.04199.05908-.22754.04053c-.33252.05908-.49902.07422-.58398.07422h-.18311l.01367.10693c-.08398.0127-.15771.02295-.22217.03076l-.00879.02295-.14209-.00684c-.07129.00635-.12598.00928-.16553.00928h-.27979l-.06641-.06396c-.15088-.04883-.24805-.13232-.31006-.21777l-.48633.11084-.13721.31104c-.16553.37549-.56201.40137-.98193.4292l-.40674.02588c-.08008.00928-.18066.0249-.25977.04346-.58496.07959-.97314.21533-1.3252.34814l-.27344.11426c-.30225.12842-.61426.26074-1.0083.35791l-.02979-.08545c-.02588.00879-.44678.16357-.59814.22363-.08643.03906-.17334.08057-.21582.10693l-.33008.20459-.09424-.06543c-.16309.10156-.39258.20801-.70703.35449l-.00293.00146.16797.10889-2.1377.86523c-.22754.09863-.46436.2085-.70166.31836l-.38574.17822-.06494-.13574c-.01221.00342-.02539.00684-.03857.01025-.05811.01465-.13623.03564-.34814.11621l-.13135-.25732c-.05566.05127-.10791.10107-.15625.14844l-.42871.44922s-.16602.08154-.20264.09863l.01416.03857-.39404.33984-.06885.03174c-.16943.07861-.27148.12744-.33398.16406-.12158.18652-.31641.32422-.80078.58691l-.1001.05469-.14209.01416-.11133.00488h-.34229c-.04443.03662-.34961.27588-.46436.3623l.03955.06006c-.15918.12207-.51514.35693-.85449.57959l-.1499.09912c-.23291.14697-.42139.28174-.48584.34033l-.36572-.40381-.01172.00439.22266.52393c-.13428.06299-.38184.16406-.61328.18359l-.521.53809-.24316.27637-.22314-.1875c-.15234.13867-.24023.26611-.25928.31006.021-.04785.05322-.22412-.06494-.40381l-.32373.2124.34033.52197-.06445.04102c-.49707.31152-.68652.43945-.84424.56006-.12646.09229-.23828.17041-.43506.2959l.08008.08984.24414-.05176-1.11523,1.00488c-.14111.1333-.26807.24609-.38525.34912l-.09766.11523-.05371.01904-.00879.00732c-.28564.25586-.47461.42432-.70312.83105l-.27295-.12549c-.06738.11621-.45996.79834-.45996.79834l-.18555-.08838c-.06641.09473-.14795.2041-.24707.33447-.22314.31641-.54736.7417-.90771,1.19775-.19043.24268-.38086.50488-.57178.7666-.1582.21826-.31689.43652-.47656.64502-.13916.17871-.25928.35645-.37451.52588l-.50879.73584-.05859-.03955c-.04688.06006-.10205.13428-.16162.21631-.11572.15234-.22754.32666-.32471.49756-.10498.17969-.19629.34521-.25439.47217l-.05811-.01807c-.146.23926-.2251.45459-.3125.69287-.13037.40088-.27197.83643-.68604,1.38086l-.07861-.05176c-.06445.12549-.12695.24854-.18457.36426-.16992.39062-.2002.50879-.20508.53516.00977-.05127.00781-.2168-.11621-.36719l-.28662.23682.42383.39355c-.0835.14062-.1582.28027-.22461.40332-.12646.23535-.23389.43506-.36963.56885l-.38184,1.11914c-.07715.22314-.15479.4458-.21436.67529l-.26709-.06006.1499.11865c-.02734.0459-.06396.13281-.12012.27832l-.13184-.04932c-.1123.49854-.1958.96826-.28125,1.44727l-.06104.34229-.37109,1.05811-.22705.75244.104.22656-.36377.4458c-.02002.24316-.03174.36035-.08545.48193l-.04297.09766c-.00244.02881-.00439.08203-.00439.08203l.06348.02295c-.00293.01123-.00635.02393-.01025.03662l.05322.01416c-.09033.36182-.16309.61963-.22168.80029l-.15771.56934-.11279.50098c-.00879.67871-.01465.96582-.02881,1.29004l-.01025,1.7207-.13525.17969c.00195.19727-.00098.40039-.01172.60352-.01953.36133-.05859.72363-.09814,1.05469-.06885.65332-.06494.90137-.05713.99121l.03516.05566.01025.14062c.02588.35645.04834.44629.05273.46094.08008.08008.13477.23926.17871.55371l-.2334.09473.18506.02441.18945.75488-.03809.61719-.02881.00391c.04004.23633.08545.46973.12842.69043.04443.22852.08691.44531.12061.6582.03662.24609.07715.47949.11816.71777.04004.23242.08105.46875.11963.7207.25439.14062.31445.49023.38086.87988l.01953.11328-.02588.11133c-.04395.18652-.08252.34961.08252,1.08398.03516.06738.07959.14844.12549.2334.08789.16309.18213.33496.3667.84082l.0918.25.11035.09277.08496.25586.09277.61133-.18164.04004c.0127.07031.02051.13672.02393.19824.01904.04297.03809.08398.05566.12402l.37256-.06836c.1333.53223.27197.97559.39844,1.36133.15967.44141.27051.80078.31348,1.17773l-.06934.01953c.13818.31348.25537.50879.35205.67188.18896.31543.35254.58789.42578,1.20703l-.06494.01758.07275.11426c.08398.11523.17969.24316.25732.34375l.0498.02832.15479.19336c.04736.09082.07568.17969.08496.26465.21875.3916.43701.78223.67773,1.16113.03027.04492.06396.09766.10107.16113l-.04297.02734s.479.68457.63428.89941c.06299.07617.14502.18066.2627.33887l-.10254.07812c.03223.05371.16309.26367.19141.30664l.25635-.10547.2124.3252-.04004.34082c.11035.11719.20312.19141.29443.26562.28857.23242.51807.44238.84766,1.02734l-.0459.0293.02246.03613c.28516.1709.66748.58398,1.44385,1.50488l.15039.1582c.27734.2959.66992.71387.89404.9082l.1748-.0752.26807.35449c.22168.29395.39014.51758.32275.79004.13965.11523.28125.23047.41504.33301l.16406-.17383c.08643.07617.16553.15137.23828.22168l.22705.19434c.14551.12207.28955.24316.41553.36328l.23193.2207-.05908.26855c.18311.02539.33643.1377.55518.30566l.05029.03906.54736.66211c.6543.44727,1.20215.86328,1.729,1.26367.45898.34863.90088.68555,1.38574,1.01758.04297.02637.08105.0498.11572.06934l.08984-.00098c.17725,0,.31738.06348.6748.27734l1.41162.47656-.62354.13672c.16211.08594.32471.16797.48877.23926l.15527.07227c.25781.11914.50781.23438.74219.34863.28125.13965.53809.27344.76855.39453l-.13184.31641.2168-.21875c.0498.04102.15674.10938.25879.17773.09229.06055.18115.12207.24902.17188l.24121.10059c.17773.0752.35547.15039.53613.21777l.82959.30078-.04932.17188c.10645.03613.21143.07227.32568.11719l-.03174.09668c.35791.12012.76709.23535,1.17725.35059l.0249-.06543,1.11768.3877c.36621.12012.74072.24512,1.03711.37988l.41211.1875.00439-.00781c.23096.08691.42822.14551.60498.19824.19971.06055.36377.1084.52979.15137.16602.04492.33105.08398.51953.12402.18311.03906.3877.08105.64014.10938l.01465.12695.78223.13672-.0166.1709c.04443.00684.07227.00879.08984.00879.09863-.03027.19482-.04297.30859-.04297.18262,0,.46094.03223,1.2832.19336l.51514.10156-.00488.04102c.04346,0,.34912.00293.35742.00293l.0083-.05762.55225-.00977c.10205,0,.3374.01758.7915.06641l.05322.00586.05078.01465c.13818.04199.35205.08984.59131.1377l.00244-.06738.09766.00488c1.21387.06641,1.72559.19043,2.09912.28125l.15527.03711c.17334.04199.33203.08008.56934.10449v-.2373l.19727-.00293c.33057,0,.65869.02051.98828.04004.17627.01172.35352.02246.53125.03027l.01074-.04883.35352.04004.00488.05859.01074-.04199c.09033,0,.18164-.00195.27295-.00586l.00879-.07812.14746.00391c.0918,0,.55762-.01562.55762-.01562l.01416.12695c.02979-.00488.7207-.14258.7207-.14258l.00098-.01074c.01172.00098.02393.00293.03564.00391l.63672-.12695-.07666.11816.8999-.07324.23291.54395.00003.00004ZM587.41309,58.64573h-14.30078v34.54395h-3.70117V20.89426h31.80566c14.02832,0,21.7666,6.14111,22.37891,17.75977l.00098,1.3623c-.55566,12.02197-8.50293,18.62939-22.37988,18.62939h-8.92285l31.05566,30.33301v4.99609l-35.93652-35.3291v.00002ZM601.2168,55.04319c8.3252,0,18.34082-2.72949,18.77832-15.73682-.33887-9.66455-6.95312-15.00879-18.62305-15.00879l-28.25977.09717v30.64844h28.10449ZM323.23438,20.31907l3.79102-.29102,33.86621,66.02197,33.86719-66.02197,3.79102.29102-37.6582,73.54736s-37.65723-73.54736-37.65723-73.54736ZM536.50781,93.18967l-13.17676-25.41504h-42.19531l-13.27539,25.41504h-3.89355l38.34082-73.59814,38.29102,73.59814h-4.09082ZM521.31152,63.8762l-19.00586-36.59863-19.09766,36.55176,38.10352.04688h0ZM432.33789,93.18967l.0498-72.9375h3.75v72.9375h-3.7998ZM313.35449,93.18967l-13.17627-25.41504h-42.1958l-13.27539,25.41504h-3.89307l38.34131-73.59814,38.29004,73.59814h-4.09082ZM298.1582,63.8762l-19.00488-36.59863-19.09912,36.55176,38.104.04688h0ZM183.94629,93.18967c-20.14941,0-36.54248-16.37109-36.54248-36.49316,0-20.0957,16.39307-36.44434,36.54248-36.44434,10.62109,0,20.72461,4.64014,27.71875,12.73145l.81104.9375h-5.32227l-.16602-.16455c-6.18164-6.13135-14.36475-9.50781-23.0415-9.50781-17.94629,0-32.54639,14.55615-32.54639,32.44775,0,17.91895,14.6001,32.49609,32.54639,32.49609,8.79688,0,17.04834-3.46191,23.23389-9.74902l.1665-.16992h5.30518l-.78467.93262c-6.94482,8.25098-17.12207,12.9834-27.9209,12.9834ZM41.31689,16.55002l-.18018.00781.02148.0166-.13037-.01172-.27832.01221c-.04053.01514-.08545.02881-.13428.04004l-.01172-.03369-.20557.00928-.0083.03906-1.04297.00488-.03125-.22754-.09912-.00928c-.1084,0-.24072.02783-.37451.05225-.1167.02051-.2334.0415-.34082.0542l-.56152.06885-.40967.17773.07861.10352-.19141-.05469-.95215.41309.28857-.44971-.13574.02881-1.44092.21045.55664-.68408-.94385-.27881.41455-.34961-.03418-.08496.13672-.08838c-.02246-.03467-.04297-.06348-.05664-.07666l-.18018-.10986-.04004-.18359c-.02393-.07471-.0459-.146-.06592-.21436l-.03564.0293-.05762-.06396-.30615-.6582.19629-.06738-.0127-.04736.21582-.02246.19482-.06641c.12207-.04199.21387-.06494.28271-.07764l.07764-.02148-.00977-.06201c.26953-.03174.50635-.06543.72705-.10352l.51074-.09619c.27979-.06055.55029-.1416.81787-.22754l.36084-.11865c.40088-.1333.81396-.27051,1.24854-.3667.05176-.07617.13184-.16113.25586-.22266l.14941-.07373.12744.01416.10352-.04199c.24756-.10107.50781-.17285.75879-.24023.27539-.07471.53516-.14453.69092-.24365l.13428-.08496s.17139-.00342.17822-.00342c.0376-.02002.07227-.03711.10254-.05176l.06055.07178c.12988.02979.24023.09229.3252.18213l.10693-.4375.04785.0083c.00293-.00928.0459-.0249.08643-.03662.10107-.02832.21484-.06006.34082-.06348l-.00488-.02686c.20557-.07715.33154-.13135.41602-.2002l-.28809-.04639,2.22656-.95801c.06104-.02246.12402-.03516.1875-.0376.01074-.01318.02246-.02686.03516-.04199l.04248.03711.0957-.06201-.03125-.09326.18311-.10156.11279-.05225.09619-.00342c.0249-.0127.05029-.02393.07617-.0332l.0708-.04639c.24707-.12158.50146-.23828.7583-.35596.47217-.2168.96045-.44092,1.41113-.70312l.50781-.29639.03125.05811.01514-.01514c.1333-.38135.55518-.56299.8291-.68115.14941-.06445.33545-.14453.40771-.21582l.02197.01904c.25391-.23877.57324-.38525.78906-.48438.02002-.00879.03906-.01758.05664-.02539l.20947-.38281.17578.10205c.11523-.10352.24707-.18408.4624-.29883.08545-.10938.2085-.22363.40137-.34473l.21973-.1377.54834-.42334.02539.03174c.1084-.09863.23535-.19092.38574-.2417.02393-.02832.04883-.05566.07373-.08301l.21191-.27881.25244-.29932.01172.00391.10205-.12988.12109.12988c.02734-.01172.05615-.02295.08496-.03369.10547-.03271.37012-.10059.41406-.11523l.10205.29834.05225-.45264c.05811-.00049.21338-.05273.31592-.0874l.39844-.11523.17041-.00977c.05908,0,.11475.00635.16748.01855.0376.00537.08496.01465.13672.03125l.07666-.00781c.13818,0,.26465.04248.4126.10596l-.01416.06152c.13574.07764.23389.18848.31201.27832.00342.00098.00684.00244.01025.00342l.04883-.19775.72266.53418.16992.14844c.08594.02002.21436.10352.41064.33838l.01562.01855c.05518.05225.09424.10059.12061.13281-.00537-.00635-.01611-.01562-.03125-.02637l.04102.04932.06787-.07031c.10498.08398.16504.14746.21777.2041.07666.08105.12891.13965.19727.22656.03271.02637.06738.05859.10156.0957.146.09814.25586.24512.34326.38037.09814.16602.2041.38184.24316.51367h-.00049c.12061.06152.22266.15039.30469.26367.08496.13184.13428.25195.1709.39648l-.03223.01416.08496.13428-.08838.18848c.00537.04736.00781.08936.00928.12402l.35645-.12207-.52588,1.18604c-.1416.31885-.37451.77686-.68018,1.14893l-.20312.229c-.0874.08936-.1582.14844-.22412.20264-.10693.08643-.18018.13965-.24609.18115-.06738.03955-.12988.06934-.19043.0918-.06885.08057-.13477.15088-.22314.21045l-.21191.14307c-.04004.0332-.23438.21289-.23438.21289l-.03516-.03174-.06299.04248-.05957-.12451-.44873.60791-.24951-.1875c-.09082.07666-.18848.13623-.27246.1875l-.00635.00342-.16943.42334-.24268-.1167-.01514.09619-.07324.01123-.07617.15625-.41699.01465c-.04736,0-.11035-.00439-.17676-.00977l-.00146-.00977c-.0459.00537-.09131.0083-.13525.01074l-.02148-.18115-.0293-.02002.01807.20361-.14111.10889-.09863-.0249c-.05518.00244-.18164.07666-.2832.13574-.22314.13037-.5293.30908-.9248.30908,0,0-.22168.04834-.2334.05078l-.2373.15771c-.06885.03418-.13379.06592-.19629.0957l.0249.09082-.56201.21045c-.07959.01709-.18115.06006-.29053.10205-.2627.10107-.56006.21582-.84033.21582-.01172,0-.02344,0-.03516-.00049-.09961.03418-.20215.05371-.2959.07178-.05762.01074-.1167.01953-.16064.03467l-.28076.09717-.08887-.05273c-.16455.12744-.36963.19482-.61133.20117-.09766.01855-.21094.03174-.35156.03564l-.02441.00049c-.02441.00879-.04932.01807-.07471.02734-.16455.06104-.32617.11865-.4917.15625l-.10938.0249-.22021.08203c-.0625.0332-.13477.06396-.21436.08496-.25635.10547-.5459.11426-.63623.11426l-.19092.04346-.00098-.00391c-.02539.01562-.05127.03076-.07812.04443l.28613.50977-1.26855-.31055-.12988-.00488.01514.05273-.12891.04053-.02393.01172-.08643.021-.0249-.09375s-.20801.03857-.23779.04736l-.00098-.00342-.21143.03857-.32617.20117.01904.28564-.28076-.12646-.36768.22461-.00293-.05713-.87402.77979.15576-.68848-.4624-.01172c-.04395.01416-.09033.02734-.13965.0376l-.01562-.0415-.69971-.01807-.01807.00635-.00342-.00684s-.15479-.00488-.18213-.00781l-.25244,1.3999-.56396-1.17334.00004.00003Z" fill="#c8a96a"/>
  <path d="M46.69358,20.32191c.02356-.01734-.03271-.12008.12427-.10609-.00623-.02645.13725.09236-.12427.10609ZM52.73617,21.1256c.02619.01493.03323.02129.04821.03113.05056.01304.11975.03265.23625.07029-.05931-.08611.28394.01964-.28446-.10142ZM52.78438,21.15673c-.24654-.06407.1464.09935,0,0h0ZM53.81447,21.54686c.3389.06497.2828.01105.11478-.11002l-.34062-.03304c.05645.0568.34079.14535.22584.14306ZM54.27067,21.41629l-.1734-.03237c.02413.02572.06605.04608.1734.03237ZM53.92879,21.35273c.04415-.04052-.041-.01351-.20279-.02119.12336.01784.24917.02841.37127.05239-.03797-.04206-.02614-.09899-.16848-.0312ZM55.87391,22.21677c.03288-.02622-.06954-.13296-.07618-.18606l-.24608-.05364c.10997.07119.32644.18296.32226.2397ZM55.79773,22.03071l.36944.08068c-.30722-.13129-.37459-.1262-.36944-.08068ZM57.34727,22.7973l-.16716-.02981-.22515-.01107s.39232.04088.39231.04088ZM58.01415,23.31557c.23825.0913.45225.15054.65276.19044-.20039-.06685-.38734-.18938-.62633-.35642-.17168-.00222.1416.19616-.02643.16598ZM58.6669,23.50601c.10563.03727.21303.06745.32901.08395-.10042-.03383-.21023-.05759-.32901-.08395ZM56.97966,22.57635l-.09259-.15511c-.04146-.01711-.08836-.03649-.13594-.05615.01704.03387.0497.09885.22853.21126ZM56.88358,22.41629l.00349.00495c.14383.06926.24357.11729.28629.13788-.0366-.01803-.12376-.06102-.28978-.14283ZM56.71693,22.35089c.01258.00522.02179.00906.0342.0142-.00915-.01457-.01578-.02087-.0342-.0142ZM56.17312,22.07155l.42389.09267-.36115-.17024c-.00275.02815.04895.09163-.06274.07757ZM58.43918,23.18814c.1718.03985.33993.12407.53106.21653-.19193-.12383-.39541-.24327-.59334-.34725-.04243.01445-.1547.02082.06228.13072ZM57.68949,22.80104c.01155.00335.02614.00755.03706.01069-.01756-.01773-.03346-.02818-.03706-.01069ZM60.78993,24.43169c-.00646-.01117-.01252-.0216-.01916-.03306l-.01601.01121.03517.02185ZM58.35156,23.02243c-.14652-.08984-.25055-.11013-.35257-.1224.12004.04517.24729.09339.37791.15738.01904-.00643.02568-.01383-.02533-.03499h-.00001ZM59.53263,23.81781c-.06817-.06013-.14869-.123-.23442-.18709.06154.06917.1937.19597.23442.18709ZM57.76663,22.86168c-.00841-.00222-.01601-.00422-.02511-.00659.04135.04349.03963.03078.02511.00659ZM57.76663,22.86168c.08601.02346.15956.02952.23236.03836-.09791-.0364-.19021-.06694-.27245-.0883.01607.01548.03065.0344.04009.04994ZM60.40093,24.33294c.25483.09641.32152.09465.35383.0769l-.67929-.41668.05473.01583-.1452-.07214c.15052.10834.2454.20865.41593.39609ZM60.82596,24.51287l-.12988.0506.39815.05575s-.26827-.10634-.26827-.10635ZM61.53328,24.94632l-.07732.06327.21406.07194-.13674-.13521ZM74.95623,40.67073l.0577-.1202c-.1006-.16415-.15418-.30106-.1885-.4231.03992.2859.04821.6186.1308.5433ZM68.08188,30.35627c.13365.19938.25072.34701.36103.47001-.15224-.24648-.24603-.47541-.36103-.47001ZM77.81826,65.44536c-.00675.11677.00315.16981.02654.17182.00864-.12013.00389-.1901-.02654-.17182ZM68.44291,30.82628c.11575.17923.24769.38317.45522.50808-.01956-.03832-.04243-.07267-.06371-.1105-.12753-.11787-.2482-.24291-.39151-.39758ZM49.28504,93.566c-.05833-.00166-.15464.00819-.31929.03843.07612-.01377.20136-.02581.31929-.03843ZM64.21699,26.93071c-.14166-.10461-.02894-.00839,0,0h0ZM64.03947,26.7278c.04375.05146.09665.10746.1567.16516-.02339-.02908-.07057-.07978-.1567-.16516ZM64.0369,26.78899c-.04501-.0411-.08024-.07336-.11392-.10411-.02797-.00011-.01939.02079.11392.10411ZM64.21699,26.93071c.04106.03131.09899.07552.19501.14876-.07966-.06159-.14989-.1241-.21583-.18651.02265.02714.03031.0408.02082.03775ZM62.80259,25.84473c-.00761.02323.0171.08078-.03677.05384l.29218.17893c-.15241-.10368-.19078-.16297-.25541-.23277ZM62.76581,25.89857l-.03351-.02052c.0139.00979.02453.01603.03351.02052ZM64.71951,27.22999c-.08321-.09879-.1412.04708-.17202-.02858-.18975.00755.75604.41182.17202.02858ZM84.03459,42.98188c-.04569-.11189-.10866-.26599-.21583-.52821.00961.19692-.30127-.57331.24866.65115-.0175-.06552-.02259-.08463-.03283-.12294ZM84.03459,42.98188c.2315.54317-.09665-.37815,0,0h0ZM83.25848,41.19531c-.03426-.16355-.32535-.79305-.18861-.57358-.18238-.35572-.28829-.47934-.30447-.47318-.0223.00931.03397.15415.10448.37211l.3886.67464h0ZM80.47949,36.31466c-.05736-.01949.06588.27105.05925.34476l.35617.45115c-.144-.25741-.43818-.73292-.41542-.79591ZM80.53874,36.65942l-.53174-.6729c.42228.63624.52528.73529.53174.6729ZM78.90056,34.00292l-.6539-.58757.27639.26526s.3775.32232.37751.32231ZM76.51789,31.34478c.18026.20468.36801.43381.57155.69872.29561.21916-.24671-.44532.04289-.19281-.20502-.21466-.4041-.40507-.59499-.57882-.19599-.16882-.38946-.31565-.5692-.45757.18077.16092.36652.32869.54976.53049h0ZM75.37125,30.33304c.18266.15757.38105.31201.59688.48126-.19358-.16939-.38917-.3307-.59688-.48126ZM78.95775,34.53257c.06131.08237.13073.17558.20113.27016-.02219-.0663-.05261-.20316-.32243-.60269l.1213.33253ZM78.96227,34.54405l-.00452-.01148c-.21332-.29657-.37773-.48922-.44573-.57373.05742.07346.20479.24022.45025.58522h0ZM79.20944,34.8708c-.01859-.02502-.03225-.04345-.05056-.06807.01138.032.02042.04968.05056.06807ZM79.06464,34.94664l.29235.33463-.19467-.27356s-.09768-.06106-.09768-.06107ZM76.25826,31.4689c.08738.09635.17408.19196.25964.28632.072.03078.26599.15676-.11306-.25177-.30213-.25408-.6153-.54743-.96232-.88553.17889.18831.36063.37974.54164.57029.09173.09395.18329.18768.27411.2807,0,0-.00002,0-.00002,0ZM77.68078,32.95381c-.0187-.01964-.04266-.04481-.06016-.06324.02768.04694.05301.08184.06016.06324ZM71.84704,27.49096c.01716.02085.03237.03922.04993.06048.00852-.00116.01533-.00327.02516-.00342l-.07509-.05706ZM76.56273,31.83255c.24866.30106.42423.45563.59797.59845-.20468-.20835-.41822-.43173-.6428-.67579-.03243-.01384-.04352-.01168.04483.07734ZM74.36187,29.45872c.13685.15248.29595.3206.46438.4953-.12524-.15693-.39277-.46681-.46438-.4953ZM77.55708,32.77131c.0147.01314.02728.02558.04169.04128-.06731-.11133-.06651-.09083-.04169-.04128ZM77.55708,32.77131c-.14686-.13868-.27251-.23839-.39638-.3403.16825.16809.32438.3241.45991.45957-.02574-.04162-.04724-.08727-.06353-.11927ZM73.21894,28.63201l.29275.22491c-.31431-.27941-.52231-.49926-.90536-.90973-.50241-.35753-.63137-.39836-.68421-.39917.47953.36967.93521.76972,1.40353,1.15312,0,0-.10671-.06913-.1067-.06913ZM71.96656,27.379l-.76999-.37988.54787.35124.22212.02864ZM70.31357,26.20987l-.44825-.23242.33593.27173s.11232-.03932.11232-.03931ZM13.50917,75.99013l.25586.32912c-.11729-.15808-.19587-.25779-.25586-.32912ZM11.99927,73.38941l-.07663-.04286c.08933.1105.13325.15164.07663.04286ZM24.94355,24.97983l.21852-.01041c.36464-.23992.6527-.41096.91257-.52826-.58321.23543-1.2505.48877-1.13109.53867ZM8.19185,48.7808c-.02242.17844-.04787.38092-.07457.59336.02391-.05453.04884-.11135.07355-.16769.00034-.15305.00069-.297.00103-.42567h-.00001ZM8.24429,50.66071c.05656-.17288.12644-.42188.21469-.77431l-.21469.77431ZM25.18815,87.34894l.46981.16033c-.64624-.391-.39072-.17341-.46981-.16033ZM11.94076,75.55015c.15235.21423.22858.29861.24443.27985-.15515-.22081-.25152-.34086-.24443-.27985ZM49.35824,19.08345c.0943.015.18644.02965.28223.04491.39352.01338.79092.0193,1.26891.07246-.47227-.09083-1.02042-.14936-1.55114-.11737ZM63.56921,22.49877c.37282.15217.06331.01457,0,0h0ZM45.37766,19.67247c-.01167.00016-.02093.00029-.03426.00046.11832.01764.09796.01424.03426-.00046ZM64.10455,22.78363c-.13033-.07772-.288-.15112-.45843-.23403.0724.04159.21423.10754.45843.23403ZM64.05177,22.70332c.12324.06408.22001.11439.31231.16237.05307.00643.01721-.0233-.31231-.16237ZM63.56921,22.49877c-.10895-.04531-.26267-.10929-.51756-.21533.21217.089.40759.17797.59448.26616-.06983-.03754-.09791-.05597-.07692-.05083ZM18.53232,31.52333c.01144-.01431.01761-.02197.02808-.03503-.01378.01208-.03117.02726-.04358.0381,0,0,.0155-.00307.0155-.00307ZM17.78102,32.10611l-.1722.4753c.30144-.53612.57138-.75175.90799-1.05501l-.54461.11602-.19118.46369ZM42.79294,93.32379c-.03191-.00222-.06188-.00396-.08819-.0049.03065.00153.05839.0033.08819.0049ZM70.48799,87.26925c-.02911.01005-.06199.02473-.09322.03739.01533-.00199.04472-.01333.09322-.03739ZM12.79065,74.86468c.02894.04549.05639.09186.08601.13695-.03214-.05502-.06022-.09872-.08601-.13695ZM8.42061,49.81955c-.0342.07552-.05959.09322-.08453.10762-.00172.11454.02002.12105.08453-.10762ZM25.18815,87.34894l-.0871-.02981.03752.02425c.02471.00685.03969.00768.04958.00556ZM40.13868,20.62917c-.2713.02892-.42503.03331-.52866.02852-.00972.03048.11667.03347.52866-.02852ZM67.23634,24.27908l.08058.04032c-.03448-.01846-.05976-.03087-.08058-.04032ZM67.20694,24.3373c-.00303-.02815-.09522-.11479.0294-.05822l-.70091-.35065c.37356.19672.49366.29104.67151.40887ZM38.48077,20.50737l.2597-.05866-.08435-.23257-.17534.29124s-.00001,0-.00001,0ZM26.46776,25.43787c-.60277.4373-.95163.60836-.57812.57055.53718-.29152.5799-.36175.61147-.42303.03054-.06261.05239-.11216.55639-.34454.22464-.1886-.82444.38058-.58973.19702h-.00001ZM26.46776,25.43787c.09819-.06715.20233-.13835.3134-.2143-.18095.11647-.2649.1733-.3134.2143ZM9.63593,67.12863c-.00366.12762.04444.30435.14577.65683l-.09276-.61098-.05301-.04585ZM14.16685,76.93389l.02459-.20997-.09997-.15312.07538.36309ZM19.54525,82.72581c-.06966-.0687-.14532-.14027-.22893-.21393.0704.07184.14829.14307.22893.21393ZM20.18016,83.2753c-.18998-.18076-.42343-.36359-.63491-.54949.42371.41797.59854.71621.63491.54949ZM36.5909,16.14898c-.08647-.00363-.04438.0684-.05519.08192.14063-.0207.04861-.1008.05519-.08192ZM38.14038,15.8673c-.06931.02153-.10397.03225-.1734.0536-.00783.01242-.01167.01864-.0195.03105.07726-.03374.11587-.05067.1929-.08465ZM38.56192,15.86101c-.01733-.01024-.02608-.01537-.04341-.02562-.03454.04259-.05176.06388-.08636.10641.27943-.03411.63205-.12715.83656-.10853-.14692-.11356-.46678.05609-.7068.02774,0,0,.00001,0,.00001,0ZM39.85011,16.03971c.0167.00382.02185.00645.0318.00949.02779-.00329.06634-.00663.13268-.00925-.05284-.04394.14109-.05452-.16448-.00024ZM39.8819,16.0492c-.136.01584.09779.03215,0,0h0ZM40.50584,15.9612c-.06794.02436-.10197.03652-.17014.06068.04364.02455.20491.01481.15001.04132.17912-.04201.13485-.06627.02013-.102ZM40.5672,15.88178c.01887.01015.04432.01172.08876-.02769-.03551.01111-.05324.01664-.08876.02769ZM40.47987,15.90476c.00818-.03799-.0231.00094-.10122.03509.07549-.0231.11323-.03471.18855-.05806-.03025-.01717-.04163-.05667-.08733.02298h0ZM40.26301,15.93211c-.10637-.01694-.23979-.02133-.06897-.08121-.33925.04994-.27056.13188.06897.08121ZM39.30973,15.70038c-.05667-.01009-.08498-.01517-.14166-.02539-.04335.02017-.06508.03027-.10854.05037.05433-.02496.26616.013.2502-.02498ZM41.63389,15.90004c.00492-.02736-.07635-.06205-.09745-.09373-.04981.01827-.07469.02739-.12461.04557.07183.00984.20394.01072.22207.04817h0ZM41.53644,15.80631c.07452-.02735.11169-.04109.18598-.06867-.17666.01647-.20388.0413-.18598.06867ZM40.65784,15.7145c-.12136.05127-.18215.07673-.30402.12737.14686-.05363.22006-.08067.36612-.13521-.02482.00315-.03729.00472-.06211.00783h.00001ZM42.38507,15.80659c-.03843.03004-.05765.04505-.09619.07503.07023-.04691.10534-.07041.17534-.11752-.03163.01701-.04747.02552-.07915.04249ZM43.26246,15.69526c-.10391.03796-.22241.05001-.38431.03133-.06914.06144.13422.06757.05536.1107.13234-.02848.23596-.08819.32895-.14203ZM43.26246,15.69526c.05513-.02027.10797-.04549.15818-.08219-.05147.0203-.10243.05024-.15818.08219ZM42.23209,15.76186c-.03803-.02509-.05702-.03764-.09499-.06279-.02362.00275-.05033.00586-.07743.00899.01899.01373.05822.05107.17242.0538ZM42.13378,15.69706c.00132.0008.002.0012.00332.002.08407-.00895.14234-.01533.16734-.01804-.0215.00206-.07286.00699-.17066.01604ZM42.04016,15.71024c.00715-.0008.01247-.0014.0195-.00219-.00915-.00622-.01424-.00805-.0195.00219ZM41.18913,15.7243c.10626-.0542.33633-.12619.08944-.16162-.07114.05976.0704.08004-.08944.16162ZM41.71024,15.64069c.00869.01882.05296.04233.00069.0697.0847-.03151.12696-.04734.21143-.07916-.08481.00395-.12725.00585-.21211.00946,0,0-.00001,0-.00001,0ZM42.01854,15.59492c-.03843.01455-.0577.02182-.09619.0363.03145-.00147.04718-.00223.07863-.00373.00698-.01302.01052-.01954.01756-.03257ZM43.04858,15.59871c.08109-.04489.17797-.06222.2868-.0842-.12181.00386-.24597.01447-.36206.0317-.01052.02526-.0509.07386.07526.0525ZM42.60296,15.64192c.006-.0022.01327-.00486.01887-.00695-.01378-.00445-.02413-.00506-.01887.00695ZM44.41562,15.33833c-.00841-.00406-.01264-.00609-.02099-.01015-.00023.00528-.00029.00791-.00051.01318.00858-.00122.01287-.00182.0215-.00303ZM42.94992,15.53556c-.09247-.00102-.14109.02441-.18609.05413.06474-.01686.13399-.03178.20948-.04348.00469-.01139.00429-.0184-.02339-.01065ZM43.71397,15.53148c-.05027-.00778-.10609-.01227-.1643-.01548.05136.01588.1531.03699.1643.01548ZM42.65706,15.6509c-.00503.00204-.00755.00307-.01258.00512.03323.01154.02762.00439.01258-.00512ZM42.65706,15.6509c.04318-.01696.07469-.04006.10677-.06121-.05273.01348-.10105.02841-.142.04528.01235.00363.02545.00988.03523.01593ZM44.8327,14.80201c-.08801.03426-.13216.05128-.22046.0852-.00972-.01827.06605-.06381-.00355-.06964.00355.06964-.20891.17253-.42743.13449-.18169.0836.00686.28269.21337.37612-.00217-.03027-.00955-.05696.18089-.13219-.08104-.02403-.47181-.00796-.31854-.09778.25752-.08035.22538-.01411.36515-.00182-.13399-.06375.30345-.18252.21057-.29438ZM44.00666,15.38684c-.03248.00885-.04873.01328-.08121.02209.09842-.00393.17397.01158.31408.04269.12976-.05633.15138-.08631.15458-.11026-.1651.02469-.24774.03673-.41325.06022.01029-.00589.0155-.00885.02579-.01474h.00001ZM43.6438,15.2636c-.24351.04419-.15527.08846-.29372.14286.3918-.07928-.10317.05899.19456.0554-.07463.02469-.14377.03942-.20925.05266.07389-.0021.14577-.00182.21429.00149-.004-.00122-.00686-.00207-.01029-.00312-.00069.00021-.00109.00031-.00177.00054,0-.00049,0-.00074.00006-.00123-.01956-.00642-.02671-.01109-.00595-.00882.00103-.00112.00578-.0022.00783-.0028-.00006-.01061.00492-.02065.01052-.03042.11895-.00302.02316.01616-.01052.03042-.00034.00377-.00257.00768-.00189.01162.00069.00027.00103.00041.00172.00069.15475-.04106.23196-.06185.38608-.10396-.08664.0037-.19107.02303-.3755.06082.04575-.08351.23785-.14662.09385-.20615,0,0-.00003,0-.00003,0ZM41.45609,15.37856c.01395.00503.01458.01037.01676.01561.02385-.01217.0322-.01953-.01676-.01561ZM41.4987,15.47205c.13262.00469.30213.04668.35463.07083-.0565-.05247-.11026-.09227-.22218-.13976-.02671.01388-.04409.04645-.14057.05021-.08733-.01228-.00778-.03543-.01773-.05916-.0525.02641-.18769.07693-.00017.09133.01041-.00538.01561-.00806.02602-.01345ZM41.85332,15.54288c.00526.00493.01058.00935.01601.01454.00532-.00283-.00234-.00824-.01601-.01454ZM42.5977,15.42415c.12919-.03308.19364-.0498.32237-.0836-.07395-.01553-.11089-.02335-.18478-.03912.00732.01478.01092.02218.01824.03696-.19221.01205-.13977.05306-.15584.08575h.00001ZM44.4417,15.45253c.06382-.05667.09562-.08507.15904-.14194-.05484.02303-.0823.03451-.1372.0574-.00875.03383-.0131.05074-.02185.08454h.00001ZM44.89144,15.35227c.04038-.02432.06051-.03652.10077-.06089-.04181-.00349-.06268-.00522-.10448-.00876.00149.02785.00223.04179.00371.06965ZM55.19307,12.42502c-.02905-.02103-.04358-.03155-.07257-.05261-.0831.04727-.15521.06641-.22041.07435.1559.00845.34279.04208.29298-.02174ZM58.49957,7.78447c-.02934-.02615-.06234-.05557-.09688-.0865-.00269.01314-.00549.02696-.00829.04063.03769.0165.07303.03188.10517.04587ZM49.16849,14.29594c.12719-.00323.22447-.01661.30733-.03537-.1559-.00263-.29201-.03397-.30733.03537ZM53.83683,5.68001c-.03666.04354-.04038.06754-.02985.08006.03088-.04142.05096-.0726.02985-.08006ZM49.8121,14.16765c-.02322-.00139-.04472.0006-.06783.00039-.08052.03554-.16259.06876-.26845.09253.11518.00223.24117-.0118.33627-.09292h.00001ZM35.34292,14.57198c.04815-.01608.1372-.0381.21995-.05969-.04844.00668-.11804.02426-.22075.05936.00132.00189.00423.006.00726.01021-.00154-.00239-.00315-.00483-.00646-.00988ZM46.60139,14.97579c-.08773.02392-.01155.01104,0,0h0ZM46.10144,14.73724c-.00194.01903-.01087.03273-.02465.04271.01641-.01208.02757-.02546.02465-.04271ZM50.49911,13.47998c.00257-.00066.00463-.00119.00749-.00193-.03082-.00635-.02539-.005-.00749.00193ZM46.45647,14.9715c.03637.0018.07738.00099.12113-.00282-.02024-.00166-.05719-.00124-.12113.00282ZM46.48552,15.00197c-.03174.00379-.05662.00673-.08029.00954-.00743.01448.00503.02.08029-.00954ZM46.60139,14.97579c.02591-.00646.06251-.01557.12301-.0308-.05061.01222-.09934.01909-.1468.02369.0191.00113.02774.00365.02379.00711ZM35.56287,14.51229c.17517-.04597.33776-.09286.0119-.07526.28103-.03248.52797-.06795.75775-.10762.12381-.02215.18564-.0334.30905-.05625.07583-.01333.15104-.02821.22561-.04439.2983-.06477.58716-.15045.87179-.242.56926-.18311,1.12131-.38923,1.70578-.50236.06954-.03377.00835-.0557-.03248-.0702.25266.03174.16665-.11591.26947-.16713.14692.01697.22041.02521.36733.04119.09716-.08341-.01853-.09448-.02465-.12577.53992-.22041,1.14635-.28025,1.53999-.53049.16711-.00353.02842.12542.22201.07124-.32941-.04672.49663-.27712.28257-.3154.26124.08204.67231-.232.71252.01049.22458-.07703.12868-.16336.05547-.1563.25592-.09605.45826-.18055.62347-.33337.1643-.00992,1.09323-.55059,1.40365-.49736-.2084-.03123-.01984-.05712.09499-.16706-.0724-.01134-.1086-.01707-.18095-.02865.12999-.05569.19479-.08372.32403-.1402.05953-.03913.07989-.04411.08435-.03606.05639-.02132.01841.05706.16836.01377.21869-.09811.19919-.15168.28869-.25459-.0163.00122-.02448.00183-.04072.00305.05599-.03171.0839-.0476.13971-.07946.10814-.04988-.32323.27305.05273.14622-.00995-.02661.12227-.24282.25432-.22683-.1794.08397-.11947.13339-.0382.12659.10088-.04704.15121-.07067.25152-.1182-.06039-.02751-.09064-.0413-.15092-.069.712-.35063,1.48491-.65928,2.20389-1.07827.05336.09959.51264-.28956.54204-.11468-.01464.0012-.02196.0018-.0366.00297-.06417.04471-.05982.0663-.0235.0707.07755-.04461.15412-.09153.2315-.13658.0215-.0728.10368-.18847-.15384-.05686.09465-.0919.14177-.13797.23562-.2303-.02591-.35431.7561-.42606,1.10787-.77032-.0219.02842-.01967.04698-.0175.05727.30693-.31461.86293-.45801.91588-.55393.03328.01947.04998.02921.08338.04862.22658-.31174.25575-.34422.64589-.54989.00377.01443-.02259.06307.04501.03817.04741-.11102.09573-.22174.34822-.37984.00263.01147.004.01721.00663.02868.14795-.11228.22149-.16869.36778-.28208.16007.21251.53415-.59724.82381-.45565.02345-.11521.27462-.3387.36887-.45884.00789.00814.0227.01164.04998.00602.03225-.10937.16791-.19541.31048-.24671.15035-.04592.30024-.07656.40576-.11299.12765-.07862.05707-.10243-.0219-.12351.15933-.00174.34971-.07037.53014-.13086.08984-.02618.1762-.0535.24763-.0715.07029-.01102.12547-.01415.15264-.001.22172.02268.07406.10524.12805.16652.31151.0205-.02053-.2492.38871-.07327-.05044-.00262-.1452-.0041-.1122.01563.08104.01974.16871.13451.25197.2277.08527.0912.15452.1919.23631.18539-.0302-.03105-.04524-.04658-.07526-.07766.06989.00791.14063.03571.20291.07733.06136.04385.11747.09555.16739.14058.10025.08979.16865.16748.23602.09889.00846-.03368.0127-.05053.02105-.08421.09036.07962.14343.12659.18037.15738.03786.02931.06131.03926.08527.04904.04718.01946.10203.03586.25558.21921l-.01373.00708c.175.11318.1726.26895.3484.23666-.01596-.02406-.02391-.03611-.0398-.06019.10111.08031.14423.13622.19364.18636.04832.05127.09476.10488.17357.20865.0294.01561.1297.09957.1261.14655.04987-.02805.15315.08859.24414.2292.08458.14515.1587.30934.17557.36665-.1054-.18258-.10774-.06913-.1269.0023.13474.06981.1949.14336.17832.32698.07452-.01214.15212-.02293.22727.0122.03729.01771.07515.04658.10935.0935.03054.04831.05816.11456.08058.20336-.03466-.05076-.06685-.13308-.0887-.09067-.02179.04269.02962.11595.0469.14174-.02248.04048-.07109-.06625-.11346-.01666.10134.09964.10809.20851.11272.32652.00966.1186-.02614.25216-.0032.42943-.04226-.11358-.07269-.01673-.12988.01892.08361.01693.02745.1354-.02007.22823-.04335.0935-.09762.16336.03197.11857-.14549.32766-.35114.71592-.60048,1.01889-.06462.07346-.12742.14427-.18661.21078-.06285.06307-.12913.11532-.18764.16376-.05931.04767-.11438.08823-.16373.11943-.05084.02938-.09871.04637-.1372.05493-.09928-.00059-.18712.18698-.28983.25591-.01212-.02522-.01819-.03783-.0302-.06305-.10443.13655-.15635.18085-.21309.2282-.05793.04682-.11747.10347-.26999.24345.10917-.14422.02219-.1439-.16024-.12863-.0712.09789-.107.14679-.17894.24445-.03923-.02914-.05879-.04374-.09791-.07294-.08104.08009-.20096.11266-.32106.14473.05387-.02392.01996-.01964.00772-.03543.01407.15483-.43469.32177-.47152.41288-.1758-.08447-.28097.15302-.42234.06349-.02751.03276-.06731.06643-.11272.09919.08144.03573.13256.09162.0183.10343-.00841.00423-.0147.00743-.02265.01149-.03231-.02336-.0485-.03506-.08069-.05846-.09385.0579-.19439.10743-.26284.13564.03448-.00556.07726-.00536.12313-.00283-.0497.00589-.09734.00756-.14274.01071-.01395.00555-.02768.01067-.03729.01337.00538-.00472.01224-.00891.02047-.0123-.07143.00651-.14057.02269-.21823.0827-.41645.02097-.73248.46263-1.20869.44376.068-.00493.15687-.02828.16734-.06378-.33364.12779-.71881.13358-.90799.26529.01864.02671.02802.04006.04672.06674-.23528.11712-.4192.20425-.6237.26534.00944.03416.01413.05124.02362.0854-.30745.06571-.89038.39622-1.14132.28117-.04627.0877-.42011.10308-.58161.17438-.02716-.02039-.04078-.03058-.068-.051-.22967.04295-.35829.10398-.48439.15951-.50263-.00729-.87431.23473-1.2776.32613-.00412-.00703-.00623-.01057-.01035-.01761-.15555.05923-.23356.08857-.38991.1467.0863-.08425-.06622.05986-.19444.07316-.11907.06251-.33599.09568-.50378.08911-.10488.0227-.15733.03391-.26244.05613.27617-.10925-.05141-.08869-.09253-.15991-.05879.0389-.08824.0583-.1472.09704-.07909-.02115.08841-.08235-.04003-.07124-.09865.0647-.43069.13341-.50984.23293.02236.01544.06834.02478.12284.02901.01264-.00773.01218-.00652.00469.00049.00515.00061.00772.00092.01281.00153-.00578.00019-.00818.00027-.01487.00047-.01184.01037-.03008.02765-.03637.03953-.21446.02755-.12799.04205-.10992.07435-.27508-.06764-.38368.0386-.60803-.06342.29481.10661-.5473.10719-.34805.22595-.21434-.08514-.1241.01769-.2685-.06305.26095-.0142.47747-.17212.66254-.26387-.08767-.01281-.13148-.01929-.21903-.03244.08807-.16007.45791-.03805.56068-.10772-.06908.0476-.25638.05236-.27153.02348.03368.03693.05056.0554.08435.09229.29389-.01573.49205-.14322.67414-.23691-.19793.00648.20685-.11072.04821-.15375-.05736.01781-.08607.02671-.14354.04438-.07915-.02167.05404-.0835.12713-.13155.48902-.02651,1.31346-.29181,1.5059-.2524-.103-.0026-.26816.06184-.34062.11128.09236-.00387.13857-.00589.23093-.01014-.17448.04644-.34393-.01055-.59299.08382.06537.0543-.09442.18711.13422.23003.53437-.01581.35383-.26224.95826-.38901.04804-.03381-.08704.13727.21755.021.31671-.14093.53146-.32202.56091-.45856-.10603.02825-.212.05692-.31814.08457-.04901.01824-.09516.03084-.13451.0338-4.01244,1.03525-8.10151,1.64048-12.35684,1.85308-.09482-.15534-.16928-.27825-.24002-.39612-.00446.00904-.00978.01687-.01384.02645-.04535.093-.07189.20801-.21423.11283.02505.0332.03757.0498.06268.08298.01996.02458.02991.03684.04993.06139-.03866-.00392-.06508-.01716-.10729-.07187-.04221-.05463-.08601-.1271-.13045-.20065-.08927-.14785-.1794-.29747-.2955-.36821-.04112-.12792-.07589-.24566-.1046-.35321.11421-.01145.17128-.01733.2852-.02935-.08315-.02353-.05056-.09751-.18735-.07866h-.00008,0ZM47.55919,14.68624c-.00172.00214-.00332.00356-.0056.00552.10494-.00835.16024-.00799.0056-.00552ZM50.85454,13.30696c-.4602.13652-.9212.2676-1.38317.39249.00343.0008.00801.00139.01058.0024.37716-.10265.61255-.11338,1.01716-.22186.02791.01051.08636.03421.08596.06588.10162-.04978.2092-.15029.26947-.23891ZM52.24846,12.87484c-.20634.06677-.4125.13444-.61913.1988-.00852.04239-.00069.07861.0565.09469.12439.02952.59499.00037.62885-.00139.02608-.05983-.00566-.17759-.06622-.29211h0ZM54.18923,12.21113c-.14114.05106-.2824.10203-.42366.15194-.11872.16266-.22544.32312-.27691.42034.09688-.06252.14515-.09389.24145-.15683.03643.01115.05467.01671.09116.02781.16573-.10371.28457-.2801.36796-.44326ZM56.83926,11.1689c-.05582.02827-.11461.05516-.17368.08201.03769.04348.06948.08457.07372.12288.03666-.0667.06931-.13548.09997-.20489h-.00001ZM58.55613,8.90999c-.01756-.06309-.03872-.11894-.06091-.17192.00034.13637-.00995.27241-.03134.40759.03723.00262.07137.01773.10483.07334.00783-.11564.00217-.21832-.01258-.30901ZM58.24948,7.57506c.01819.04298.0346.0865.05096.13008.03065.00891.06211.01982.09396.03347-.00858.04195-.01458.08324-.02688.12602.08681.04933.1722.08543.17751-.03546-.01367-.01202-.0294-.02797-.04547-.04469.06314.03108.11266.04904.11844.00553-.05536-.09455-.12679-.18039-.18798-.2683-.00109.04035-.01298.10443-.02734.17627-.0489-.04685-.10243-.08984-.15321-.12291h.00001ZM45.23623,11.0755c-.02459.0018-.03689.0027-.06148.00449-.01819.03613-.03786.07033.06148-.00449ZM45.68545,15.20352c.07543-.02383.11312-.0358.18832-.05988-.09288.02293-.13199.01187-.18346.00839.01007.0181.0557.03815-.00486.05149ZM43.8443,15.0062c-.02591.01471-.06039.01102-.08596.02578.00726.01471.01087.02206.01807.03677.12141-.02238.19827-.06711.06788-.06255h.00001ZM45.16446,14.98446c-.01201.10323.12421.04419.25924-.01517-.03586-.06528-.15069-.0186-.28331.0197.00812-.00179.01573-.00382.02407-.00453ZM44.98374,15.02246c-.0048.0413.05353-.00146.1257-.02522-.04112.01108-.08355.02089-.1257.02522ZM46.87618,14.85638c-.06971-.0033-.01195.09548-.05725.07582-.04346.10194.393-.19846.05725-.07582ZM45.24675,14.76542c.02945.03002.04415.04502.07366.07502.02236-.03303.03357-.04955.05587-.0826-.05181.00309-.07766.0046-.12953.00758ZM46.33369,14.61237c-.08904.00894-.13359.0133-.22275.02187.00766.01341-.01721.02735-.0489.04059.13382-.02463.28452-.03867.27165-.06246ZM46.06204,14.67484c-.06983.01265-.13519.02789-.16957.04948.03723-.00851.11712-.02777.16957-.04948ZM45.75916,14.66353c-.08944.00788-.13422.01174-.22378.01926.02774.002.04158.003.06931.00498.06182-.00961.0927-.01445.15447-.02423h0ZM48.71675,14.00651c-.04804.03401-.12965.06694-.08447.08527.08881-.03318.13314-.04985.22178-.08338.01315-.03444-.05564-.03534-.13731-.00189ZM51.92054,13.00294c.03088.06465.04632.09698.07738.16159-.00852-.07254-.01275-.10882-.02127-.18138-.02242.00792-.03368.0119-.0561.01979,0,0-.00001,0-.00001,0ZM35.797,15.64598c-.00955-.06878-.01424-.10317-.02368-.17195-.03065-.0317-.04598-.04757-.07663-.07931.03992.10054.05993.15079.10031.25126ZM35.95862,15.79352c.06594.01969.09894.02948.16499.049-.02539-.03092-.07452-.09096-.06154-.12546-.04135.03062-.06205.04591-.10345.07646ZM60.60802,92.52014c-.03511.01658-.19496.0867-.68747.25644.06365-.01092.0823-.01411.11953-.02049.1094-.035.2601-.0832.51647-.16523-.08321-.0009.01853-.05437.05147-.07072ZM60.60802,92.52014c.00783-.00373.01155-.00566.00892-.00439-.00154.00073-.00503.00244-.00892.00439ZM60.04007,92.75609c-.53283.17573.36744-.05868,0,0h0ZM62.45659,91.82778c-.21669.12037-.44459.21357-.66688.32183.15973-.01444.77771-.24341.56051-.1276.68661-.32885.52665-.30327.10637-.19423ZM63.05113,91.43722l-.34102.1733c.06777-.01097.1631-.04544.34102-.1733ZM61.98009,91.96486c.24843-.10621.48885-.23164.73002-.35434-.10883.01633-.13988-.03098-.33444.16388.04135-.07416-.0847.03999-.39558.19046ZM61.30423,92.06053c-1.30871.51313-1.07698.55579.23676.04022-.4009.10962-.90736.27335-.23676-.04022ZM66.6521,89.93667c.02299-.05413-.26479.03304-.33501.01796l-.45923.29741c.25764-.11149.73557-.34514.79424-.31537ZM66.31708,89.95461l.68518-.44419c-.64183.34079-.74449.43053-.68518.44419ZM68.99685,88.67283c.2164-.17407.41565-.37342.62227-.55967l-.27685.23826c-.1118.11182-.22675.21921-.34542.32141ZM71.22356,87.23372c.44499-.34891.79979-.67942,1.10792-.98784-.34462.30582-.7482.58789-1.2895.92117-.23493.26184.44802-.18506.18158.06667ZM72.33148,86.24587c.17912-.16759.35063-.33814.51281-.52198-.16682.15841-.33193.3326-.51281.52198ZM68.20764,88.82623c.06531-.01377.19896-.02709.60323-.24381l-.32838.07889c-.08378.05028-.17866.10719-.27486.16492ZM68.47117,88.66434l.01132-.00303c.13805-.08265.25415-.15212.35034-.20973-.09339.05487-.21137.12403-.36166.21276ZM68.83283,88.45159c.1221-.07176.20102-.11842.24328-.14565-.04758.02848-.13171.07882-.24328.14565ZM68.20764,88.82623c-.03157.00733-.04924.01407-.06926.04146.02545-.01524.04421-.02646.06926-.04146ZM66.97481,89.37224c.02808.01564.18432-.02425-.00944.11368l.38934-.25275.37836-.27018-.37436.21317s-.38391.19607-.3839.19608ZM68.01079,88.80479l.06622-.08856-.34393.24677.27771-.15821ZM71.61736,86.5646c.13657-.1294.28606-.25574.44722-.38488.15773-.13352.3238-.27406.5-.42317-.3894.30519-.80842.59801-1.19828.88676-.03557.0667-.17265.24085.25106-.0787ZM70.10786,87.61519c.02036-.01591.04644-.03629.06554-.0512-.0473.02133-.08281.04185-.06554.0512ZM75.93336,82.71282c-.02242.01315-.04221.02478-.06502.0382.00017.00828.00149.01507.00051.02448l.06451-.06268ZM71.2883,86.67737c-.30974.20548-.47272.35793-.62428.51008.21703-.17413.44928-.35504.70228-.54415.01596-.03005.01481-.04119-.07801.03407,0,0,.00002,0,.00002,0ZM73.79003,84.87345c-.15555.11695-.33982.23984-.52894.37362.16899-.09309.49886-.30335.52894-.37362ZM70.29361,87.5174c-.01458.01167-.02779.0222-.04364.03486.11381-.04994.09505-.05035.04364-.03486ZM70.29361,87.5174c.14938-.1206.26301-.22054.37041-.32995-.17814.13958-.34931.26097-.49062.37653.04232-.01967.08698-.0364.12022-.04659ZM74.93993,83.68257l-.32346.28743.07955-.09094-.25289.24403c.30916-.25574.55147-.41591.97496-.7402.38402-.44646.4447-.55665.45076-.60739l-.61919.60493s-.30974.30214-.30973.30215ZM67.49975,88.94842c.01864-.00206.03723-.00498.05627-.00675.01956-.01667-.00389-.01171-.05627.00675ZM76.03019,82.84382c.15372-.22557.30985-.4473.44928-.68372-.12582.16469-.25884.32283-.39643.47683,0,0-.05284.2069-.05285.20689ZM77.33124,81.41859l.2784-.3915-.30447.27874s.02608.11276.02607.11276ZM81.99346,38.82194l-.00349.21274c.21446.35679.3564.64345.4654.89216-.20428-.56477-.40324-1.2217-.46192-1.10491h0ZM85.73757,65.0449c.17088-.48794.25289-.88945.32621-1.24169-.0907.29713-.17283.56649-.23802.78-.07131.21207-.11118.37244-.08819.46169ZM58.62973,23.18216c.22269.09583.32426.12517.32867.1012-.22916-.10038-.36281-.14813-.32867-.1012ZM86.24152,63.09746c.02493-.12334.04655-.24876.06331-.37499.01304-.12682.01624-.25523.01573-.38272-.02024.08877-.03998.17548-.06051.26564-.04404.37352-.10626.74723-.19627,1.19782.06439-.22069.12776-.45904.17774-.70576h0ZM52.11458,93.07866c-.12061.01902-.3198.06325-.66036.15265.1575-.04113.41645-.09792.66036-.15265ZM81.63277,75.46924c-.19364.33171-.02173.05795,0,0h0ZM81.29215,75.93809c.08578-.11629.18112-.25256.28143-.40317-.04815.06362-.13428.18589-.28143.40317ZM81.37462,75.89752c-.07217.11103-.12885.19825-.18289.28141-.01047.05063.02122.01969.18289-.28141ZM81.63277,75.46924c.05736-.09679.1384-.23345.27279-.45993-.11255.18847-.22315.36102-.33198.52561.04518-.06082.06668-.08481.05919-.06568ZM86.88152,56.72247c-.00864.40468-.06651.73674-.13045.93944.04438.16352.02488.62456-.0044,1.13818-.04935.51279-.12313,1.07684-.13571,1.45552l-.1086.18262c-.01304.12227-.02539.23866-.03723.3499-.01601.11079-.03134.21643-.04604.31763-.02791.20256-.05061.38768-.06983.56087-.03855.34632-.06342.64491-.08921.93877-.52288,1.93395-.77686,3.7656-1.32335,5.43289l-.03042.00732c-.16419.56674-.35131,1.12708-.52677,1.69241.07766-.46713-.05547.3522-.29572.832-.08761.26939-.22538.61381-.38019.96426-.15567.35013-.35755.69299-.52465.98172-.16774.33723-.31923.68274-.50052,1.01293.47301-1.0839-.07801-.10573-.26193.01626-.03454.06731-.06948.13429-.10448.20132l-.19067.48289c-.0847.106-.05999.01863-.0358-.06121-.12461.23033-.2518.45864-.38191.68511-.28177.53309-.66145,1.18895-.75341,1.4897.05936-.04534.17094-.17947.30007-.35093.02579-.05552.02528-.05177.01127-.01468.01127-.01441.0195-.02506.0306-.0393-.01338.01934-.01887.02731-.03454.04985-.02253.05752-.05685.14876-.06588.191-.24111.37896-.31574.49972-.32014.5278-.00263.02918.0676-.033.09694-.03294-.35726.3771-.59105.69758-.8114.99176-.11026.14686-.21646.28742-.33353.42333-.12341.13133-.25672.25882-.41319.38461.40684-.35579.05747.11003-.32392.61575-.37081.51339-.82352,1.02604-.52751.84212-.61747.47648-.3389.39536-.76101.67525.33376-.37323.64252-.76599.9069-1.1651-.25792.24413-.52362.48087-.78566.71805-.32112.48512.0167.17986.02248.23914-.62136.76713-1.28973,1.47348-1.96627,2.13377-.02545.0327-.04541.06003-.06005.08355-.06234.09267-.05273.1113-.04701.13499-.09905.06002-.19633.11336-.28915.15993-.65281.61806-1.3038,1.19592-1.9243,1.74093-.10408.14852-.31191.3832-.39483.5147.30333-.24774.52242-.46239.71069-.63044.18718-.16934.33656-.3002.47238-.41306-.40415.38116-.78955.78545-1.21578,1.14325l-.0056.00295c-.00234-.00525.00469-.01726.00572-.02463.10912-.10521.41954-.3669.03294-.07762-.01779.03024-.03351.05941-.03294.07762-.00669.00596-.02207.01917-.02551.02365-.06743.04557-.04409.0366.01979.00099l-.00023.00227.00583-.00522c.01098-.00629.02036-.01162.03374-.01927-.22315.15811-.45671.32929-.69651.50948.21211-.17937.43635-.37013.67786-.59088-.64544.47806-.14675.0044-.12158-.04391-.19439.17145-.38568.34079-.56983.50667-.58693.38006.02339-.23396-.7056.31799,1.05434-.53526-1.66271,1.38774-1.45066,1.36023-.43795.17741-1.06801.59462-1.60124.91055-.58035.32436-1.02706.55422-.93882.31207-.45048.26208-.63011.40626-.66539.47155.01201-.00243.02516-.00543.03672-.00762.10288-.02298.18747-.03524.27371-.04476-.05187.0183-.13268.05-.23528.09034.04632-.00948.1066-.03044.17025-.06056-.55308.31282-1.06486.57363-1.53713.8468-.03048.01813-.06096.03403-.0915.05158.11661.00552-.43447.34261-.74077.53071.35692-.22959.32466-.25645.29367-.2828-.05404.02917-.10872.05842-.16225.08784-.22996.12686-.455.25691-.67849.39333-.16585.0574-.56846.26067-1.12005.48656-.06228.02624-.13136.05649-.19673.08461l-.57366.30457c-.23453.12563-.46946.25153-.71166.36046.20165-.09491.39929-.19876.59397-.30919l.48817-.26846c-.46283.20095-.98594.4296-1.53438.6214-.35417.12999-.71155.26115-1.05674.38784-.35011.11225-.6909.2113-1.00338.30139-.31277.08923-.59848.16579-.84165.22349-.24477.05239-.44945.07776-.59385.08657.78841-.04878-.03477.09398-.73517.35307l.68478-.03995-.81449.21098-.40719.10539-.41136.0877c-.33181.08611-.42732.10094-.42835.0884-.27165.05253.02671-.08345-.60792.0179-.28669.07283-.568.14812-.8353.19264.01538-.00831.03077-.01611.04621-.02423-.13754.03045-.24894.05717-.34617.08674-.22733.06578-.38974.13083-.6945.21878l.17609-.00885-.76462.14239c-.56251.0907,1.96936-.47262.12347-.23339-.01687.05893-1.08287.36043-1.59197.32436.94602-.10633.8138-.18797.46243-.18702-.44098.04422-.87968.11099-1.32221.13651.15127.04885.3031.09666.45465.13491-.47558.05081-.95654.0697-1.43825.10391-.24099.01483-.48256.02968-.72476.04458-.24237.00771-.48576.00722-.72939.01087-.48737.00317-.97673.01418-1.46799.00896-.04261-.00169-.08573-.0034-.12833-.00509l.22567.22563c.02505-.02897-.05033-.11053.26324-.10989-.01481-.02574.3007.07948-.26324.11601l-.66322.04296-.01304-.29259c-.29978-.01191-.59888-.02376-.90021-.03571-.49531-.00901-.99011-.06757-1.48743-.10674-.49697-.04569-.99715-.07413-1.49452-.14976-.4984-.06385-.99858-.12792-1.50047-.19221-.49875-.08483-.99921-.16992-1.50127-.25531.02059-.03563-.14658-.08395-.40238-.13888-.25472-.06078-.59534-.14203-.92658-.22105-.66368-.15284-1.28349-.31673-1.0775-.38724.04827.02099.09682.04102.14606.05828.48897.09538.428.03626.14663-.06485-.28263-.09664-.7748-.27679-1.16872-.36508.80007.28966-1.52838-.17547.45545.39239-.52196-.10614-1.04862-.20113-1.57041-.31769-.2426.03647-.61953-.02941-1.08453-.1582-.23207-.06565-.48794-.14161-.7565-.23815-.26622-.10337-.54821-.2183-.84045-.33956-.29144-.12223-.59414-.24913-.90164-.37808-.30196-.14146-.60866-.28514-.91394-.42816-.30728-.13778-.61307-.27491-.91136-.40869-.29487-.14126-.5851-.27299-.86636-.3898.1619.05972.21217.05833.23705.05539-.49966-.2061-1.02637-.43527-1.51442-.71775-.49034-.27745-.9785-.53978-1.3957-.81962-.83931-.55207-1.49372-1.00082-1.71298-1.12225l-.09316-.20651c-.4065-.22094-.72338-.39316-1.00001-.54351-.27262-.15808-.49451-.31067-.72584-.46904-.23013-.16013-.46455-.3335-.74883-.5525-.28452-.21863-.59877-.50884-1.01459-.8686.03471.00352.2526.13768-.00006-.10174-.47118-.25868-.92589-.55032-2.02524-1.58359l.06989.01576-.84405-.82279c-.28274-.27309-.56457-.5472-.82724-.83989.06989-.05986-.07543-.26577-.33559-.55338-.13005-.14384-.28898-.30822-.46426-.48525-.16831-.18338-.35028-.38168-.53609-.58413-.76056-.79636-1.49595-1.74085-1.55051-2.13661-.18964-.14636-.51922-.5812-.87122-1.04852-.17443-.23469-.35795-.47526-.5179-.70137-.15578-.22909-.29733-.43732-.4053-.59618.01058-.0127-.0004-.06248-.05198-.18035-.15996-.16778-.32197-.39408-.48302-.65178-.15452-.26148-.29578-.56137-.43944-.86251-.13977-.30254-.28097-.60813-.41342-.89479-.11987-.29264-.23602-.56351-.34908-.78708-.32455-.56949-.25998-.28882-.19324-.00326-.09991-.31184-.27354-.65634-.43361-1.0272-.16282-.36956-.34794-.74948-.52602-1.10564-.18569-.35313-.33084-.69553-.45208-.97293-.11993-.27788-.20617-.49437-.23059-.61172-.3051-.90422.01161-.37875.00681-.6518-.43933-1.34073-.24952.32769-.65556-1.53537.07886.20751.20868.59464.18398.4371-.04449-.17594-.0764-.39256-.10174-.62841-.01087-.23819-.02259-.49576-.03426-.75255-.01784-.51309-.0704-1.01165-.17311-1.35509.00498.1599.01744.31844.0358.47604-.19313-.62919-.24586-1.41165-.3142-2.04437-.03569-.63903-.06125-1.13693-.19976-1.22552l-.09819.1367c-.03797-.56571-.06994-.90615-.07635-1.13829-.01361-.23129-.02951-.35101-.04609-.47178-.01658-.12073-.0338-.2425-.05004-.47747-.0123-.23509-.04472-.58257-.01704-1.15645l.01979.02772c-.04878-.99826.07252-1.5358-.08761-2.02652l-.03426.34338c.00915-.6201.01807-.95809.02997-1.29862.00423-.34096.04015-.68307.09636-1.31216-.00589-.14898.01567-.76089.06868-.93272-.08121-.03697.00486-.76739.11209-1.55896.04541-.39708.13788-.80255.20805-1.14597.07206-.34298.13079-.62283.15979-.76086-.1639.9896-.01098.53415.10305.26823-.02471-.60453.06983-1.00513.35068-1.77542-.14858-.15767-.35057-.37845.1193-1.93837-.04495.2501-.14274.63277-.05833.48879.0855-.14715.15241-.52075.17546-.64739.08407-.14293-.0366.36555.07938.2112.0378-.27441.07892-.52957.15521-.77147.07503-.24234.1619-.47919.25735-.72905.09568-.24966.19679-.51371.30945-.8079.11615-.29272.25432-.61127.38997-.98454-.14034.48685.06114.10084.19153-.0396-.0712-.09623.1631-.58669.39712-.97467.22984-.38993.41325-.70077.15698-.48991.71469-1.37866,1.69903-3.08032,2.64951-4.52261.24374-.3565.47913-.70082.70045-1.02457.22733-.31939.4586-.60512.66105-.86803.20485-.26125.3906-.49264.5521-.68514.17037-.18546.31586-.33255.42926-.43395.13405-.09975.31322-.33463.50212-.59728.0943-.13158.19256-.26873.28686-.40027.10042-.1264.19833-.24626.28852-.34609l.02156.11758c.44281-.61175.62988-.83972.83822-1.09124.21469-.24644.46071-.50639,1.02917-1.19558-.4431.59946-.18661.4185.39769-.03466l.76605-.96136.27325-.04785c.32237-.3838.7764-.70348,1.2151-1.03878.12862-.20036.49817-.56457.91062-.89138.4793-.39379.97061-.78881,1.08282-.92297.56583-.1388,1.18284-.86008,1.61908-.92133.13777-.11632.323-.25551.52848-.40243-.26988.06166-.40461.02914.03957-.19027.03574-.02309.06331-.0409.09762-.06307l.24254-.01148c.20748-.14101.41799-.28247.61467-.40709.20222-.11524.38648-.22028.53294-.30375-.13891.06418-.30345.1291-.47759.19406.19913-.0852.3834-.16402.56211-.24047.06016-.03217.11884-.06354.15836-.08468-.02585.01797-.05685.03712-.09253.0568.28246-.12276.56623-.26187.9323-.50555.41348-.1549.83347-.34797,1.25856-.56663.4216-.22634.86464-.44269,1.3138-.66218.88906-.45946,1.84355-.83956,2.78968-1.06386-.28126.07548-.66974.21076-.75878.28742.75124-.30409,1.5397-.49164,2.24261-.6916.3504-.10436.69061-.17584.99938-.25688.30911-.08008.5891-.1618.83033-.24952l-.09722-.08564c.56491-.1894,1.08013-.30172,1.56275-.42709.4837-.12127.94076-.23137,1.41577-.29914l.03048-.12905c.34634-.04724.78847-.1259,1.27143-.21566.48496-.07533,1.01316-.1454,1.52455-.2148.5107-.07722,1.00944-.10589,1.43316-.11867.42377-.01282.77302-.00286.98943.04472.16682-.06984.6503-.06317,1.18896-.06409.53855.00286,1.13292.00602,1.52935.00812l.19976.09835c.20028.01075.38191.01806.55513.02385.73362-.03593-1.01202-.25701.27479-.19344.11878.06411.22818.13763.46506.20745h.00074c.36469.01088.67786.02023.98588.02942.15195.02526.30144.04431.45185.06555.13634-.00237.32089.00602.63434.03567l-.02368.04506c.02945.00347.05919.00698.08853.01045.12587.01851.25106.03694.37573.05529.49903.06957.99051.12329,1.47519.17057.01893.00226.0374.00509.05633.00741-.17774-.07383-.32746-.13194-.38969-.15214.19867.06804.38465.12047.5628.17491.40335.05184.80173.10966,1.19456.16256.23345.03431.465.06834.69479.10213.22715.04838.45248.09638.6762.14404l.01115.03011c.6074.11399,1.22104.2065,1.82136.35815-.49091-.04415.36767.03815.90204.20612.1456.02859.3138.06265.49114.11248.17631.05304.36418.11381.55416.17876.37991.1299.76816.27652,1.09019.4116.35103.1183.69513.25639,1.04227.38585.25083.05489.58882.15733,1.05628.33207-.20457-.06013-.50904-.15127-.48588-.11033.04243.00768.09236.01784.14732.02984.32277.06681.77646.23589.60552.2255-.06891-.05148-.09213-.0301-.13176-.01447.00069.00021.00183.00054.00252.00074.12639.09686-.34102-.06961-.20714.06013.51281.1195.92926.29411,1.39198.50472.23345.10082.47095.22784.73848.36285.00783.00395.01636.00805.02431.01201-.0756-.05706-.18964-.13152-.32598-.21429-.06016-.02159-.05627-.02139-.01653-.01024-.01624-.01022-.02825-.01776-.04432-.02785.02156.01201.03048.01697.05564.03098.06176.01814.15961.04544.20388.05108.83702.43215.54541.24154.53666.18321.85429.57768,1.41108.79214,2.00162,1.29835.00172.00104.00355.00216.00526.00322-.27691-.24939.2303.00902.75878.32628.56709.34489,1.17844.71862.93933.44935.59116.55674.46146.29169.80671.69601-.44476-.34203-.94882-.59023-1.4204-.83347-.1046-.05203-.20754-.10285-.30974-.15282.36532.2353.74311.4814,1.13297.72148.36063.23166.71298.48592,1.06995.72486.35634.24005.70892.47781,1.03375.73042.08647.06485.16962.12727.25432.19085-.04072-.03722-.07583-.07014-.09791-.09309.75038.48785.77474.45814.82158.44111.13051.15826.24122.31651.32215.45577.15658.13106.30459.25961.44527.37726.4813.41012.85154.74339,1.02855.97573.08944.13818.31917.32289.57138.51788-.0501-.04338-.10345-.09004-.16402-.144-.32569-.44507.358.11233.64321.22999-.61919-.54137-.96266-.8522-1.23179-1.10714l1.33988,1.1287.00395.00532c-.00503.00289-.01853-.00282-.02631-.003-.12616-.09748-.44642-.37905-.08533-.02431.03403.01443.06668.02691.08533.02431.00721.00605.02333.01993.02848.02289.05799.06244.04495.04005-.00217-.01989l.0024-.00007-.00635-.00525c-.00829-.01031-.01527-.01906-.02533-.0316.20394.20076.39861.43648.61627.66389-.21349-.19859-.4252-.42441-.69713-.63613.87699.90633-.80499-.57955.46678.61041-.26885-.23176-.33581-.2522-.47478-.34223.07303.06041.14274.12003.20233.17697l-.11541.01976c.56772.44157.778.62771,1.00984.83503.23087.2092.48473.43925,1.11404,1.00942-.48222-.38131-.42572-.24207-.13817.17669l.42251.43025c.21434.17195.4248.34818.63285.52831l.03065.26779c.34491.32615.66934.74011.95872,1.18017.18707.12643.5135.49899.83771.88576.00263.00339.0052.00678.00783.01017-.11318-.16382-.22973-.32526-.34331-.48899.2124.24591.43378.48618.62988.74532-.12919-.15028-.1185-.08177-.11472-.03187.29275.38547.55296.73955.66282.8276.13765.5296.78583,1.1515.82753,1.57187.11243.13132.24648.30788.38774.50378-.05645-.25586-.0127-.38863.18409.04089.02042.0351.03609.06215.05564.09583l-.004.23605c.25106.40699.49526.83008.65024,1.11204-.03809-.08372-.07618-.17917-.11426-.27857l-.10889-.1742c.03277.03857.05873.07192.08235.1034-.01338-.03576-.02676-.06974-.04003-.10656.01716.04099.03317.07911.04981.11887.07738.1052.107.173.12107.22532l-.08087-.12938c.03734.08917.07389.17626.10946.26125-.01716-.04289-.01636-.07816-.02859-.13188.1567.23822.284.49193.42554.73881-.18855-.31092-.30465-.44031-.22921-.40049-.09991-.09489-.14246-.15056-.16333-.19597.00692.01648.01413.03376.02099.05014.03185.0568.0565.11549.07457.15427-.01596-.02543-.03271-.05586-.0497-.0908.10197.27628.21989.554.43509.91347.04953.13033.105.26436.15927.39764.27491.45976.07835-.00483-.06337-.38171.1631.33278.29258.59438.36447.78752.0716.1933.10529.30936.10191.3405-.01184.05727-.11352-.15758-.36647-.65507.26473.64139.57675,1.31229.90919,1.9969.36881.87782.7569,1.78208.88574,2.70843-.05582-.27276-.15841-.65206-.22796-.74005.47581,1.47409.68512,3.00007.95083,3.93802l.09288-.08976c.12656.55298.24952,1.04253.33867,1.51009.07726.46946.14389.91325.20125,1.36752l.12799.03561c.04255.3311.07143.75933.11901,1.22609.02333.2335.04764.47693.07229.72328.01172.12329.0235.2473.03523.37117.00526.12427.01047.24839.01573.37149.01939.49257.03168.96967.02465,1.37434,0,0-.00003-.00005-.00003-.00006ZM67.04533,84.68619l-.08338.04659c-.00206.00528-.004.01034-.00606.0155,0,0,.08944-.06209.08944-.0621ZM65.77224,28.10367c-.00492-.00117-.00869-.00264-.01413-.00488.13542.14772.20022.22831.01413.00488ZM59.0857,21.46526c.11032.03394.22355.0683.34588.10374-.0485-.04501-.00458-.06378.05782-.07894l-.72573-.18965c.08681.04119.19707.09845.32203.16485ZM76.68563,32.48631c-.19833-.13671-.39689-.27201-.59425-.40693.20845.22082.41411.44396.61707.66947.02516-.08734.0565-.15846.14-.14412-.00412-.00469-.00892-.01017-.01315-.01497-.03054-.02067-.06005-.04172-.09036-.06249l-.00743.03174s-.05187-.0727-.05187-.0727ZM63.63217,26.1044c.0883.06488.17574.12407.26204.1778-.08481-.05928-.17168-.11822-.26204-.1778ZM66.09553,28.22888c.04569.04376.08853.08102.12959.11409-.04352-.0377-.08578-.07675-.12959-.11409ZM76.76638,43.83028c.01355.05157.03185.11496.05667.19464-.00257-.04261-.00612-.08876-.01104-.14176l-.04564-.05289h0ZM77.16556,44.24084c-.03929-.12705-.08161-.25228-.1261-.36508.07703.28509.00126.18814-.09368.04375-.03088.01298-.06119.01882-.09116.01031.10706.10125.20794.20698.31094.31102ZM46.97872,93.74697l.00126.00226c.00458-.00046.00864-.00059.01327-.00106-.00526-.00039-.00938-.00081-.01453-.0012ZM86.17003,58.27391c-.00766-.28168-.03632-.6016-.07526-.89429-.00458.35218-.01418.70318-.02905,1.05295.03037-.09313.07297-.19945.10431-.15866ZM85.54387,50.64173c.07783.43535.14841.87299.21023,1.31332l.19238.12783-.16636.04828c.05971.44156.10866.8862.15189,1.33245.01567-.02309.02945-.06464.03992-.13763.03998-.22605.00892-.81206-.00566-1.36459-.01104-.27635-.02167-.5429-.02991-.74892-.01922-.20495-.03283-.3497-.03603-.3838-.08487-.15528-.21989-.21229-.35646-.18695h0ZM84.65492,45.68398l-.04386-.09914c.00635.02087.0127.04176.01933.06322.00789.01141.01699.02515.02453.03592ZM83.04316,42.48485c.27525.62032.53186,1.24972.77211,1.88655.29401.47398.56508.90643.7577,1.19259-.00721-.03717-.01355-.07314-.01819-.10631l-.39924-.90251-.02934-.31731c-.07675-.18546-.16796-.36255-.26833-.53117-.09762-.16967-.19822-.33328-.29956-.48975-.17374-.26689-.34662-.51227-.51516-.73208,0,0,.00002,0,.00002,0ZM78.76931,34.8298c.02276.00558.05158.02167.08327.04291-.1408-.18375-.07212-.07139-.08327-.04291ZM60.93502,21.5805c.09528-.00123.21783.01198.37619.04462-.47444-.14765-.49857-.12556-.37619-.04462ZM59.38486,21.02908c.01029.00136.01899.00252.03157.00419-.42537-.15901-.64109-.2468-.03157-.00419ZM58.08289,20.76648c-.10345-.0226-.19799-.04022-.28966-.05607.24174.06836.47947.13558.69096.1954.31568.10754.57332.1953.70034.23859-.91508-.26917-.50275-.06821-.2645.07395.25169.02445.46729.05746.68981.11491-.05324-.04208-.14698-.09739-.2991-.17145-.26421-.10386-.4916-.18705-.69193-.25472-.20085-.06577-.37808-.10431-.53592-.14061ZM20.83681,28.45301c.00618-.0237.02345-.0553.04587-.09042-.19107.15921-.07526.08068-.04587.09042ZM8.61162,48.186c.06548-.17574.12227-.34235.16448-.49223.04684-.14862.0835-.27931.09499-.387-.13296.31543-.20434.61404-.25947.87922h0ZM10.52173,70.3076c-.01184-.21995-.31523-.70877-.42657-.97184.12976.46987.18346.72128.42657.97184ZM46.93263,93.75297c-.07355-.00922-.1778.00293-.23905.01022l.00686-.00478c-.00212.00016-.0048.00034-.00686.0005l.01224-.00426.05376-.0377c-.11363-.03195-.01178-.07306.01207-.10657.03283-.04365-.08264-.07565-1.10975-.10092.60992-.01564,1.21001.05334,1.82261.07204l-.17368-.0567.35383.03983-.06422.01829c.286.00552.57538-.00359.86967-.03723-.15944-.01247-.31826-.02033-.47741-.04688.24797.01514.49469-.00726.74289-.00896l-.25043.05424c.04409-.00518.08767-.00765.13205-.01407l-.66236.16392c.11747-.00239.23894-.01004.35697-.0202.00583-.00469.0131-.00875.01784-.01393l.07858.00508c.21595-.02167.4109-.05116.529-.07503l-.06331.09814c.07292-.00722.14577-.01451.21829-.02192.08836-.01658.17723-.03503.26376-.04745.00926-.02834.00217-.05058-.07091-.05263.24277-.02616.45282-.0542.12593-.10563.23825.0234.47415.01028.71097-.00302.00172-.001.00458-.00199.00623-.00299l.88003-.07159c.06228-.00731.12484-.01267.18695-.02136.29407-.0529.58762-.11242.88031-.17583.05061-.01097.10094-.0229.15149-.03396.04564-.0533.10243-.10689-.11238-.07297.50315-.10863.93315-.23213.26113-.15248,1.36802-.21389,2.71345-.6064,4.01856-1.12005-.01899-.01251-.05862-.01886-.09133-.02379.455-.02418.35246-.224.5612-.3301.16499-.01244.32855-.0312.49286-.0495.0843-.03746.16819-.0759.25215-.11428.02082-.05982-.08962-.05607-.09002-.09003.26536-.13454.53523-.25399.80431-.36587.26484-.12138.5258-.24099.78023-.35762.25421-.11767.50366-.23039.73494-.35629.22721-.13304.44053-.27132.63222-.42081.08424-.02529.1229-.02202.14349-.00858.08704-.05273.17431-.10508.26078-.15859.05799-.04272.12656-.08952.19782-.13704.26467-.18158.54358-.3862.35692-.3525.13033-.00618.28892-.07207.44951-.15348.99109-.66056,1.94637-1.36513,2.8769-2.08618.11993-.09739.24631-.19979.3747-.30219.20188-.17583.40782-.35081.6006-.50384.0187-.04659-.08927.0043-.1718.04396.60243-.38234.63772-.54521.78189-.76749l-.04947.01657.10506-.09681c.03077-.0413.06668-.08513.11203-.13331l.13228-.09185.19604-.18065c.09979-.11426.13451-.13941.14263-.12993.07131-.06139.05542.01231.14886-.02789l.16979-.11791c.23396-.21895.29355-.32678.35057-.45102-.02539.00861-.04547.01305-.04604-.00084.03025-.03161.06039-.06321.09059-.09482.01407-.02932.02968-.06038.04918-.09528l-.06794.04146.22658-.25692c.07789-.07906-.01167.05377-.08481.18199.13691-.14337.27342-.28669.40919-.42992.03306-.04193.0676-.08088.10443-.11045.0652-.06897.13033-.13793.19513-.20685l-.01413.00117c.55959-.60719,1.13698-1.22576,1.70189-1.87354.72115-.84819,1.36304-1.69011,1.85985-2.52174.32786-.38766.18072-.03866.33164-.19266.04907-.06595.09602-.12474.13874-.17075.02413-.03267.05084-.0696.08098-.11219-.41313.4253-.08899-.11016.2697-.68258.03546-.06245.07126-.12523.10671-.18747-.04295-.28031.19284-.65694.50103-1.08519.16791-.22437.3381-.47264.4944-.72633.15738-.25303.3011-.5113.39815-.76359-.02127.07446-.01024.10271-.00275.11727.17563-.44759.42246-.92092.65379-1.30248.2259-.38377.4304-.67846.43687-.79732l.09739-.01983c.02642-.06181.05336-.1226.07846-.18376.05953-.30793.10243-.50442.1722-.70381.04106-.11738.09145-.23606.16001-.37965.07029-.14129.15355-.30935.25278-.52881.00337-.01277.00721-.02538.01064-.03815.02122-.04108.04924-.10374.08207-.18156.0147-.20276.06594-.45675.25352-.9029l.02579.03826c.12381-.32512.21509-.66146.319-.99319.02974.01061.05616.00169.08121-.01516.08853-.27851.17992-.56853.27794-.85962.00349-.01194.00698-.02389.01041-.03584.06989-.36407.13771-.73913.27211-.93384.04953-.16994.09814-.33683.14537-.49897.03843-.31119.11512-.70893.1233-.93611.01573.0013.03643-.01567.06554-.06683-.05273-.21803.02539-.49533.12662-.77474.05239-.13926.10557-.2804.15527-.41239.03832-.11637.0656-.22554.08195-.32525.00114-.01598.0028-.03195.00366-.04792-.07984.19739-.1619.39358-.25666.58646.05605-.23673.10208-.47551.14583-.71478-.01544.01874-.0314.03952-.04747.06118.03368-.07286.05976-.15547.08069-.24348.01441-.08046.02877-.16093.04329-.24138.06725-.52658.004-1.14274.05879-1.28921.06651-.41168.15899-.13535.25403-.23821.04221-.62223-.34325.06118-.09476-.74676.00395.09772-.00526.27671.02476.21048.02482-.10999.1026-.24607.1901-.39052-.00103-.1985-.01458-.35899-.03123-.63351l-.0326.16004.0406-.71925c.04392-.53133-.00246,1.88595.1981.16154-.01819-.01424-.05387-.27965-.06828-.59727-.00721-.15887-.00909-.33088-.00074-.49187.00715-.16104.0131-.31165.04249-.4269-.00886.44244-.01407.63586.0143.67973.02516.04369.06777-.06339.10054-.22525.02248-.41422.02974-.8293.04552-1.24408l-.18632.40576c.07457-1.6785.01853-3.39411-.1277-5.12969-.13325-.07272-.25461-.2476-.32243-.72929.04226.10547.07978.27496.11026.19995.03031-.07673-.03323-.23562-.05433-.2891.03031-.07548.08904.14785.14532.06035-.24317-.45368-.10448-.82595-.29836-1.50224.08819.19351.09865.04163.14091-.05319-.00143-.00896-.00292-.01796-.00435-.02694-.11043-.03324-.08807-.33211-.08624-.53553-.00978-.06081-.0195-.12107-.02928-.18192-.01636-.00851-.04072.00579-.07915.05799-.01035-.34617-.07452-.72988-.15229-1.12118-.0768-.39149-.16127-.79188-.24723-1.1649-.19347-.72005-.35737-1.34177-.35131-1.63658-.0155-.05815-.03111-.11648-.04667-.17457-.0203-.06601-.0402-.13143-.05965-.19587-.06508-.1266-.14183-.25974-.17872-.36956l.072.00147c-.00726-.02666-.01441-.05303-.02105-.07826-.31008-.49391-.18655-.43405-.58819-1.08492.15647.18797.20228.16889.20514.02368-.07029-.15947-.14343-.3177-.21738-.47551l-.17328-.20079.0469-.06993c-.04655-.09989-.09293-.19979-.13788-.30011-.3377-.31471-.71778-1.22688-1.15722-2.3148-.01018-.0225-.02013-.04641-.03025-.06911-.03368.05567-.07875.04945-.11718-.09725-.00932-.01633-.01641-.02881-.02528-.04445l.04175-.08823c-.03986-.09215-.08041-.18489-.12055-.27891-.06216-.10643-.11701-.20645-.15607-.28386.02042.06491.03471.1439.04638.2279-.02585-.09286-.04472-.18116-.06525-.26594-.0127-.02725-.02505-.0538-.0334-.07174.00909.01088.0179.02442.02591.04046-.03466-.13359-.08384-.26553-.20302-.42098-.10271-.38208-.36452-.73216-.6193-1.09307-.24883-.36519-.51979-.72451-.63589-1.15147.04461.1226.12845.28294.18912.30369-.15864-.25425-.28892-.52451-.41205-.7777-.07011-.11445-.13931-.22947-.20748-.34452-.1082-.16785-.214-.33451-.31786-.49963l-.06685.07889c-.33255-.40733-.57589-.72876-.81306-1.07571l-.11358.05151c-.1611-.25894-.47415-.624-.74803-.97965-.26822-.36031-.53426-.68394-.54759-.91231-.17265-.05237-.49566-.68481-.75387-.9219l.01338-.12696c-.27462-.36142-.48411-.55083-.68221-.73654-.22224-.41825-.54393-.72687-.85109-1.02609-.15761-.1454-.31282-.28858-.46552-.4294-.15418-.13906-.31134-.26998-.45288-.41263l.01344-.02458-.63388-.51569c.21023.08733-.15247-.07172-.31877-.25135-.22527-.137-.52385-.43092-.71378-.67838l-.38683-.34595c.36212.25408.20491.04402.12913-.11555-.07984-.06687-.15813-.1356-.24094-.19877.00309-.00345.0032-.00828.00515-.01224l-.10889-.04884c-.05136-.08849.08104-.01736.09802-.03062-.00732-.0141-.0167-.02915-.02859-.04537-.00806-.00862-.01327-.01507-.02556-.02696-.21097-.09465-.72407-.50963-.95248-.5493.00869.04175.05524.11185.1189.19002.02602.0121.02385.01231.00538.00688.0052.00683.00909.01198.01424.01876-.00755-.00786-.01069-.01112-.0195-.02026-.02837-.00912-.07372-.02228-.09699-.02266-.30705-.27654-.21595-.14669-.23425-.09899-.27411-.41228-.55513-.4723-.72899-.84452.13205.23387-.08578.07612-.32077-.09592-.23179-.17733-.49897-.34275-.43086-.17443-.19559-.33261-.19439-.13738-.30019-.38142.19187.15561.41445.26367.6308.36199.10992.05281.21938.10055.32512.1464-.67231-.43831-1.29402-.83579-1.42607-1.11334-.0187-.00642-.04146-.01558-.06388-.02448.00034.00071.00023.00106.00063.00179-.00086-.00086-.00149-.00159-.00234-.00244-.10889-.04331-.25815-.11335-.43332-.20005.10506.09177.21772.18529.25266.23041-.36881-.15477-.38906-.1203-.42074-.09125-.05805-.09473-.1018-.19546-.12833-.28836-.31557-.16094-.67054-.34604-.99555-.50778-.0919-.00638-.21943-.03221-.29801-.01621.1623.07884.28921.14071.39197.19511.10031.05882.17769.10787.24414.15545-.22727-.11837-.46403-.2182-.69919-.31997l-.00194-.00247c.00326-.00452.01087-.00598.01556-.00925.0672.02155.23533.10368.04918-.01836-.01922.00356-.03774.00805-.04918.01836-.00383-.0016-.0123-.0055-.01516-.00556-.02934-.02392-.02345-.01191-.0004.01481l-.00143.00109.00337.00139c.00406.00456.00755.00838.01241.01384-.10157-.07506-.21177-.15071-.32798-.22604.11506.05562.23733.11382.37905.16841-.27451-.18382-.06605-.1232.00595-.11281-.1476-.07019-.28343-.13162-.39683-.17691.00286-.01616-.02899-.05154-.12604-.122-.54976-.14935-1.32656-.58567-2.04594-.95304l-.05564.01892-.13377-.06301.18077.03969c-.35795-.18265-.7016-.34811-.99515-.45164-.10002-.03257-.17523-.05263-.23213-.06439-.03328-.00396-.06846-.00859-.1038-.0131-.02905.00103-.03935.00949-.03489.02199.0119.03371.12513.10659.23539.18747-.26261-.15049-.6018-.26045-.95551-.37688-.35474-.11405-.72979-.2181-1.09071-.28143-.06748-.01328-.13314-.02619-.19873-.0391.0402.01992.08647.04161.12919.06318-.16408-.0393-.2884-.07796-.37276-.11112-.18907-.0372-.36647-.07209-.52179-.10264-.27188-.0495-.4821-.07968-.58384-.12104-.84714-.20082-.28783-.2074-.50527-.33849-.63995-.12663-.60426-.01151-.6149.04108-.01235.05923-.07263.08841-.9184-.1191.20142.01564.57229.06078.43275.01693-.1925-.04634-.43172-.12716-.69004-.21607l-.27108.02612c-.16459-.03696.07395-.04394.16236-.06349-.06891-.02375-.13863-.04764-.20925-.07154-.01378-.00209-.02894-.00427-.04421-.00648-.00475.0007-.00949.00162-.01418.0023l.00509-.00363c-.01435-.00204-.02511-.00382-.04078-.00596-.27262.00071-.52259-.00822-.75816.00056-.23539.00816-.45568.01583-.66774.02319-.42371.01145-.8138.01375-1.22562.00017v-.53543c-.02065-.00074-.03952-.00203-.06028-.0027-.38151.00299-.79178.00619-1.2557.00981-.09934-.02246-.30533-.07186-.25335-.11485-.45465.02322-1.00006.15172-1.38706.25965-.38711.1109-.61564.2178-.44362.25861-.26318.0214-.46478.02992-.63251.03923-.16745.01214-.30144.02185-.43046.0312-.25827.01756-.49709.03779-.94087.11474,1.44397-.01984-.28309.00848-.41245.18927-.90296.1607-.32804-.02829-.75118.00222-.14806.04281-.49995.1576-.51613.20517-.58035-.02812,1.0278-.50302.34851-.53516-.23516-.00254-.85463.02441-1.42984.08483-.57435.07334-1.10792.14149-1.17918.15059-.40421.23029-.13948.75728.53649.79885-.02362.05419-.23968.07519-.50006.09223-.13039.00845-.27148.01757-.4049.02621-.13239.01457-.25632.0344-.35389.05755-.5807.0761-1.00321.22088-1.3961.36976-.39123.15621-.74746.3362-1.21755.45171l.6758-.30723c-.08184.00548-.45866.12909-.83925.2663-.19033.06861-.38151.14063-.53735.20302-.15372.06836-.27171.12823-.31992.1607-.02608-.01909.12313-.14888.22538-.26253.10328-.11013.15944-.20411-.06216-.16353-.4125.14628-.81311.30988-1.17832.4743-.18255.08221-.35634.16465-.51848.24526-.15956.08716-.30665.17444-.44013.25596-.53369.32742-.84022.58337-.75798.63606l1.18919-.59996c.40158-.18971.81008-.36449,1.21607-.5481.06685.04704-.36429.244-.79075.44267-.1062.05037-.21234.1007-.31111.14753-.09636.05246-.18472.10235-.25752.14705-.14549.0894-.22847.15797-.18798.18469l-1.13011.45714c-.37287.16144-.73917.33774-1.10947.50589.27514-.13805,1.10661-.58394.74214-.48981-.94276.46492-.49983.21613-1.16031.46636.50727-.33394,1.2024-.86867,1.89284-1.31561.34142-.23523.67226-.46316.9602-.66155.29361-.18764.54284-.3517.71286-.47081-.39203.18055-.78784.34895-1.16803.55392l-.32706.05369c-.37602.19118-.73362.39744-1.05714.61454-.31849.22838-.6074.45773-.85944.6703-.25146.21379-.46866.40571-.63834.57318-.16516.17281-.29332.30693-.3727.38996-.84931.42323-.69914.01333-.5246-.14536-.83696.43405-1.17632.77644-1.52294,1.10025-.17311.1626-.34622.32426-.57784.50391-.23099.18076-.50698.40002-.90439.65165l.6201-.34159c-.17654.13502-.60672.41508-.97153.655-.36921.23375-.65127.45748-.56812.42514-.31837.14812-.67191.21043-.47455-.01305l-.53586.55162-.29246.30346-.27994.31704c.17117-.17744-.09636-.25682-.04089-.35564-.52791.42128-.71566.93172-.36407.69239-.55782.34921-.76342.48881-.93424.61981-.17477.12729-.32827.2305-.78978.51487-.27725.27171.19296.15643.41845-.01325-.30121.31687-.55765.54813-.76593.74748-.20645.20118-.37991.35423-.53546.49094.9542-1.08704-.07955-.65121-.00738-.97067l-.87179,1.35046c-.27531.4583-.53689.92329-.80122,1.3791.03969-.10454.04203-.43359.01087-.43871-.00538.08322-.16196.30846-.40387.62542-.23104.32655-.54907.74347-.9021,1.19079-.352.44808-.70102.95649-1.05417,1.41906-.17912.22967-.3337.46642-.48353.68401-.15064.21715-.29075.41918-.41468.59791l.14532-.21739c.06954-.16556-.11741.05354-.35795.38334-.12359.16267-.25055.35928-.35995.55205-.11186.19118-.21183.37485-.27605.51514.0187-.11.10288-.22457.23762-.45016-.36818.45748-.49897.82216-.63182,1.18344-.12004.36967-.23619.7391-.59854,1.21581.52728-.93291.55559-1.15921.45934-1.15154-.17746.40629-.52745,1.04762-.77926,1.55558-.22727.52056-.36447.90084-.16396.76089-.28812.48606-.47902.95599-.56943.86227l-.35017,1.02486c-.11283.34233-.24185.67768-.33204,1.02716.0306-.15953.01109-.31626-.2172.27321.20668-.56907.40112-1.13227.57258-1.63025.08601-.24869.16882-.47969.25455-.68128.09379-.19796.19296-.36537.2971-.4929-.12124-.09239-.39203.28936-.25369-.29219-.92418,2.17799-1.11164,3.48995-1.3738,4.94135l-.34679.96814-.29773.98472.04575.10014-.25197.30846c-.02179.25958-.03111.42533-.05347.47521-.02253.04329-.0366-.02608-.03717-.13045-.03723.21412-.05496.41196-.0577.51589-.09865.06304-.14818-.31921-.14526-.7207.07446-.1743.15104-.35359.22807-.53389.01241-.41413-.00337-.72457-.19376-.18418-.00915.08057-.02093.18376-.03328.29239-.0008-.26826-.0139-.43784-.0843-.25605l-.14903.78586c-.04192.26333-.07349.52856-.1106.79228.05719-.17405.15315-.43085.26936-.72873-.07823,1.0042-.14995,2.13369.12702,1.28655l-.16122.58107c-.04815.19489-.08784.39143-.13234.5875-.00926.71146-.01533,1.00224-.02945,1.33146-.00212.32947-.0044.69665-.00989,1.554-.06703.09007-.08098-.36773-.14932-.06399.01544.31398.0207.66038.00234,1.00826-.01864.34778-.0569.69735-.09505,1.01741-.06748.63983-.09699,1.16222-.0143,1.29588.074,1.00851.14732.41529.23562,1.05145-.0215-.02918-.06399-.08691-.05198.09878l.18346.74753c-.01933.31019-.14097-.69014-.12519.16889.08916.72855.23242,1.29593.31831,1.8391.08121.54434.18535,1.05304.27056,1.65905.35023,1.70085.10277-.777.34977.66602-.05381.231-.12038.44043.08115,1.33708.18335.45304.23099.37332.51356,1.14484l-.16276-.00643c.22452.72774.42577,1.30074.32752,1.34017.27285.56674.40587.9738.49257,1.28974.11358.26623.1822.33729.20142.29784.01807-.039.00029-.19354-.02819-.39066-.06033-.39335-.18163-.94857-.19799-1.08389.13725.54807.27943,1.0044.40965,1.40016.14103.39195.25049.73128.28938,1.06592l-.4244-.91015c.63926,2.06185,1.0091,1.76877,1.13257,2.81057-.30613-.66903-.76302-1.43353-.65241-1.00594l.53306.93142c.01756.13142-.28938-.53921-.11987-.07566.08247.12908.20823.32598.33221.52005.13514.18758.27165.36954.35955.47837l-.01533-.00806c.28829.51273.56754,1.0301.88334,1.5262-.12187-.18093-.16185-.17127-.00858.09083.24323.34541.48079.69335.7271,1.03461-.12193-.15095-.13508-.14004-.0899-.02472.05101.11155.17128.32056.32009.56258.87185,1.38156,1.02488.8666,1.64744,1.97032-.10752-.14848-.14063-.1605-.24952-.31065l.33467.55982c.1615-.0389.78263.68104,1.39558,1.40781.65213.69266,1.29053,1.39902,1.46799,1.32205.27771.36827.27571.39405.08475.23638-.09362-.08054-.24202-.19938-.41216-.3574-.17008-.15806-.37436-.34328-.60266-.5354.19862.26125.39369.52704.59665.78639-.2828-.28164-.48731-.54849-.80025-.84105.19238.26107.39649.50622.60226.73368.20582.22747.43143.41991.63829.60382.42257.35915.79327.66279,1.08831.85701.33353.36419-.45534-.08012.62645.82284.37619.32506.5676.44696.64406.4749.07589.02858.039-.03915-.01727-.12173-.11186-.16626-.30162-.3905.16871-.02859l.55811.67609c1.26085.85478,2.11971,1.59736,3.17988,2.32519.24734.15222.37619.21463.4479.23393.28183.19221.58144.37247.88483.54338.30362.17059.60792.3371.91737.47257.30596.14151.60237.2773.87688.41139.27365.13582.52671.26747.75375.3871-.23242-.07387.48027.35094.57475.44236.28732.11687.5696.24391.86001.35207l.87362.31648c-.77142-.28153-.77891-.17862-.9562-.15175.54009.21995.813.27861,1.18141.42256-.2351-.06327-.47381-.12725-.20737.03417.61593.21982,1.25141.38408,1.87809.56301-.10208-.05579-.30979-.13993-.48393-.20951.22967.08031.59339.20747.98171.34325.39072.12868.8078.2599,1.12714.40596-.07011.01683-.30928-.02295-.37831-.00528-.26296-.14031-.48022-.21393-.67174-.25575-.18924-.04834-.35177-.0671-.50715-.08573.63383.23347.71847.24626.70817.26617-.00858.015-.10448.01328.19479.14526.91199.28802,1.32061.28359,1.10621.12896.25163.09505.46495.15867.65682.21589.19164.05773.36229.10726.53472.15291.17242.04567.34657.08743.54518.1296.19856.04236.4208.08811.69496.11801l-.23379.08425.99509.17454-.83588-.01754c.93904.251,1.03867.21487,1.16345.18215.12622-.03706.27216-.04371,1.32633.16385l-.01384.11549c.41262.0471.69622.03408.9526.0398.25649.00608.48868.01044.79824.12057.80385.02585-1.33794-.32589.53123-.12526.16099.04955.41759.10659.70102.1623.28429.04715.59642.08257.86544.11488.56223-.00951-.30916-.14771-.74123-.1777,1.34389.07242,1.76777.21539,2.15969.30465.19993.04824.39112.09323.6921.12043.15041.0136.32832.02275.54833.02565.20531.00097.44933.00446.73957-.02155l.00003-.00004ZM55.73002,93.64319l.2641-.02652c.15372-.068.30962-.13298-.2641.02652ZM83.5005,71.67156c-.00252.00956-.00469.01764-.00772.0293.19101-.38853.29069-.58663.00772-.0293ZM84.05141,69.85583c-.13073.34219-.26513.68307-.40513,1.0218-.11426.27704-.2331.5522-.354.8264.02551-.03427.05353-.07373.08464-.11971.42646-.86198.57166-1.29749.67448-1.72849ZM79.51895,78.73009l-.05027.07254c.02316-.03131.03849-.05384.05027-.07254ZM79.46364,78.69563c.02791.00127.12244-.07184.0553.03444l.42406-.61202c-.23425.32736-.34325.42583-.47935.57758ZM82.1867,74.33436c-.15327.23023.02682.21291-.08247.33105-.03734.33032.74454-1.69117.08247-.33105ZM51.86701,19.421c-.01744-.00629-.03489-.01314-.05227-.01957.1925.03642.34027.05153.42097.02223-.26158-.05181-.49714-.09456-.71401-.13071-.07886-.02915-.15773-.05832-.23756-.08361l-.06594.02765c.00864.00416.01847.00821.02797.01228-.11672-.01776-.22967-.03414-.33679-.04845.26164.0561.49897.11385.70291.15893.07332.01821.15676.03819.25471.06125ZM147.97087,56.6964c0-19.78928,16.13708-35.87712,35.97542-35.87712,10.90617,0,20.67734,4.88558,27.29015,12.53505h-3.84932c-6.02055-5.97139-14.31123-9.67244-23.44083-9.67244-18.25917,0-33.11322,14.80459-33.11322,33.0145,0,18.25907,14.85405,33.06366,33.11322,33.06366,9.22829,0,17.61771-3.79976,23.63824-9.91902h3.84911c-6.56326,7.79694-16.48247,12.78122-27.48737,12.78122-19.83833,0-35.97542-16.08783-35.97542-35.92587,0,0,.00002.00002.00002.00003ZM279.15485,20.81928l37.35718,71.80298h-2.81284l-13.17627-25.41459h-42.88419l-13.27498,25.41459h-2.61543l37.40652-71.80298ZM279.15485,26.05055l-20.03564,38.34408,39.9726.04956-19.93695-38.39363h0ZM324.12665,20.81928l2.56628-.19702,34.19882,66.67043,34.19882-66.67043,2.56628.19702-36.76511,71.80298-36.76511-71.80298ZM432.95459,20.81928h2.61542v71.80298h-2.66479l.04935-71.80298h.00003ZM502.30795,20.81928l37.35715,71.80298h-2.81287l-13.17627-25.41459h-42.88437l-13.27478,25.41459h-2.61563l37.40674-71.80298h.00003ZM502.30795,26.05055l-20.03586,38.34408,39.97278.04956-19.93695-38.39363s.00003,0,.00003,0ZM569.97876,21.4611h31.2381c13.6203,0,21.21997,5.97099,21.81226,17.2228v1.33239c-.54291,11.74496-8.14264,18.06164-21.81226,18.06164h-10.31409l31.87952,31.1394v3.40492l-35.1366-34.54432h-15.10071v34.54432h-2.56628V21.4611h.00006ZM601.21692,55.61058c10.85675,0,18.95001-4.54029,19.34467-16.28525-.34528-9.86986-7.10614-15.64343-19.34467-15.59428l-28.67181.09871v31.78082s28.67181,0,28.67181,0Z" fill="#c8a96a"/>
</svg>