<?xml version="1.0" encoding="UTF-8"?><svg role="img" id="Layer_1" xmlns="http://www.w3.org/2000/svg" viewBox="0 0 630 100"><g fill="currentColor"><title>Ó Caviar — Inline</title><defs><style>.cls-1{fill:#ebe8df;}</style></defs><path class="cls-1" d="M46.69,20.32s-.03-.12.12-.11c0-.03.14.09-.12.11ZM52.74,21.13s.03.02.05.03c.05.01.12.03.24.07-.06-.09.28.02-.28-.1ZM52.78,21.16c-.25-.06.15.1,0,0h0ZM53.81,21.55c.34.06.28.01.11-.11l-.34-.03c.06.06.34.15.23.14ZM54.27,21.42l-.17-.03s.07.05.17.03ZM53.93,21.35s-.04-.01-.2-.02c.12.02.25.03.37.05-.04-.04-.03-.1-.17-.03ZM55.87,22.22s-.07-.13-.08-.19l-.25-.05c.11.07.33.18.32.24ZM55.8,22.03l.37.08c-.31-.13-.37-.13-.37-.08ZM57.35,22.8l-.17-.03h-.23s.39.03.39.03ZM58.01,23.32c.24.09.45.15.65.19-.2-.07-.39-.19-.63-.36-.17,0,.14.2-.03.17ZM58.67,23.51c.11.04.21.07.33.08-.1-.03-.21-.06-.33-.08ZM56.98,22.58l-.09-.16s-.09-.04-.14-.06c.02.03.05.1.23.21ZM56.88,22.42h0c.14.07.24.12.29.14-.04-.02-.12-.06-.29-.14ZM56.72,22.35s.02,0,.03.01c0-.01-.02-.02-.03-.01ZM56.17,22.07l.42.09-.36-.17s.05.09-.06.08ZM58.44,23.19c.17.04.34.12.53.22-.19-.12-.4-.24-.59-.35-.04.01-.15.02.06.13ZM57.69,22.8s.03,0,.04.01c-.02-.02-.03-.03-.04-.01ZM60.79,24.43s-.01-.02-.02-.03h-.02s.04.03.04.03ZM58.35,23.02c-.15-.09-.25-.11-.35-.12.12.05.25.09.38.16.02,0,.03-.01-.03-.03ZM59.53,23.82c-.07-.06-.15-.12-.23-.19.06.07.19.2.23.19ZM57.77,22.86s-.02,0-.03,0c.04.04.04.03.03,0ZM57.77,22.86c.09.02.16.03.23.04-.1-.04-.19-.07-.27-.09.02.02.03.03.04.05ZM60.4,24.33c.25.1.32.09.35.08l-.68-.42.05.02-.15-.07c.15.11.25.21.42.4ZM60.83,24.51l-.13.05.4.06-.27-.11ZM61.53,24.95l-.08.06.21.07-.14-.14ZM74.96,40.67l.06-.12c-.1-.16-.15-.3-.19-.42.04.29.05.62.13.54ZM68.08,30.36c.13.2.25.35.36.47-.15-.25-.25-.48-.36-.47ZM77.82,65.45c0,.12,0,.17.03.17,0-.12,0-.19-.03-.17ZM68.44,30.83c.12.18.25.38.46.51-.02-.04-.04-.07-.06-.11-.13-.12-.25-.24-.39-.4ZM49.29,93.57c-.06,0-.15,0-.32.04.08-.01.2-.03.32-.04ZM64.22,26.93c-.14-.1-.03,0,0,0h0ZM64.04,26.73c.04.05.1.11.16.17-.02-.03-.07-.08-.16-.17ZM64.04,26.79s-.08-.07-.11-.1c-.03,0-.02.02.11.1ZM64.22,26.93s.1.08.2.15c-.08-.06-.15-.12-.22-.19.02.03.03.04.02.04ZM62.8,25.84s.02.08-.04.05l.29.18c-.15-.1-.19-.16-.26-.23ZM62.77,25.9l-.03-.02s.02.02.03.02ZM64.72,27.23c-.08-.1-.14.05-.17-.03-.19,0,.76.41.17.03ZM84.03,42.98c-.05-.11-.11-.27-.22-.53,0,.2-.3-.57.25.65-.02-.07-.02-.08-.03-.12ZM84.03,42.98c.23.54-.1-.38,0,0h0ZM83.26,41.2c-.03-.16-.33-.79-.19-.57-.18-.36-.29-.48-.3-.47-.02,0,.03.15.1.37l.39.67ZM80.48,36.31c-.06-.02.07.27.06.34l.36.45c-.14-.26-.44-.73-.42-.8ZM80.54,36.66l-.53-.67c.42.64.53.74.53.67ZM78.9,34l-.65-.59.28.27.38.32ZM76.52,31.34c.18.2.37.43.57.7.3.22-.25-.45.04-.19-.21-.21-.4-.41-.59-.58-.2-.17-.39-.32-.57-.46.18.16.37.33.55.53ZM75.37,30.33c.18.16.38.31.6.48-.19-.17-.39-.33-.6-.48ZM78.96,34.53c.06.08.13.18.2.27-.02-.07-.05-.2-.32-.6l.12.33ZM78.96,34.54h0c-.21-.31-.38-.5-.45-.59.06.07.2.24.45.59ZM79.21,34.87s-.03-.04-.05-.07c.01.03.02.05.05.07ZM79.06,34.95l.29.33-.19-.27-.1-.06ZM76.26,31.47c.09.1.17.19.26.29.07.03.27.16-.11-.25-.3-.25-.62-.55-.96-.89.18.19.36.38.54.57.09.09.18.19.27.28ZM77.68,32.95s-.04-.04-.06-.06c.03.05.05.08.06.06ZM71.85,27.49s.03.04.05.06c0,0,.02,0,.03,0l-.08-.06ZM76.56,31.83c.25.3.42.46.6.6-.2-.21-.42-.43-.64-.68-.03-.01-.04-.01.04.08ZM74.36,29.46c.14.15.3.32.46.5-.13-.16-.39-.47-.46-.5ZM77.56,32.77s.03.03.04.04c-.07-.11-.07-.09-.04-.04ZM77.56,32.77c-.15-.14-.27-.24-.4-.34.17.17.32.32.46.46-.03-.04-.05-.09-.06-.12ZM73.22,28.63l.29.22c-.31-.28-.52-.5-.91-.91-.5-.36-.63-.4-.68-.4.48.37.94.77,1.4,1.15l-.11-.07ZM71.97,27.38l-.77-.38.55.35.22.03ZM70.31,26.21l-.45-.23.34.27.11-.04ZM13.51,75.99l.26.33c-.12-.16-.2-.26-.26-.33ZM12,73.39l-.08-.04c.09.11.13.15.08.04ZM24.94,24.98h.22c.36-.25.65-.42.91-.54-.58.24-1.25.49-1.13.54ZM8.19,48.78c-.02.18-.05.38-.07.59.02-.05.05-.11.07-.17,0-.15,0-.3,0-.43ZM8.24,50.66c.06-.17.13-.42.21-.77l-.21.77ZM25.19,87.35l.47.16c-.65-.39-.39-.17-.47-.16ZM11.94,75.55c.15.21.23.3.24.28-.16-.22-.25-.34-.24-.28ZM49.36,19.08c.09.01.19.03.28.04.39.01.79.02,1.27.07-.47-.09-1.02-.15-1.55-.12ZM63.57,22.5c.37.15.06.01,0,0h0ZM45.38,19.67s-.02,0-.03,0c.12.02.1.01.03,0ZM64.1,22.78c-.13-.08-.29-.15-.46-.23.07.04.21.11.46.23ZM64.05,22.7c.12.06.22.11.31.16.05,0,.02-.02-.31-.16ZM63.57,22.5c-.11-.05-.26-.11-.52-.22.21.09.41.18.59.27-.07-.04-.1-.06-.08-.05ZM18.53,31.52s.02-.02.03-.04c-.01.01-.03.03-.04.04h.02ZM17.78,32.11l-.17.48c.3-.54.57-.75.91-1.06l-.54.12-.19.46ZM42.79,93.32s-.06,0-.09,0c.03,0,.06,0,.09,0ZM70.49,87.27s-.06.02-.09.04c.02,0,.04-.01.09-.04ZM12.79,74.86s.06.09.09.14c-.03-.06-.06-.1-.09-.14ZM8.42,49.82c-.03.08-.06.09-.08.11,0,.11.02.12.08-.11ZM25.19,87.35l-.09-.03.04.02s.04,0,.05,0ZM40.14,20.63c-.27.03-.43.03-.53.03,0,.03.12.03.53-.03ZM67.24,24.28l.08.04s-.06-.03-.08-.04ZM67.21,24.34s-.1-.11.03-.06l-.7-.35c.37.2.49.29.67.41ZM38.48,20.51l.26-.06-.08-.23-.18.29ZM26.47,25.44c-.6.44-.95.61-.58.57.54-.29.58-.36.61-.42.03-.06.05-.11.56-.34.22-.19-.82.38-.59.2ZM26.47,25.44c.1-.07.2-.14.31-.21-.18.12-.26.17-.31.21ZM9.64,67.13c0,.13.04.3.15.66l-.09-.61-.05-.05ZM14.17,76.93l.02-.21-.1-.15.08.36ZM19.55,82.73c-.07-.07-.15-.14-.23-.21.07.07.15.14.23.21ZM20.18,83.28c-.19-.18-.42-.36-.63-.55.42.42.6.72.63.55ZM36.59,16.15c-.09,0-.04.07-.06.08.14-.02.05-.1.06-.08ZM38.14,15.87c-.07.02-.1.03-.17.05,0,.01-.01.02-.02.03.08-.03.12-.05.19-.08ZM38.56,15.86s-.03-.02-.04-.03c-.03.04-.05.06-.09.11.28-.03.63-.13.84-.11-.15-.11-.47.06-.71.03ZM39.85,16.04s.02,0,.03,0c.03,0,.07,0,.13,0-.05-.04.14-.05-.16,0ZM39.88,16.05c-.14.02.1.03,0,0h0ZM40.51,15.96c-.07.02-.1.04-.17.06.04.02.2.01.15.04.18-.04.13-.07.02-.1ZM40.57,15.88s.04.01.09-.03c-.04.01-.05.02-.09.03ZM40.48,15.9s-.02,0-.1.04c.08-.02.11-.03.19-.06-.03-.02-.04-.06-.09.02ZM40.26,15.93c-.11-.02-.24-.02-.07-.08-.34.05-.27.13.07.08ZM39.31,15.7c-.06-.01-.08-.02-.14-.03-.04.02-.07.03-.11.05.05-.02.27.01.25-.02ZM41.63,15.9s-.08-.06-.1-.09c-.05.02-.07.03-.12.05.07,0,.2.01.22.05ZM41.54,15.81c.07-.03.11-.04.19-.07-.18.02-.2.04-.19.07ZM40.66,15.71c-.12.05-.18.08-.3.13.15-.05.22-.08.37-.14-.02,0-.04,0-.06,0ZM42.39,15.81s-.06.05-.1.08c.07-.05.11-.07.18-.12-.03.02-.05.03-.08.04ZM43.26,15.7c-.1.04-.22.05-.38.03-.07.06.13.07.06.11.13-.03.24-.09.33-.14ZM43.26,15.7c.06-.02.11-.05.16-.08-.05.02-.1.05-.16.08ZM42.23,15.76s-.06-.04-.09-.06c-.02,0-.05,0-.08,0,.02.01.06.05.17.05ZM42.13,15.7s0,0,0,0c.08,0,.14-.02.17-.02-.02,0-.07,0-.17.02ZM42.04,15.71s.01,0,.02,0c0,0-.01,0-.02,0ZM41.19,15.72c.11-.05.34-.13.09-.16-.07.06.07.08-.09.16ZM41.71,15.64s.05.04,0,.07c.08-.03.13-.05.21-.08-.08,0-.13,0-.21,0ZM42.02,15.59s-.06.02-.1.04c.03,0,.05,0,.08,0,0-.01.01-.02.02-.03ZM43.05,15.6c.08-.04.18-.06.29-.08-.12,0-.25.01-.36.03-.01.03-.05.07.08.05ZM42.6,15.64s.01,0,.02,0c-.01,0-.02,0-.02,0ZM44.42,15.34s-.01,0-.02-.01c0,0,0,0,0,.01,0,0,.01,0,.02,0ZM42.95,15.54c-.09,0-.14.02-.19.05.06-.02.13-.03.21-.04,0-.01,0-.02-.02-.01ZM43.71,15.53c-.05,0-.11-.01-.16-.02.05.02.15.04.16.02ZM42.66,15.65s0,0-.01,0c.03.01.03,0,.01,0ZM42.66,15.65s.07-.04.11-.06c-.05.01-.1.03-.14.05.01,0,.03,0,.04.02ZM44.83,14.8c-.09.03-.13.05-.22.09,0-.02.07-.06,0-.07,0,.07-.21.17-.43.13-.18.08,0,.28.21.38,0-.03,0-.06.18-.13-.08-.02-.47,0-.32-.1.26-.08.23-.01.37,0-.13-.06.3-.18.21-.29ZM44.01,15.39s-.05.01-.08.02c.1,0,.17.01.31.04.13-.06.15-.09.15-.11-.17.02-.25.04-.41.06.01,0,.02,0,.03-.01ZM43.64,15.26c-.24.04-.16.09-.29.14.39-.08-.1.06.19.06-.07.02-.14.04-.21.05.07,0,.15,0,.21,0,0,0,0,0-.01,0,0,0,0,0,0,0,0,0,0,0,0,0-.02,0-.03-.01,0,0,0,0,0,0,0,0,0-.01,0-.02.01-.03.12,0,.02.02-.01.03,0,0,0,0,0,.01,0,0,0,0,0,0,.15-.04.23-.06.39-.1-.09,0-.19.02-.38.06.05-.08.24-.15.09-.21ZM41.46,15.38s.01.01.02.02c.02-.01.03-.02-.02-.02ZM41.5,15.47c.13,0,.3.05.35.07-.06-.05-.11-.09-.22-.14-.03.01-.04.05-.14.05-.09-.01,0-.04-.02-.06-.05.03-.19.08,0,.09.01,0,.02,0,.03-.01ZM41.85,15.54s.01,0,.02.01c0,0,0,0-.02-.01ZM42.6,15.42c.13-.03.19-.05.32-.08-.07-.02-.11-.02-.18-.04,0,.01.01.02.02.04-.19.01-.14.05-.16.09ZM44.44,15.45c.06-.06.1-.09.16-.14-.05.02-.08.03-.14.06,0,.03-.01.05-.02.08ZM44.89,15.35s.06-.04.1-.06c-.04,0-.06,0-.1,0,0,.03,0,.04,0,.07ZM55.19,12.42s-.04-.03-.07-.05c-.08.05-.16.07-.22.07.16,0,.34.04.29-.02ZM58.5,7.78s-.06-.06-.1-.09c0,.01,0,.03,0,.04.04.02.07.03.11.05ZM49.17,14.3c.13,0,.22-.02.31-.04-.16,0-.29-.03-.31.04ZM53.84,5.68s-.04.07-.03.08c.03-.04.05-.07.03-.08ZM49.81,14.17s-.04,0-.07,0c-.08.04-.16.07-.27.09.12,0,.24-.01.34-.09ZM35.34,14.57s.14-.04.22-.06c-.05,0-.12.02-.22.06,0,0,0,0,0,.01,0,0,0,0,0,0ZM46.6,14.98c-.09.02-.01.01,0,0h0ZM46.1,14.74s-.01.03-.02.04c.02-.01.03-.03.02-.04ZM50.5,13.48s0,0,0,0c-.03,0-.03,0,0,0ZM46.46,14.97s.08,0,.12,0c-.02,0-.06,0-.12,0ZM46.49,15s-.06,0-.08,0c0,.01,0,.02.08,0ZM46.6,14.98s.06-.02.12-.03c-.05.01-.1.02-.15.02.02,0,.03,0,.02,0ZM35.56,14.51c.18-.05.34-.09.01-.08.28-.03.53-.07.76-.11.12-.02.19-.03.31-.06.08-.01.15-.03.23-.04.3-.06.59-.15.87-.24.57-.18,1.12-.39,1.71-.5.07-.03,0-.06-.03-.07.25.03.17-.12.27-.17.15.02.22.03.37.04.1-.08-.02-.09-.02-.13.54-.22,1.15-.28,1.54-.53.17,0,.03.13.22.07-.33-.05.5-.28.28-.32.26.08.67-.23.71.01.22-.08.13-.16.06-.16.26-.1.46-.18.62-.33.16,0,1.09-.55,1.4-.5-.21-.03-.02-.06.09-.17-.07-.01-.11-.02-.18-.03.13-.06.19-.08.32-.14.06-.04.08-.04.08-.04.06-.02.02.06.17.01.22-.1.2-.15.29-.25-.02,0-.02,0-.04,0,.06-.03.08-.05.14-.08.11-.05-.32.27.05.15,0-.03.12-.24.25-.23-.18.08-.12.13-.04.13.1-.05.15-.07.25-.12-.06-.03-.09-.04-.15-.07.71-.35,1.48-.66,2.2-1.08.05.1.51-.29.54-.11-.01,0-.02,0-.04,0-.06.04-.06.07-.02.07.08-.04.15-.09.23-.14.02-.07.1-.19-.15-.06.09-.09.14-.14.24-.23-.03-.35.76-.43,1.11-.77-.02.03-.02.05-.02.06.31-.31.86-.46.92-.55.03.02.05.03.08.05.23-.31.26-.34.65-.55,0,.01-.02.06.05.04.05-.11.1-.22.35-.38,0,.01,0,.02,0,.03.15-.11.22-.17.37-.28.16.21.53-.6.82-.46.02-.12.27-.34.37-.46,0,0,.02.01.05,0,.03-.11.17-.2.31-.25.15-.05.3-.08.41-.11.13-.08.06-.1-.02-.12.16,0,.35-.07.53-.13.09-.03.18-.05.25-.07.07-.01.13-.01.15,0,.22.02.07.11.13.17.31.02-.02-.25.39-.07-.05,0-.15,0-.11.02.08.02.17.13.25.23.09.09.15.19.24.19-.03-.03-.05-.05-.08-.08.07,0,.14.04.2.08.06.04.12.1.17.14.1.09.17.17.24.1,0-.03.01-.05.02-.08.09.08.14.13.18.16.04.03.06.04.09.05.05.02.1.04.26.22h-.01c.17.12.17.28.35.24-.02-.02-.02-.04-.04-.06.1.08.14.14.19.19.05.05.09.1.17.21.03.02.13.1.13.15.05-.03.15.09.24.23.08.15.16.31.18.37-.11-.18-.11-.07-.13,0,.13.07.19.14.18.33.07-.01.15-.02.23.01.04.02.08.05.11.09.03.05.06.11.08.2-.03-.05-.07-.13-.09-.09-.02.04.03.12.05.14-.02.04-.07-.07-.11-.02.1.1.11.21.11.33,0,.12-.03.25,0,.43-.04-.11-.07-.02-.13.02.08.02.03.14-.02.23-.04.09-.1.16.03.12-.15.33-.35.72-.6,1.02-.06.07-.13.14-.19.21-.06.06-.13.12-.19.16-.06.05-.11.09-.16.12-.05.03-.1.05-.14.05-.1,0-.19.19-.29.26-.01-.03-.02-.04-.03-.06-.1.14-.16.18-.21.23-.06.05-.12.1-.27.24.11-.14.02-.14-.16-.13-.07.1-.11.15-.18.24-.04-.03-.06-.04-.1-.07-.08.08-.2.11-.32.14.05-.02.02-.02,0-.04.01.15-.43.32-.47.41-.18-.08-.28.15-.42.06-.03.03-.07.07-.11.1.08.04.13.09.02.1,0,0-.01,0-.02.01-.03-.02-.05-.04-.08-.06-.09.06-.19.11-.26.14.03,0,.08,0,.12,0-.05,0-.1,0-.14.01-.01,0-.03.01-.04.01,0,0,.01,0,.02-.01-.07,0-.14.02-.22.08-.42.02-.73.46-1.21.44.07,0,.16-.03.17-.06-.33.13-.72.13-.91.27.02.03.03.04.05.07-.24.12-.42.2-.62.27,0,.03.01.05.02.09-.31.07-.89.4-1.14.28-.05.09-.42.1-.58.17-.03-.02-.04-.03-.07-.05-.23.04-.36.1-.48.16-.5,0-.87.23-1.28.33,0,0,0-.01-.01-.02-.16.06-.23.09-.39.15.09-.08-.07.06-.19.07-.12.06-.34.1-.5.09-.1.02-.16.03-.26.06.28-.11-.05-.09-.09-.16-.06.04-.09.06-.15.1-.08-.02.09-.08-.04-.07-.1.06-.43.13-.51.23.02.02.07.02.12.03.01,0,.01,0,0,0,0,0,0,0,.01,0,0,0,0,0-.01,0-.01.01-.03.03-.04.04-.21.03-.13.04-.11.07-.28-.07-.38.04-.61-.06.29.11-.55.11-.35.23-.21-.09-.12.02-.27-.06.26-.01.48-.17.66-.26-.09-.01-.13-.02-.22-.03.09-.16.46-.04.56-.11-.07.05-.26.05-.27.02.03.04.05.06.08.09.29-.02.49-.14.67-.24-.2,0,.21-.11.05-.15-.06.02-.09.03-.14.04-.08-.02.05-.08.13-.13.49-.03,1.31-.29,1.51-.25-.1,0-.27.06-.34.11.09,0,.14,0,.23-.01-.17.05-.34-.01-.59.08.07.05-.09.19.13.23.53-.02.35-.26.96-.39.05-.03-.09.14.22.02.32-.14.53-.32.56-.46-.11.03-.21.06-.32.08-.05.02-.1.03-.13.03-4.01,1.04-8.1,1.64-12.36,1.85-.09-.16-.17-.28-.24-.4,0,0,0,.02-.01.03-.05.09-.07.21-.21.11.03.03.04.05.06.08.02.02.03.04.05.06-.04,0-.07-.02-.11-.07-.04-.05-.09-.13-.13-.2-.09-.15-.18-.3-.3-.37-.04-.13-.08-.25-.1-.35.11-.01.17-.02.29-.03-.08-.02-.05-.1-.19-.08ZM47.56,14.69s0,0,0,0c.1,0,.16,0,0,0ZM50.85,13.31c-.46.14-.92.27-1.38.39,0,0,0,0,.01,0,.38-.1.61-.11,1.02-.22.03.01.09.03.09.07.1-.05.21-.15.27-.24ZM52.25,12.87c-.21.07-.41.13-.62.2,0,.04,0,.08.06.09.12.03.59,0,.63,0,.03-.06,0-.18-.07-.29ZM54.19,12.21c-.14.05-.28.1-.42.15-.12.16-.23.32-.28.42.1-.06.15-.09.24-.16.04.01.05.02.09.03.17-.1.28-.28.37-.44ZM56.84,11.17c-.06.03-.11.06-.17.08.04.04.07.08.07.12.04-.07.07-.14.1-.2ZM58.56,8.91c-.02-.06-.04-.12-.06-.17,0,.14,0,.27-.03.41.04,0,.07.02.1.07,0-.12,0-.22-.01-.31ZM58.25,7.58s.03.09.05.13c.03,0,.06.02.09.03,0,.04-.01.08-.03.13.09.05.17.09.18-.04-.01-.01-.03-.03-.05-.04.06.03.11.05.12,0-.06-.09-.13-.18-.19-.27,0,.04-.01.1-.03.18-.05-.05-.1-.09-.15-.12ZM45.24,11.08s-.04,0-.06,0c-.02.04-.04.07.06,0ZM45.69,15.2c.08-.02.11-.04.19-.06-.09.02-.13.01-.18,0,.01.02.06.04,0,.05ZM43.84,15.01s-.06.01-.09.03c0,.01.01.02.02.04.12-.02.2-.07.07-.06ZM45.16,14.98c-.01.1.12.04.26-.02-.04-.07-.15-.02-.28.02,0,0,.02,0,.02,0ZM44.98,15.02s.05,0,.13-.03c-.04.01-.08.02-.13.03ZM46.88,14.86c-.07,0-.01.1-.06.08-.04.1.39-.2.06-.08ZM45.25,14.77s.04.05.07.08c.02-.03.03-.05.06-.08-.05,0-.08,0-.13,0ZM46.33,14.61c-.09,0-.13.01-.22.02,0,.01-.02.03-.05.04.13-.02.28-.04.27-.06ZM46.06,14.67c-.07.01-.14.03-.17.05.04,0,.12-.03.17-.05ZM45.76,14.66c-.09,0-.13.01-.22.02.03,0,.04,0,.07,0,.06,0,.09-.01.15-.02ZM48.72,14.01s-.13.07-.08.09c.09-.03.13-.05.22-.08.01-.03-.06-.04-.14,0ZM51.92,13c.03.06.05.1.08.16,0-.07-.01-.11-.02-.18-.02,0-.03.01-.06.02ZM35.8,15.65c0-.07-.01-.1-.02-.17-.03-.03-.05-.05-.08-.08.04.1.06.15.1.25ZM35.96,15.79c.07.02.1.03.16.05-.03-.03-.07-.09-.06-.13-.04.03-.06.05-.1.08ZM60.61,92.52s-.19.09-.69.26c.06-.01.08-.01.12-.02.11-.03.26-.08.52-.17-.08,0,.02-.05.05-.07ZM60.61,92.52s.01,0,0,0c0,0,0,0,0,0ZM60.04,92.76c-.53.18.37-.06,0,0h0ZM62.46,91.83c-.22.12-.44.21-.67.32.16-.01.78-.24.56-.13.69-.33.53-.3.11-.19ZM63.05,91.44l-.34.17c.07-.01.16-.05.34-.17ZM61.98,91.96c.25-.11.49-.23.73-.35-.11.02-.14-.03-.33.16.04-.07-.08.04-.4.19ZM61.3,92.06c-1.31.51-1.08.56.24.04-.4.11-.91.27-.24-.04ZM66.65,89.94c.02-.05-.26.03-.34.02l-.46.3c.26-.11.74-.35.79-.32ZM66.32,89.95l.69-.44c-.64.34-.74.43-.69.44ZM69,88.67c.22-.17.42-.37.62-.56l-.28.24c-.11.11-.23.22-.35.32ZM71.22,87.23c.44-.35.8-.68,1.11-.99-.34.31-.75.59-1.29.92-.23.26.45-.19.18.07ZM72.33,86.25c.18-.17.35-.34.51-.52-.17.16-.33.33-.51.52ZM68.21,88.83c.07-.01.2-.03.6-.24l-.33.08c-.08.05-.18.11-.27.16ZM68.47,88.66h.01c.14-.09.25-.16.35-.21-.09.05-.21.12-.36.21ZM68.83,88.45c.12-.07.2-.12.24-.15-.05.03-.13.08-.24.15ZM68.21,88.83s-.05.01-.07.04c.03-.02.04-.03.07-.04ZM66.97,89.37s.18-.02,0,.11l.39-.25.38-.27-.37.21-.38.2ZM68.01,88.8l.07-.09-.34.25.28-.16ZM71.62,86.56c.14-.13.29-.26.45-.38.16-.13.32-.27.5-.42-.39.31-.81.6-1.2.89-.04.07-.17.24.25-.08ZM70.11,87.62s.05-.04.07-.05c-.05.02-.08.04-.07.05ZM75.93,82.71s-.04.02-.07.04c0,0,0,.02,0,.02l.06-.06ZM71.29,86.68c-.31.21-.47.36-.62.51.22-.17.45-.36.7-.54.02-.03.01-.04-.08.03ZM73.79,84.87c-.16.12-.34.24-.53.37.17-.09.5-.3.53-.37ZM70.29,87.52s-.03.02-.04.03c.11-.05.1-.05.04-.03ZM70.29,87.52c.15-.12.26-.22.37-.33-.18.14-.35.26-.49.38.04-.02.09-.04.12-.05ZM74.94,83.68l-.32.29.08-.09-.25.24c.31-.26.55-.42.97-.74.38-.45.44-.56.45-.61l-.62.6-.31.3ZM67.5,88.95s.04,0,.06,0c.02-.02,0-.01-.06,0ZM76.03,82.84c.15-.23.31-.45.45-.68-.13.16-.26.32-.4.48l-.05.21ZM77.33,81.42l.28-.39-.3.28.03.11ZM81.99,38.82v.21c.21.36.35.64.46.89-.2-.56-.4-1.22-.46-1.1ZM85.74,65.04c.17-.49.25-.89.33-1.24-.09.3-.17.57-.24.78-.07.21-.11.37-.09.46ZM58.63,23.18c.22.1.32.13.33.1-.23-.1-.36-.15-.33-.1ZM86.24,63.1c.02-.12.05-.25.06-.37.01-.13.02-.26.02-.38-.02.09-.04.18-.06.27-.04.37-.11.75-.2,1.2.06-.22.13-.46.18-.71ZM52.11,93.08c-.12.02-.32.06-.66.15.16-.04.42-.1.66-.15ZM81.63,75.47c-.19.33-.02.06,0,0h0ZM81.29,75.94c.09-.12.18-.25.28-.4-.05.06-.13.19-.28.4ZM81.37,75.9c-.07.11-.13.2-.18.28-.01.05.02.02.18-.28ZM81.63,75.47c.06-.1.14-.23.27-.46-.11.19-.22.36-.33.53.05-.06.07-.08.06-.07ZM86.88,56.72c0,.4-.07.74-.13.94.04.16.02.62,0,1.14-.05.51-.12,1.08-.14,1.46l-.11.18c-.01.12-.03.24-.04.35-.02.11-.03.22-.05.32-.03.2-.05.39-.07.56-.04.35-.06.64-.09.94-.52,1.93-.78,3.77-1.32,5.43h-.03c-.16.57-.35,1.13-.53,1.7.08-.47-.06.35-.3.83-.09.27-.23.61-.38.96-.16.35-.36.69-.52.98-.17.34-.32.68-.5,1.01.47-1.08-.08-.11-.26.02-.03.07-.07.13-.1.2l-.19.48c-.08.11-.06.02-.04-.06-.12.23-.25.46-.38.69-.28.53-.66,1.19-.75,1.49.06-.05.17-.18.3-.35.03-.06.03-.05.01-.01.01-.01.02-.03.03-.04-.01.02-.02.03-.03.05-.02.06-.06.15-.07.19-.24.38-.32.5-.32.53,0,.03.07-.03.1-.03-.36.38-.59.7-.81.99-.11.15-.22.29-.33.42-.12.13-.26.26-.41.38.41-.36.06.11-.32.62-.37.51-.82,1.03-.53.84-.62.48-.34.4-.76.68.33-.37.64-.77.91-1.17-.26.24-.52.48-.79.72-.32.49.02.18.02.24-.62.77-1.29,1.47-1.97,2.13-.03.03-.05.06-.06.08-.06.09-.05.11-.05.13-.1.06-.2.11-.29.16-.65.62-1.3,1.2-1.92,1.74-.1.15-.31.38-.39.51.3-.25.52-.46.71-.63.19-.17.34-.3.47-.41-.4.38-.79.79-1.22,1.14h0s0-.01,0-.02c.11-.11.42-.37.03-.08-.02.03-.03.06-.03.08,0,0-.02.02-.03.02-.07.05-.04.04.02,0h0s0,0,0,0c.01,0,.02-.01.03-.02-.22.16-.46.33-.7.51.21-.18.44-.37.68-.59-.65.48-.15,0-.12-.04-.19.17-.39.34-.57.51-.59.38.02-.23-.71.32,1.05-.54-1.66,1.39-1.45,1.36-.44.18-1.07.59-1.6.91-.58.32-1.03.55-.94.31-.45.26-.63.41-.67.47.01,0,.03,0,.04,0,.1-.02.19-.04.27-.04-.05.02-.13.05-.24.09.05,0,.11-.03.17-.06-.55.31-1.06.57-1.54.85-.03.02-.06.03-.09.05.12,0-.43.34-.74.53.36-.23.32-.26.29-.28-.05.03-.11.06-.16.09-.23.13-.45.26-.68.39-.17.06-.57.26-1.12.49-.06.03-.13.06-.2.08l-.57.3c-.23.13-.47.25-.71.36.2-.09.4-.2.59-.31l.49-.27c-.46.2-.99.43-1.53.62-.35.13-.71.26-1.06.39-.35.11-.69.21-1,.3-.31.09-.6.17-.84.22-.24.05-.45.08-.59.09.79-.05-.03.09-.74.35l.68-.04-.81.21-.41.11-.41.09c-.33.09-.43.1-.43.09-.27.05.03-.08-.61.02-.29.07-.57.15-.84.19.02,0,.03-.02.05-.02-.14.03-.25.06-.35.09-.23.07-.39.13-.69.22h.18s-.76.13-.76.13c-.56.09,1.97-.47.12-.23-.02.06-1.08.36-1.59.32.95-.11.81-.19.46-.19-.44.04-.88.11-1.32.14.15.05.3.1.45.13-.48.05-.96.07-1.44.1-.24.01-.48.03-.72.04-.24,0-.49,0-.73.01-.49,0-.98.01-1.47,0-.04,0-.09,0-.13,0l.23.23s-.05-.11.26-.11c-.01-.03.3.08-.26.12l-.66.04v-.29c-.31-.01-.61-.02-.91-.04-.5,0-.99-.07-1.49-.11-.5-.05-1-.07-1.49-.15-.5-.06-1-.13-1.5-.19-.5-.08-1-.17-1.5-.26.02-.04-.15-.08-.4-.14-.25-.06-.6-.14-.93-.22-.66-.15-1.28-.32-1.08-.39.05.02.1.04.15.06.49.1.43.04.15-.06-.28-.1-.77-.28-1.17-.37.8.29-1.53-.18.46.39-.52-.11-1.05-.2-1.57-.32-.24.04-.62-.03-1.08-.16-.23-.07-.49-.14-.76-.24-.27-.1-.55-.22-.84-.34-.29-.12-.59-.25-.9-.38-.3-.14-.61-.29-.91-.43-.31-.14-.61-.27-.91-.41-.29-.14-.59-.27-.87-.39.16.06.21.06.24.06-.5-.21-1.03-.44-1.51-.72-.49-.28-.98-.54-1.4-.82-.84-.55-1.49-1-1.71-1.12l-.09-.21c-.41-.22-.72-.39-1-.54-.27-.16-.49-.31-.73-.47-.23-.16-.46-.33-.75-.55-.28-.22-.6-.51-1.01-.87.03,0,.25.14,0-.1-.47-.26-.93-.55-2.03-1.58l.07.02-.84-.82c-.28-.27-.56-.55-.83-.84.07-.06-.08-.27-.34-.55-.13-.14-.29-.31-.46-.49-.17-.18-.35-.38-.54-.58-.76-.8-1.5-1.74-1.55-2.14-.19-.15-.52-.58-.87-1.05-.17-.23-.36-.48-.52-.7-.16-.23-.3-.44-.41-.6.01-.01,0-.06-.05-.18-.16-.17-.32-.39-.48-.65-.15-.26-.3-.56-.44-.86-.14-.3-.28-.61-.41-.89-.12-.29-.24-.56-.35-.79-.32-.57-.26-.29-.19,0-.1-.31-.27-.66-.43-1.03-.16-.37-.35-.75-.53-1.11-.19-.35-.33-.7-.45-.97-.12-.28-.21-.49-.23-.61-.31-.9.01-.38,0-.65-.44-1.34-.25.33-.66-1.54.08.21.21.59.18.44-.04-.18-.08-.39-.1-.63-.01-.24-.02-.5-.03-.75-.02-.51-.07-1.01-.17-1.36,0,.16.02.32.04.48-.19-.63-.25-1.41-.31-2.04-.04-.64-.06-1.14-.2-1.23l-.1.14c-.04-.57-.07-.91-.08-1.14-.01-.23-.03-.35-.05-.47-.02-.12-.03-.24-.05-.48-.01-.24-.04-.58-.02-1.16l.02.03c-.05-1,.07-1.54-.09-2.03l-.03.34c0-.62.02-.96.03-1.3,0-.34.04-.68.1-1.31,0-.15.02-.76.07-.93-.08-.04,0-.77.11-1.56.05-.4.14-.8.21-1.15.07-.34.13-.62.16-.76-.16.99-.01.53.1.27-.02-.6.07-1.01.35-1.78-.15-.16-.35-.38.12-1.94-.04.25-.14.63-.06.49.09-.15.15-.52.18-.65.08-.14-.04.37.08.21.04-.27.08-.53.16-.77.08-.24.16-.48.26-.73.1-.25.2-.51.31-.81.12-.29.25-.61.39-.98-.14.49.06.1.19-.04-.07-.1.16-.59.4-.97.23-.39.41-.7.16-.49.71-1.38,1.7-3.08,2.65-4.52.24-.36.48-.7.7-1.02.23-.32.46-.61.66-.87.2-.26.39-.49.55-.69.17-.19.32-.33.43-.43.13-.1.31-.33.5-.6.09-.13.19-.27.29-.4.1-.13.2-.25.29-.35l.02.12c.44-.61.63-.84.84-1.09.21-.25.46-.51,1.03-1.2-.44.6-.19.42.4-.03l.77-.96.27-.05c.32-.38.78-.7,1.22-1.04.13-.2.5-.56.91-.89.48-.39.97-.79,1.08-.92.57-.14,1.18-.86,1.62-.92.14-.12.32-.26.53-.4-.27.06-.4.03.04-.19.04-.02.06-.04.1-.06h.24c.21-.15.42-.29.61-.42.2-.12.39-.22.53-.3-.14.06-.3.13-.48.19.2-.09.38-.16.56-.24.06-.03.12-.06.16-.08-.03.02-.06.04-.09.06.28-.12.57-.26.93-.51.41-.15.83-.35,1.26-.57.42-.23.86-.44,1.31-.66.89-.46,1.84-.84,2.79-1.06-.28.08-.67.21-.76.29.75-.3,1.54-.49,2.24-.69.35-.1.69-.18,1-.26.31-.08.59-.16.83-.25l-.1-.09c.56-.19,1.08-.3,1.56-.43.48-.12.94-.23,1.42-.3l.03-.13c.35-.05.79-.13,1.27-.22.48-.08,1.01-.15,1.52-.21.51-.08,1.01-.11,1.43-.12.42-.01.77,0,.99.04.17-.07.65-.06,1.19-.06.54,0,1.13,0,1.53,0l.2.1c.2.01.38.02.56.02.73-.04-1.01-.26.27-.19.12.06.23.14.47.21h0c.36.01.68.02.99.03.15.03.3.04.45.07.14,0,.32,0,.63.04l-.02.05s.06,0,.09.01c.13.02.25.04.38.06.5.07.99.12,1.48.17.02,0,.04,0,.06,0-.18-.07-.33-.13-.39-.15.2.07.38.12.56.17.4.05.8.11,1.19.16.23.03.47.07.69.1.23.05.45.1.68.14v.03c.62.11,1.23.21,1.83.36-.49-.04.37.04.9.21.15.03.31.06.49.11.18.05.36.11.55.18.38.13.77.28,1.09.41.35.12.7.26,1.04.39.25.05.59.16,1.06.33-.2-.06-.51-.15-.49-.11.04,0,.09.02.15.03.32.07.78.24.61.23-.07-.05-.09-.03-.13-.01,0,0,0,0,0,0,.13.1-.34-.07-.21.06.51.12.93.29,1.39.5.23.1.47.23.74.36,0,0,.02,0,.02.01-.08-.06-.19-.13-.33-.21-.06-.02-.06-.02-.02-.01-.02-.01-.03-.02-.04-.03.02.01.03.02.06.03.06.02.16.05.2.05.84.43.55.24.54.18.85.58,1.41.79,2,1.3,0,0,0,0,0,0-.28-.25.23,0,.76.33.57.34,1.18.72.94.45.59.56.46.29.81.7-.44-.34-.95-.59-1.42-.83-.1-.05-.21-.1-.31-.15.37.24.74.48,1.13.72.36.23.71.49,1.07.72.36.24.71.48,1.03.73.09.06.17.13.25.19-.04-.04-.08-.07-.1-.09.75.49.77.46.82.44.13.16.24.32.32.46.16.13.3.26.45.38.48.41.85.74,1.03.98.09.14.32.32.57.52-.05-.04-.1-.09-.16-.14-.33-.45.36.11.64.23-.62-.54-.96-.85-1.23-1.11l1.34,1.13h0s-.02,0-.03,0c-.13-.1-.45-.38-.09-.02.03.01.07.03.09.02,0,0,.02.02.03.02.06.06.04.04,0-.02h0s0,0,0,0c0-.01-.02-.02-.03-.03.2.2.4.44.62.66-.21-.2-.43-.42-.7-.64.88.91-.8-.58.47.61-.27-.23-.34-.25-.47-.34.07.06.14.12.2.18l-.12.02c.57.44.78.63,1.01.84.23.21.48.44,1.11,1.01-.48-.38-.43-.24-.14.18l.42.43c.21.17.42.35.63.53l.03.27c.34.33.67.74.96,1.18.19.13.51.5.84.89,0,0,0,0,0,.01-.11-.16-.23-.33-.34-.49.21.25.43.49.63.75-.13-.15-.12-.08-.11-.03.29.39.55.74.66.83.14.53.79,1.15.83,1.57.11.13.25.31.39.5-.06-.26-.01-.39.18.04.02.04.04.06.06.1v.24c.25.41.49.83.65,1.11-.04-.08-.08-.18-.11-.28l-.11-.17s.06.07.08.1c-.01-.04-.03-.07-.04-.11.02.04.03.08.05.12.08.11.11.17.12.23l-.08-.13c.04.09.07.18.11.26-.02-.04-.02-.08-.03-.13.16.24.28.49.43.74-.19-.31-.3-.44-.23-.4-.1-.09-.14-.15-.16-.2,0,.02.01.03.02.05.03.06.06.12.07.15-.02-.03-.03-.06-.05-.09.1.28.22.55.44.91.05.13.1.26.16.4.27.46.08,0-.06-.38.16.33.29.59.36.79.07.19.11.31.1.34-.01.06-.11-.16-.37-.66.26.64.58,1.31.91,2,.37.88.76,1.78.89,2.71-.06-.27-.16-.65-.23-.74.48,1.47.69,3,.95,3.94l.09-.09c.13.55.25,1.04.34,1.51.08.47.14.91.2,1.37l.13.04c.04.33.07.76.12,1.23.02.23.05.48.07.72.01.12.02.25.04.37,0,.12.01.25.02.37.02.49.03.97.02,1.37ZM67.05,84.69l-.08.05s0,.01,0,.02l.09-.06ZM65.77,28.1s0,0-.01,0c.14.15.2.23.01,0ZM59.09,21.47c.11.03.22.07.35.1-.05-.05,0-.06.06-.08l-.73-.19c.09.04.2.1.32.16ZM76.69,32.49c-.2-.14-.4-.27-.59-.41.21.22.41.44.62.67.03-.09.06-.16.14-.14,0,0,0-.01-.01-.01-.03-.02-.06-.04-.09-.06v.03s-.06-.07-.06-.07ZM63.63,26.1c.09.06.18.12.26.18-.08-.06-.17-.12-.26-.18ZM66.1,28.23s.09.08.13.11c-.04-.04-.09-.08-.13-.11ZM76.77,43.83c.01.05.03.11.06.19,0-.04,0-.09-.01-.14l-.05-.05ZM77.17,44.24c-.04-.13-.08-.25-.13-.37.08.29,0,.19-.09.04-.03.01-.06.02-.09.01.11.1.21.21.31.31ZM46.98,93.75h0s0,0,.01,0c0,0,0,0-.01,0ZM86.17,58.27c0-.28-.04-.6-.08-.89,0,.35-.01.7-.03,1.05.03-.09.07-.2.1-.16ZM85.54,50.64c.08.44.15.87.21,1.31l.19.13-.17.05c.06.44.11.89.15,1.33.02-.02.03-.06.04-.14.04-.23,0-.81,0-1.36-.01-.28-.02-.54-.03-.75-.02-.2-.03-.35-.04-.38-.08-.16-.22-.21-.36-.19ZM84.65,45.68l-.04-.1s.01.04.02.06c0,.01.02.03.02.04ZM83.04,42.48c.28.62.53,1.25.77,1.89.29.47.57.91.76,1.19,0-.04-.01-.07-.02-.11l-.4-.9-.03-.32c-.08-.19-.17-.36-.27-.53-.1-.17-.2-.33-.3-.49-.17-.27-.35-.51-.52-.73ZM78.77,34.83s.05.02.08.04c-.14-.18-.07-.07-.08-.04ZM60.94,21.58c.1,0,.22.01.38.04-.47-.15-.5-.13-.38-.04ZM59.38,21.03s.02,0,.03,0c-.43-.16-.64-.25-.03,0ZM58.08,20.77c-.1-.02-.2-.04-.29-.06.24.07.48.14.69.2.32.11.57.2.7.24-.92-.27-.5-.07-.26.07.25.02.47.06.69.11-.05-.04-.15-.1-.3-.17-.26-.1-.49-.19-.69-.25-.2-.07-.38-.1-.54-.14ZM20.84,28.45s.02-.06.05-.09c-.19.16-.08.08-.05.09ZM8.61,48.19c.07-.18.12-.34.16-.49.05-.15.08-.28.09-.39-.13.32-.2.61-.26.88ZM10.52,70.31c-.01-.22-.32-.71-.43-.97.13.47.18.72.43.97ZM46.93,93.75c-.07,0-.18,0-.24.01h0s0,0,0,0h.01s.05-.04.05-.04c-.11-.03-.01-.07.01-.11.03-.04-.08-.08-1.11-.1.61-.02,1.21.05,1.82.07l-.17-.06.35.04-.06.02c.29,0,.58,0,.87-.04-.16-.01-.32-.02-.48-.05.25.02.49,0,.74,0l-.25.05s.09,0,.13-.01l-.66.16c.12,0,.24-.01.36-.02,0,0,.01,0,.02-.01h.08c.22-.02.41-.05.53-.07l-.06.1c.07,0,.15-.01.22-.02.09-.02.18-.04.26-.05,0-.03,0-.05-.07-.05.24-.03.45-.05.13-.11.24.02.47.01.71,0,0,0,0,0,0,0l.88-.07c.06,0,.12-.01.19-.02.29-.05.59-.11.88-.18.05-.01.1-.02.15-.03.05-.05.1-.11-.11-.07.5-.11.93-.23.26-.15,1.37-.21,2.71-.61,4.02-1.12-.02-.01-.06-.02-.09-.02.45-.02.35-.22.56-.33.16-.01.33-.03.49-.05.08-.04.17-.08.25-.11.02-.06-.09-.06-.09-.09.27-.13.54-.25.8-.37.26-.12.53-.24.78-.36.25-.12.5-.23.73-.36.23-.13.44-.27.63-.42.08-.03.12-.02.14,0,.09-.05.17-.11.26-.16.06-.04.13-.09.2-.14.26-.18.54-.39.36-.35.13,0,.29-.07.45-.15.99-.66,1.95-1.37,2.88-2.09.12-.1.25-.2.37-.3.2-.18.41-.35.6-.5.02-.05-.09,0-.17.04.6-.38.64-.55.78-.77l-.05.02.11-.1s.07-.09.11-.13l.13-.09.2-.18c.1-.11.13-.14.14-.13.07-.06.06.01.15-.03l.17-.12c.23-.22.29-.33.35-.45-.03,0-.05.01-.05,0,.03-.03.06-.06.09-.09.01-.03.03-.06.05-.1l-.07.04.23-.26c.08-.08-.01.05-.08.18.14-.14.27-.29.41-.43.03-.04.07-.08.1-.11.07-.07.13-.14.2-.21h-.01c.56-.61,1.14-1.22,1.7-1.87.72-.85,1.36-1.69,1.86-2.52.33-.39.18-.04.33-.19.05-.07.1-.12.14-.17.02-.03.05-.07.08-.11-.41.43-.09-.11.27-.68.04-.06.07-.13.11-.19-.04-.28.19-.66.5-1.09.17-.22.34-.47.49-.73.16-.25.3-.51.4-.76-.02.07-.01.1,0,.12.18-.45.42-.92.65-1.3.23-.38.43-.68.44-.8l.1-.02c.03-.06.05-.12.08-.18.06-.31.1-.5.17-.7.04-.12.09-.24.16-.38.07-.14.15-.31.25-.53,0-.01,0-.03.01-.04.02-.04.05-.1.08-.18.01-.2.07-.46.25-.9l.03.04c.12-.33.22-.66.32-.99.03.01.06,0,.08-.02.09-.28.18-.57.28-.86,0-.01,0-.02.01-.04.07-.36.14-.74.27-.93.05-.17.1-.34.15-.5.04-.31.12-.71.12-.94.02,0,.04-.02.07-.07-.05-.22.03-.5.13-.77.05-.14.11-.28.16-.41.04-.12.07-.23.08-.33,0-.02,0-.03,0-.05-.08.2-.16.39-.26.59.06-.24.1-.48.15-.71-.02.02-.03.04-.05.06.03-.07.06-.16.08-.24.01-.08.03-.16.04-.24.07-.53,0-1.14.06-1.29.07-.41.16-.14.25-.24.04-.62-.34.06-.09-.75,0,.1,0,.28.02.21.02-.11.1-.25.19-.39,0-.2-.01-.36-.03-.63l-.03.16.04-.72c.04-.53,0,1.89.2.16-.02-.01-.05-.28-.07-.6,0-.16,0-.33,0-.49,0-.16.01-.31.04-.43,0,.44-.01.64.01.68.03.04.07-.06.1-.23.02-.41.03-.83.05-1.24l-.19.41c.07-1.68.02-3.39-.13-5.13-.13-.07-.25-.25-.32-.73.04.11.08.27.11.2.03-.08-.03-.24-.05-.29.03-.08.09.15.15.06-.24-.45-.1-.83-.3-1.5.09.19.1.04.14-.05,0,0,0-.02,0-.03-.11-.03-.09-.33-.09-.54,0-.06-.02-.12-.03-.18-.02,0-.04,0-.08.06-.01-.35-.07-.73-.15-1.12-.08-.39-.16-.79-.25-1.16-.19-.72-.36-1.34-.35-1.64-.02-.06-.03-.12-.05-.17-.02-.07-.04-.13-.06-.2-.07-.13-.14-.26-.18-.37h.07s-.01-.05-.02-.08c-.31-.49-.19-.43-.59-1.08.16.19.2.17.21.02-.07-.16-.14-.32-.22-.48l-.17-.2.05-.07c-.05-.1-.09-.2-.14-.3-.34-.31-.72-1.23-1.16-2.31-.01-.02-.02-.05-.03-.07-.03.06-.08.05-.12-.1,0-.02-.02-.03-.03-.04l.04-.09c-.04-.09-.08-.18-.12-.28-.06-.11-.12-.21-.16-.28.02.06.03.14.05.23-.03-.09-.04-.18-.07-.27-.01-.03-.03-.05-.03-.07,0,.01.02.02.03.04-.03-.13-.08-.27-.2-.42-.1-.38-.36-.73-.62-1.09-.25-.37-.52-.72-.64-1.15.04.12.13.28.19.3-.16-.25-.29-.52-.41-.78-.07-.11-.14-.23-.21-.34-.11-.17-.21-.33-.32-.5l-.07.08c-.33-.41-.58-.73-.81-1.08l-.11.05c-.16-.26-.47-.62-.75-.98-.27-.36-.53-.68-.55-.91-.17-.05-.5-.68-.75-.92v-.13c-.26-.36-.47-.55-.67-.74-.22-.42-.54-.73-.85-1.03-.16-.15-.31-.29-.47-.43-.15-.14-.31-.27-.45-.41v-.02s-.62-.52-.62-.52c.21.09-.15-.07-.32-.25-.23-.14-.52-.43-.71-.68l-.39-.35c.36.25.2.04.13-.12-.08-.07-.16-.14-.24-.2,0,0,0,0,0-.01l-.11-.05c-.05-.09.08-.02.1-.03,0-.01-.02-.03-.03-.05,0,0-.01-.02-.03-.03-.21-.09-.72-.51-.95-.55,0,.04.06.11.12.19.03.01.02.01,0,0,0,0,0,.01.01.02,0,0-.01-.01-.02-.02-.03,0-.07-.02-.1-.02-.31-.28-.22-.15-.23-.1-.27-.41-.56-.47-.73-.84.13.23-.09.08-.32-.1-.23-.18-.5-.34-.43-.17-.2-.33-.19-.14-.3-.38.19.16.41.26.63.36.11.05.22.1.33.15-.67-.44-1.29-.84-1.43-1.11-.02,0-.04-.02-.06-.02,0,0,0,0,0,0,0,0,0,0,0,0-.11-.04-.26-.11-.43-.2.11.09.22.19.25.23-.37-.15-.39-.12-.42-.09-.06-.09-.1-.2-.13-.29-.32-.16-.67-.35-1-.51-.09,0-.22-.03-.3-.02.16.08.29.14.39.2.1.06.18.11.24.16-.23-.12-.46-.22-.7-.32h0s.01,0,.02-.01c.07.02.24.1.05-.02-.02,0-.04,0-.05.02,0,0-.01,0-.02,0-.03-.02-.02-.01,0,.01h0s0,0,0,0c0,0,0,0,.01.01-.1-.08-.21-.15-.33-.23.12.06.24.11.38.17-.27-.18-.07-.12,0-.11-.15-.07-.28-.13-.4-.18,0-.02-.03-.05-.13-.12-.55-.15-1.33-.59-2.05-.95l-.06.02-.13-.06.18.04c-.36-.18-.7-.35-1-.45-.1-.03-.18-.05-.23-.06-.03,0-.07,0-.1-.01-.03,0-.04,0-.03.02.01.03.13.11.24.19-.26-.15-.6-.26-.96-.38-.35-.11-.73-.22-1.09-.28-.07-.01-.13-.03-.2-.04.04.02.09.04.13.06-.16-.04-.29-.08-.37-.11-.19-.04-.37-.07-.52-.1-.27-.05-.48-.08-.58-.12-.85-.2-.29-.21-.51-.34-.64-.13-.6-.01-.61.04-.01.06-.07.09-.92-.12.2.02.57.06.43.02-.19-.05-.43-.13-.69-.22l-.27.03c-.16-.04.07-.04.16-.06-.07-.02-.14-.05-.21-.07-.01,0-.03,0-.04,0,0,0,0,0-.01,0h0s-.03,0-.04,0c-.27,0-.52,0-.76,0-.24,0-.46.02-.67.02-.42.01-.81.01-1.23,0v-.54s-.04,0-.06,0c-.38,0-.79,0-1.26,0-.1-.02-.31-.07-.25-.11-.45.02-1,.15-1.39.26-.39.11-.62.22-.44.26-.26.02-.46.03-.63.04-.17.01-.3.02-.43.03-.26.02-.5.04-.94.11,1.44-.02-.28,0-.41.19-.9.16-.33-.03-.75,0-.15.04-.5.16-.52.21-.58-.03,1.03-.5.35-.54-.24,0-.85.02-1.43.08-.57.07-1.11.14-1.18.15-.4.23-.14.76.54.8-.02.05-.24.08-.5.09-.13,0-.27.02-.4.03-.13.01-.26.03-.35.06-.58.08-1,.22-1.4.37-.39.16-.75.34-1.22.45l.68-.31c-.08,0-.46.13-.84.27-.19.07-.38.14-.54.2-.15.07-.27.13-.32.16-.03-.02.12-.15.23-.26.1-.11.16-.2-.06-.16-.41.15-.81.31-1.18.47-.18.08-.36.16-.52.25-.16.09-.31.17-.44.26-.53.33-.84.58-.76.64l1.19-.6c.4-.19.81-.36,1.22-.55.07.05-.36.24-.79.44-.11.05-.21.1-.31.15-.1.05-.18.1-.26.15-.15.09-.23.16-.19.18l-1.13.46c-.37.16-.74.34-1.11.51.28-.14,1.11-.58.74-.49-.94.46-.5.22-1.16.47.51-.33,1.2-.87,1.89-1.32.34-.24.67-.46.96-.66.29-.19.54-.35.71-.47-.39.18-.79.35-1.17.55l-.33.05c-.38.19-.73.4-1.06.61-.32.23-.61.46-.86.67-.25.21-.47.41-.64.57-.17.17-.29.31-.37.39-.85.42-.7.01-.52-.15-.84.43-1.18.78-1.52,1.1-.17.16-.35.32-.58.5-.23.18-.51.4-.9.65l.62-.34c-.18.14-.61.42-.97.66-.37.23-.65.46-.57.43-.32.15-.67.21-.47-.01l-.54.55-.29.3-.28.32c.17-.18-.1-.26-.04-.36-.53.42-.72.93-.36.69-.56.35-.76.49-.93.62-.17.13-.33.23-.79.51-.28.27.19.16.42-.01-.3.32-.56.55-.77.75-.21.2-.38.35-.54.49.95-1.09-.08-.65,0-.97l-.87,1.35c-.28.46-.54.92-.8,1.38.04-.1.04-.43.01-.44,0,.08-.16.31-.4.63-.23.33-.55.74-.9,1.19-.35.45-.7.96-1.05,1.42-.18.23-.33.47-.48.68-.15.22-.29.42-.41.6l.15-.22c.07-.17-.12.05-.36.38-.12.16-.25.36-.36.55-.11.19-.21.37-.28.52.02-.11.1-.22.24-.45-.37.46-.5.82-.63,1.18-.12.37-.24.74-.6,1.22.53-.93.56-1.16.46-1.15-.18.41-.53,1.05-.78,1.56-.23.52-.36.9-.16.76-.29.49-.48.96-.57.86l-.35,1.02c-.11.34-.24.68-.33,1.03.03-.16.01-.32-.22.27.21-.57.4-1.13.57-1.63.09-.25.17-.48.25-.68.09-.2.19-.37.3-.49-.12-.09-.39.29-.25-.29-.92,2.18-1.11,3.49-1.37,4.94l-.35.97-.3.98.05.1-.25.31c-.02.26-.03.43-.05.48-.02.04-.04-.03-.04-.13-.04.21-.05.41-.06.52-.1.06-.15-.32-.15-.72.07-.17.15-.35.23-.53.01-.41,0-.72-.19-.18,0,.08-.02.18-.03.29,0-.27-.01-.44-.08-.26l-.15.79c-.04.26-.07.53-.11.79.06-.17.15-.43.27-.73-.08,1-.15,2.13.13,1.29l-.16.58c-.05.19-.09.39-.13.59,0,.71-.02,1-.03,1.33,0,.33,0,.7,0,1.55-.07.09-.08-.37-.15-.06.02.31.02.66,0,1.01-.02.35-.06.7-.1,1.02-.07.64-.1,1.16-.01,1.3.07,1.01.15.42.24,1.05-.02-.03-.06-.09-.05.1l.18.75c-.02.31-.14-.69-.13.17.09.73.23,1.3.32,1.84.08.54.19,1.05.27,1.66.35,1.7.1-.78.35.67-.05.23-.12.44.08,1.34.18.45.23.37.51,1.14h-.16c.22.72.43,1.29.33,1.33.27.57.41.97.49,1.29.11.27.18.34.2.3.02-.04,0-.19-.03-.39-.06-.39-.18-.95-.2-1.08.14.55.28,1,.41,1.4.14.39.25.73.29,1.07l-.42-.91c.64,2.06,1.01,1.77,1.13,2.81-.31-.67-.76-1.43-.65-1.01l.53.93c.02.13-.29-.54-.12-.08.08.13.21.33.33.52.14.19.27.37.36.48h-.02c.29.5.57,1.02.88,1.52-.12-.18-.16-.17,0,.09.24.35.48.69.73,1.03-.12-.15-.14-.14-.09-.02.05.11.17.32.32.56.87,1.38,1.02.87,1.65,1.97-.11-.15-.14-.16-.25-.31l.33.56c.16-.04.78.68,1.4,1.41.65.69,1.29,1.4,1.47,1.32.28.37.28.39.08.24-.09-.08-.24-.2-.41-.36-.17-.16-.37-.34-.6-.54.2.26.39.53.6.79-.28-.28-.49-.55-.8-.84.19.26.4.51.6.73.21.23.43.42.64.6.42.36.79.66,1.09.86.33.36-.46-.08.63.82.38.33.57.45.64.47.08.03.04-.04-.02-.12-.11-.17-.3-.39.17-.03l.56.68c1.26.85,2.12,1.6,3.18,2.33.25.15.38.21.45.23.28.19.58.37.88.54.3.17.61.34.92.47.31.14.6.28.88.41.27.14.53.27.75.39-.23-.07.48.35.57.44.29.12.57.24.86.35l.87.32c-.77-.28-.78-.18-.96-.15.54.22.81.28,1.18.42-.24-.06-.47-.13-.21.03.62.22,1.25.38,1.88.56-.1-.06-.31-.14-.48-.21.23.08.59.21.98.34.39.13.81.26,1.13.41-.07.02-.31-.02-.38,0-.26-.14-.48-.21-.67-.26-.19-.05-.35-.07-.51-.09.63.23.72.25.71.27,0,.01-.1.01.19.15.91.29,1.32.28,1.11.13.25.1.46.16.66.22.19.06.36.11.53.15.17.05.35.09.55.13.2.04.42.09.69.12l-.23.08,1,.17-.84-.02c.94.25,1.04.21,1.16.18.13-.04.27-.04,1.33.16v.12c.4.05.68.03.94.04.26,0,.49.01.8.12.8.03-1.34-.33.53-.13.16.05.42.11.7.16.28.05.6.08.87.11.56,0-.31-.15-.74-.18,1.34.07,1.77.22,2.16.3.2.05.39.09.69.12.15.01.33.02.55.03.21,0,.45,0,.74-.02ZM55.73,93.64l.26-.03c.15-.07.31-.13-.26.03ZM83.5,71.67s0,.02,0,.03c.19-.39.29-.59,0-.03ZM84.05,69.86c-.13.34-.27.68-.41,1.02-.11.28-.23.55-.35.83.03-.03.05-.07.08-.12.43-.86.57-1.3.67-1.73ZM79.52,78.73l-.05.07s.04-.05.05-.07ZM79.46,78.7s.12-.07.06.03l.42-.61c-.23.33-.34.43-.48.58ZM82.19,74.33c-.15.23.03.21-.08.33-.04.33.74-1.69.08-.33ZM51.87,19.42s-.03-.01-.05-.02c.19.04.34.05.42.02-.26-.05-.5-.09-.71-.13-.08-.03-.16-.06-.24-.08l-.07.03s.02,0,.03.01c-.12-.02-.23-.03-.34-.05.26.06.5.11.7.16.07.02.16.04.25.06ZM147.97,56.7c0-19.79,16.14-35.88,35.98-35.88,10.91,0,20.68,4.89,27.29,12.54h-3.85c-6.02-5.97-14.31-9.67-23.44-9.67-18.26,0-33.11,14.8-33.11,33.01s14.85,33.06,33.11,33.06c9.23,0,17.62-3.8,23.64-9.92h3.85c-6.56,7.8-16.48,12.78-27.49,12.78-19.84,0-35.98-16.09-35.98-35.93ZM279.15,20.82l37.36,71.8h-2.81l-13.18-25.41h-42.88l-13.27,25.41h-2.62l37.41-71.8ZM279.15,26.05l-20.04,38.34,39.97.05-19.94-38.39ZM324.13,20.82l2.57-.2,34.2,66.67,34.2-66.67,2.57.2-36.77,71.8-36.77-71.8ZM432.95,20.82h2.62v71.8h-2.66l.05-71.8ZM502.31,20.82l37.36,71.8h-2.81l-13.18-25.41h-42.88l-13.27,25.41h-2.62l37.41-71.8ZM502.31,26.05l-20.04,38.34,39.97.05-19.94-38.39ZM569.98,21.46h31.24c13.62,0,21.22,5.97,21.81,17.22v1.33c-.54,11.74-8.14,18.06-21.81,18.06h-10.31l31.88,31.14v3.4l-35.14-34.54h-15.1v34.54h-2.57V21.46ZM601.22,55.61c10.86,0,18.95-4.54,19.34-16.29-.35-9.87-7.11-15.64-19.34-15.59l-28.67.1v31.78h28.67Z"/></g></svg>