<?xml version="1.0" encoding="UTF-8"?><svg id="Layer_1" xmlns="http://www.w3.org/2000/svg" viewBox="0 0 297.33 29.55"><defs><style>.cls-1{fill:#c9a96a;}</style></defs><path class="cls-1" d="M291.35,13.97v.05l5.98,4.96v1.75l-6.7-5.73h-56.79v12.55h-2v-12.55h-4.48v12.55h-2v-12.55h-4.48v12.55h-2v-12.55h-4.48v12.55h-2v-12.55h-14.28v12.55h-2v-12.55h-4.48v12.55h-2v-12.55h-13.24l-5.61,14.56-1.87-.72,5.33-13.84h-4.9l-5.61,14.56-1.87-.72,5.33-13.84h-4.16l-5.61,14.56-1.87-.72,5.33-13.84h-4.68l-5.61,14.56-1.87-.72,5.33-13.84h-4.97l-5.61,14.56-1.87-.72,5.33-13.84h-18.17l-2.33,3.09-2.33-3.09h-9.86l-2.33,3.09-2.33-3.09h-1.98l-2.33,3.09-2.33-3.09h-1.98l-2.33,3.09-2.33-3.09h-2.09l-2.33,3.09-2.33-3.09H6.7L0,20.72v-1.75l5.98-4.96v-.05L0,9.01v-1.75l6.7,5.73h82.84l2.33-3.09,2.33,3.09h2.09l2.33-3.09,2.33,3.09h1.98l2.33-3.09,2.33,3.09h1.98l2.33-3.09,2.33,3.09h9.86l2.33-3.09,2.33,3.09h18.94l5.01-12.99,1.87.72-4.73,12.28h4.97l5.01-12.99,1.87.72-4.73,12.28h4.68l5.01-12.99,1.87.72-4.73,12.28h4.16l5.01-12.99,1.87.72-4.73,12.28h4.9l5.01-12.99,1.87.72-4.73,12.28h113.46l6.7-5.73v1.75l-5.98,4.96ZM63.18,19.08h18.58v-2h-18.58v2Z"/></svg>