<?xml version="1.0" encoding="UTF-8"?><svg id="Layer_1" xmlns="http://www.w3.org/2000/svg" viewBox="0 0 297.33 29.55"><defs><style>.cls-1{fill:#c9aa6b;}</style></defs><rect class="cls-1" x="63.18" y="17.08" width="18.58" height="2"/><polygon class="cls-1" points="290.63 12.99 177.17 12.99 181.9 .72 180.03 0 175.02 12.99 170.13 12.99 174.86 .72 172.99 0 167.98 12.99 163.82 12.99 168.55 .72 166.69 0 161.68 12.99 157 12.99 161.73 .72 159.86 0 154.86 12.99 149.89 12.99 154.62 .72 152.75 0 147.75 12.99 128.8 12.99 127.86 12.99 127.86 10.3 125.86 10.3 125.86 12.99 124.13 12.99 114.27 12.99 113.5 12.99 113.5 10.3 111.5 10.3 111.5 12.99 109.6 12.99 107.62 12.99 106.48 12.99 106.48 10.3 104.48 10.3 104.48 12.99 102.95 12.99 100.97 12.99 99.46 12.99 99.46 10.3 97.46 10.3 97.46 12.99 96.3 12.99 94.21 12.99 92.44 12.99 92.44 10.3 90.44 10.3 90.44 12.99 89.54 12.99 6.7 12.99 6.7 14.99 89.54 14.99 90.44 14.99 90.44 18.08 92.44 18.08 92.44 14.99 94.21 14.99 96.3 14.99 97.46 14.99 97.46 18.08 99.46 18.08 99.46 14.99 100.97 14.99 102.95 14.99 104.48 14.99 104.48 18.08 106.48 18.08 106.48 14.99 107.62 14.99 109.6 14.99 111.5 14.99 111.5 18.08 113.5 18.08 113.5 14.99 114.27 14.99 124.13 14.99 125.86 14.99 125.86 18.08 127.86 18.08 127.86 14.99 128.8 14.99 146.97 14.99 141.64 28.84 143.51 29.55 149.12 14.99 154.09 14.99 148.75 28.84 150.62 29.55 156.23 14.99 160.91 14.99 155.57 28.84 157.44 29.55 163.05 14.99 167.21 14.99 161.88 28.84 163.75 29.55 169.36 14.99 174.25 14.99 168.92 28.84 170.79 29.55 176.4 14.99 189.63 14.99 189.63 27.54 191.63 27.54 191.63 14.99 196.11 14.99 196.11 27.54 198.11 27.54 198.11 14.99 212.39 14.99 212.39 27.54 214.39 27.54 214.39 14.99 218.87 14.99 218.87 27.54 220.87 27.54 220.87 14.99 225.35 14.99 225.35 27.54 227.35 27.54 227.35 14.99 231.84 14.99 231.84 27.54 233.84 27.54 233.84 14.99 290.63 14.99 290.63 12.99"/></svg>