<?xml version="1.0" encoding="UTF-8"?><svg id="Layer_1" xmlns="http://www.w3.org/2000/svg" viewBox="0 0 297.33 20.36"><defs><style>.cls-1{fill:#c9a96a;}</style></defs><path class="cls-1" d="M291.35,6.7v.05l5.98,4.96v1.75l-6.7-5.73h-51.34v12.64h-2V7.73h-4.3v12.64h-2V7.73h-4.3v12.64h-2V7.73h-4.3v12.64h-2V7.73h-8.31l-2.33,3.09-2.33-3.09h-2.09l-2.33,3.09-2.33-3.09h-1.98l-2.33,3.09-2.33-3.09h-1.98l-2.33,3.09-2.33-3.09h-8.51v12.64h-2V7.73h-4.3v12.64h-2V7.73h-4.3v12.64h-2V7.73h-4.3v12.64h-2V7.73h-11.84v12.64h-2V7.73h-4.02v12.64h-2V7.73h-4.02v12.64h-2V7.73h-4.02v12.64h-2V7.73h-4.02v12.64h-2V7.73h-6.59l-2.33,3.09-2.33-3.09h-2.09l-2.33,3.09-2.33-3.09h-1.98l-2.33,3.09-2.33-3.09h-1.98l-2.33,3.09-2.33-3.09h-7.79v12.64h-2V7.73h-4.3v12.64h-2V7.73h-4.3v12.64h-2V7.73h-4.3v12.64h-2V7.73H6.7L0,13.46v-1.75l5.98-4.96v-.05L0,1.75V0l6.7,5.73h80.02l2.33-3.09,2.33,3.09h1.98l2.33-3.09,2.33,3.09h1.98l2.33-3.09,2.33,3.09h2.09l2.33-3.09,2.33,3.09h73.91l2.33-3.09,2.33,3.09h1.98l2.33-3.09,2.33,3.09h1.98l2.33-3.09,2.33,3.09h2.09l2.33-3.09,2.33,3.09h80.54l6.7-5.73v1.75l-5.98,4.96Z"/></svg>