<?xml version="1.0" encoding="UTF-8"?><svg id="Layer_1" xmlns="http://www.w3.org/2000/svg" viewBox="0 0 297.33 20.36"><defs><style>.cls-1{fill:#c9aa6b;}</style></defs><polygon class="cls-1" points="290.63 5.73 210.09 5.73 208.79 5.73 208.79 2.93 206.79 2.93 206.79 5.73 205.42 5.73 203.33 5.73 202.08 5.73 202.08 2.93 200.08 2.93 200.08 5.73 198.67 5.73 196.68 5.73 195.37 5.73 195.37 2.93 193.37 2.93 193.37 5.73 192.01 5.73 190.03 5.73 188.66 5.73 188.66 2.93 186.66 2.93 186.66 5.73 185.36 5.73 111.45 5.73 110.02 5.73 110.02 2.93 108.02 2.93 108.02 5.73 106.78 5.73 104.69 5.73 103.32 5.73 103.32 2.93 101.32 2.93 101.32 5.73 100.02 5.73 98.04 5.73 96.61 5.73 96.61 2.93 94.61 2.93 94.61 5.73 93.37 5.73 91.39 5.73 89.9 5.73 89.9 2.93 87.9 2.93 87.9 5.73 86.72 5.73 6.7 5.73 6.7 7.73 58.04 7.73 58.04 20.36 60.04 20.36 60.04 7.73 64.33 7.73 64.33 20.36 66.33 20.36 66.33 7.73 70.63 7.73 70.63 20.36 72.63 20.36 72.63 7.73 76.93 7.73 76.93 20.36 78.93 20.36 78.93 7.73 86.72 7.73 87.9 7.73 87.9 10.72 89.9 10.72 89.9 7.73 91.39 7.73 93.37 7.73 94.61 7.73 94.61 10.72 96.61 10.72 96.61 7.73 98.04 7.73 100.02 7.73 101.32 7.73 101.32 10.72 103.32 10.72 103.32 7.73 104.69 7.73 106.78 7.73 108.02 7.73 108.02 10.72 110.02 10.72 110.02 7.73 111.45 7.73 118.04 7.73 118.04 20.36 120.04 20.36 120.04 7.73 124.06 7.73 124.06 20.36 126.06 20.36 126.06 7.73 130.08 7.73 130.08 20.36 132.08 20.36 132.08 7.73 136.1 7.73 136.1 20.36 138.1 20.36 138.1 7.73 142.12 7.73 142.12 20.36 144.12 20.36 144.12 7.73 155.96 7.73 155.96 20.36 157.96 20.36 157.96 7.73 162.26 7.73 162.26 20.36 164.26 20.36 164.26 7.73 168.56 7.73 168.56 20.36 170.56 20.36 170.56 7.73 174.85 7.73 174.85 20.36 176.85 20.36 176.85 7.73 185.36 7.73 186.66 7.73 186.66 10.72 188.66 10.72 188.66 7.73 190.03 7.73 192.01 7.73 193.37 7.73 193.37 10.72 195.37 10.72 195.37 7.73 196.68 7.73 198.67 7.73 200.08 7.73 200.08 10.72 202.08 10.72 202.08 7.73 203.33 7.73 205.42 7.73 206.79 7.73 206.79 10.72 208.79 10.72 208.79 7.73 210.09 7.73 218.4 7.73 218.4 20.36 220.4 20.36 220.4 7.73 224.7 7.73 224.7 20.36 226.7 20.36 226.7 7.73 230.99 7.73 230.99 20.36 232.99 20.36 232.99 7.73 237.29 7.73 237.29 20.36 239.29 20.36 239.29 7.73 290.63 7.73 290.63 5.73"/></svg>