<?xml version="1.0" encoding="UTF-8"?>
<svg id="Layer_1" xmlns="http://www.w3.org/2000/svg" version="1.1" viewBox="0 0 510 560">
  <!-- Generator: Adobe Illustrator 29.8.2, SVG Export Plug-In . SVG Version: 2.1.1 Build 3)  -->
  <defs>
    <style>
      .st0 {
        fill: #c8a96a;
      }
    </style>
  </defs>
  <path class="st0" d="M254,79.6c.1,0-.1-.5.5-.4,0-.1.6.4-.5.4ZM279.8,83c.1,0,.1,0,.2.1.2,0,.5.1,1,.3-.2-.4,1.2,0-1.2-.4h0ZM280,83.1c-1-.3.6.4,0,0h0ZM284.4,84.8c1.5.3,1.2,0,.5-.5h-1.5c.2,0,1.5.5,1,.5h0ZM286.4,84.2h-.7c.1,0,.3,0,.7,0ZM284.9,84c.2-.2-.2,0-.9,0,.5,0,1.1.1,1.6.2-.2-.2-.1-.4-.7-.1h0ZM293.2,87.7c.1-.1-.3-.6-.3-.8l-1-.2c.5.3,1.4.8,1.4,1h0ZM292.9,86.9l1.6.3c-1.3-.6-1.6-.5-1.6-.3ZM299.5,90.1h-.7c0-.1-1-.2-1-.2l1.7.2h0ZM302.3,92.3c1,.4,1.9.6,2.8.8-.9-.3-1.6-.8-2.7-1.5-.7,0,.6.8-.1.7h0ZM305.1,93.2c.5.2.9.3,1.4.4-.4-.1-.9-.2-1.4-.4ZM297.9,89.2l-.4-.7c-.2,0-.4-.2-.6-.2,0,.1.2.4,1,.9h0ZM297.5,88.5h0c.6.3,1,.5,1.2.6-.2,0-.5-.3-1.2-.6ZM296.8,88.2s0,0,.1,0c0,0,0,0-.1,0ZM294.5,87l1.8.4-1.5-.7c0,.1.2.4-.3.3ZM304.1,91.8c.7.2,1.5.5,2.3.9-.8-.5-1.7-1-2.5-1.5-.2,0-.7,0,.3.6h0ZM300.9,90.2s.1,0,.2,0c0,0-.1-.1-.2,0ZM314.2,97.1s0,0,0-.1h0c0,0,.1.1.1.1ZM303.8,91.1c-.6-.4-1.1-.5-1.5-.5.5.2,1.1.4,1.6.7,0,0,.1,0-.1-.2h0ZM308.8,94.5c-.3-.3-.6-.5-1-.8.3.3.8.8,1,.8ZM301.3,90.4s0,0-.1,0c.2.2.2.1.1,0ZM301.3,90.4c.4,0,.7.1,1,.2-.4-.2-.8-.3-1.2-.4,0,0,.1.2.2.2h0ZM312.5,96.7c1.1.4,1.4.4,1.5.3l-2.9-1.8h.2c0,0-.6-.2-.6-.2.6.5,1,.9,1.8,1.7h0ZM314.3,97.5l-.5.2,1.7.2-1.1-.4h0ZM317.4,99.3l-.3.3.9.3-.6-.6h0ZM374.7,166.4l.2-.5c-.4-.7-.7-1.3-.8-1.8.2,1.2.2,2.6.6,2.3h0ZM345.3,122.4c.6.8,1.1,1.5,1.5,2-.6-1.1-1-2-1.5-2ZM386.9,272.2c0,.5,0,.7.1.7,0-.5,0-.8-.1-.7ZM346.9,124.4c.5.8,1.1,1.6,1.9,2.2,0-.2-.2-.3-.3-.5-.5-.5-1.1-1-1.7-1.7ZM265.1,392.2c-.2,0-.7,0-1.4.2.3,0,.9-.1,1.4-.2ZM328.8,107.8c-.6-.4-.1,0,0,0h0ZM328,106.9c.2.2.4.5.7.7-.1-.1-.3-.3-.7-.7ZM328,107.2c-.2-.2-.3-.3-.5-.4-.1,0,0,0,.5.4ZM328.8,107.8c.2.1.4.3.8.6-.3-.3-.6-.5-.9-.8.1.1.1.2,0,.2h0ZM322.8,103.1c0,0,0,.3-.2.2l1.2.8c-.6-.4-.8-.7-1.1-1ZM322.6,103.4h-.1c0,0,.1,0,.1,0ZM331,109.1c-.4-.4-.6.2-.7-.1-.8,0,3.2,1.8.7.1ZM413.4,176.3c-.2-.5-.5-1.1-.9-2.2,0,.8-1.3-2.4,1.1,2.8,0-.3-.1-.4-.1-.5h0ZM413.4,176.3c1,2.3-.4-1.6,0,0h0ZM410.1,168.7c-.1-.7-1.4-3.4-.8-2.4-.8-1.5-1.2-2.1-1.3-2-.1,0,.1.7.5,1.6l1.7,2.9h0ZM398.2,147.9c-.2,0,.3,1.2.2,1.5l1.5,1.9c-.6-1.1-1.9-3.1-1.8-3.4ZM398.5,149.3l-2.3-2.9c1.8,2.7,2.2,3.1,2.3,2.9ZM391.5,138l-2.8-2.5,1.2,1.1,1.6,1.4h0ZM381.3,126.6c.8.9,1.6,1.8,2.4,3,1.3.9-1-1.9.2-.8-.9-.9-1.7-1.7-2.5-2.5-.8-.7-1.7-1.3-2.4-1.9.8.7,1.6,1.4,2.4,2.3ZM376.4,122.3c.8.7,1.6,1.3,2.5,2.1-.8-.7-1.7-1.4-2.5-2.1ZM391.7,140.2c.3.4.6.8.9,1.1,0-.3-.2-.9-1.4-2.6l.5,1.4h0ZM391.8,140.3h0c-.9-1.3-1.6-2.1-1.9-2.5.2.3.9,1,1.9,2.5h0ZM392.8,141.7c0-.1-.1-.2-.2-.3,0,.1,0,.2.2.3ZM392.2,142l1.2,1.4-.8-1.2-.4-.3ZM380.2,127.2c.4.4.7.8,1.1,1.2.3.1,1.1.7-.5-1.1-1.3-1.1-2.6-2.3-4.1-3.8.8.8,1.5,1.6,2.3,2.4.4.4.8.8,1.2,1.2ZM386.3,133.5c0,0-.2-.2-.3-.3.1.2.2.4.3.3ZM361.4,110.2c0,0,.1.2.2.3,0,0,0,0,.1,0l-.3-.2h0ZM381.5,128.7c1.1,1.3,1.8,1.9,2.5,2.6-.9-.9-1.8-1.8-2.7-2.9-.1,0-.2,0,.2.3ZM372.1,118.6c.6.7,1.3,1.4,2,2.1-.5-.7-1.7-2-2-2.1ZM385.8,132.7c0,0,.1.1.2.2-.3-.5-.3-.4-.2-.2ZM385.8,132.7c-.6-.6-1.2-1-1.7-1.4.7.7,1.4,1.4,2,2-.1-.2-.2-.4-.3-.5h0ZM367.2,115l1.2,1c-1.3-1.2-2.2-2.1-3.9-3.9-2.1-1.5-2.7-1.7-2.9-1.7,2,1.6,4,3.3,6,4.9l-.5-.3ZM361.9,109.7l-3.3-1.6,2.3,1.5h1ZM354.8,104.7l-1.9-1,1.4,1.2s.5-.2.5-.2ZM112.3,317.2l1.1,1.4c-.5-.7-.8-1.1-1.1-1.4ZM105.9,306.1l-.3-.2c.4.5.6.6.3.2ZM161.1,99.5h.9c1.6-1.1,2.8-1.8,3.9-2.3-2.5,1-5.3,2.1-4.8,2.3h0ZM89.6,201.1c0,.8-.2,1.6-.3,2.5,0-.2.2-.5.3-.7v-1.8h0ZM89.9,209.1c.2-.7.5-1.8.9-3.3l-.9,3.3ZM162.2,365.7l2,.7c-2.8-1.7-1.7-.7-2-.7ZM105.6,315.3c.7.9,1,1.3,1,1.2-.7-.9-1.1-1.5-1-1.2ZM265.4,74.3c.4,0,.8.1,1.2.2,1.7,0,3.4,0,5.4.3-2-.4-4.4-.6-6.6-.5h0ZM326,88.9c1.6.7.3,0,0,0h0ZM248.4,76.8h-.1c.5,0,.4,0,.1,0ZM328.3,90.1c-.6-.3-1.2-.7-2-1,.3.2.9.5,2,1ZM328.1,89.7c.5.3.9.5,1.3.7.2,0,0,0-1.3-.7ZM326,88.9c-.5-.2-1.1-.5-2.2-.9.9.4,1.7.8,2.5,1.1-.3-.2-.4-.2-.3-.2h0ZM133.8,127.4c0,0,0,0,.1-.2,0,0-.1.1-.2.2h0ZM130.6,129.9l-.7,2c1.3-2.3,2.4-3.2,3.9-4.5l-2.3.5-.8,2h0ZM237.4,391.2c-.1,0-.3,0-.4,0,.1,0,.2,0,.4,0ZM355.6,365.4c-.1,0-.3.1-.4.2,0,0,.2,0,.4-.2ZM109.3,312.4c.1.2.2.4.4.6-.1-.2-.3-.4-.4-.6ZM90.6,205.5c-.2.3-.2.4-.4.5,0,.5,0,.5.4-.5ZM162.2,365.7h-.4c0-.1.2,0,.2,0,.1,0,.2,0,.2,0h0ZM226,80.9c-1.2.1-1.8.1-2.3.1,0,.1.5.1,2.3-.1ZM341.7,96.5l.3.2c-.1,0-.3-.1-.3-.2ZM341.6,96.7c0-.1-.4-.5.1-.2l-3-1.5c1.6.8,2.1,1.2,2.9,1.8h0ZM218.9,80.4l1.1-.2-.4-1-.8,1.2ZM167.7,101.4c-2.6,1.9-4.1,2.6-2.5,2.4,2.3-1.2,2.5-1.5,2.6-1.8s.2-.5,2.4-1.5c1-.8-3.5,1.6-2.5.8ZM167.7,101.4c.4-.3.9-.6,1.3-.9-.8.5-1.1.7-1.3.9ZM95.8,279.4c0,.5.2,1.3.6,2.8l-.4-2.6-.2-.2h0ZM115.2,321.2v-.9c0,0-.3-.6-.3-.6l.3,1.5h0ZM138.1,346c-.3-.3-.6-.6-1-.9.3.3.6.6,1,.9ZM140.8,348.3c-.8-.8-1.8-1.5-2.7-2.4,1.8,1.8,2.6,3.1,2.7,2.4ZM210.9,61.8c-.4,0-.2.3-.2.3.6,0,.2-.4.2-.3ZM217.5,60.6c-.3,0-.4.1-.7.2,0,0,0,0,0,.1.3-.1.5-.2.8-.4ZM219.3,60.5c0,0-.1,0-.2-.1-.1.2-.2.3-.4.5,1.2-.2,2.7-.5,3.6-.5-.6-.5-2,.2-3,.1h0ZM224.8,61.3c0,0,0,0,.1,0,.1,0,.3,0,.6,0-.2-.2.6-.2-.7,0h0ZM224.9,61.3c-.6,0,.4.1,0,0h0ZM227.6,61c-.3,0-.4.2-.7.3.2,0,.9,0,.6.2.8-.2.6-.3,0-.4ZM227.9,60.6c0,0,.2,0,.4-.1-.1,0-.2,0-.4.1ZM227.5,60.7c0-.2-.1,0-.4.2.3,0,.5-.2.8-.2-.1,0-.2-.2-.4,0h0ZM226.6,60.8c-.4,0-1,0-.3-.3-1.4.2-1.2.6.3.3ZM222.5,59.8c-.2,0-.4,0-.6-.1-.2,0-.3.1-.5.2.2-.1,1.1,0,1.1-.1h0ZM232.4,60.7c0-.1-.3-.3-.4-.4-.2,0-.3.1-.5.2.3,0,.9,0,.9.2ZM232,60.3c.3-.1.5-.2.8-.3-.8,0-.9.2-.8.3ZM228.2,59.9c-.5.2-.8.3-1.3.5.6-.2.9-.3,1.6-.6-.1,0-.2,0-.3,0h0ZM235.6,60.3c-.2.1-.2.2-.4.3.3-.2.4-.3.8-.5-.1,0-.2.1-.3.2ZM239.4,59.8c-.4.2-.9.2-1.6.1-.3.3.6.3.2.5.6-.1,1-.4,1.4-.6h0ZM239.4,59.8c.2,0,.5-.2.7-.3-.2,0-.4.2-.7.3ZM235,60.1c-.2-.1-.2-.2-.4-.3-.1,0-.2,0-.3,0,0,0,.2.2.7.2ZM234.5,59.8h0c.4,0,.6,0,.7,0,0,0-.3,0-.7,0h0ZM234.1,59.9h0s0,0,0,0ZM230.5,59.9c.4-.2,1.4-.5.4-.7-.3.3.3.3-.4.7ZM232.7,59.6c0,0,.2.2,0,.3.4-.1.5-.2.9-.3-.4,0-.5,0-.9,0h0ZM234,59.4c-.2,0-.2,0-.4.2.1,0,.2,0,.3,0,0,0,0,0,0-.1h0ZM238.4,59.4c.4-.2.8-.3,1.2-.4-.5,0-1.1,0-1.6.1,0,.1-.2.3.3.2h0ZM236.5,59.6s0,0,0,0c0,0-.1,0,0,0ZM244.3,58.3s0,0,0,0h0c0,0,0,0,0,0h0ZM238,59.1c-.4,0-.6,0-.8.2.3,0,.6-.1.9-.2,0,0,0,0-.1,0h0ZM241.3,59.1c-.2,0-.4,0-.7,0,.2,0,.6.2.7,0ZM236.8,59.6s0,0,0,0c.1,0,.1,0,0,0ZM236.8,59.6c.2,0,.3-.2.5-.3-.2,0-.4.1-.6.2,0,0,.1,0,.1,0ZM246.1,56c-.4.2-.6.2-.9.4,0,0,.3-.3,0-.3,0,.3-.9.7-1.8.6-.8.4,0,1.2.9,1.6,0-.1,0-.2.8-.6-.4,0-2,0-1.4-.4,1.1-.3,1,0,1.6,0-.6-.3,1.3-.8.9-1.3h0ZM242.5,58.5c-.1,0-.2,0-.4,0,.4,0,.7,0,1.3.2.6-.2.6-.4.7-.5-.7.1-1.1.2-1.8.3,0,0,0,0,.1,0ZM241,58c-1,.2-.7.4-1.2.6,1.7-.3-.4.2.8.2-.3.1-.6.2-.9.2h.9s0,0,0,0h0c0,0-.1,0,0,0,0,0,0,0,0,0,0,0,0,0,0-.1.5,0,.1,0,0,.1,0,0,0,0,0,0h0c.7-.2,1-.3,1.6-.4-.4,0-.8,0-1.6.3.2-.4,1-.6.4-.9h0ZM231.6,58.5c0,0,0,0,0,0,.1,0,.1,0,0,0ZM231.8,58.9c.6,0,1.3.2,1.5.3-.2-.2-.5-.4-.9-.6-.1,0-.2.2-.6.2-.4,0,0-.2,0-.2-.2.1-.8.3,0,.4,0,0,0,0,.1,0h0ZM233.3,59.2s0,0,0,0c0,0,0,0,0,0ZM236.5,58.7c.6-.1.8-.2,1.4-.4-.3,0-.5,0-.8-.2,0,0,0,0,0,.2-.8,0-.6.2-.7.4h0ZM244.4,58.8c.3-.2.4-.4.7-.6-.2,0-.4.2-.6.2,0,.1,0,.2,0,.4ZM246.3,58.4c.2,0,.3-.2.4-.3-.2,0-.3,0-.4,0,0,.1,0,.2,0,.3ZM290.3,45.9c-.1,0-.2-.1-.3-.2-.4.2-.7.3-.9.3.7,0,1.5.2,1.2,0h0ZM304.4,26c-.1-.1-.3-.2-.4-.4,0,0,0,.1,0,.2.2,0,.3.1.5.2ZM264.6,53.8c.5,0,1,0,1.3-.2-.7,0-1.2-.2-1.3.2ZM284.5,17.1c-.2.2-.2.3-.1.3.1-.2.2-.3.1-.3ZM267.3,53.3h-.3c-.3.2-.7.3-1.1.4.5,0,1,0,1.4-.4ZM205.6,55c.2,0,.6-.2.9-.2-.2,0-.5,0-.9.2,0,0,0,0,0,0,0,0,0,0,0,0ZM253.6,56.7c-.4,0,0,0,0,0h0ZM251.5,55.7c0,0,0,.1-.1.2,0,0,.1-.1.1-.2ZM270.2,50.4h0c-.1,0-.1,0,0,0ZM253,56.7c.2,0,.3,0,.5,0,0,0-.2,0-.5,0ZM253.1,56.9c-.1,0-.2,0-.3,0,0,0,0,0,.3,0ZM253.6,56.7c.1,0,.3,0,.5-.1-.2,0-.4,0-.6,0,0,0,.1,0,.1,0ZM206.5,54.8c.8-.2,1.4-.4,0-.3,1.2-.1,2.2-.3,3.2-.5.5,0,.8-.1,1.3-.2.3,0,.6-.1,1-.2,1.3-.3,2.5-.6,3.7-1,2.4-.8,4.8-1.7,7.3-2.1.3-.1,0-.2-.1-.3,1.1.1.7-.5,1.1-.7.6,0,.9.1,1.6.2.4-.4,0-.4-.1-.5,2.3-.9,4.9-1.2,6.6-2.3.7,0,.1.5.9.3-1.4-.2,2.1-1.2,1.2-1.3,1.1.3,2.9-1,3,0,1-.3.6-.7.2-.7,1.1-.4,2-.8,2.7-1.4.7,0,4.7-2.3,6-2.1-.9-.1,0-.2.4-.7-.3,0-.5,0-.8-.1.6-.2.8-.4,1.4-.6.2-.2.3-.2.4-.2.2,0,0,.2.7,0,.9-.4.9-.7,1.2-1.1,0,0-.1,0-.2,0,.2-.1.4-.2.6-.3.5-.2-1.4,1.2.2.6,0-.1.5-1,1.1-1-.8.4-.5.6-.2.5.4-.2.6-.3,1.1-.5-.3-.1-.4-.2-.6-.3,3-1.5,6.3-2.8,9.4-4.6.2.4,2.2-1.2,2.3-.5,0,0,0,0-.2,0-.3.2-.3.3-.1.3.3-.2.7-.4,1-.6,0-.3.4-.8-.7-.2.4-.4.6-.6,1-1-.1-1.5,3.2-1.8,4.7-3.3,0,.1,0,.2,0,.2,1.3-1.3,3.7-2,3.9-2.4.1,0,.2.1.4.2,1-1.3,1.1-1.5,2.8-2.4,0,0-.1.3.2.2.2-.5.4-1,1.5-1.6,0,0,0,0,0,.1.6-.5,1-.7,1.6-1.2.7.9,2.3-2.5,3.5-2,.1-.5,1.2-1.5,1.6-2,0,0,.1,0,.2,0,.1-.5.7-.8,1.3-1,.6-.2,1.3-.3,1.7-.5.5-.3.2-.4,0-.5.7,0,1.5-.3,2.3-.6.4-.1.8-.2,1.1-.3.3,0,.5,0,.6,0,1,.1.3.4.5.7,1.3,0,0-1.1,1.7-.3-.2,0-.6,0-.5,0,.4,0,.7.6,1.1,1,.4.4.7.8,1,.8-.1-.1-.2-.2-.3-.3.3,0,.6.1.9.3.3.2.5.4.7.6.4.4.7.7,1,.4,0-.1,0-.2,0-.4.4.3.6.5.8.7s.3.2.4.2c.2,0,.4.1,1.1.9h0c.8.5.7,1.2,1.5,1,0-.1-.1-.1-.2-.3.4.3.6.6.8.8s.4.5.7.9c.1,0,.5.4.5.6.2-.1.6.4,1,1,.4.6.7,1.3.8,1.6-.5-.8-.5-.3-.5,0,.6.3.8.6.8,1.4.3,0,.6-.1,1,0,.2,0,.3.2.5.4.1.2.2.5.3.9-.1-.2-.3-.6-.4-.4s.1.5.2.6c-.1.2-.3-.3-.5,0,.4.4.5.9.5,1.4,0,.5-.1,1.1,0,1.8-.2-.5-.3,0-.5,0,.4,0,.1.6,0,1-.2.4-.4.7.1.5-.6,1.4-1.5,3.1-2.6,4.3-.3.3-.5.6-.8.9-.3.3-.5.5-.8.7-.2.2-.5.4-.7.5-.2.1-.4.2-.6.2-.4,0-.8.8-1.2,1.1,0-.1,0-.2-.1-.3-.5.6-.7.8-.9,1-.2.2-.5.4-1.1,1,.5-.6,0-.6-.7-.5-.3.4-.5.6-.8,1-.2-.1-.2-.2-.4-.3-.4.3-.9.5-1.4.6.2,0,0,0,0-.2,0,.7-1.9,1.4-2,1.8-.8-.4-1.2.7-1.8.3-.1.1-.3.3-.5.4.4.2.6.4,0,.4,0,0,0,0-.1,0-.1,0-.2-.2-.3-.2-.4.2-.8.5-1.1.6.1,0,.3,0,.5,0-.2,0-.4,0-.6,0,0,0-.1,0-.2,0,0,0,0,0,0,0-.3,0-.6,0-.9.3-1.8,0-3.1,2-5.2,1.9.3,0,.7-.1.7-.3-1.4.5-3.1.6-3.9,1.1,0,.1.1.2.2.3-1,.5-1.8.9-2.7,1.1,0,.2,0,.2.1.4-1.3.3-3.8,1.7-4.9,1.2-.2.4-1.8.4-2.5.7-.1,0-.2-.1-.3-.2-1,.2-1.5.4-2.1.7-2.1,0-3.7,1-5.5,1.4,0,0,0,0,0,0-.7.2-1,.4-1.7.6.4-.4-.3.3-.8.3-.5.3-1.4.4-2.1.4-.5,0-.7.1-1.1.2,1.2-.5-.2-.4-.4-.7-.2.2-.4.2-.6.4-.3,0,.4-.3-.2-.3-.4.3-1.8.6-2.2,1,.1,0,.3.1.5.1q0,0,0,0h0,0c0,0-.1.1-.2.2-.9.1-.6.2-.5.3-1.2-.3-1.6.2-2.6-.3,1.3.5-2.3.5-1.5,1-.9-.4-.5,0-1.1-.3,1.1,0,2-.7,2.8-1.1-.4,0-.6,0-.9-.1.4-.7,1.9-.2,2.4-.5-.3.2-1.1.2-1.2,0,.1.2.2.2.4.4,1.2,0,2.1-.6,2.9-1-.8,0,.9-.5.2-.7-.2,0-.4.1-.6.2-.3,0,.2-.4.5-.6,2.1-.1,5.6-1.2,6.4-1.1-.4,0-1.1.3-1.5.5.4,0,.6,0,1,0-.7.2-1.5,0-2.5.4.3.2-.4.8.6,1,2.3,0,1.5-1.1,4.1-1.7.2-.1-.4.6.9,0,1.4-.6,2.3-1.4,2.4-2-.5.1-.9.2-1.4.4-.2,0-.4.1-.6.1-17.1,4.4-34.6,7-52.8,7.9-.4-.7-.7-1.2-1-1.7,0,0,0,0,0,.1-.2.4-.3.9-.9.5.1.1.2.2.3.3,0,0,.1.2.2.3-.2,0-.3,0-.5-.3-.2-.2-.4-.5-.6-.9-.4-.6-.8-1.3-1.3-1.6-.2-.5-.3-1-.4-1.5.5,0,.7,0,1.2-.1-.4,0-.2-.4-.8-.3h0ZM257.7,55.5s0,0,0,0c.5,0,.7,0,0,0ZM271.8,49.6c-2,.6-3.9,1.1-5.9,1.7,0,0,0,0,0,0,1.6-.4,2.6-.5,4.3-1,.1,0,.4.2.4.3.4-.2.9-.6,1.1-1h0ZM277.7,47.8c-.9.3-1.8.6-2.6.8,0,.2,0,.3.2.4.5.1,2.5,0,2.7,0,.1-.3,0-.8-.3-1.2h0ZM286,44.9c-.6.2-1.2.4-1.8.7-.5.7-1,1.4-1.2,1.8.4-.3.6-.4,1-.7.2,0,.2,0,.4.1.7-.4,1.2-1.2,1.6-1.9h0ZM297.3,40.5c-.2.1-.5.2-.7.3.2.2.3.4.3.5.2-.3.3-.6.4-.9ZM304.6,30.9c0-.3-.2-.5-.3-.7,0,.6,0,1.2-.1,1.7.2,0,.3,0,.5.3,0-.5,0-.9,0-1.3h0ZM303.3,25.2c0,.2.1.4.2.6.1,0,.3,0,.4.1,0,.2,0,.4-.1.5.4.2.7.4.8-.1,0,0-.1-.1-.2-.2.3.1.5.2.5,0-.2-.4-.5-.8-.8-1.1,0,.2,0,.5-.1.8-.2-.2-.4-.4-.6-.5h0ZM247.8,40.1c-.1,0-.2,0-.3,0,0,.2-.2.3.3,0ZM249.7,57.7c.3,0,.5-.2.8-.3-.4,0-.6,0-.8,0,0,0,.2.2,0,.2ZM241.8,56.9c-.1,0-.3,0-.4.1,0,0,0,0,0,.2.5,0,.9-.3.3-.3ZM247.5,56.8c0,.4.5.2,1.1,0-.1-.3-.6,0-1.2,0,0,0,0,0,.1,0ZM246.7,56.9c0,.2.2,0,.5-.1-.2,0-.4,0-.5.1ZM254.8,56.2c-.3,0,0,.4-.2.3-.2.4,1.7-.8.2-.3ZM247.8,55.8c.1.1.2.2.3.3.1-.1.1-.2.2-.3-.2,0-.3,0-.6,0ZM252.5,55.2c-.4,0-.6,0-.9,0,0,0,0,.1-.2.2.6-.1,1.2-.2,1.2-.3h0ZM251.3,55.5c-.3,0-.6.1-.7.2.2,0,.5-.1.7-.2ZM250,55.4c-.4,0-.6,0-1,0,.1,0,.2,0,.3,0,.3,0,.4,0,.7-.1ZM262.6,52.6c-.2.2-.5.3-.4.4.4-.1.6-.2,1-.4,0-.2-.2-.2-.6,0h0ZM276.3,48.3c.1.3.2.4.3.7,0-.3,0-.5,0-.8-.1,0-.1,0-.2,0ZM207.5,59.6c0-.3,0-.4-.1-.7-.1-.1-.2-.2-.3-.3.2.4.3.6.4,1.1h0ZM208.2,60.2c.3,0,.4.1.7.2-.1-.1-.3-.4-.3-.5-.2.1-.3.2-.4.3ZM313.4,387.8c-.1,0-.8.4-2.9,1.1.3,0,.4,0,.5,0,.5-.1,1.1-.4,2.2-.7-.4,0,0-.2.2-.3h0ZM313.4,387.8s0,0,0,0c0,0,0,0,0,0ZM311,388.8c-2.3.8,1.6-.2,0,0h0ZM321.3,384.8c-.9.5-1.9.9-2.9,1.4.7,0,3.3-1,2.4-.5,2.9-1.4,2.2-1.3.5-.8h0ZM323.8,383.2l-1.5.7c.3,0,.7-.2,1.5-.7ZM319.3,385.4c1.1-.5,2.1-1,3.1-1.5-.5,0-.6-.1-1.4.7.2-.3-.4.2-1.7.8ZM316.4,385.8c-5.6,2.2-4.6,2.4,1,.2-1.7.5-3.9,1.2-1-.2ZM339.2,376.8c.1-.2-1.1.1-1.4,0l-2,1.3c1.1-.5,3.1-1.5,3.4-1.4h0ZM337.8,376.8l2.9-1.9c-2.7,1.5-3.2,1.8-2.9,1.9ZM349.2,371.4c.9-.7,1.8-1.6,2.7-2.4l-1.2,1c-.5.5-1,.9-1.5,1.4h0ZM358.7,365.2c1.9-1.5,3.4-2.9,4.7-4.2-1.5,1.3-3.2,2.5-5.5,3.9-1,1.1,1.9-.8.8.3h0ZM363.5,361c.8-.7,1.5-1.4,2.2-2.2-.7.7-1.4,1.4-2.2,2.2ZM345.9,372c.3,0,.9-.1,2.6-1l-1.4.3c-.4.2-.8.5-1.2.7h0ZM347,371.3h0c.6-.4,1.1-.7,1.5-.9-.4.2-.9.5-1.5.9h0ZM348.5,370.4c.5-.3.9-.5,1-.6-.2.1-.6.3-1,.6ZM345.9,372c-.1,0-.2,0-.3.2.1,0,.2-.1.3-.2ZM340.6,374.4c.1,0,.8-.1,0,.5l1.7-1.1,1.6-1.1-1.6.9-1.6.8h0ZM345,371.9l.3-.4-1.5,1,1.2-.7h0ZM360.4,362.4c.6-.5,1.2-1.1,1.9-1.6.7-.6,1.4-1.2,2.1-1.8-1.7,1.3-3.5,2.5-5.1,3.8-.1.3-.7,1,1.1-.3h0ZM354,366.9c0,0,.2-.1.3-.2-.2,0-.4.2-.3.2ZM378.8,345.9c-.1,0-.2.1-.3.2h0c0,.1.3-.2.3-.2h0ZM359,362.9c-1.3.9-2,1.5-2.7,2.2.9-.7,1.9-1.5,3-2.3,0-.1,0-.2-.3.1h0ZM369.7,355.1c-.7.5-1.5,1-2.3,1.6.7-.4,2.1-1.3,2.3-1.6ZM354.8,366.4c0,0-.1,0-.2.1.5-.2.4-.2.2-.1ZM354.8,366.4c.6-.5,1.1-.9,1.6-1.4-.8.6-1.5,1.1-2.1,1.6.2,0,.4-.2.5-.2h0ZM374.6,350.1l-1.4,1.2.3-.4-1.1,1c1.3-1.1,2.4-1.8,4.2-3.2,1.6-1.9,1.9-2.4,1.9-2.6l-2.6,2.6-1.3,1.3ZM342.8,372.5c0,0,.2,0,.2,0,0,0,0,0-.2,0ZM379.2,346.5c.7-1,1.3-1.9,1.9-2.9-.5.7-1.1,1.4-1.7,2l-.2.9ZM384.8,340.4l1.2-1.7-1.3,1.2v.5ZM404.7,158.5v.9c.9,1.5,1.5,2.8,2,3.8-.9-2.4-1.7-5.2-2-4.7ZM420.7,270.5c.7-2.1,1.1-3.8,1.4-5.3-.4,1.3-.7,2.4-1,3.3-.3.9-.5,1.6-.4,2h0ZM305,91.8c1,.4,1.4.5,1.4.4-1-.4-1.5-.6-1.4-.4ZM422.8,262.2c.1-.5.2-1.1.3-1.6,0-.5,0-1.1,0-1.6,0,.4-.2.8-.3,1.1-.2,1.6-.5,3.2-.8,5.1.3-.9.5-2,.8-3h0ZM277.1,390.2c-.5,0-1.4.3-2.8.6.7-.2,1.8-.4,2.8-.6ZM403.2,315c-.8,1.4,0,.2,0,0h0ZM401.7,317c.4-.5.8-1.1,1.2-1.7-.2.3-.6.8-1.2,1.7ZM402.1,316.8c-.3.5-.5.9-.8,1.2,0,.2,0,0,.8-1.2ZM403.2,315c.2-.4.6-1,1.2-2-.5.8-1,1.5-1.4,2.2.2-.3.3-.4.2-.3h0ZM425.6,235c0,1.7-.3,3.1-.6,4,.2.7.1,2.7,0,4.9-.2,2.2-.5,4.6-.6,6.2l-.5.8c0,.5-.1,1-.2,1.5,0,.5-.1.9-.2,1.4-.1.9-.2,1.7-.3,2.4-.2,1.5-.3,2.8-.4,4-2.2,8.3-3.3,16.1-5.6,23.2h-.1c-.7,2.5-1.5,4.8-2.2,7.2.3-2-.2,1.5-1.3,3.5-.4,1.1-1,2.6-1.6,4.1-.7,1.5-1.5,3-2.2,4.2-.7,1.4-1.4,2.9-2.1,4.3,2-4.6-.3-.5-1.1,0-.1.3-.3.6-.5.9l-.8,2.1c-.4.5-.3,0-.1-.3-.5,1-1.1,2-1.6,2.9-1.2,2.3-2.8,5.1-3.2,6.4.2-.2.7-.8,1.3-1.5.1-.2.1-.2,0,0,0,0,0-.1.1-.2,0,0,0,.1-.1.2-.1.2-.2.6-.3.8-1,1.6-1.4,2.1-1.4,2.2,0,.1.3-.1.4-.1-1.5,1.6-2.5,3-3.5,4.2-.5.6-.9,1.2-1.4,1.8-.5.6-1.1,1.1-1.8,1.6,1.7-1.5.2.5-1.4,2.6-1.6,2.2-3.5,4.4-2.2,3.6-2.6,2-1.5,1.7-3.2,2.9,1.4-1.6,2.7-3.3,3.9-5-1.1,1-2.2,2-3.4,3.1-1.4,2.1,0,.8.1,1-2.6,3.3-5.5,6.3-8.4,9.1-.1.1-.2.3-.3.4-.3.4-.2.5-.2.6-.4.3-.8.5-1.2.7-2.8,2.6-5.6,5.1-8.2,7.4-.4.6-1.3,1.6-1.7,2.2,1.3-1.1,2.2-2,3-2.7s1.4-1.3,2-1.8c-1.7,1.6-3.4,3.4-5.2,4.9h0s0,0,0,0c.5-.5,1.8-1.6.1-.3,0,.1-.1.2-.1.3,0,0,0,0-.1.1-.3.2-.2.2,0,0h0s0,0,.1,0c-1,.7-2,1.4-3,2.2.9-.8,1.9-1.6,2.9-2.5-2.8,2-.6,0-.5-.2-.8.7-1.6,1.5-2.4,2.2-2.5,1.6.1-1-3,1.4,4.5-2.3-7.1,5.9-6.2,5.8-1.9.8-4.6,2.5-6.8,3.9-2.5,1.4-4.4,2.4-4,1.3-1.9,1.1-2.7,1.7-2.8,2,0,0,.1,0,.2,0,.4-.1.8-.1,1.2-.2-.2,0-.6.2-1,.4.2,0,.5-.1.7-.3-2.4,1.3-4.5,2.5-6.6,3.6-.1,0-.3.1-.4.2.5,0-1.9,1.5-3.2,2.3,1.5-1,1.4-1.1,1.2-1.2-.2.1-.5.2-.7.4-1,.5-1.9,1.1-2.9,1.7-.7.2-2.4,1.1-4.8,2.1-.3.1-.6.2-.8.4l-2.5,1.3c-1,.5-2,1.1-3,1.5.9-.4,1.7-.9,2.5-1.3l2.1-1.1c-2,.9-4.2,1.8-6.5,2.6-1.5.5-3,1.1-4.5,1.7-1.5.5-3,.9-4.3,1.3-1.3.4-2.5.7-3.6,1-1,.2-1.9.3-2.5.4,3.4-.2-.1.4-3.1,1.5l2.9-.2-3.5.9-1.7.5-1.8.4c-1.4.4-1.8.4-1.8.4-1.2.2.1-.4-2.6,0-1.2.3-2.4.6-3.6.8,0,0,.1,0,.2-.1-.6.1-1.1.2-1.5.4-1,.3-1.7.6-3,.9h.8s-3.3.6-3.3.6c-2.4.4,8.4-2,.5-1,0,.2-4.6,1.5-6.8,1.4,4-.5,3.5-.8,2-.8-1.9.2-3.8.5-5.6.6.6.2,1.3.4,1.9.6-2,.2-4.1.3-6.1.4-1,0-2.1.1-3.1.2-1,0-2.1,0-3.1,0-2.1,0-4.2,0-6.3,0-.2,0-.4,0-.6,0l1,1c.1-.1-.2-.5,1.1-.5,0-.1,1.3.3-1.1.5l-2.8.2v-1.2c-1.3,0-2.6-.1-3.9-.1-2.1,0-4.2-.3-6.4-.5-2.1-.2-4.3-.3-6.4-.6-2.1-.3-4.3-.5-6.4-.8-2.1-.4-4.3-.7-6.4-1.1,0-.1-.6-.4-1.7-.6-1.1-.3-2.5-.6-4-.9-2.8-.6-5.5-1.4-4.6-1.6.2,0,.4.2.6.2,2.1.4,1.8.1.6-.3-1.2-.4-3.3-1.2-5-1.6,3.4,1.2-6.5-.8,1.9,1.7-2.2-.5-4.5-.9-6.7-1.4-1,.2-2.6-.1-4.6-.7-1-.3-2.1-.6-3.2-1-1.1-.4-2.3-.9-3.6-1.5-1.2-.5-2.5-1.1-3.9-1.6-1.3-.6-2.6-1.2-3.9-1.8-1.3-.6-2.6-1.2-3.9-1.7-1.3-.6-2.5-1.2-3.7-1.7.7.2.9.2,1,.2-2.1-.9-4.4-1.9-6.5-3.1-2.1-1.2-4.2-2.3-6-3.5-3.6-2.4-6.4-4.3-7.3-4.8l-.4-.9c-1.7-.9-3.1-1.7-4.3-2.3-1.2-.7-2.1-1.3-3.1-2-1-.7-2-1.4-3.2-2.4-1.2-.9-2.6-2.2-4.3-3.7.1,0,1.1.6,0-.4-2-1.1-3.9-2.4-8.6-6.8h.3c0,0-3.6-3.4-3.6-3.4-1.2-1.2-2.4-2.3-3.5-3.6.3-.3-.3-1.1-1.4-2.4-.6-.6-1.2-1.3-2-2.1-.7-.8-1.5-1.6-2.3-2.5-3.2-3.4-6.4-7.4-6.6-9.1-.8-.6-2.2-2.5-3.7-4.5-.7-1-1.5-2-2.2-3-.7-1-1.3-1.9-1.7-2.5,0,0,0-.3-.2-.8-.7-.7-1.4-1.7-2.1-2.8-.7-1.1-1.3-2.4-1.9-3.7-.6-1.3-1.2-2.6-1.8-3.8-.5-1.2-1-2.4-1.5-3.4-1.4-2.4-1.1-1.2-.8,0-.4-1.3-1.2-2.8-1.8-4.4-.7-1.6-1.5-3.2-2.2-4.7-.8-1.5-1.4-3-1.9-4.1-.5-1.2-.9-2.1-1-2.6-1.3-3.9,0-1.6,0-2.8-1.9-5.7-1.1,1.4-2.8-6.5.3.9.9,2.5.8,1.9-.2-.8-.3-1.7-.4-2.7,0-1,0-2.1-.2-3.2,0-2.2-.3-4.3-.7-5.8,0,.7,0,1.4.2,2-.8-2.7-1.1-6-1.3-8.7-.2-2.7-.3-4.9-.8-5.2l-.4.6c-.2-2.4-.3-3.9-.3-4.9,0-1-.1-1.5-.2-2,0-.5-.1-1-.2-2,0-1-.2-2.5,0-4.9h0c-.2-4.1.3-6.4-.4-8.5l-.2,1.5c0-2.6,0-4.1.1-5.5,0-1.5.2-2.9.4-5.6,0-.6,0-3.2.3-4-.3-.2,0-3.3.5-6.7.2-1.7.6-3.4.9-4.9.3-1.5.6-2.7.7-3.2-.7,4.2,0,2.3.4,1.1-.1-2.6.3-4.3,1.5-7.6-.6-.7-1.5-1.6.5-8.3-.2,1.1-.6,2.7-.2,2.1.4-.6.7-2.2.8-2.8.4-.6-.2,1.6.3.9.2-1.2.3-2.3.7-3.3.3-1,.7-2.1,1.1-3.1.4-1.1.8-2.2,1.3-3.4.5-1.2,1.1-2.6,1.7-4.2-.6,2.1.3.4.8-.2-.3-.4.7-2.5,1.7-4.2,1-1.7,1.8-3,.7-2.1,3.1-5.9,7.2-13.1,11.3-19.3,1-1.5,2.1-3,3-4.4,1-1.4,2-2.6,2.8-3.7.9-1.1,1.7-2.1,2.4-2.9.7-.8,1.3-1.4,1.8-1.9.6-.4,1.3-1.4,2.1-2.6.4-.6.8-1.1,1.2-1.7.4-.5.8-1.1,1.2-1.5v.5c2-2.6,2.8-3.6,3.7-4.7.9-1.1,2-2.2,4.4-5.1-1.9,2.6-.8,1.8,1.7-.2l3.3-4.1,1.2-.2c1.4-1.6,3.3-3,5.2-4.4.6-.9,2.1-2.4,3.9-3.8,2.1-1.7,4.1-3.4,4.6-3.9,2.4-.6,5.1-3.7,6.9-3.9.6-.5,1.4-1.1,2.3-1.7-1.1.3-1.7.1.2-.8.1,0,.3-.2.4-.3h1c.9-.7,1.8-1.3,2.6-1.8.9-.5,1.6-.9,2.3-1.3-.6.3-1.3.6-2,.8.9-.4,1.6-.7,2.4-1,.3-.1.5-.3.7-.4-.1,0-.2.2-.4.2,1.2-.5,2.4-1.1,4-2.2,1.8-.7,3.6-1.5,5.4-2.4,1.8-1,3.7-1.9,5.6-2.8,3.8-2,7.9-3.6,11.9-4.5-1.2.3-2.9.9-3.2,1.2,3.2-1.3,6.6-2.1,9.6-2.9,1.5-.4,2.9-.8,4.3-1.1,1.3-.3,2.5-.7,3.5-1.1l-.4-.4c2.4-.8,4.6-1.3,6.7-1.8,2.1-.5,4-1,6-1.3v-.6c1.6-.2,3.5-.5,5.6-.9,2.1-.3,4.3-.6,6.5-.9,2.2-.3,4.3-.4,6.1-.5,1.8,0,3.3,0,4.2.2.7-.3,2.8-.3,5.1-.3,2.3,0,4.8,0,6.5,0l.8.4c.9,0,1.6,0,2.4,0,3.1-.2-4.3-1.1,1.2-.8.5.3,1,.6,2,.9h0c1.6,0,2.9,0,4.2.1.6.1,1.3.2,1.9.3.6,0,1.4,0,2.7.2v.2s.1,0,.3,0c.5,0,1.1.2,1.6.2,2.1.3,4.2.5,6.3.7,0,0,.2,0,.2,0-.8-.3-1.4-.6-1.7-.7.9.3,1.6.5,2.4.8,1.7.2,3.4.5,5.1.7,1,.2,2,.3,3,.4,1,.2,1.9.4,2.9.6h0c2.6.6,5.2,1,7.8,1.7-2.1-.2,1.6.2,3.9.9.6.1,1.3.3,2.1.5.8.2,1.5.5,2.4.8,1.6.6,3.3,1.2,4.6,1.8,1.5.5,3,1.1,4.5,1.7,1.1.2,2.5.7,4.5,1.4-.9-.3-2.2-.7-2.1-.5.2,0,.4,0,.6.1,1.4.3,3.3,1,2.6,1-.3-.2-.4-.1-.6,0h0c.5.4-1.5-.3-.9.3,2.2.5,4,1.3,5.9,2.2,1,.4,2,1,3.1,1.6,0,0,0,0,.1,0-.3-.2-.8-.6-1.4-.9-.3,0-.2,0,0,0,0,0-.1,0-.2-.1,0,0,.1,0,.2.1.3,0,.7.2.9.2,3.6,1.8,2.3,1,2.3.8,3.6,2.5,6,3.4,8.5,5.5,0,0,0,0,0,0-1.2-1.1,1,0,3.2,1.4,2.4,1.5,5,3.1,4,1.9,2.5,2.4,2,1.2,3.4,3-1.9-1.5-4-2.5-6.1-3.6-.5-.2-.9-.4-1.3-.7,1.6,1,3.2,2.1,4.8,3.1,1.5,1,3,2.1,4.6,3.1,1.5,1,3,2,4.4,3.1.4.3.7.5,1.1.8-.2-.2-.3-.3-.4-.4,3.2,2.1,3.3,2,3.5,1.9.6.7,1,1.3,1.4,1.9.7.6,1.3,1.1,1.9,1.6,2,1.8,3.6,3.2,4.4,4.2.4.6,1.4,1.4,2.4,2.2-.2-.2-.4-.4-.7-.6-1.4-1.9,1.5.5,2.8,1-2.6-2.3-4.1-3.6-5.3-4.7l5.7,4.8h0s0,0-.1,0c-.5-.4-1.9-1.6-.4,0,.1,0,.3.1.4,0,0,0,.1,0,.1,0,.2.3.2.2,0,0h0,0c0,0,0,0-.1-.1.9.9,1.7,1.9,2.6,2.8-.9-.8-1.8-1.8-3-2.7,3.7,3.9-3.4-2.5,2,2.6-1.1-1-1.4-1.1-2-1.5.3.3.6.5.9.8h-.5c2.4,2,3.3,2.8,4.3,3.6,1,.9,2.1,1.9,4.8,4.3-2.1-1.6-1.8-1-.6.8l1.8,1.8c.9.7,1.8,1.5,2.7,2.3v1.1c1.6,1.4,3,3.2,4.2,5,.8.5,2.2,2.1,3.6,3.8,0,0,0,0,0,0-.5-.7-1-1.4-1.5-2.1.9,1.1,1.9,2.1,2.7,3.2-.5-.6-.5-.4-.5-.1,1.2,1.6,2.4,3.2,2.8,3.5.6,2.3,3.4,4.9,3.5,6.7.5.6,1,1.3,1.7,2.1-.2-1.1,0-1.7.8.2,0,.1.1.3.2.4v1c1.1,1.7,2.1,3.5,2.8,4.8-.2-.4-.3-.8-.5-1.2l-.5-.7c.1.2.2.3.4.4,0-.1-.1-.3-.2-.4,0,.2.1.3.2.5.3.4.5.7.5,1l-.4-.6c.2.4.3.8.5,1.1,0-.2,0-.3-.1-.6.7,1,1.2,2.1,1.8,3.1-.8-1.3-1.3-1.9-1-1.7-.4-.4-.6-.6-.7-.8,0,0,0,.1,0,.2.1.2.2.5.3.7,0-.1-.1-.2-.2-.4.4,1.2.9,2.4,1.9,3.9.2.6.5,1.1.7,1.7,1.2,2,.3,0-.3-1.6.7,1.4,1.2,2.5,1.6,3.4.3.8.5,1.3.4,1.4,0,.2-.5-.7-1.6-2.8,1.1,2.7,2.5,5.6,3.9,8.5,1.6,3.8,3.2,7.6,3.8,11.6-.2-1.2-.7-2.8-1-3.2,2,6.3,2.9,12.8,4.1,16.8l.4-.4c.5,2.4,1.1,4.4,1.5,6.4.3,2,.6,3.9.9,5.8h.5c.2,1.6.3,3.4.5,5.4.1,1,.2,2,.3,3.1,0,.5.1,1.1.1,1.6,0,.5,0,1.1,0,1.6,0,2.1.1,4.1.1,5.9h0ZM340.9,354.4l-.4.2s0,0,0,0l.4-.3h0ZM335.5,112.8s0,0,0,0c.6.6.9,1,0,0ZM306.9,84.5c.5.1,1,.3,1.5.4-.2-.2,0-.3.2-.3l-3.1-.8c.4.2.8.4,1.4.7h0ZM382,131.5c-.9-.6-1.7-1.2-2.5-1.7.9.9,1.8,1.9,2.6,2.9.1-.4.2-.7.6-.6,0,0,0,0,0,0-.1,0-.3-.2-.4-.3h0c0,.1-.2-.2-.2-.2h0ZM326.3,104.3c.4.3.8.5,1.1.8-.4-.2-.7-.5-1.1-.8ZM336.8,113.3c.2.2.4.3.5.5-.2-.2-.4-.3-.5-.5ZM382.4,179.9c0,.2.1.5.2.8,0-.2,0-.4,0-.6l-.2-.2h0ZM384.1,181.7c-.2-.5-.4-1.1-.5-1.6.3,1.2,0,.8-.4.2-.1,0-.3,0-.4,0,.5.4.9.9,1.3,1.3h0ZM255.2,393h0,0ZM422.5,241.6c0-1.2-.2-2.6-.3-3.8,0,1.5,0,3-.1,4.5.1-.4.3-.9.5-.7h0ZM419.9,209c.3,1.9.6,3.7.9,5.6l.8.6-.7.2c.2,1.9.5,3.8.6,5.7,0-.1.1-.3.2-.6.2-1,0-3.5,0-5.8,0-1.2,0-2.3-.1-3.2,0-.9-.1-1.5-.1-1.6-.4-.7-.9-.9-1.5-.8h0ZM416.1,187.9l-.2-.4c0,0,0,.2,0,.3,0,0,0,.1.1.1h0ZM409.2,174.2c1.2,2.6,2.3,5.3,3.3,8.1,1.3,2,2.4,3.9,3.2,5.1,0-.2,0-.3,0-.4l-1.7-3.9v-1.4c-.5-.8-.9-1.6-1.3-2.3-.4-.7-.9-1.4-1.3-2.1-.7-1.1-1.5-2.2-2.2-3.1h0ZM390.9,141.5c.1,0,.2,0,.4.2-.6-.8-.3-.3-.4-.2ZM314.8,84.9c.4,0,.9,0,1.6.2-2-.6-2.1-.5-1.6-.2ZM308.2,82.6s0,0,.1,0c-1.8-.7-2.7-1.1-.1,0ZM302.6,81.5c-.4,0-.9-.2-1.2-.2,1,.3,2,.6,3,.8,1.4.5,2.5.8,3,1-3.9-1.2-2.1-.3-1.1.3,1.1,0,2,.2,2.9.5-.2-.2-.6-.4-1.3-.7-1.1-.4-2.1-.8-3-1.1-.9-.3-1.6-.4-2.3-.6h0ZM143.6,114.3c0,0,.1-.2.2-.4-.8.7-.3.3-.2.4ZM91.4,198.5c.3-.8.5-1.5.7-2.1.2-.6.4-1.2.4-1.6-.6,1.4-.9,2.6-1.1,3.8ZM99.6,293c0-.9-1.3-3-1.8-4.1.6,2,.8,3.1,1.8,4.1ZM255,393c-.3,0-.8,0-1,0h0s0,0,0,0h0s.2-.2.2-.2c-.5-.1,0-.3,0-.5.1-.2-.4-.3-4.7-.4,2.6,0,5.2.2,7.8.3l-.7-.2,1.5.2h-.3c1.2,0,2.5,0,3.7,0-.7,0-1.4,0-2-.2,1.1,0,2.1,0,3.2,0l-1.1.2c.2,0,.4,0,.6,0l-2.8.7c.5,0,1,0,1.5,0,0,0,0,0,0,0h.3c.9,0,1.8-.2,2.3-.3l-.3.4h.9c.4-.2.8-.2,1.1-.3,0-.1,0-.2-.3-.2,1-.1,1.9-.2.5-.5,1,.1,2,0,3,0,0,0,0,0,0,0l3.8-.3c.3,0,.5,0,.8,0,1.3-.2,2.5-.5,3.8-.8.2,0,.4-.1.6-.1.2-.2.4-.5-.5-.3,2.1-.5,4-1,1.1-.6,5.8-.9,11.6-2.6,17.2-4.8,0,0-.2,0-.4-.1,1.9-.1,1.5-1,2.4-1.4.7,0,1.4-.1,2.1-.2.4-.2.7-.3,1.1-.5,0-.3-.4-.2-.4-.4,1.1-.6,2.3-1.1,3.4-1.6,1.1-.5,2.2-1,3.3-1.5s2.1-1,3.1-1.5c1-.6,1.9-1.2,2.7-1.8.4-.1.5,0,.6,0,.4-.2.7-.5,1.1-.7.2-.2.5-.4.8-.6,1.1-.8,2.3-1.6,1.5-1.5.6,0,1.2-.3,1.9-.7,4.2-2.8,8.3-5.8,12.3-8.9.5-.4,1-.9,1.6-1.3.9-.8,1.7-1.5,2.6-2.1,0-.2-.4,0-.7.2,2.6-1.6,2.7-2.3,3.3-3.3h-.2c0,0,.5-.3.5-.3.1-.2.3-.4.5-.6l.6-.4.8-.8c.4-.5.6-.6.6-.5.3-.3.2,0,.6-.1l.7-.5c1-.9,1.2-1.4,1.5-1.9-.1,0-.2,0-.2,0,.1-.1.3-.3.4-.4,0-.1.1-.3.2-.4l-.3.2,1-1.1c.3-.3,0,.2-.4.8.6-.6,1.2-1.2,1.8-1.8.1-.2.3-.4.5-.5.3-.3.6-.6.8-.9h0c2.4-2.6,4.9-5.2,7.3-8,3.1-3.6,5.8-7.2,7.9-10.8,1.4-1.6.8-.2,1.4-.8.2-.3.4-.5.6-.7.1-.1.2-.3.4-.5-1.8,1.8-.4-.5,1.1-2.9.1-.3.3-.5.5-.8-.2-1.2.8-2.8,2.1-4.6.7-1,1.4-2,2.1-3.1.7-1.1,1.3-2.2,1.7-3.3,0,.3,0,.4,0,.5.8-1.9,1.8-3.9,2.8-5.6,1-1.6,1.8-2.9,1.9-3.4h.4c.1-.3.2-.6.3-.9.2-1.3.4-2.1.7-3,.2-.5.4-1,.7-1.6.3-.6.7-1.3,1.1-2.3,0,0,0-.1,0-.2,0-.2.2-.4.4-.8,0-.9.3-2,1.1-3.9v.2c.6-1.4,1-2.8,1.5-4.2.1,0,.2,0,.4,0,.4-1.2.8-2.4,1.2-3.7,0,0,0-.1,0-.1.3-1.5.6-3.2,1.2-4,.2-.7.4-1.4.6-2.1.2-1.3.5-3,.5-4,0,0,.2,0,.3-.3-.2-.9.1-2.1.5-3.3.2-.6.5-1.2.7-1.8.2-.5.3-1,.4-1.4,0,0,0-.1,0-.2-.3.8-.7,1.7-1.1,2.5.2-1,.4-2,.6-3,0,0-.1.2-.2.3.1-.3.3-.7.3-1,0-.3.1-.7.2-1,.3-2.2,0-4.9.2-5.5.3-1.8.7-.6,1.1-1,.2-2.7-1.5.3-.4-3.2,0,.4,0,1.2.1.9.1-.5.4-1.1.8-1.7,0-.9,0-1.5-.1-2.7v.7c-.1,0,0-3.1,0-3.1.2-2.3,0,8,.9.7,0,0-.2-1.2-.3-2.6,0-.7,0-1.4,0-2.1,0-.7,0-1.3.2-1.8,0,1.9,0,2.7,0,2.9.1.2.3-.3.4-1,.1-1.8.1-3.5.2-5.3l-.8,1.7c.3-7.2,0-14.5-.5-21.9-.6-.3-1.1-1.1-1.4-3.1.2.4.3,1.2.5.9.1-.3-.1-1-.2-1.2.1-.3.4.6.6.3-1-1.9-.5-3.5-1.3-6.4.4.8.4.2.6-.2,0,0,0,0,0-.1-.5-.1-.4-1.4-.4-2.3,0-.3,0-.5-.1-.8,0,0-.2,0-.3.2,0-1.5-.3-3.1-.6-4.8s-.7-3.4-1.1-5c-.8-3.1-1.5-5.7-1.5-7,0-.2-.1-.5-.2-.8,0-.3-.2-.6-.2-.8-.3-.5-.6-1.1-.8-1.6h.3v-.3c-1.4-2.1-.9-1.9-2.6-4.6.7.8.9.7.9.1-.3-.7-.6-1.4-.9-2l-.7-.9.2-.3c-.2-.4-.4-.9-.6-1.3-1.4-1.3-3.1-5.2-4.9-9.9,0-.1,0-.2-.1-.3-.1.2-.3.2-.5-.4,0,0,0-.1-.1-.2l.2-.4c-.2-.4-.3-.8-.5-1.2-.3-.4-.5-.9-.7-1.2,0,.3.1.6.2,1-.1-.4-.2-.8-.3-1.1,0-.1-.1-.2-.1-.3,0,0,0,.1.1.2-.1-.6-.4-1.1-.9-1.8-.4-1.6-1.6-3.1-2.6-4.7-1.1-1.6-2.2-3.1-2.7-4.9.2.5.5,1.2.8,1.3-.7-1.1-1.2-2.2-1.8-3.3-.3-.5-.6-1-.9-1.5-.5-.7-.9-1.4-1.4-2.1l-.3.3c-1.4-1.7-2.5-3.1-3.5-4.6l-.5.2c-.7-1.1-2-2.7-3.2-4.2-1.1-1.5-2.3-2.9-2.3-3.9-.7-.2-2.1-2.9-3.2-3.9v-.5c-1.1-1.5-2-2.3-2.9-3.1-1-1.8-2.3-3.1-3.6-4.4-.7-.6-1.3-1.2-2-1.8-.7-.6-1.3-1.2-1.9-1.8h0c0,0-2.7-2.3-2.7-2.3.9.4-.6-.3-1.4-1.1-1-.6-2.2-1.8-3-2.9l-1.6-1.5c1.5,1.1.9.2.5-.5-.3-.3-.7-.6-1-.8,0,0,0,0,0,0l-.5-.2c-.2-.4.4,0,.4-.1,0,0,0-.1-.1-.2,0,0,0,0-.1-.1-.9-.4-3.1-2.2-4.1-2.3,0,.2.2.5.5.8.1,0,.1,0,0,0,0,0,0,0,0,0,0,0,0,0,0,0-.1,0-.3,0-.4,0-1.3-1.2-.9-.6-1-.4-1.2-1.8-2.4-2-3.1-3.6.6,1-.4.3-1.4-.4-1-.8-2.1-1.5-1.8-.7-.8-1.4-.8-.6-1.3-1.6.8.7,1.8,1.1,2.7,1.6.5.2.9.4,1.4.6-2.9-1.9-5.5-3.6-6.1-4.8,0,0-.2,0-.3,0h0c-.5-.2-1.1-.5-1.9-.9.5.4.9.8,1.1,1-1.6-.7-1.7-.5-1.8-.4-.2-.4-.4-.8-.5-1.2-1.4-.7-2.9-1.5-4.2-2.2-.4,0-.9-.1-1.3,0,.7.3,1.2.6,1.7.8.4.2.8.5,1,.7-1-.5-2-.9-3-1.4h0s0,0,0,0c.3,0,1,.4.2,0,0,0-.2,0-.2,0,0,0,0,0,0,0-.1,0-.1,0,0,0h0s0,0,0,0c-.4-.3-.9-.6-1.4-1,.5.2,1,.5,1.6.7-1.2-.8-.3-.5,0-.5-.6-.3-1.2-.6-1.7-.8,0,0-.1-.2-.5-.5-2.4-.6-5.7-2.5-8.7-4.1h-.2c0,0-.6-.2-.6-.2l.8.2c-1.5-.8-3-1.5-4.2-1.9-.4-.1-.8-.2-1-.3-.1,0-.3,0-.4,0-.1,0-.2,0-.1,0,0,.1.5.5,1,.8-1.1-.6-2.6-1.1-4.1-1.6-1.5-.5-3.1-.9-4.7-1.2-.3,0-.6-.1-.9-.2.2,0,.4.2.5.3-.7-.2-1.2-.3-1.6-.5-.8-.2-1.6-.3-2.2-.4-1.2-.2-2.1-.3-2.5-.5-3.6-.9-1.2-.9-2.2-1.4-2.7-.5-2.6,0-2.6.2,0,.2-.3.4-3.9-.5.9,0,2.4.3,1.9,0-.8-.2-1.8-.5-3-.9h-1.2c-.7,0,.3,0,.7-.2-.3,0-.6-.2-.9-.3,0,0-.1,0-.2,0h0,0c0,0-.1,0-.2,0-1.2,0-2.2,0-3.2,0-1,0-2,0-2.9,0-1.8,0-3.5,0-5.2,0v-2.3c0,0-.2,0-.3,0-1.6,0-3.4,0-5.4,0-.4,0-1.3-.3-1.1-.5-1.9,0-4.3.7-5.9,1.1-1.6.5-2.6.9-1.9,1.1-1.1,0-2,.1-2.7.2-.7,0-1.3,0-1.8.1-1.1,0-2.1.2-4,.5,6.2,0-1.2,0-1.8.8-3.9.7-1.4-.1-3.2,0-.6.2-2.1.7-2.2.9-2.5-.1,4.4-2.2,1.5-2.3-1,0-3.6,0-6.1.4-2.4.3-4.7.6-5,.6-1.7,1-.6,3.2,2.3,3.4-.1.2-1,.3-2.1.4-.6,0-1.2,0-1.7.1-.6,0-1.1.2-1.5.2-2.5.3-4.3.9-6,1.6-1.7.7-3.2,1.4-5.2,1.9l2.9-1.3c-.4,0-2,.6-3.6,1.1-.8.3-1.6.6-2.3.9-.7.3-1.2.6-1.4.7-.1,0,.5-.6,1-1.1.4-.5.7-.9-.3-.7-1.8.6-3.5,1.3-5,2s-1.5.7-2.2,1.1c-.7.4-1.3.7-1.9,1.1-2.3,1.4-3.6,2.5-3.2,2.7l5.1-2.6c1.7-.8,3.5-1.6,5.2-2.3.3.2-1.6,1-3.4,1.9-.4.2-.9.4-1.3.6-.4.2-.8.4-1.1.6-.6.4-1,.7-.8.8l-4.8,1.9c-1.6.7-3.2,1.4-4.7,2.2,1.2-.6,4.7-2.5,3.2-2.1-4,2-2.1.9-4.9,2,2.2-1.4,5.1-3.7,8.1-5.6,1.5-1,2.9-2,4.1-2.8,1.2-.8,2.3-1.5,3-2-1.7.8-3.4,1.5-5,2.4l-1.4.2c-1.6.8-3.1,1.7-4.5,2.6-1.4,1-2.6,1.9-3.7,2.9-1.1.9-2,1.7-2.7,2.4-.7.7-1.2,1.3-1.6,1.7-3.6,1.8-3,0-2.2-.6-3.6,1.8-5,3.3-6.5,4.7-.7.7-1.5,1.4-2.5,2.2-1,.8-2.2,1.7-3.9,2.8l2.6-1.5c-.8.6-2.6,1.8-4.1,2.8-1.6,1-2.8,1.9-2.4,1.8-1.4.6-2.9.9-2,0l-2.3,2.3-1.2,1.3-1.2,1.3c.7-.8-.4-1.1-.2-1.5-2.2,1.8-3.1,4-1.6,3-2.4,1.5-3.3,2.1-4,2.7-.8.5-1.4,1-3.4,2.2-1.2,1.2.8.7,1.8,0-1.3,1.3-2.4,2.3-3.3,3.2-.9.9-1.6,1.5-2.3,2.1,4.1-4.6-.3-2.8,0-4.1l-3.7,5.8c-1.2,2-2.3,3.9-3.4,5.9.2-.4.2-1.9,0-1.9,0,.4-.7,1.3-1.7,2.7-1,1.4-2.3,3.2-3.8,5.1-1.5,1.9-3,4.1-4.5,6.1-.8,1-1.4,2-2.1,2.9s-1.2,1.8-1.8,2.6l.6-.9c.3-.7-.5.2-1.5,1.6-.5.7-1.1,1.5-1.5,2.4-.5.8-.9,1.6-1.2,2.2,0-.5.4-1,1-1.9-1.6,1.9-2.1,3.5-2.7,5.1-.5,1.6-1,3.2-2.6,5.2,2.2-4,2.4-4.9,2-4.9-.8,1.7-2.2,4.5-3.3,6.6-1,2.2-1.6,3.9-.7,3.2-1.2,2.1-2,4.1-2.4,3.7l-1.5,4.4c-.5,1.5-1,2.9-1.4,4.4.1-.7,0-1.4-.9,1.2.9-2.4,1.7-4.8,2.4-7,.4-1.1.7-2.1,1.1-2.9.4-.9.8-1.6,1.3-2.1-.5-.4-1.7,1.2-1.1-1.2-3.9,9.3-4.8,14.9-5.9,21.1l-1.5,4.1-1.3,4.2.2.4-1.1,1.3c0,1.1-.1,1.8-.2,2,0,.2-.2-.1-.2-.6-.2.9-.2,1.8-.2,2.2-.4.3-.6-1.4-.6-3.1.3-.7.6-1.5,1-2.3,0-1.8,0-3.1-.8-.8,0,.3,0,.8-.1,1.2,0-1.1,0-1.9-.4-1.1l-.6,3.4c-.2,1.1-.3,2.3-.5,3.4.2-.7.7-1.8,1.2-3.1-.3,4.3-.6,9.1.5,5.5l-.7,2.5c-.2.8-.4,1.7-.6,2.5,0,3,0,4.3-.1,5.7,0,1.4,0,3,0,6.6-.3.4-.3-1.6-.6-.3,0,1.3,0,2.8,0,4.3,0,1.5-.2,3-.4,4.3-.3,2.7-.4,5,0,5.5.3,4.3.6,1.8,1,4.5,0-.1-.3-.4-.2.4l.8,3.2c0,1.3-.6-2.9-.5.7.4,3.1,1,5.5,1.4,7.8.3,2.3.8,4.5,1.2,7.1,1.5,7.3.4-3.3,1.5,2.8-.2,1-.5,1.9.3,5.7.8,1.9,1,1.6,2.2,4.9h-.7c1,3.1,1.8,5.5,1.4,5.7,1.2,2.4,1.7,4.2,2.1,5.5.5,1.1.8,1.4.9,1.3s0-.8-.1-1.7c-.3-1.7-.8-4-.8-4.6.6,2.3,1.2,4.3,1.8,6,.6,1.7,1.1,3.1,1.2,4.5l-1.8-3.9c2.7,8.8,4.3,7.5,4.8,12-1.3-2.9-3.3-6.1-2.8-4.3l2.3,4c0,.6-1.2-2.3-.5-.3.3.5.9,1.4,1.4,2.2.6.8,1.2,1.6,1.5,2h0c1.2,2.2,2.4,4.4,3.8,6.5-.5-.8-.7-.7,0,.4,1,1.5,2.1,3,3.1,4.4-.5-.6-.6-.6-.4-.1.2.5.7,1.4,1.4,2.4,3.7,5.9,4.4,3.7,7,8.4-.5-.6-.6-.7-1.1-1.3l1.4,2.4c.7-.2,3.3,2.9,6,6,2.8,3,5.5,6,6.3,5.6,1.2,1.6,1.2,1.7.4,1-.4-.3-1-.9-1.8-1.5-.7-.7-1.6-1.5-2.6-2.3.9,1.1,1.7,2.2,2.6,3.4-1.2-1.2-2.1-2.3-3.4-3.6.8,1.1,1.7,2.2,2.6,3.1s1.8,1.8,2.7,2.6c1.8,1.5,3.4,2.8,4.6,3.7,1.4,1.5-1.9-.3,2.7,3.5,1.6,1.4,2.4,1.9,2.8,2,.3.1.2-.2,0-.5-.5-.7-1.3-1.7.7-.1l2.4,2.9c5.4,3.6,9.1,6.8,13.6,9.9,1.1.6,1.6.9,1.9,1,1.2.8,2.5,1.6,3.8,2.3s2.6,1.4,3.9,2c1.3.6,2.6,1.2,3.7,1.8,1.2.6,2.2,1.1,3.2,1.6-1-.3,2.1,1.5,2.4,1.9,1.2.5,2.4,1,3.7,1.5l3.7,1.4c-3.3-1.2-3.3-.8-4.1-.6,2.3.9,3.5,1.2,5,1.8-1-.3-2-.5-.9.1,2.6.9,5.3,1.6,8,2.4-.4-.2-1.3-.6-2.1-.9,1,.3,2.5.9,4.2,1.5,1.7.5,3.4,1.1,4.8,1.7-.3,0-1.3-.1-1.6,0-1.1-.6-2.1-.9-2.9-1.1-.8-.2-1.5-.3-2.2-.4,2.7,1,3.1,1,3,1.1,0,0-.4,0,.8.6,3.9,1.2,5.6,1.2,4.7.5,1.1.4,2,.7,2.8.9.8.2,1.6.5,2.3.6.7.2,1.5.4,2.3.5s1.8.4,3,.5l-1,.4,4.2.8h-3.6c4,1,4.4.9,5,.7.5-.2,1.2-.2,5.7.7v.5c1.7.2,2.9.1,4,.2,1.1,0,2.1,0,3.4.5,3.4.1-5.7-1.4,2.3-.5.7.2,1.8.5,3,.7,1.2.2,2.6.4,3.7.5,2.4,0-1.3-.6-3.2-.8,5.7.3,7.6.9,9.2,1.3.9.2,1.7.4,2.9.5.6,0,1.4.1,2.3.1.9,0,1.9,0,3.2,0h0ZM292.6,392.6h1.1c.7-.4,1.3-.7-1.1,0ZM411.1,298.8s0,0,0,.1c.8-1.7,1.2-2.5,0-.1ZM413.5,291c-.6,1.5-1.1,2.9-1.7,4.4-.5,1.2-1,2.4-1.5,3.5.1-.1.2-.3.4-.5,1.8-3.7,2.4-5.5,2.9-7.4h0ZM394.1,328.9l-.2.3c.1-.1.2-.2.2-.3ZM393.9,328.8c.1,0,.5-.3.2.1l1.8-2.6c-1,1.4-1.5,1.8-2,2.5h0ZM405.5,310.1c-.6,1,.1.9-.4,1.4-.2,1.4,3.2-7.2.4-1.4ZM276.1,75.7c0,0-.1,0-.2,0,.8.2,1.5.2,1.8,0-1.1-.2-2.1-.4-3-.6-.3-.1-.7-.2-1-.4h-.3c0,.1,0,.2.1.2-.5,0-1-.2-1.4-.2,1.1.2,2.1.5,3,.7.3,0,.7.2,1.1.3h0ZM17.5,509.6c0-19.8,16.1-35.9,36-35.9s20.7,4.9,27.3,12.5h-3.8c-6-6-14.3-9.7-23.4-9.7-18.3,0-33.1,14.8-33.1,33s14.8,33.1,33.1,33.1,17.6-3.8,23.6-9.9h3.8c-6.6,7.8-16.5,12.8-27.5,12.8-19.8,0-36-16.1-36-35.9h0ZM148.6,473.7l37.4,71.8h-2.8l-13.2-25.4h-42.9l-13.3,25.4h-2.6l37.4-71.8h0ZM148.6,479l-20,38.3h40s-19.9-38.3-19.9-38.3h0ZM193.6,473.7l2.6-.2,34.2,66.7,34.2-66.7,2.6.2-36.8,71.8-36.8-71.8h0ZM302.5,473.7h2.6v71.8h-2.7v-71.8s0,0,0,0ZM371.8,473.7l37.4,71.8h-2.8l-13.2-25.4h-42.9l-13.3,25.4h-2.6l37.4-71.8h0ZM371.8,479l-20,38.3h40s-19.9-38.3-19.9-38.3h0ZM439.5,474.4h31.2c13.6,0,21.2,6,21.8,17.2v1.3c-.5,11.7-8.1,18.1-21.8,18.1h-10.3l31.9,31.1v3.4l-35.1-34.5h-15.1v34.5h-2.6v-71.2h0ZM470.7,508.5c10.9,0,19-4.5,19.3-16.3-.4-9.9-7.1-15.6-19.3-15.6h-28.7v31.9h28.7Z"/>
</svg>