<?xml version="1.0" encoding="UTF-8"?><svg role="img" id="Layer_1" xmlns="http://www.w3.org/2000/svg" viewBox="0 0 510 560"><g fill="currentColor"><title>Ó Caviar — Stacked</title><defs><style>.cls-1{fill:#ebe8df;}</style></defs><path class="cls-1" d="M254,79.57c.1-.07-.14-.51.53-.45-.03-.11.59.39-.53.45ZM279.8,83.01c.11.06.14.09.21.13.22.06.51.14,1.01.3-.25-.37,1.21.08-1.21-.43ZM280,83.14c-1.05-.27.62.42,0,0h0ZM284.4,84.8c1.45.28,1.21.05.49-.47l-1.45-.14c.24.24,1.45.62.96.61ZM286.35,84.25l-.74-.14c.1.11.28.2.74.14ZM284.89,83.97c.19-.17-.18-.06-.87-.09.53.08,1.06.12,1.58.22-.16-.18-.11-.42-.72-.13ZM293.19,87.66c.14-.11-.3-.57-.33-.79l-1.05-.23c.47.3,1.39.78,1.38,1.02ZM292.87,86.87l1.58.34c-1.31-.56-1.6-.54-1.58-.34ZM299.48,90.14l-.71-.13-.96-.05,1.67.17ZM302.33,92.35c1.02.39,1.93.64,2.79.81-.86-.29-1.65-.81-2.67-1.52-.73,0,.6.84-.11.71ZM305.12,93.17c.45.16.91.29,1.4.36-.43-.14-.9-.25-1.4-.36ZM297.91,89.2l-.4-.66c-.18-.07-.38-.16-.58-.24.07.14.21.42.98.9ZM297.5,88.52v.02c.63.3,1.05.5,1.24.59-.16-.08-.53-.26-1.24-.61ZM296.79,88.24c.05.02.09.04.15.06-.04-.06-.07-.09-.15-.06ZM294.47,87.04l1.81.4-1.54-.73c-.01.12.21.39-.27.33ZM304.14,91.81c.73.17,1.45.53,2.27.92-.82-.53-1.69-1.04-2.53-1.48-.18.06-.66.09.27.56ZM300.94,90.16s.11.03.16.05c-.07-.08-.14-.12-.16-.05ZM314.18,97.12s-.05-.09-.08-.14l-.07.05.15.09ZM303.77,91.1c-.63-.38-1.07-.47-1.51-.52.51.19,1.06.4,1.61.67.08-.03.11-.06-.11-.15ZM308.81,94.5c-.29-.26-.63-.53-1-.8.26.3.83.84,1,.8ZM301.27,90.42s-.07-.02-.11-.03c.18.19.17.13.11.03ZM301.27,90.42c.37.1.68.13.99.16-.42-.16-.81-.29-1.16-.38.07.07.13.15.17.21ZM312.52,96.7c1.09.41,1.37.4,1.51.33l-2.9-1.78.23.07-.62-.31c.64.46,1.05.89,1.78,1.69ZM314.33,97.47l-.55.22,1.7.24-1.15-.45ZM317.35,99.32l-.33.27.91.31-.58-.58ZM374.66,166.44l.25-.51c-.43-.7-.66-1.29-.8-1.81.17,1.22.21,2.64.56,2.32ZM345.31,122.41c.57.85,1.07,1.48,1.54,2.01-.65-1.05-1.05-2.03-1.54-2.01ZM386.87,272.21c-.03.5.01.72.11.73.04-.51.02-.81-.11-.73ZM346.85,124.42c.49.77,1.06,1.64,1.94,2.17-.08-.16-.18-.31-.27-.47-.54-.5-1.06-1.04-1.67-1.7ZM265.07,392.25c-.25,0-.66.03-1.36.16.32-.06.86-.11,1.36-.16ZM328.81,107.79c-.6-.45-.12-.04,0,0h0ZM328.05,106.92c.19.22.41.46.67.71-.1-.12-.3-.34-.67-.71ZM328.04,107.18c-.19-.18-.34-.31-.49-.44-.12,0-.08.09.49.44ZM328.81,107.79c.18.13.42.32.83.64-.34-.26-.64-.53-.92-.8.1.12.13.17.09.16ZM322.77,103.15c-.03.1.07.34-.16.23l1.25.76c-.65-.44-.81-.7-1.09-.99ZM322.62,103.38l-.14-.09c.06.04.1.07.14.09ZM330.96,109.07c-.36-.42-.6.2-.73-.12-.81.03,3.23,1.76.73.12ZM413.41,176.31c-.2-.48-.46-1.14-.92-2.25.04.84-1.29-2.45,1.06,2.78-.07-.28-.1-.36-.14-.52ZM413.41,176.31c.99,2.32-.41-1.61,0,0h0ZM410.1,168.68c-.15-.7-1.39-3.39-.81-2.45-.78-1.52-1.23-2.05-1.3-2.02-.1.04.15.66.45,1.59l1.66,2.88ZM398.24,147.85c-.24-.08.28,1.16.25,1.47l1.52,1.93c-.61-1.1-1.87-3.13-1.77-3.4ZM398.49,149.32l-2.27-2.87c1.8,2.72,2.24,3.14,2.27,2.87ZM391.49,137.98l-2.79-2.51,1.18,1.13,1.61,1.38ZM381.32,126.63c.77.87,1.57,1.85,2.44,2.98,1.26.94-1.05-1.9.18-.82-.88-.92-1.73-1.73-2.54-2.47-.84-.72-1.66-1.35-2.43-1.95.77.69,1.56,1.4,2.35,2.26ZM376.43,122.31c.78.67,1.63,1.33,2.55,2.05-.83-.72-1.66-1.41-2.55-2.05ZM391.74,140.24c.26.35.56.75.86,1.15-.09-.28-.22-.87-1.38-2.57l.52,1.42ZM391.76,140.29l-.02-.05c-.91-1.27-1.61-2.09-1.9-2.45.25.31.87,1.03,1.92,2.5ZM392.81,141.68c-.08-.11-.14-.19-.22-.29.05.14.09.21.22.29ZM392.2,142.01l1.25,1.43-.83-1.17-.42-.26ZM380.21,127.16c.37.41.74.82,1.11,1.22.31.13,1.14.67-.48-1.07-1.29-1.08-2.63-2.34-4.11-3.78.76.8,1.54,1.62,2.31,2.43.39.4.78.8,1.17,1.2ZM386.29,133.5c-.08-.08-.18-.19-.26-.27.12.2.23.35.26.27ZM361.38,110.18c.07.09.14.17.21.26.04,0,.07-.01.11-.01l-.32-.24ZM381.51,128.71c1.06,1.29,1.81,1.95,2.55,2.55-.87-.89-1.79-1.84-2.74-2.88-.14-.06-.19-.05.19.33ZM372.12,118.58c.58.65,1.26,1.37,1.98,2.11-.53-.67-1.68-1.99-1.98-2.11ZM385.76,132.72c.06.06.12.11.18.18-.29-.48-.28-.39-.18-.18ZM385.76,132.72c-.63-.59-1.16-1.02-1.69-1.45.72.72,1.38,1.38,1.96,1.96-.11-.18-.2-.37-.27-.51ZM367.24,115.05l1.25.96c-1.34-1.19-2.23-2.13-3.86-3.88-2.14-1.53-2.7-1.7-2.92-1.7,2.05,1.58,3.99,3.29,5.99,4.92l-.46-.3ZM361.89,109.7l-3.29-1.62,2.34,1.5.95.12ZM354.84,104.71l-1.91-.99,1.43,1.16.48-.17ZM112.34,317.22l1.09,1.41c-.5-.67-.84-1.1-1.09-1.41ZM105.89,306.12l-.33-.18c.38.47.57.65.33.18ZM161.15,99.46l.93-.04c1.56-1.02,2.79-1.75,3.9-2.26-2.49,1.01-5.34,2.09-4.83,2.3ZM89.64,201.07c-.1.76-.2,1.63-.32,2.53.1-.23.21-.48.31-.72,0-.65,0-1.27,0-1.82ZM89.86,209.09c.24-.74.54-1.8.92-3.31l-.92,3.31ZM162.2,365.71l2.01.68c-2.76-1.67-1.67-.74-2.01-.68ZM105.64,315.34c.65.91.98,1.27,1.04,1.19-.66-.94-1.07-1.46-1.04-1.19ZM265.38,74.29c.4.06.8.13,1.2.19,1.68.06,3.38.08,5.42.31-2.02-.39-4.36-.64-6.62-.5ZM326.04,88.87c1.59.65.27.06,0,0h0ZM248.39,76.8s-.09,0-.15,0c.51.08.42.06.15,0ZM328.33,90.08c-.56-.33-1.23-.65-1.96-1,.31.18.91.46,1.96,1ZM328.1,89.74c.53.27.94.49,1.33.69.23.03.07-.1-1.33-.69ZM326.04,88.87c-.47-.19-1.12-.47-2.21-.92.91.38,1.74.76,2.54,1.14-.3-.16-.42-.24-.33-.22ZM133.78,127.39c.05-.06.08-.09.12-.15-.06.05-.13.12-.19.16h.07ZM130.57,129.88l-.74,2.03c1.29-2.29,2.44-3.21,3.88-4.5l-2.32.5-.82,1.98ZM237.35,391.22c-.14,0-.26-.02-.38-.02.13,0,.25.01.38.02ZM355.58,365.37c-.12.04-.26.11-.4.16.07,0,.19-.06.4-.16ZM109.27,312.42c.12.19.24.39.37.58-.14-.23-.26-.42-.37-.58ZM90.61,205.5c-.15.32-.25.4-.36.46,0,.49.09.52.36-.46ZM162.2,365.71l-.37-.13.16.1c.11.03.17.03.21.02ZM226.02,80.89c-1.16.12-1.81.14-2.26.12-.04.13.5.14,2.26-.12ZM341.7,96.47l.34.17c-.15-.08-.26-.13-.34-.17ZM341.57,96.72c-.01-.12-.41-.49.13-.25l-2.99-1.5c1.59.84,2.11,1.24,2.87,1.75ZM218.94,80.37l1.11-.25-.36-.99-.75,1.24ZM167.66,101.41c-2.57,1.87-4.06,2.6-2.47,2.44,2.29-1.24,2.48-1.54,2.61-1.81.13-.27.22-.48,2.38-1.47.96-.81-3.52,1.62-2.52.84ZM167.66,101.41c.42-.29.86-.59,1.34-.91-.77.5-1.13.74-1.34.91ZM95.8,279.39c-.02.54.19,1.3.62,2.8l-.4-2.61-.23-.2ZM115.15,321.25l.1-.9-.43-.65.32,1.55ZM138.11,345.98c-.3-.29-.62-.6-.98-.91.3.31.63.61.98.91ZM140.82,348.32c-.81-.77-1.81-1.55-2.71-2.35,1.81,1.78,2.56,3.06,2.71,2.35ZM210.87,61.76c-.37-.02-.19.29-.24.35.6-.09.21-.43.24-.35ZM217.49,60.56c-.3.09-.44.14-.74.23-.03.05-.05.08-.08.13.33-.14.49-.22.82-.36ZM219.29,60.53c-.07-.04-.11-.07-.19-.11-.15.18-.22.27-.37.45,1.19-.15,2.7-.54,3.57-.46-.63-.48-1.99.24-3.02.12ZM224.79,61.29c.07.02.09.03.14.04.12-.01.28-.03.57-.04-.23-.19.6-.23-.7,0ZM224.92,61.33c-.58.07.42.14,0,0h0ZM227.59,60.96c-.29.1-.44.16-.73.26.19.1.87.06.64.18.76-.18.58-.28.09-.44ZM227.85,60.62c.08.04.19.05.38-.12-.15.05-.23.07-.38.12ZM227.48,60.72c.03-.16-.1,0-.43.15.32-.1.48-.15.8-.25-.13-.07-.18-.24-.37.1ZM226.55,60.83c-.45-.07-1.02-.09-.29-.35-1.45.21-1.16.56.29.35ZM222.48,59.85c-.24-.04-.36-.06-.6-.11-.19.09-.28.13-.46.22.23-.11,1.14.06,1.07-.11ZM232.4,60.7c.02-.12-.33-.26-.42-.4-.21.08-.32.12-.53.19.31.04.87.05.95.21ZM231.99,60.3c.32-.12.48-.18.79-.29-.75.07-.87.18-.79.29ZM228.24,59.91c-.52.22-.78.33-1.3.54.63-.23.94-.34,1.56-.58-.11.01-.16.02-.27.03ZM235.61,60.3c-.16.13-.25.19-.41.32.3-.2.45-.3.75-.5-.14.07-.2.11-.34.18ZM239.36,59.82c-.44.16-.95.21-1.64.13-.3.26.57.29.24.47.56-.12,1.01-.38,1.4-.61ZM239.36,59.82c.24-.09.46-.19.68-.35-.22.09-.44.21-.68.35ZM234.96,60.11c-.16-.11-.24-.16-.41-.27-.1.01-.21.03-.33.04.08.06.25.22.74.23ZM234.54,59.83s0,0,.01,0c.36-.04.61-.07.71-.08-.09,0-.31.03-.73.07ZM234.14,59.89s.05,0,.08,0c-.04-.03-.06-.03-.08,0ZM230.5,59.95c.45-.23,1.44-.54.38-.69-.3.26.3.34-.38.69ZM232.73,59.59c.04.08.23.18,0,.3.36-.13.54-.2.9-.34-.36.02-.54.02-.91.04ZM234.04,59.39c-.16.06-.25.09-.41.15.13,0,.2,0,.34-.02.03-.06.04-.08.07-.14ZM238.44,59.41c.35-.19.76-.27,1.22-.36-.52.02-1.05.06-1.55.14-.04.11-.22.32.32.22ZM236.54,59.6s.06-.02.08-.03c-.06-.02-.1-.02-.08.03ZM244.28,58.3s-.05-.03-.09-.04c0,.02,0,.03,0,.06.04,0,.05,0,.09-.01ZM238.02,59.14c-.39,0-.6.1-.79.23.28-.07.57-.14.89-.19.02-.05.02-.08-.1-.05ZM241.28,59.12c-.21-.03-.45-.05-.7-.07.22.07.65.16.7.07ZM236.77,59.63s-.03.01-.05.02c.14.05.12.02.05-.02ZM236.77,59.63c.18-.07.32-.17.46-.26-.23.06-.43.12-.61.19.05.02.11.04.15.07ZM246.06,56.01c-.38.15-.56.22-.94.36-.04-.08.28-.27-.02-.3.02.3-.89.74-1.82.57-.78.36.03,1.21.91,1.61,0-.13-.04-.24.77-.56-.35-.1-2.01-.03-1.36-.42,1.1-.34.96-.06,1.56,0-.57-.27,1.3-.78.9-1.26ZM242.53,58.51c-.14.04-.21.06-.35.09.42-.02.74.05,1.34.18.55-.24.65-.37.66-.47-.7.11-1.06.16-1.76.26.04-.03.07-.04.11-.06ZM240.98,57.98c-1.04.19-.66.38-1.25.61,1.67-.34-.44.25.83.24-.32.11-.61.17-.89.22.32,0,.62,0,.91,0-.02,0-.03,0-.04-.01,0,0,0,0,0,0,0,0,0,0,0,0-.08-.03-.11-.05-.03-.04,0,0,.02,0,.03-.01,0-.05.02-.09.04-.13.51-.01.1.07-.04.13,0,.02-.01.03,0,.05,0,0,0,0,0,0,.66-.18.99-.26,1.65-.44-.37.02-.82.1-1.6.26.2-.36,1.02-.63.4-.88ZM231.64,58.47c.06.02.06.04.07.07.1-.05.14-.08-.07-.07ZM231.83,58.87c.57.02,1.29.2,1.51.3-.24-.22-.47-.39-.95-.6-.11.06-.19.2-.6.21-.37-.05-.03-.15-.08-.25-.22.11-.8.33,0,.39.04-.02.07-.03.11-.06ZM233.34,59.17s.05.04.07.06c.02-.01-.01-.04-.07-.06ZM236.52,58.67c.55-.14.83-.21,1.38-.36-.32-.07-.47-.1-.79-.17.03.06.05.09.08.16-.82.05-.6.23-.67.37ZM244.39,58.79c.27-.24.41-.36.68-.61-.23.1-.35.15-.59.25-.04.14-.06.22-.09.36ZM246.31,58.36c.17-.1.26-.16.43-.26-.18-.01-.27-.02-.45-.04,0,.12,0,.18.02.3ZM290.29,45.86c-.12-.09-.19-.13-.31-.22-.35.2-.66.28-.94.32.67.04,1.46.18,1.25-.09ZM304.4,26.05c-.13-.11-.27-.24-.41-.37-.01.06-.02.12-.04.17.16.07.31.14.45.2ZM264.57,53.85c.54-.01.96-.07,1.31-.15-.67-.01-1.25-.15-1.31.15ZM284.5,17.07c-.16.19-.17.29-.13.34.13-.18.22-.31.13-.34ZM267.32,53.3c-.1,0-.19,0-.29,0-.34.15-.69.29-1.15.4.49,0,1.03-.05,1.44-.4ZM205.55,55.03c.21-.07.59-.16.94-.25-.21.03-.5.1-.94.25,0,0,.02.03.03.04,0-.01-.01-.02-.03-.04ZM253.61,56.75c-.37.1-.05.05,0,0h0ZM251.47,55.73c0,.08-.05.14-.11.18.07-.05.12-.11.11-.18ZM270.25,50.37s.02,0,.03,0c-.13-.03-.11-.02-.03,0ZM252.99,56.73c.16,0,.33,0,.52-.01-.09,0-.24,0-.52.01ZM253.11,56.86c-.14.02-.24.03-.34.04-.03.06.02.09.34-.04ZM253.61,56.75c.11-.03.27-.07.53-.13-.22.05-.42.08-.63.1.08,0,.12.02.1.03ZM206.49,54.77c.75-.2,1.44-.4.05-.32,1.2-.14,2.25-.29,3.23-.46.53-.09.79-.14,1.32-.24.32-.06.64-.12.96-.19,1.27-.28,2.51-.64,3.72-1.03,2.43-.78,4.79-1.66,7.28-2.14.3-.14.04-.24-.14-.3,1.08.14.71-.49,1.15-.71.63.07.94.11,1.57.18.41-.36-.08-.4-.11-.54,2.3-.94,4.89-1.2,6.57-2.26.71-.02.12.54.95.3-1.41-.2,2.12-1.18,1.21-1.35,1.12.35,2.87-.99,3.04.04.96-.33.55-.7.24-.67,1.09-.41,1.96-.77,2.66-1.42.7-.04,4.67-2.35,5.99-2.12-.89-.13-.08-.24.41-.71-.31-.05-.46-.07-.77-.12.55-.24.83-.36,1.38-.6.25-.17.34-.19.36-.15.24-.09.08.24.72.06.93-.42.85-.65,1.23-1.09-.07,0-.1,0-.17.01.24-.14.36-.2.6-.34.46-.21-1.38,1.17.23.62-.04-.11.52-1.04,1.09-.97-.77.36-.51.57-.16.54.43-.2.65-.3,1.07-.5-.26-.12-.39-.18-.64-.29,3.04-1.5,6.34-2.81,9.41-4.6.23.43,2.19-1.24,2.31-.49-.06,0-.09,0-.16.01-.27.19-.26.28-.1.3.33-.19.66-.39.99-.58.09-.31.44-.8-.66-.24.4-.39.61-.59,1.01-.98-.11-1.51,3.23-1.82,4.73-3.29-.09.12-.08.2-.07.24,1.31-1.34,3.68-1.96,3.91-2.36.14.08.21.12.36.21.97-1.33,1.09-1.47,2.76-2.35.02.06-.1.27.19.16.2-.47.41-.95,1.49-1.62.01.05.02.07.03.12.63-.48.95-.72,1.57-1.2.68.91,2.28-2.55,3.52-1.95.1-.49,1.17-1.45,1.57-1.96.03.03.1.05.21.03.14-.47.72-.83,1.33-1.05.64-.2,1.28-.33,1.73-.48.54-.34.24-.44-.09-.53.68,0,1.49-.3,2.26-.56.38-.11.75-.23,1.06-.31.3-.05.54-.06.65,0,.95.1.32.45.55.71,1.33.09-.09-1.06,1.66-.31-.22-.01-.62-.02-.48.07.35.08.72.57,1.08.97.36.39.66.82,1.01.79-.13-.13-.19-.2-.32-.33.3.03.6.15.87.33.26.19.5.41.71.6.43.38.72.71,1.01.42.04-.14.05-.22.09-.36.39.34.61.54.77.67.16.13.26.17.36.21.2.08.44.15,1.09.94l-.06.03c.75.48.74,1.15,1.49,1.01-.07-.1-.1-.15-.17-.26.43.34.62.58.83.8.21.22.4.45.74.89.13.07.55.43.54.63.21-.12.65.38,1.04.98.36.62.68,1.32.75,1.57-.45-.78-.46-.3-.54,0,.58.3.83.61.76,1.4.32-.05.65-.1.97.05.16.08.32.2.47.4.13.21.25.49.34.87-.15-.22-.29-.57-.38-.39-.09.18.13.49.2.61-.1.17-.3-.28-.48-.07.43.43.46.89.48,1.39.04.51-.11,1.08-.01,1.83-.18-.48-.31-.07-.55.08.36.07.12.58-.09.97-.19.4-.42.7.14.51-.62,1.4-1.5,3.06-2.56,4.35-.28.31-.54.62-.8.9-.27.27-.55.49-.8.7-.25.2-.49.38-.7.51-.22.13-.42.2-.59.23-.42,0-.8.8-1.24,1.09-.05-.11-.08-.16-.13-.27-.45.58-.67.77-.91.97-.25.2-.5.44-1.15,1.04.47-.62.09-.61-.68-.55-.3.42-.46.63-.76,1.04-.17-.12-.25-.19-.42-.31-.35.34-.86.48-1.37.62.23-.1.09-.08.03-.15.06.66-1.86,1.37-2.01,1.76-.75-.36-1.2.65-1.8.27-.12.14-.29.28-.48.42.35.15.57.39.08.44-.04.02-.06.03-.1.05-.14-.1-.21-.15-.34-.25-.4.25-.83.46-1.12.58.15-.02.33-.02.53-.01-.21.03-.42.03-.61.05-.06.02-.12.05-.16.06.02-.02.05-.04.09-.05-.3.03-.6.1-.93.35-1.78.09-3.13,1.97-5.16,1.89.29-.02.67-.12.71-.27-1.42.55-3.07.57-3.88,1.13.08.11.12.17.2.28-1,.5-1.79.87-2.66,1.13.04.15.06.22.1.36-1.31.28-3.8,1.69-4.87,1.2-.2.37-1.79.44-2.48.74-.12-.09-.17-.13-.29-.22-.98.18-1.53.44-2.07.68-2.15-.03-3.73,1-5.45,1.39-.02-.03-.03-.05-.04-.08-.66.25-1,.38-1.66.63.37-.36-.28.26-.83.31-.51.27-1.43.41-2.15.38-.45.1-.67.14-1.12.24,1.18-.47-.22-.38-.4-.68-.25.17-.38.25-.63.41-.34-.09.38-.35-.17-.3-.42.28-1.84.57-2.18.99.1.07.29.11.52.12.05-.03.05-.03.02,0,.02,0,.03,0,.05,0-.02,0-.03,0-.06,0-.05.04-.13.12-.16.17-.92.12-.55.18-.47.32-1.17-.29-1.64.16-2.6-.27,1.26.46-2.34.46-1.49.96-.92-.36-.53.08-1.15-.27,1.11-.06,2.04-.73,2.83-1.13-.37-.05-.56-.08-.94-.14.38-.68,1.95-.16,2.39-.46-.29.2-1.09.22-1.16.1.14.16.22.24.36.39,1.25-.07,2.1-.61,2.88-1.01-.84.03.88-.47.21-.66-.24.08-.37.11-.61.19-.34-.09.23-.36.54-.56,2.09-.11,5.61-1.25,6.43-1.08-.44-.01-1.14.26-1.45.48.39-.02.59-.03.99-.04-.74.2-1.47-.05-2.53.36.28.23-.4.8.57.98,2.28-.07,1.51-1.12,4.09-1.66.21-.14-.37.59.93.09,1.35-.6,2.27-1.37,2.39-1.96-.45.12-.91.24-1.36.36-.21.08-.41.13-.57.14-17.13,4.42-34.59,7-52.75,7.91-.4-.66-.72-1.19-1.02-1.69-.02.04-.04.07-.06.11-.19.4-.31.89-.91.48.11.14.16.21.27.35.09.1.13.16.21.26-.17-.02-.28-.07-.46-.31-.18-.23-.37-.54-.56-.86-.38-.63-.77-1.27-1.26-1.57-.18-.55-.32-1.05-.45-1.51.49-.05.73-.07,1.22-.13-.35-.1-.22-.42-.8-.34ZM257.7,55.52s-.01.02-.02.02c.45-.04.68-.03.02-.02ZM271.77,49.63c-1.96.58-3.93,1.14-5.9,1.68.01,0,.03,0,.05.01,1.61-.44,2.61-.48,4.34-.95.12.04.37.15.37.28.43-.21.89-.64,1.15-1.02ZM277.72,47.78c-.88.29-1.76.57-2.64.85-.04.18,0,.34.24.4.53.13,2.54,0,2.68,0,.11-.26-.02-.76-.28-1.25ZM286,44.95c-.6.22-1.21.44-1.81.65-.51.69-.96,1.38-1.18,1.79.41-.27.62-.4,1.03-.67.16.05.23.07.39.12.71-.44,1.21-1.2,1.57-1.89ZM297.31,40.5c-.24.12-.49.24-.74.35.16.19.3.36.31.52.16-.28.3-.58.43-.87ZM304.64,30.86c-.07-.27-.17-.51-.26-.73,0,.58-.04,1.16-.13,1.74.16.01.3.08.45.31.03-.49,0-.93-.05-1.32ZM303.33,25.16c.08.18.15.37.22.56.13.04.27.08.4.14-.04.18-.06.36-.11.54.37.21.74.36.76-.15-.06-.05-.13-.12-.19-.19.27.13.48.21.51.02-.24-.4-.54-.77-.8-1.15,0,.17-.06.45-.12.75-.21-.2-.44-.38-.65-.52ZM247.78,40.1c-.1,0-.16.01-.26.02-.08.15-.16.3.26-.02ZM249.7,57.72c.32-.1.48-.15.8-.26-.4.1-.56.05-.78.04.04.08.24.16-.02.22ZM241.84,56.88c-.11.06-.26.05-.37.11.03.06.05.09.08.16.52-.1.85-.29.29-.27ZM247.47,56.79c-.05.44.53.19,1.11-.06-.15-.28-.64-.08-1.21.08.03,0,.07-.02.1-.02ZM246.7,56.95c-.02.18.23,0,.54-.11-.18.05-.36.09-.54.11ZM254.78,56.24c-.3-.01-.05.41-.24.32-.19.44,1.68-.85.24-.32ZM247.83,55.85c.13.13.19.19.31.32.1-.14.14-.21.24-.35-.22.01-.33.02-.55.03ZM252.47,55.2c-.38.04-.57.06-.95.09.03.06-.07.12-.21.17.57-.11,1.21-.17,1.16-.27ZM251.31,55.47c-.3.05-.58.12-.72.21.16-.04.5-.12.72-.21ZM250.01,55.42c-.38.03-.57.05-.96.08.12,0,.18.01.3.02.26-.04.4-.06.66-.1ZM262.64,52.61c-.21.15-.55.29-.36.36.38-.14.57-.21.95-.36.06-.15-.24-.15-.59,0ZM276.32,48.33c.13.28.2.41.33.69-.04-.31-.05-.46-.09-.77-.1.03-.14.05-.24.08ZM207.49,59.61c-.04-.29-.06-.44-.1-.73-.13-.14-.2-.2-.33-.34.17.43.26.64.43,1.07ZM208.18,60.24c.28.08.42.13.7.21-.11-.13-.32-.39-.26-.54-.18.13-.26.2-.44.33ZM313.4,387.79c-.15.07-.83.37-2.93,1.09.27-.05.35-.06.51-.09.47-.15,1.11-.36,2.2-.71-.36,0,.08-.23.22-.3ZM313.4,387.79s.05-.02.04-.02c0,0-.02.01-.04.02ZM310.98,388.8c-2.27.75,1.57-.25,0,0h0ZM321.3,384.83c-.93.51-1.9.91-2.85,1.37.68-.06,3.32-1.04,2.39-.54,2.93-1.4,2.25-1.29.45-.83ZM323.83,383.17l-1.46.74c.29-.05.7-.19,1.46-.74ZM319.26,385.42c1.06-.45,2.09-.99,3.12-1.51-.46.07-.6-.13-1.43.7.18-.32-.36.17-1.69.81ZM316.38,385.83c-5.59,2.19-4.6,2.37,1.01.17-1.71.47-3.87,1.17-1.01-.17ZM339.21,376.76c.1-.23-1.13.14-1.43.08l-1.96,1.27c1.1-.48,3.14-1.47,3.39-1.35ZM337.78,376.84l2.93-1.9c-2.74,1.45-3.18,1.84-2.93,1.9ZM349.22,371.37c.92-.74,1.77-1.59,2.66-2.39l-1.18,1.02c-.48.48-.97.94-1.47,1.37ZM358.72,365.22c1.9-1.49,3.41-2.9,4.73-4.22-1.47,1.31-3.19,2.51-5.5,3.93-1,1.12,1.91-.79.78.28ZM363.45,361c.76-.72,1.5-1.44,2.19-2.23-.71.68-1.42,1.42-2.19,2.23ZM345.85,372.02c.28-.06.85-.12,2.58-1.04l-1.4.34c-.36.21-.76.46-1.17.7ZM346.97,371.33h.05c.59-.37,1.08-.66,1.5-.91-.4.23-.9.53-1.54.91ZM348.52,370.42c.52-.31.86-.51,1.04-.62-.2.12-.56.34-1.04.62ZM345.85,372.02c-.13.03-.21.06-.3.18.11-.07.19-.11.3-.18ZM340.58,374.35c.12.07.79-.1-.04.49l1.66-1.08,1.62-1.15-1.6.91-1.64.84ZM345.01,371.93l.28-.38-1.47,1.05,1.19-.68ZM360.4,362.37c.58-.55,1.22-1.09,1.91-1.64.67-.57,1.38-1.17,2.13-1.81-1.66,1.3-3.45,2.55-5.12,3.79-.15.28-.74,1.03,1.07-.34ZM353.96,366.85c.09-.07.2-.15.28-.22-.2.09-.35.18-.28.22ZM378.83,345.92c-.1.06-.18.11-.28.16,0,.04,0,.06,0,.1l.28-.27ZM359,362.85c-1.32.88-2.02,1.53-2.67,2.18.93-.74,1.92-1.52,3-2.32.07-.13.06-.18-.33.15ZM369.68,355.15c-.66.5-1.45,1.02-2.26,1.59.72-.4,2.13-1.29,2.26-1.59ZM354.75,366.43c-.06.05-.12.09-.19.15.49-.21.41-.21.19-.15ZM354.75,366.43c.64-.51,1.12-.94,1.58-1.41-.76.6-1.49,1.11-2.09,1.61.18-.08.37-.16.51-.2ZM374.59,350.06l-1.38,1.23.34-.39-1.08,1.04c1.32-1.09,2.35-1.78,4.16-3.16,1.64-1.91,1.9-2.38,1.92-2.59l-2.64,2.58-1.32,1.29ZM342.82,372.54c.08,0,.16-.02.24-.03.08-.07-.02-.05-.24.03ZM379.24,346.48c.66-.96,1.32-1.91,1.92-2.92-.54.7-1.1,1.38-1.69,2.04l-.23.88ZM384.8,340.4l1.19-1.67-1.3,1.19.11.48ZM404.7,158.55v.91c.9,1.52,1.51,2.75,1.97,3.81-.87-2.41-1.72-5.22-1.97-4.72ZM420.68,270.5c.73-2.08,1.08-3.8,1.39-5.3-.39,1.27-.74,2.42-1.02,3.33-.3.91-.47,1.59-.38,1.97ZM304.96,91.78c.95.41,1.38.53,1.4.43-.98-.43-1.55-.63-1.4-.43ZM422.83,262.18c.11-.53.2-1.06.27-1.6.06-.54.07-1.09.07-1.63-.09.38-.17.75-.26,1.13-.19,1.59-.45,3.19-.84,5.11.27-.94.55-1.96.76-3.01ZM277.15,390.17c-.51.08-1.37.27-2.82.65.67-.18,1.78-.42,2.82-.65ZM403.16,315c-.83,1.42-.09.25,0,0h0ZM401.7,317c.37-.5.77-1.08,1.2-1.72-.21.27-.57.79-1.2,1.72ZM402.06,316.83c-.31.47-.55.85-.78,1.2-.04.22.09.08.78-1.2ZM403.16,315c.24-.41.59-1,1.16-1.96-.48.8-.95,1.54-1.42,2.24.19-.26.28-.36.25-.28ZM425.57,234.97c-.04,1.73-.28,3.15-.56,4.01.19.7.11,2.67-.02,4.86-.21,2.19-.53,4.6-.58,6.21l-.46.78c-.06.52-.11,1.02-.16,1.49-.07.47-.13.92-.2,1.36-.12.86-.22,1.66-.3,2.39-.16,1.48-.27,2.75-.38,4.01-2.23,8.26-3.32,16.08-5.65,23.19l-.13.03c-.7,2.42-1.5,4.81-2.25,7.22.33-1.99-.24,1.5-1.26,3.55-.37,1.15-.96,2.62-1.62,4.12-.66,1.49-1.53,2.96-2.24,4.19-.72,1.44-1.36,2.91-2.14,4.32,2.02-4.63-.33-.45-1.12.07-.15.29-.3.57-.45.86l-.81,2.06c-.36.45-.26.08-.15-.26-.53.98-1.07,1.96-1.63,2.92-1.2,2.28-2.82,5.08-3.22,6.36.25-.19.73-.77,1.28-1.5.11-.24.11-.22.05-.06.05-.06.08-.11.13-.17-.06.08-.08.12-.15.21-.1.25-.24.64-.28.82-1.03,1.62-1.35,2.13-1.37,2.25-.01.12.29-.14.41-.14-1.53,1.61-2.52,2.98-3.46,4.23-.47.63-.92,1.23-1.42,1.81-.53.56-1.1,1.1-1.76,1.64,1.74-1.52.25.47-1.38,2.63-1.58,2.19-3.52,4.38-2.25,3.6-2.64,2.03-1.45,1.69-3.25,2.88,1.42-1.59,2.74-3.27,3.87-4.97-1.1,1.04-2.24,2.05-3.35,3.07-1.37,2.07.07.77.1,1.02-2.65,3.27-5.51,6.29-8.39,9.11-.11.14-.19.26-.26.36-.27.4-.23.48-.2.58-.42.26-.84.48-1.23.68-2.79,2.64-5.57,5.11-8.21,7.43-.44.63-1.33,1.64-1.69,2.2,1.29-1.06,2.23-1.97,3.03-2.69.8-.72,1.44-1.28,2.02-1.76-1.73,1.63-3.37,3.35-5.19,4.88h-.02s.02-.06.02-.09c.47-.45,1.79-1.57.14-.33-.08.13-.14.25-.14.33-.03.03-.09.08-.11.1-.29.19-.19.16.08,0h0s.02-.01.02-.01c.05-.03.09-.05.14-.08-.95.67-1.95,1.41-2.97,2.17.91-.77,1.86-1.58,2.89-2.52-2.76,2.04-.63.02-.52-.19-.83.73-1.65,1.45-2.43,2.16-2.51,1.62.1-1-3.01,1.36,4.5-2.29-7.1,5.92-6.19,5.81-1.87.76-4.56,2.54-6.84,3.89-2.48,1.38-4.38,2.37-4.01,1.33-1.92,1.12-2.69,1.73-2.84,2.01.05-.01.11-.02.16-.03.44-.1.8-.15,1.17-.19-.22.08-.57.21-1,.39.2-.04.46-.13.73-.26-2.36,1.34-4.55,2.45-6.56,3.61-.13.08-.26.15-.39.22.5.02-1.85,1.46-3.16,2.27,1.52-.98,1.39-1.09,1.25-1.21-.23.12-.46.25-.69.38-.98.54-1.94,1.1-2.9,1.68-.71.25-2.43,1.11-4.78,2.08-.27.11-.56.24-.84.36l-2.45,1.3c-1,.54-2,1.07-3.04,1.54.86-.41,1.7-.85,2.54-1.32l2.08-1.15c-1.98.86-4.21,1.83-6.55,2.65-1.51.55-3.04,1.11-4.51,1.66-1.49.48-2.95.9-4.28,1.29-1.34.38-2.55.71-3.59.95-1.04.22-1.92.33-2.54.37,3.37-.21-.15.4-3.14,1.51l2.92-.17-3.48.9-1.74.45-1.76.37c-1.42.37-1.82.43-1.83.38-1.16.22.11-.36-2.6.08-1.22.31-2.42.63-3.57.82.07-.04.13-.07.2-.1-.59.13-1.06.24-1.48.37-.97.28-1.66.56-2.96.93l.75-.04-3.26.61c-2.4.39,8.41-2.02.53-1-.07.25-4.62,1.54-6.8,1.38,4.04-.45,3.47-.8,1.97-.8-1.88.19-3.76.47-5.64.58.65.21,1.29.41,1.94.58-2.03.22-4.08.3-6.14.44-1.03.06-2.06.13-3.09.19-1.03.03-2.07.03-3.11.05-2.08.01-4.17.06-6.27.04-.18,0-.37-.01-.55-.02l.96.96c.11-.12-.21-.47,1.12-.47-.06-.11,1.28.34-1.12.5l-2.83.18-.06-1.25c-1.28-.05-2.56-.1-3.84-.15-2.11-.04-4.23-.29-6.35-.46-2.12-.2-4.26-.32-6.38-.64-2.13-.27-4.26-.55-6.41-.82-2.13-.36-4.27-.73-6.41-1.09.09-.15-.63-.36-1.72-.59-1.09-.26-2.54-.61-3.96-.94-2.83-.65-5.48-1.35-4.6-1.65.21.09.41.18.62.25,2.09.41,1.83.15.63-.28-1.21-.41-3.31-1.18-4.99-1.56,3.42,1.24-6.52-.75,1.94,1.68-2.23-.45-4.48-.86-6.7-1.36-1.04.16-2.64-.13-4.63-.68-.99-.28-2.08-.6-3.23-1.02-1.14-.44-2.34-.93-3.59-1.45-1.24-.52-2.54-1.06-3.85-1.61-1.29-.6-2.6-1.22-3.9-1.83-1.31-.59-2.62-1.17-3.89-1.74-1.26-.6-2.5-1.17-3.7-1.66.69.25.91.25,1.01.24-2.13-.88-4.38-1.86-6.47-3.06-2.09-1.18-4.18-2.3-5.96-3.5-3.58-2.36-6.38-4.27-7.31-4.79l-.4-.88c-1.74-.94-3.09-1.68-4.27-2.32-1.16-.67-2.11-1.33-3.1-2-.98-.68-1.98-1.42-3.2-2.36-1.21-.93-2.56-2.17-4.33-3.71.15.02,1.08.59,0-.43-2.01-1.1-3.95-2.35-8.65-6.76l.3.07-3.6-3.51c-1.21-1.17-2.41-2.34-3.53-3.59.3-.26-.32-1.13-1.43-2.36-.56-.61-1.23-1.32-1.98-2.07-.72-.78-1.5-1.63-2.29-2.49-3.25-3.4-6.39-7.43-6.62-9.12-.81-.62-2.22-2.48-3.72-4.48-.74-1-1.53-2.03-2.21-2.99-.67-.98-1.27-1.87-1.73-2.55.05-.05,0-.27-.22-.77-.68-.72-1.37-1.68-2.06-2.78-.66-1.12-1.26-2.4-1.88-3.68-.6-1.29-1.2-2.6-1.76-3.82-.51-1.25-1.01-2.41-1.49-3.36-1.39-2.43-1.11-1.23-.82-.01-.43-1.33-1.17-2.8-1.85-4.39-.7-1.58-1.49-3.2-2.25-4.72-.79-1.51-1.41-2.97-1.93-4.15-.51-1.19-.88-2.11-.98-2.61-1.3-3.86.05-1.62.03-2.78-1.88-5.72-1.07,1.4-2.8-6.55.34.89.89,2.54.79,1.87-.19-.75-.33-1.68-.43-2.68-.05-1.02-.1-2.12-.15-3.21-.08-2.19-.3-4.32-.74-5.78.02.68.07,1.36.15,2.03-.82-2.69-1.05-6.03-1.34-8.73-.15-2.73-.26-4.85-.85-5.23l-.42.58c-.16-2.42-.3-3.87-.33-4.86-.06-.99-.13-1.5-.2-2.01-.07-.52-.14-1.04-.21-2.04-.05-1-.19-2.49-.07-4.94l.08.12c-.21-4.26.31-6.56-.37-8.65l-.15,1.47c.04-2.65.08-4.09.13-5.54.02-1.46.17-2.92.41-5.6-.03-.64.07-3.25.29-3.98-.35-.16.02-3.28.48-6.66.19-1.7.59-3.43.89-4.89.31-1.46.56-2.66.68-3.25-.7,4.22-.05,2.28.44,1.15-.11-2.58.3-4.29,1.5-7.58-.63-.67-1.5-1.62.51-8.27-.19,1.07-.61,2.7-.25,2.09.36-.63.65-2.22.75-2.76.36-.61-.16,1.56.34.9.16-1.17.34-2.26.66-3.29.32-1.03.69-2.05,1.1-3.11.41-1.07.84-2.19,1.32-3.45.5-1.25,1.09-2.61,1.66-4.2-.6,2.08.26.43.82-.17-.3-.41.7-2.5,1.7-4.16.98-1.66,1.76-2.99.67-2.09,3.05-5.89,7.25-13.15,11.31-19.31,1.04-1.52,2.05-2.99,2.99-4.37.97-1.36,1.96-2.58,2.82-3.71.87-1.12,1.67-2.1,2.36-2.92.73-.79,1.35-1.42,1.83-1.85.57-.43,1.34-1.43,2.14-2.55.4-.56.82-1.15,1.22-1.71.43-.54.85-1.05,1.23-1.48l.09.5c1.89-2.61,2.69-3.58,3.58-4.66.92-1.05,1.97-2.16,4.39-5.1-1.89,2.56-.8,1.79,1.7-.15l3.27-4.1,1.17-.2c1.38-1.64,3.31-3,5.19-4.43.55-.86,2.13-2.41,3.89-3.81,2.05-1.68,4.14-3.37,4.62-3.94,2.42-.59,5.05-3.67,6.91-3.93.59-.5,1.38-1.09,2.26-1.72-1.15.26-1.73.12.17-.81.15-.1.27-.17.42-.27l1.04-.05c.89-.6,1.78-1.21,2.62-1.74.86-.49,1.65-.94,2.28-1.3-.59.27-1.3.55-2.04.83.85-.36,1.64-.7,2.4-1.03.26-.14.51-.27.68-.36-.11.08-.24.16-.4.24,1.21-.52,2.42-1.12,3.98-2.16,1.77-.66,3.56-1.49,5.37-2.42,1.8-.97,3.69-1.89,5.61-2.83,3.8-1.96,7.87-3.58,11.91-4.54-1.2.32-2.86.9-3.24,1.23,3.21-1.3,6.57-2.1,9.57-2.95,1.5-.45,2.95-.75,4.27-1.1,1.32-.34,2.51-.69,3.54-1.07l-.42-.37c2.41-.81,4.61-1.29,6.67-1.82,2.06-.52,4.02-.99,6.04-1.28l.13-.55c1.48-.2,3.37-.54,5.43-.92,2.07-.32,4.33-.62,6.51-.92,2.18-.33,4.31-.45,6.12-.51,1.81-.05,3.3-.01,4.22.19.71-.3,2.78-.27,5.08-.27,2.3.01,4.84.03,6.53.03l.85.42c.85.05,1.63.08,2.37.1,3.13-.15-4.32-1.1,1.17-.83.51.27.97.59,1.99.89h0c1.56.05,2.89.09,4.21.13.65.11,1.29.19,1.93.28.58-.01,1.37.03,2.71.15l-.1.19c.13.01.25.03.38.04.54.08,1.07.16,1.6.24,2.13.3,4.23.53,6.3.73.08,0,.16.02.24.03-.76-.32-1.4-.56-1.66-.65.85.29,1.64.51,2.4.75,1.72.22,3.42.47,5.1.69,1,.15,1.99.29,2.97.44.97.21,1.93.41,2.89.61l.05.13c2.59.49,5.21.88,7.78,1.53-2.1-.19,1.57.16,3.85.88.62.12,1.34.27,2.1.48.75.23,1.55.49,2.37.76,1.62.55,3.28,1.18,4.65,1.76,1.5.51,2.97,1.09,4.45,1.65,1.07.23,2.51.67,4.51,1.42-.87-.26-2.17-.65-2.07-.47.18.03.39.08.63.13,1.38.29,3.31,1.01,2.58.96-.29-.22-.39-.13-.56-.06,0,0,0,0,.01,0,.54.41-1.46-.3-.88.26,2.19.51,3.97,1.26,5.94,2.15,1,.43,2.01.97,3.15,1.55.03.02.07.03.1.05-.32-.24-.81-.56-1.39-.91-.26-.09-.24-.09-.07-.04-.07-.04-.12-.08-.19-.12.09.05.13.07.24.13.26.08.68.19.87.22,3.57,1.84,2.33,1.03,2.29.78,3.65,2.47,6.02,3.38,8.54,5.54,0,0,.02,0,.02.01-1.18-1.06.98.04,3.24,1.39,2.42,1.47,5.03,3.07,4.01,1.92,2.52,2.38,1.97,1.25,3.44,2.97-1.9-1.46-4.05-2.52-6.06-3.56-.45-.22-.89-.44-1.32-.65,1.56,1,3.17,2.06,4.84,3.08,1.54.99,3.04,2.07,4.57,3.09,1.52,1.02,3.03,2.04,4.41,3.12.37.28.72.54,1.09.81-.17-.16-.32-.3-.42-.4,3.2,2.08,3.31,1.96,3.51,1.88.56.68,1.03,1.35,1.38,1.95.67.56,1.3,1.11,1.9,1.61,2.05,1.75,3.64,3.17,4.39,4.17.38.59,1.36,1.38,2.44,2.21-.21-.19-.44-.38-.7-.61-1.39-1.9,1.53.48,2.75.98-2.64-2.31-4.11-3.64-5.26-4.73l5.72,4.82.02.02s-.08-.01-.11-.01c-.54-.42-1.91-1.62-.36-.1.15.06.28.11.36.1.03.03.1.09.12.1.25.27.19.17,0-.08h.01s-.03-.02-.03-.02c-.04-.04-.07-.08-.11-.13.87.86,1.7,1.86,2.63,2.83-.91-.85-1.82-1.81-2.98-2.72,3.74,3.87-3.44-2.47,1.99,2.61-1.15-.99-1.43-1.08-2.03-1.46.31.26.61.51.86.76l-.49.08c2.42,1.89,3.32,2.68,4.31,3.56.99.89,2.07,1.88,4.76,4.31-2.06-1.63-1.82-1.03-.59.75l1.8,1.84c.92.73,1.81,1.49,2.7,2.26l.13,1.14c1.47,1.39,2.86,3.16,4.09,5.04.8.54,2.19,2.13,3.58,3.78.01.01.02.03.03.04-.48-.7-.98-1.39-1.47-2.09.91,1.05,1.85,2.08,2.69,3.18-.55-.64-.51-.35-.49-.14,1.25,1.65,2.36,3.16,2.83,3.53.59,2.26,3.35,4.92,3.53,6.71.48.56,1.05,1.31,1.66,2.15-.24-1.09-.05-1.66.79.17.09.15.15.27.24.41l-.02,1.01c1.07,1.74,2.11,3.54,2.78,4.75-.16-.36-.33-.76-.49-1.19l-.46-.74c.14.16.25.31.35.44-.06-.15-.11-.3-.17-.45.07.17.14.34.21.51.33.45.46.74.52.96l-.35-.55c.16.38.32.75.47,1.12-.07-.18-.07-.33-.12-.56.67,1.02,1.21,2.1,1.82,3.15-.8-1.33-1.3-1.88-.98-1.71-.43-.41-.61-.64-.7-.84.03.07.06.14.09.21.14.24.24.49.32.66-.07-.11-.14-.24-.21-.39.44,1.18.94,2.37,1.86,3.9.21.56.45,1.13.68,1.7,1.17,1.96.33-.02-.27-1.63.7,1.42,1.25,2.54,1.56,3.36.31.83.45,1.32.44,1.45-.05.24-.48-.67-1.56-2.8,1.13,2.74,2.46,5.6,3.88,8.52,1.57,3.75,3.23,7.61,3.78,11.56-.24-1.16-.68-2.78-.97-3.16,2.03,6.29,2.92,12.81,4.06,16.81l.4-.38c.54,2.36,1.07,4.45,1.45,6.45.33,2,.61,3.9.86,5.84l.55.15c.18,1.41.3,3.24.51,5.23.1,1,.2,2.04.31,3.09.05.53.1,1.06.15,1.58.02.53.04,1.06.07,1.59.08,2.1.14,4.14.11,5.87ZM340.88,354.35l-.36.2s-.02.04-.03.07l.38-.27ZM335.45,112.79s-.04-.01-.06-.02c.58.63.85.97.06.02ZM306.9,84.46c.47.14.95.29,1.48.44-.21-.19-.02-.27.25-.34l-3.1-.81c.37.18.84.42,1.37.7ZM382.04,131.5c-.85-.58-1.69-1.16-2.54-1.74.89.94,1.77,1.9,2.63,2.86.11-.37.24-.68.6-.62-.02-.02-.04-.04-.06-.06-.13-.09-.26-.18-.39-.27l-.03.14-.22-.31ZM326.31,104.26c.38.28.75.53,1.12.76-.36-.25-.73-.5-1.12-.76ZM336.83,113.33c.2.19.38.35.55.49-.19-.16-.37-.33-.55-.49ZM382.38,179.93c.06.22.14.49.24.83-.01-.18-.03-.38-.05-.61l-.19-.23ZM384.09,181.68c-.17-.54-.35-1.08-.54-1.56.33,1.22,0,.8-.4.19-.13.06-.26.08-.39.04.46.43.89.88,1.33,1.33ZM255.22,393.03h0s.04,0,.06,0c-.02,0-.04,0-.06,0ZM422.53,241.59c-.03-1.2-.16-2.57-.32-3.82-.02,1.5-.06,3-.12,4.5.13-.4.31-.85.45-.68ZM419.85,209.01c.33,1.86.63,3.73.9,5.61l.82.55-.71.21c.25,1.89.46,3.78.65,5.69.07-.1.13-.28.17-.59.17-.97.04-3.47-.02-5.83-.05-1.18-.09-2.32-.13-3.2-.08-.87-.14-1.49-.15-1.64-.36-.66-.94-.91-1.52-.8ZM416.06,187.85l-.19-.42c.03.09.05.18.08.27.03.05.07.11.1.15ZM409.18,174.19c1.18,2.65,2.27,5.34,3.3,8.05,1.26,2.02,2.41,3.87,3.23,5.09-.03-.16-.06-.31-.08-.45l-1.7-3.85-.13-1.35c-.33-.79-.72-1.55-1.15-2.27-.42-.72-.85-1.42-1.28-2.09-.74-1.14-1.48-2.19-2.2-3.13ZM390.93,141.51c.1.02.22.09.36.18-.6-.78-.31-.3-.36-.18ZM314.8,84.95c.41,0,.93.05,1.61.19-2.03-.63-2.13-.54-1.61-.19ZM308.18,82.59s.08.01.13.02c-1.82-.68-2.74-1.05-.13-.02ZM302.62,81.47c-.44-.1-.85-.17-1.24-.24,1.03.29,2.05.58,2.95.83,1.35.46,2.45.83,2.99,1.02-3.91-1.15-2.15-.29-1.13.32,1.07.1,1.99.25,2.94.49-.23-.18-.63-.42-1.28-.73-1.13-.44-2.1-.8-2.95-1.09-.86-.28-1.61-.45-2.29-.6ZM143.62,114.29c.03-.1.1-.24.2-.39-.82.68-.32.34-.2.39ZM91.43,198.53c.28-.75.52-1.46.7-2.1.2-.63.36-1.19.41-1.65-.57,1.35-.87,2.62-1.11,3.75ZM99.58,292.96c-.05-.94-1.35-3.03-1.82-4.15.55,2.01.78,3.08,1.82,4.15ZM255.02,393.05c-.31-.04-.76.01-1.02.04l.03-.02s-.02,0-.03,0l.05-.02.23-.16c-.49-.14-.05-.31.05-.45.14-.19-.35-.32-4.74-.43,2.6-.07,5.17.23,7.78.31l-.74-.24,1.51.17-.27.08c1.22.02,2.46-.02,3.71-.16-.68-.05-1.36-.09-2.04-.2,1.06.06,2.11-.03,3.17-.04l-1.07.23c.19-.02.37-.03.56-.06l-2.83.7c.5-.01,1.02-.04,1.52-.09.02-.02.06-.04.08-.06l.34.02c.92-.09,1.75-.22,2.26-.32l-.27.42c.31-.03.62-.06.93-.09.38-.07.76-.15,1.13-.2.04-.12,0-.22-.3-.22,1.04-.11,1.93-.23.54-.45,1.02.1,2.02.04,3.04-.01,0,0,.02,0,.03-.01l3.76-.31c.27-.03.53-.05.8-.09,1.26-.23,2.51-.48,3.76-.75.22-.05.43-.1.65-.14.19-.23.44-.46-.48-.31,2.15-.46,3.98-.99,1.11-.65,5.84-.91,11.58-2.59,17.16-4.78-.08-.05-.25-.08-.39-.1,1.94-.1,1.5-.96,2.4-1.41.7-.05,1.4-.13,2.1-.21.36-.16.72-.32,1.08-.49.09-.26-.38-.24-.38-.38,1.13-.57,2.28-1.08,3.43-1.56,1.13-.52,2.24-1.03,3.33-1.53,1.09-.5,2.15-.98,3.14-1.52.97-.57,1.88-1.16,2.7-1.8.36-.11.52-.09.61-.04.37-.23.74-.45,1.11-.68.25-.18.54-.38.84-.59,1.13-.78,2.32-1.65,1.52-1.5.56-.03,1.23-.31,1.92-.66,4.23-2.82,8.31-5.83,12.28-8.91.51-.42,1.05-.85,1.6-1.29.86-.75,1.74-1.5,2.56-2.15.08-.2-.38.02-.73.19,2.57-1.63,2.72-2.33,3.34-3.28l-.21.07.45-.41c.13-.18.28-.36.48-.57l.56-.39.84-.77c.43-.49.57-.6.61-.55.3-.26.24.05.64-.12l.72-.5c1-.93,1.25-1.4,1.5-1.93-.11.04-.19.06-.2,0,.13-.13.26-.27.39-.4.06-.13.13-.26.21-.41l-.29.18.97-1.1c.33-.34-.05.23-.36.78.58-.61,1.17-1.22,1.75-1.84.14-.18.29-.35.45-.47.28-.29.56-.59.83-.88h-.06c2.39-2.59,4.85-5.23,7.27-7.99,3.08-3.62,5.82-7.22,7.94-10.77,1.4-1.65.77-.17,1.42-.82.21-.28.41-.53.59-.73.1-.14.22-.3.35-.48-1.76,1.82-.38-.47,1.15-2.91.15-.27.3-.53.46-.8-.18-1.2.82-2.8,2.14-4.63.72-.96,1.44-2.02,2.11-3.1.67-1.08,1.29-2.18,1.7-3.26-.09.32-.04.44-.01.5.75-1.91,1.8-3.93,2.79-5.56.96-1.64,1.84-2.9,1.86-3.4l.42-.08c.11-.26.23-.52.33-.78.25-1.31.44-2.15.74-3,.18-.5.39-1.01.68-1.62.3-.6.66-1.32,1.08-2.26.01-.05.03-.11.05-.16.09-.18.21-.44.35-.78.06-.87.28-1.95,1.08-3.85l.11.16c.53-1.39.92-2.82,1.36-4.24.13.05.24,0,.35-.06.38-1.19.77-2.43,1.19-3.67.01-.05.03-.1.04-.15.3-1.55.59-3.16,1.16-3.99.21-.73.42-1.44.62-2.13.16-1.33.49-3.03.53-4,.07,0,.16-.07.28-.29-.23-.93.11-2.11.54-3.31.22-.59.45-1.2.66-1.76.16-.5.28-.96.35-1.39,0-.07.01-.14.02-.2-.34.84-.69,1.68-1.1,2.5.24-1.01.44-2.03.62-3.05-.07.08-.13.17-.2.26.14-.31.26-.66.34-1.04.06-.34.12-.69.18-1.03.29-2.25.02-4.88.25-5.5.28-1.76.68-.58,1.08-1.02.18-2.66-1.47.26-.4-3.19.02.42-.02,1.18.11.9.11-.47.44-1.05.81-1.67,0-.85-.06-1.53-.13-2.7l-.14.68.17-3.07c.19-2.27-.01,8.05.85.69-.08-.06-.23-1.19-.29-2.55-.03-.68-.04-1.41,0-2.1.03-.69.06-1.33.18-1.82-.04,1.89-.06,2.71.06,2.9.11.19.29-.27.43-.96.1-1.77.13-3.54.19-5.31l-.8,1.73c.32-7.17.08-14.49-.55-21.9-.57-.31-1.09-1.06-1.38-3.11.18.45.34,1.17.47.85.13-.33-.14-1.01-.23-1.23.13-.32.38.63.62.26-1.04-1.94-.45-3.53-1.27-6.41.38.83.42.18.6-.23,0-.04-.01-.08-.02-.11-.47-.14-.38-1.42-.37-2.29-.04-.26-.08-.52-.12-.78-.07-.04-.17.02-.34.25-.04-1.48-.32-3.12-.65-4.79-.33-1.67-.69-3.38-1.06-4.97-.83-3.07-1.53-5.73-1.5-6.99-.07-.25-.13-.5-.2-.75-.09-.28-.17-.56-.25-.84-.28-.54-.61-1.11-.76-1.58h.31c-.03-.11-.06-.22-.09-.33-1.32-2.11-.8-1.85-2.51-4.63.67.8.86.72.88.1-.3-.68-.61-1.36-.93-2.03l-.74-.86.2-.3c-.2-.43-.4-.85-.59-1.28-1.44-1.34-3.06-5.24-4.94-9.88-.04-.1-.09-.2-.13-.3-.14.24-.34.21-.5-.42-.04-.07-.07-.12-.11-.19l.18-.38c-.17-.39-.34-.79-.51-1.19-.27-.45-.5-.88-.67-1.21.09.28.15.61.2.97-.11-.4-.19-.77-.28-1.14-.05-.12-.11-.23-.14-.31.04.05.08.1.11.17-.15-.57-.36-1.13-.87-1.8-.44-1.63-1.56-3.13-2.64-4.67-1.06-1.56-2.22-3.09-2.71-4.92.19.52.55,1.21.81,1.3-.68-1.09-1.23-2.24-1.76-3.32-.3-.49-.59-.98-.89-1.47-.46-.72-.91-1.43-1.36-2.13l-.29.34c-1.42-1.74-2.46-3.11-3.47-4.59l-.48.22c-.69-1.11-2.02-2.66-3.19-4.18-1.15-1.54-2.28-2.92-2.34-3.89-.74-.22-2.12-2.92-3.22-3.94l.06-.54c-1.17-1.54-2.07-2.35-2.91-3.14-.95-1.79-2.32-3.1-3.63-4.38-.67-.62-1.34-1.23-1.99-1.83-.66-.59-1.33-1.15-1.93-1.76l.06-.1-2.71-2.2c.9.37-.65-.31-1.36-1.07-.96-.58-2.24-1.84-3.05-2.9l-1.65-1.48c1.55,1.08.87.19.55-.49-.34-.29-.68-.58-1.03-.85.01-.01.01-.04.02-.05l-.46-.21c-.22-.38.35-.07.42-.13-.03-.06-.07-.12-.12-.19-.03-.04-.06-.06-.11-.12-.9-.4-3.09-2.18-4.07-2.34.04.18.24.48.51.81.11.05.1.05.02.03.02.03.04.05.06.08-.03-.03-.05-.05-.08-.09-.12-.04-.31-.1-.41-.1-1.31-1.18-.92-.63-1-.42-1.17-1.76-2.37-2.02-3.11-3.61.56,1-.37.32-1.37-.41-.99-.76-2.13-1.46-1.84-.74-.83-1.42-.83-.59-1.28-1.63.82.66,1.77,1.13,2.69,1.55.47.23.94.43,1.39.62-2.87-1.87-5.52-3.57-6.09-4.75-.08-.03-.18-.07-.27-.1,0,0,0,0,0,0,0,0,0,0-.01-.01-.46-.18-1.1-.48-1.85-.85.45.39.93.79,1.08.98-1.57-.66-1.66-.51-1.8-.39-.25-.4-.43-.83-.55-1.23-1.35-.69-2.86-1.48-4.25-2.17-.39-.03-.94-.14-1.27-.07.69.34,1.23.6,1.67.83.43.25.76.46,1.04.66-.97-.51-1.98-.93-2.98-1.37h0s.05-.04.07-.05c.29.09,1,.44.21-.08-.08.02-.16.03-.21.08-.02,0-.05-.02-.06-.02-.13-.1-.1-.05,0,.06h0s.01.01.01.01c.02.02.03.04.05.06-.43-.32-.9-.64-1.4-.96.49.24,1.01.49,1.62.72-1.17-.78-.28-.53.03-.48-.63-.3-1.21-.56-1.69-.76.01-.07-.12-.22-.54-.52-2.35-.64-5.66-2.5-8.73-4.07l-.24.08-.57-.27.77.17c-1.53-.78-3-1.49-4.25-1.93-.43-.14-.75-.22-.99-.27-.14-.02-.29-.04-.44-.06-.12,0-.17.04-.15.09.05.14.53.46,1,.8-1.12-.64-2.57-1.11-4.08-1.61-1.51-.49-3.12-.93-4.66-1.2-.29-.06-.57-.11-.85-.17.17.09.37.18.55.27-.7-.17-1.23-.33-1.59-.47-.81-.16-1.56-.31-2.23-.44-1.16-.21-2.06-.34-2.49-.52-3.62-.86-1.23-.89-2.16-1.45-2.73-.54-2.58-.05-2.62.18-.05.25-.31.38-3.92-.51.86.07,2.44.26,1.85.07-.82-.2-1.84-.54-2.95-.92l-1.16.11c-.7-.16.32-.19.69-.27-.29-.1-.59-.2-.89-.31-.06,0-.12-.02-.19-.03-.02,0-.04,0-.06,0l.02-.02c-.06,0-.11-.02-.17-.03-1.16,0-2.23-.04-3.24,0-1,.03-1.95.07-2.85.1-1.81.05-3.47.06-5.23,0v-2.29c-.09,0-.17,0-.26-.01-1.63.01-3.38.03-5.36.04-.42-.1-1.3-.31-1.08-.49-1.94.1-4.27.65-5.92,1.11-1.65.47-2.63.93-1.89,1.1-1.12.09-1.98.13-2.7.17-.71.05-1.29.09-1.84.13-1.1.07-2.12.16-4.02.49,6.16-.08-1.21.04-1.76.81-3.85.69-1.4-.12-3.21,0-.63.18-2.13.67-2.2.88-2.48-.12,4.39-2.15,1.49-2.28-1-.01-3.65.1-6.1.36-2.45.31-4.73.6-5.03.64-1.73.98-.6,3.23,2.29,3.41-.1.23-1.02.32-2.13.39-.56.04-1.16.08-1.73.11-.57.06-1.09.15-1.51.25-2.48.32-4.28.94-5.96,1.58-1.67.67-3.19,1.44-5.2,1.93l2.89-1.31c-.35.02-1.96.55-3.58,1.14-.81.29-1.63.6-2.29.87-.66.29-1.16.55-1.37.69-.11-.08.53-.64.96-1.12.44-.47.68-.87-.27-.7-1.76.62-3.47,1.32-5.03,2.02-.78.35-1.52.7-2.21,1.05-.68.37-1.31.74-1.88,1.09-2.28,1.4-3.59,2.49-3.24,2.72l5.08-2.56c1.71-.81,3.46-1.56,5.19-2.34.29.2-1.56,1.04-3.38,1.89-.45.22-.91.43-1.33.63-.41.22-.79.44-1.1.63-.62.38-.98.67-.8.79l-4.82,1.95c-1.59.69-3.16,1.44-4.74,2.16,1.17-.59,4.72-2.49,3.17-2.09-4.02,1.98-2.13.92-4.95,1.99,2.17-1.43,5.13-3.71,8.08-5.62,1.46-1,2.87-1.98,4.1-2.82,1.25-.8,2.32-1.5,3.04-2.01-1.67.77-3.36,1.49-4.99,2.36l-1.4.23c-1.61.82-3.13,1.7-4.51,2.62-1.36.97-2.59,1.95-3.67,2.86-1.07.91-2,1.73-2.73,2.45-.71.74-1.25,1.31-1.59,1.66-3.63,1.81-2.98.06-2.24-.62-3.57,1.85-5.02,3.31-6.5,4.7-.74.69-1.48,1.38-2.47,2.15-.99.77-2.16,1.71-3.86,2.78l2.65-1.46c-.75.58-2.59,1.77-4.15,2.8-1.58,1-2.78,1.95-2.43,1.81-1.36.63-2.87.9-2.03-.06l-2.29,2.35-1.25,1.3-1.2,1.35c.73-.76-.41-1.1-.17-1.52-2.25,1.8-3.06,3.98-1.55,2.96-2.38,1.49-3.26,2.09-3.99,2.65-.75.54-1.4.98-3.37,2.2-1.18,1.16.82.67,1.79-.06-1.29,1.35-2.38,2.34-3.27,3.19-.88.86-1.62,1.51-2.29,2.1,4.07-4.64-.34-2.78-.03-4.14l-3.72,5.77c-1.18,1.96-2.29,3.94-3.42,5.89.17-.45.18-1.85.05-1.87-.02.36-.69,1.32-1.72,2.67-.99,1.39-2.34,3.17-3.85,5.08-1.5,1.91-2.99,4.08-4.5,6.06-.76.98-1.42,1.99-2.06,2.92-.64.93-1.24,1.79-1.77,2.55l.62-.93c.3-.71-.5.23-1.53,1.64-.53.69-1.07,1.53-1.54,2.36-.48.82-.9,1.6-1.18,2.2.08-.47.44-.96,1.01-1.92-1.57,1.95-2.13,3.51-2.7,5.05-.51,1.58-1.01,3.16-2.56,5.19,2.25-3.98,2.37-4.95,1.96-4.92-.76,1.73-2.25,4.47-3.33,6.64-.97,2.22-1.56,3.85-.7,3.25-1.23,2.08-2.04,4.08-2.43,3.68l-1.49,4.38c-.48,1.46-1.03,2.89-1.42,4.38.13-.68.05-1.35-.93,1.17.88-2.43,1.71-4.83,2.44-6.96.37-1.06.72-2.05,1.09-2.91.4-.85.82-1.56,1.27-2.1-.52-.39-1.67,1.24-1.08-1.25-3.95,9.3-4.75,14.9-5.86,21.09l-1.48,4.13-1.27,4.2.2.43-1.08,1.32c-.09,1.11-.13,1.82-.23,2.03-.1.18-.16-.11-.16-.56-.16.91-.23,1.76-.25,2.2-.42.27-.63-1.36-.62-3.08.32-.74.64-1.51.97-2.28.05-1.77-.01-3.09-.83-.79-.04.34-.09.78-.14,1.25,0-1.15-.06-1.87-.36-1.09l-.64,3.35c-.18,1.12-.31,2.26-.47,3.38.24-.74.65-1.84,1.15-3.11-.33,4.29-.64,9.11.54,5.49l-.69,2.48c-.21.83-.38,1.67-.56,2.51-.04,3.04-.07,4.28-.13,5.68,0,1.41-.02,2.97-.04,6.63-.29.38-.35-1.57-.64-.27.07,1.34.09,2.82.01,4.3-.08,1.48-.24,2.98-.41,4.34-.29,2.73-.41,4.96-.06,5.53.32,4.31.63,1.77,1.01,4.49-.09-.12-.27-.37-.22.42l.78,3.19c-.08,1.32-.6-2.95-.53.72.38,3.11.99,5.53,1.36,7.85.35,2.32.79,4.5,1.16,7.08,1.5,7.26.44-3.32,1.49,2.84-.23.99-.51,1.88.35,5.71.78,1.93.99,1.59,2.19,4.89l-.69-.03c.96,3.11,1.82,5.55,1.4,5.72,1.16,2.42,1.73,4.16,2.1,5.51.48,1.14.78,1.44.86,1.27.08-.17,0-.83-.12-1.67-.26-1.68-.78-4.05-.85-4.63.59,2.34,1.19,4.29,1.75,5.98.6,1.67,1.07,3.12,1.24,4.55l-1.81-3.89c2.73,8.8,4.31,7.55,4.83,12-1.31-2.86-3.26-6.12-2.79-4.29l2.28,3.98c.07.56-1.24-2.3-.51-.32.35.55.89,1.39,1.42,2.22.58.8,1.16,1.58,1.53,2.04l-.07-.03c1.23,2.19,2.42,4.4,3.77,6.52-.52-.77-.69-.73-.04.39,1.04,1.47,2.05,2.96,3.1,4.42-.52-.64-.58-.6-.38-.11.22.48.73,1.37,1.37,2.4,3.72,5.9,4.38,3.7,7.03,8.41-.46-.63-.6-.69-1.07-1.33l1.43,2.39c.69-.17,3.34,2.91,5.96,6.01,2.78,2.96,5.51,5.97,6.27,5.64,1.19,1.57,1.18,1.68.36,1.01-.4-.34-1.03-.85-1.76-1.53-.73-.67-1.6-1.47-2.57-2.29.85,1.12,1.68,2.25,2.55,3.36-1.21-1.2-2.08-2.34-3.42-3.59.82,1.11,1.69,2.16,2.57,3.13.88.97,1.84,1.79,2.72,2.58,1.8,1.53,3.39,2.83,4.65,3.66,1.42,1.55-1.94-.34,2.67,3.51,1.61,1.39,2.42,1.91,2.75,2.03.32.12.17-.17-.07-.52-.48-.71-1.29-1.67.72-.12l2.38,2.89c5.38,3.65,9.05,6.82,13.57,9.93,1.06.65,1.61.92,1.91,1,1.2.82,2.48,1.59,3.78,2.32,1.3.73,2.6,1.44,3.92,2.02,1.31.6,2.57,1.18,3.74,1.76,1.17.58,2.25,1.14,3.22,1.65-.99-.32,2.05,1.5,2.45,1.89,1.23.5,2.43,1.04,3.67,1.5l3.73,1.35c-3.29-1.2-3.33-.76-4.08-.65,2.31.94,3.47,1.19,5.04,1.8-1-.27-2.02-.54-.89.15,2.63.94,5.34,1.64,8.02,2.4-.44-.24-1.32-.6-2.07-.89.98.34,2.53.89,4.19,1.47,1.67.55,3.45,1.11,4.81,1.73-.3.07-1.32-.1-1.61-.02-1.12-.6-2.05-.91-2.87-1.09-.81-.21-1.5-.29-2.17-.37,2.71,1,3.07,1.05,3.02,1.14-.04.06-.45.06.83.62,3.89,1.23,5.64,1.21,4.72.55,1.07.41,1.98.68,2.8.92.82.25,1.55.46,2.28.65.74.19,1.48.37,2.33.55.85.18,1.8.38,2.97.5l-1,.36,4.25.75-3.57-.07c4.01,1.07,4.43.92,4.97.78.54-.16,1.16-.19,5.66.7l-.06.49c1.76.2,2.97.15,4.07.17,1.09.03,2.09.04,3.41.51,3.43.11-5.71-1.39,2.27-.53.69.21,1.78.46,2.99.69,1.21.2,2.55.35,3.69.49,2.4-.04-1.32-.63-3.16-.76,5.74.31,7.55.92,9.22,1.3.85.21,1.67.4,2.95.51.64.06,1.4.1,2.34.11.88,0,1.92.02,3.16-.09ZM292.58,392.58l1.13-.11c.66-.29,1.32-.57-1.13.11ZM411.13,298.79s-.02.08-.03.13c.82-1.66,1.24-2.5.03-.13ZM413.48,291.04c-.56,1.46-1.13,2.92-1.73,4.36-.49,1.18-1,2.36-1.51,3.53.11-.15.23-.31.36-.51,1.82-3.68,2.44-5.54,2.88-7.38ZM394.13,328.92l-.21.31c.1-.13.16-.23.21-.31ZM393.9,328.77c.12,0,.52-.31.24.15l1.81-2.61c-1,1.4-1.47,1.82-2.05,2.47ZM405.52,310.15c-.65.98.11.91-.35,1.41-.16,1.41,3.18-7.22.35-1.41ZM276.09,75.73c-.07-.03-.15-.06-.22-.08.82.16,1.45.22,1.8.09-1.12-.22-2.12-.4-3.05-.56-.34-.12-.67-.25-1.01-.36l-.28.12s.08.04.12.05c-.5-.08-.98-.15-1.44-.21,1.12.24,2.13.49,3,.68.31.08.67.16,1.09.26ZM17.47,509.61c0-19.79,16.14-35.88,35.98-35.88,10.91,0,20.68,4.89,27.29,12.54h-3.85c-6.02-5.97-14.31-9.67-23.44-9.67-18.26,0-33.11,14.8-33.11,33.01s14.85,33.06,33.11,33.06c9.23,0,17.62-3.8,23.64-9.92h3.85c-6.56,7.8-16.48,12.78-27.49,12.78-19.84,0-35.98-16.09-35.98-35.93ZM148.65,473.73l37.36,71.8h-2.81l-13.18-25.41h-42.88l-13.27,25.41h-2.62l37.41-71.8ZM148.65,478.96l-20.04,38.34,39.97.05-19.94-38.39ZM193.63,473.73l2.57-.2,34.2,66.67,34.2-66.67,2.57.2-36.77,71.8-36.77-71.8ZM302.45,473.73h2.62v71.8h-2.66l.05-71.8ZM371.81,473.73l37.36,71.8h-2.81l-13.18-25.41h-42.88l-13.27,25.41h-2.62l37.41-71.8ZM371.81,478.96l-20.04,38.34,39.97.05-19.94-38.39ZM439.48,474.37h31.24c13.62,0,21.22,5.97,21.81,17.22v1.33c-.54,11.74-8.14,18.06-21.81,18.06h-10.31l31.88,31.14v3.4l-35.14-34.54h-15.1v34.54h-2.57v-71.16ZM470.72,508.52c10.86,0,18.95-4.54,19.34-16.29-.35-9.87-7.11-15.64-19.34-15.59l-28.67.1v31.78h28.67Z"/></g></svg>