<?xml version="1.0" encoding="UTF-8"?>
<svg id="Layer_1" xmlns="http://www.w3.org/2000/svg" version="1.1" viewBox="0 0 370 410">
  <!-- Generator: Adobe Illustrator 29.8.2, SVG Export Plug-In . SVG Version: 2.1.1 Build 3)  -->
  <defs>
    <style>
      .st0 {
        fill: #c8a96a;
      }
    </style>
  </defs>
  <path class="st0" d="M184,78.3c.1,0-.1-.5.5-.4,0-.1.6.4-.5.4ZM209.8,81.7c.1,0,.1,0,.2.1.2,0,.5.1,1,.3-.2-.4,1.2,0-1.2-.4h0ZM210,81.9c-1.1-.3.6.4,0,0h0ZM214.4,83.5c1.4.3,1.2,0,.5-.5h-1.4c.2,0,1.4.5,1,.5h0ZM216.4,83h-.7c.1,0,.3,0,.7,0ZM214.9,82.7c.2-.2-.2,0-.9,0,.5,0,1.1.1,1.6.2-.2-.2-.1-.4-.7-.1h0ZM223.2,86.4c.1-.1-.3-.6-.3-.8l-1.1-.2c.5.3,1.4.8,1.4,1ZM222.9,85.6l1.6.3c-1.3-.6-1.6-.5-1.6-.3ZM229.5,88.9h-.7c0-.1-1-.2-1-.2l1.7.2h0ZM232.3,91.1c1,.4,1.9.6,2.8.8-.9-.3-1.6-.8-2.7-1.5-.7,0,.6.8-.1.7h0ZM235.1,91.9c.4.2.9.3,1.4.4-.4-.1-.9-.2-1.4-.4ZM227.9,87.9l-.4-.7c-.2,0-.4-.2-.6-.2,0,.1.2.4,1,.9ZM227.5,87.2h0c.6.3,1.1.5,1.2.6-.2,0-.5-.3-1.2-.6ZM226.8,87c0,0,0,0,.1,0,0,0,0,0-.1,0ZM224.5,85.8l1.8.4-1.5-.7c0,.1.2.4-.3.3ZM234.1,90.5c.7.2,1.4.5,2.3.9-.8-.5-1.7-1-2.5-1.5-.2,0-.7,0,.3.6h0ZM230.9,88.9s.1,0,.2,0c0,0-.1-.1-.2,0ZM244.2,95.8s0,0,0-.1h0c0,0,.1.1.1.1h0ZM233.8,89.8c-.6-.4-1.1-.5-1.5-.5.5.2,1.1.4,1.6.7,0,0,.1,0-.1-.2h0ZM238.8,93.2c-.3-.3-.6-.5-1-.8.3.3.8.8,1,.8ZM231.3,89.1s0,0-.1,0c.2.2.2.1.1,0ZM231.3,89.1c.4,0,.7.1,1,.2-.4-.2-.8-.3-1.2-.4,0,0,.1.2.2.2h0ZM242.5,95.4c1.1.4,1.4.4,1.5.3l-2.9-1.8h.2c0,0-.6-.2-.6-.2.6.5,1.1.9,1.8,1.7ZM244.3,96.2l-.6.2,1.7.2-1.1-.4h0ZM247.4,98l-.3.3.9.3s-.6-.6-.6-.6ZM304.7,165.2l.2-.5c-.4-.7-.7-1.3-.8-1.8.2,1.2.2,2.6.6,2.3h0ZM275.3,121.1c.6.8,1.1,1.5,1.5,2-.6-1.1-1-2-1.5-2ZM316.9,270.9c0,.5,0,.7.1.7,0-.5,0-.8-.1-.7ZM276.9,123.1c.5.8,1.1,1.6,1.9,2.2,0-.2-.2-.3-.3-.5-.5-.5-1.1-1-1.7-1.7ZM195.1,391c-.2,0-.7,0-1.4.2.3,0,.9-.1,1.4-.2ZM258.8,106.5c-.6-.4-.1,0,0,0h0ZM258,105.6c.2.2.4.5.7.7-.1-.1-.3-.3-.7-.7ZM258,105.9c-.2-.2-.3-.3-.5-.4-.1,0,0,0,.5.4ZM258.8,106.5c.2.1.4.3.8.6-.3-.3-.6-.5-.9-.8.1.1.1.2,0,.2h0ZM252.8,101.9c0,0,0,.3-.2.2l1.2.8c-.6-.4-.8-.7-1.1-1ZM252.6,102.1h-.1c0,0,.1,0,.1,0ZM261,107.8c-.4-.4-.6.2-.7-.1-.8,0,3.2,1.8.7.1ZM343.4,175c-.2-.5-.5-1.1-.9-2.2,0,.8-1.3-2.4,1.1,2.8,0-.3-.1-.4-.1-.5h0ZM343.4,175c1,2.3-.4-1.6,0,0h0ZM340.1,167.4c-.1-.7-1.4-3.4-.8-2.4-.8-1.5-1.2-2.1-1.3-2-.1,0,.1.7.5,1.6l1.7,2.9h0ZM328.2,146.6c-.2,0,.3,1.2.2,1.5l1.5,1.9c-.6-1.1-1.9-3.1-1.8-3.4ZM328.5,148l-2.3-2.9c1.8,2.7,2.2,3.1,2.3,2.9ZM321.5,136.7l-2.8-2.5,1.2,1.1,1.6,1.4h0ZM311.3,125.4c.8.9,1.6,1.8,2.4,3,1.3.9-1-1.9.2-.8-.9-.9-1.7-1.7-2.5-2.5-.8-.7-1.7-1.3-2.4-1.9.8.7,1.6,1.4,2.4,2.3ZM306.4,121c.8.7,1.6,1.3,2.5,2.1-.8-.7-1.7-1.4-2.5-2.1ZM321.7,139c.3.4.6.8.9,1.1,0-.3-.2-.9-1.4-2.6l.5,1.4h0ZM321.8,139h0c-.9-1.3-1.6-2.1-1.9-2.5.2.3.9,1,1.9,2.5h0ZM322.8,140.4c0-.1-.1-.2-.2-.3,0,.1,0,.2.2.3ZM322.2,140.7l1.2,1.4-.8-1.2-.4-.3ZM310.2,125.9c.4.4.7.8,1.1,1.2.3.1,1.1.7-.5-1.1-1.3-1.1-2.6-2.3-4.1-3.8.8.8,1.5,1.6,2.3,2.4.4.4.8.8,1.2,1.2ZM316.3,132.2c0,0-.2-.2-.3-.3.1.2.2.4.3.3ZM291.4,108.9c0,0,.1.2.2.3,0,0,0,0,.1,0l-.3-.2h0ZM311.5,127.4c1.1,1.3,1.8,1.9,2.5,2.6-.9-.9-1.8-1.8-2.7-2.9-.1,0-.2,0,.2.3ZM302.1,117.3c.6.7,1.3,1.4,2,2.1-.5-.7-1.7-2-2-2.1ZM315.8,131.4c0,0,.1.1.2.2-.3-.5-.3-.4-.2-.2ZM315.8,131.4c-.6-.6-1.2-1-1.7-1.4.7.7,1.4,1.4,2,2-.1-.2-.2-.4-.3-.5h0ZM297.2,113.8l1.2,1c-1.3-1.2-2.2-2.1-3.9-3.9-2.1-1.5-2.7-1.7-2.9-1.7,2,1.6,4,3.3,6,4.9l-.5-.3ZM291.9,108.4l-3.3-1.6,2.3,1.5h1ZM284.8,103.4l-1.9-1,1.4,1.2s.5-.2.5-.2ZM42.3,316l1.1,1.4c-.5-.7-.8-1.1-1.1-1.4ZM35.9,304.9l-.3-.2c.4.5.6.6.3.2ZM91.2,98.2h.9c1.6-1.1,2.8-1.8,3.9-2.3-2.5,1-5.3,2.1-4.8,2.3ZM19.6,199.8c-.1.8-.2,1.6-.3,2.5.1-.2.2-.5.3-.7v-1.8h0ZM19.9,207.8c.2-.7.5-1.8.9-3.3l-.9,3.3ZM92.2,364.4l2,.7c-2.8-1.7-1.7-.7-2-.7ZM35.6,314.1c.7.9,1,1.3,1,1.2-.7-.9-1.1-1.5-1-1.2ZM195.4,73c.4,0,.8.1,1.2.2,1.7,0,3.4,0,5.4.3-2-.4-4.4-.6-6.6-.5ZM256,87.6c1.6.7.3,0,0,0h0ZM178.4,75.5h-.1c.5,0,.4,0,.1,0ZM258.3,88.8c-.6-.3-1.2-.7-2-1,.3.2.9.5,2,1ZM258.1,88.5c.5.3.9.5,1.3.7.2,0,0,0-1.3-.7ZM256,87.6c-.5-.2-1.1-.5-2.2-.9.9.4,1.7.8,2.5,1.1-.3-.2-.4-.2-.3-.2ZM63.8,126.1c0,0,0,0,.1-.2,0,0-.1.1-.2.2h0ZM60.6,128.6l-.7,2c1.3-2.3,2.4-3.2,3.9-4.5l-2.3.5-.8,2h0ZM167.4,390c-.1,0-.3,0-.4,0,.1,0,.2,0,.4,0ZM285.6,364.1c-.1,0-.3.1-.4.2,0,0,.2,0,.4-.2ZM39.3,311.1c.1.2.2.4.4.6-.1-.2-.3-.4-.4-.6ZM20.6,204.2c-.1.3-.2.4-.4.5,0,.5,0,.5.4-.5ZM92.2,364.4h-.4c0-.1.2,0,.2,0,.1,0,.2,0,.2,0h0ZM156,79.6c-1.2.1-1.8.1-2.3.1,0,.1.5.1,2.3-.1ZM271.7,95.2l.3.2c-.1,0-.3-.1-.3-.2ZM271.6,95.4c0-.1-.4-.5.1-.2l-3-1.5c1.6.8,2.1,1.2,2.9,1.8h0ZM148.9,79.1l1.1-.2-.4-1-.8,1.2ZM97.7,100.1c-2.6,1.9-4.1,2.6-2.5,2.4,2.3-1.2,2.5-1.5,2.6-1.8s.2-.5,2.4-1.5c1-.8-3.5,1.6-2.5.8ZM97.7,100.1c.4-.3.9-.6,1.3-.9-.8.5-1.1.7-1.3.9ZM25.8,278.1c0,.5.2,1.3.6,2.8l-.4-2.6-.2-.2h0ZM45.2,320v-.9c0,0-.3-.6-.3-.6l.3,1.5h0ZM68.1,344.7c-.3-.3-.6-.6-1-.9.3.3.6.6,1,.9ZM70.8,347c-.8-.8-1.8-1.5-2.7-2.4,1.8,1.8,2.6,3.1,2.7,2.4ZM140.9,60.5c-.4,0-.2.3-.2.3.6,0,.2-.4.2-.3ZM147.5,59.3c-.3,0-.4.1-.7.2,0,0,0,0,0,.1.3-.1.5-.2.8-.4ZM149.3,59.3c0,0-.1,0-.2-.1-.1.2-.2.3-.4.5,1.2-.2,2.7-.5,3.6-.5-.6-.5-2,.2-3,.1h0ZM154.8,60c0,0,0,0,.1,0,.1,0,.3,0,.6,0-.2-.2.6-.2-.7,0h0ZM154.9,60.1c-.6,0,.4.1,0,0h0ZM157.6,59.7c-.3,0-.4.2-.7.3.2,0,.9,0,.6.2.8-.2.6-.3,0-.4ZM157.9,59.3c0,0,.2,0,.4-.1-.1,0-.2,0-.4.1ZM157.5,59.4c0-.2-.1,0-.4.2.3,0,.5-.2.8-.2-.1,0-.2-.2-.4,0h0ZM156.6,59.6c-.4,0-1,0-.3-.3-1.4.2-1.2.6.3.3ZM152.5,58.6c-.2,0-.4,0-.6-.1-.2,0-.3.1-.5.2.2-.1,1.1,0,1.1-.1h0ZM162.4,59.4c0-.1-.3-.3-.4-.4-.2,0-.3.1-.5.2.3,0,.9,0,.9.2ZM162,59c.3-.1.5-.2.8-.3-.8,0-.9.2-.8.3ZM158.2,58.6c-.5.2-.8.3-1.3.5.6-.2.9-.3,1.6-.6-.1,0-.2,0-.3,0h0ZM165.6,59c-.2.1-.2.2-.4.3.3-.2.4-.3.8-.5-.1,0-.2.1-.3.2ZM169.4,58.5c-.4.2-.9.2-1.6.1-.3.3.6.3.2.5.6-.1,1-.4,1.4-.6h0ZM169.4,58.5c.2,0,.5-.2.7-.3-.2,0-.4.2-.7.3ZM165,58.8c-.2-.1-.2-.2-.4-.3-.1,0-.2,0-.3,0,0,0,.2.2.7.2ZM164.5,58.6h0c.4,0,.6,0,.7,0,0,0-.3,0-.7,0h0ZM164.1,58.6h0s0,0,0,0ZM160.5,58.7c.4-.2,1.4-.5.4-.7-.3.3.3.3-.4.7ZM162.7,58.3c0,0,.2.2,0,.3.4-.1.5-.2.9-.3-.4,0-.5,0-.9,0h0ZM164,58.1c-.2,0-.2,0-.4.2.1,0,.2,0,.3,0,0,0,0,0,0-.1h0ZM168.4,58.1c.4-.2.8-.3,1.2-.4-.5,0-1.1,0-1.6.1,0,.1-.2.3.3.2h0ZM166.5,58.3s0,0,0,0c0,0-.1,0,0,0ZM174.3,57s0,0,0,0h0c0,0,0,0,0,0h0ZM168,57.9c-.4,0-.6,0-.8.2.3,0,.6-.1.9-.2,0,0,0,0-.1,0h0ZM171.3,57.8c-.2,0-.4,0-.7,0,.2,0,.6.2.7,0ZM166.8,58.4s0,0,0,0c.1,0,.1,0,0,0ZM166.8,58.4c.2,0,.3-.2.5-.3-.2,0-.4.1-.6.2,0,0,.1,0,.1,0ZM176.1,54.7c-.4.2-.6.2-.9.4,0,0,.3-.3,0-.3,0,.3-.9.7-1.8.6-.8.4,0,1.2.9,1.6,0-.1,0-.2.8-.6-.4,0-2,0-1.4-.4,1.1-.3,1,0,1.6,0-.6-.3,1.3-.8.9-1.3h0ZM172.5,57.2c-.1,0-.2,0-.4,0,.4,0,.7,0,1.3.2.6-.2.6-.4.7-.5-.7.1-1.1.2-1.8.3,0,0,0,0,.1,0ZM171,56.7c-1,.2-.7.4-1.2.6,1.7-.3-.4.2.8.2-.3.1-.6.2-.9.2h.9s0,0,0,0h0c0,0-.1,0,0,0,0,0,0,0,0,0,0,0,0,0,0-.1.5,0,.1,0,0,.1,0,0,0,0,0,0h0c.7-.2,1-.3,1.6-.4-.4,0-.8,0-1.6.3.2-.4,1-.6.4-.9h0ZM161.6,57.2c0,0,0,0,0,0,.1,0,.1,0,0,0ZM161.8,57.6c.6,0,1.3.2,1.5.3-.2-.2-.5-.4-.9-.6-.1,0-.2.2-.6.2-.4,0,0-.2,0-.2-.2.1-.8.3,0,.4,0,0,0,0,.1,0h0ZM163.3,57.9s0,0,0,0c0,0,0,0,0,0ZM166.5,57.4c.6-.1.8-.2,1.4-.4-.3,0-.5,0-.8-.2,0,0,0,0,0,.2-.8,0-.6.2-.7.4h0ZM174.4,57.5c.3-.2.4-.4.7-.6-.2,0-.4.2-.6.2,0,.1,0,.2,0,.4ZM176.3,57.1c.2,0,.3-.2.4-.3-.2,0-.3,0-.4,0,0,.1,0,.2,0,.3ZM220.3,44.6c-.1,0-.2-.1-.3-.2-.4.2-.7.3-.9.3.7,0,1.5.2,1.2,0h0ZM234.4,24.8c-.1-.1-.3-.2-.4-.4,0,0,0,.1,0,.2.2,0,.3.1.4.2ZM194.6,52.6c.5,0,1,0,1.3-.2-.7,0-1.2-.2-1.3.2ZM214.5,15.8c-.2.2-.2.3-.1.3.1-.2.2-.3.1-.3ZM197.3,52h-.3c-.3.2-.7.3-1.1.4.5,0,1,0,1.4-.4h0ZM135.6,53.8c.2,0,.6-.2.9-.2-.2,0-.5,0-.9.2,0,0,0,0,0,0,0,0,0,0,0,0ZM183.6,55.5c-.4,0,0,0,0,0h0ZM181.5,54.5c0,0,0,.1-.1.2,0,0,.1-.1.1-.2ZM200.2,49.1h0c-.1,0-.1,0,0,0ZM183,55.5c.2,0,.3,0,.5,0,0,0-.2,0-.5,0ZM183.1,55.6c-.1,0-.2,0-.3,0,0,0,0,0,.3,0ZM183.6,55.5c.1,0,.3,0,.5-.1-.2,0-.4,0-.6,0,0,0,.1,0,.1,0ZM136.5,53.5c.8-.2,1.4-.4,0-.3,1.2-.1,2.2-.3,3.2-.5.5,0,.8-.1,1.3-.2.3,0,.6-.1,1-.2,1.3-.3,2.5-.6,3.7-1,2.4-.8,4.8-1.7,7.3-2.1.3-.1,0-.2-.1-.3,1.1.1.7-.5,1.1-.7.6,0,.9.1,1.6.2.4-.4,0-.4-.1-.5,2.3-.9,4.9-1.2,6.6-2.3.7,0,.1.5.9.3-1.4-.2,2.1-1.2,1.2-1.3,1.1.3,2.9-1,3,0,1-.3.6-.7.2-.7,1.1-.4,2-.8,2.7-1.4.7,0,4.7-2.3,6-2.1-.9-.1,0-.2.4-.7-.3,0-.5,0-.8-.1.6-.2.8-.4,1.4-.6.2-.2.3-.2.4-.2.2,0,0,.2.7,0,.9-.4.9-.7,1.2-1.1,0,0-.1,0-.2,0,.2-.1.4-.2.6-.3.5-.2-1.4,1.2.2.6,0-.1.5-1,1.1-1-.8.4-.5.6-.2.5.4-.2.6-.3,1.1-.5-.3-.1-.4-.2-.6-.3,3-1.5,6.3-2.8,9.4-4.6.2.4,2.2-1.2,2.3-.5,0,0,0,0-.2,0-.3.2-.3.3-.1.3.3-.2.7-.4,1-.6,0-.3.4-.8-.7-.2.4-.4.6-.6,1-1-.1-1.5,3.2-1.8,4.7-3.3,0,.1,0,.2,0,.2,1.3-1.3,3.7-2,3.9-2.4.1,0,.2.1.4.2,1-1.3,1.1-1.5,2.8-2.4,0,0-.1.3.2.2.2-.5.4-1,1.5-1.6,0,0,0,0,0,.1.6-.5.9-.7,1.6-1.2.7.9,2.3-2.5,3.5-2,.1-.5,1.2-1.5,1.6-2,0,0,.1,0,.2,0,.1-.5.7-.8,1.3-1.1.6-.2,1.3-.3,1.7-.5.5-.3.2-.4,0-.5.7,0,1.5-.3,2.3-.6.4-.1.8-.2,1.1-.3.3,0,.5,0,.6,0,.9.1.3.4.6.7,1.3,0,0-1.1,1.7-.3-.2,0-.6,0-.5,0,.4,0,.7.6,1.1,1,.4.4.7.8,1,.8-.1-.1-.2-.2-.3-.3.3,0,.6.1.9.3.3.2.5.4.7.6.4.4.7.7,1,.4,0-.1,0-.2,0-.4.4.3.6.5.8.7s.3.2.4.2c.2,0,.4.1,1.1.9h0c.8.5.7,1.2,1.5,1,0-.1-.1-.1-.2-.3.4.3.6.6.8.8s.4.5.7.9c.1,0,.6.4.5.6.2-.1.6.4,1,1,.4.6.7,1.3.8,1.6-.4-.8-.5-.3-.5,0,.6.3.8.6.8,1.4.3,0,.6-.1,1,0,.2,0,.3.2.5.4.1.2.2.5.3.9-.1-.2-.3-.6-.4-.4,0,.2.1.5.2.6-.1.2-.3-.3-.5,0,.4.4.5.9.5,1.4,0,.5-.1,1.1,0,1.8-.2-.5-.3,0-.6,0,.4,0,.1.6,0,1-.2.4-.4.7.1.5-.6,1.4-1.5,3.1-2.6,4.3-.3.3-.5.6-.8.9-.3.3-.6.5-.8.7-.2.2-.5.4-.7.5-.2.1-.4.2-.6.2-.4,0-.8.8-1.2,1.1,0-.1,0-.2-.1-.3-.4.6-.7.8-.9,1-.2.2-.5.4-1.1,1,.5-.6,0-.6-.7-.5-.3.4-.5.6-.8,1-.2-.1-.2-.2-.4-.3-.4.3-.9.5-1.4.6.2,0,0,0,0-.2,0,.7-1.9,1.4-2,1.8-.8-.4-1.2.7-1.8.3-.1.1-.3.3-.5.4.4.2.6.4,0,.4,0,0,0,0-.1,0-.1,0-.2-.2-.3-.2-.4.2-.8.5-1.1.6.1,0,.3,0,.5,0-.2,0-.4,0-.6,0,0,0-.1,0-.2,0,0,0,0,0,0,0-.3,0-.6,0-.9.3-1.8,0-3.1,2-5.2,1.9.3,0,.7-.1.7-.3-1.4.5-3.1.6-3.9,1.1,0,.1.1.2.2.3-1,.5-1.8.9-2.7,1.1,0,.2,0,.2.1.4-1.3.3-3.8,1.7-4.9,1.2-.2.4-1.8.4-2.5.7-.1,0-.2-.1-.3-.2-1,.2-1.5.4-2.1.7-2.1,0-3.7,1-5.4,1.4,0,0,0,0,0,0-.7.2-1,.4-1.7.6.4-.4-.3.3-.8.3-.5.3-1.4.4-2.1.4-.4,0-.7.1-1.1.2,1.2-.5-.2-.4-.4-.7-.2.2-.4.2-.6.4-.3,0,.4-.3-.2-.3-.4.3-1.8.6-2.2,1,.1,0,.3.1.5.1q0,0,0,0h0,0c0,0-.1.1-.2.2-.9.1-.6.2-.5.3-1.2-.3-1.6.2-2.6-.3,1.3.5-2.3.5-1.5,1-.9-.4-.5,0-1.1-.3,1.1,0,2-.7,2.8-1.1-.4,0-.6,0-.9-.1.4-.7,1.9-.2,2.4-.5-.3.2-1.1.2-1.2,0,.1.2.2.2.4.4,1.2,0,2.1-.6,2.9-1-.8,0,.9-.5.2-.7-.2,0-.4.1-.6.2-.3,0,.2-.4.5-.6,2.1-.1,5.6-1.2,6.4-1.1-.4,0-1.1.3-1.4.5.4,0,.6,0,1,0-.7.2-1.5,0-2.5.4.3.2-.4.8.6,1,2.3,0,1.5-1.1,4.1-1.7.2-.1-.4.6.9,0,1.4-.6,2.3-1.4,2.4-2-.4.1-.9.2-1.4.4-.2,0-.4.1-.6.1-17.1,4.4-34.6,7-52.8,7.9-.4-.7-.7-1.2-1-1.7,0,0,0,0,0,.1-.2.4-.3.9-.9.5.1.1.2.2.3.3,0,0,.1.2.2.3-.2,0-.3,0-.5-.3-.2-.2-.4-.5-.6-.9-.4-.6-.8-1.3-1.3-1.6-.2-.5-.3-1-.4-1.5.5,0,.7,0,1.2-.1-.4,0-.2-.4-.8-.3h0ZM187.7,54.2s0,0,0,0c.4,0,.7,0,0,0ZM201.8,48.4c-2,.6-3.9,1.1-5.9,1.7,0,0,0,0,0,0,1.6-.4,2.6-.5,4.3-1,.1,0,.4.2.4.3.4-.2.9-.6,1.1-1h0ZM207.7,46.5c-.9.3-1.8.6-2.6.8,0,.2,0,.3.2.4.5.1,2.5,0,2.7,0,.1-.3,0-.8-.3-1.2ZM216,43.7c-.6.2-1.2.4-1.8.7-.5.7-1,1.4-1.2,1.8.4-.3.6-.4,1-.7.2,0,.2,0,.4.1.7-.4,1.2-1.2,1.6-1.9h0ZM227.3,39.2c-.2.1-.5.2-.7.3.2.2.3.4.3.5.2-.3.3-.6.4-.9h0ZM234.6,29.6c0-.3-.2-.5-.3-.7,0,.6,0,1.2-.1,1.7.2,0,.3,0,.4.3,0-.5,0-.9,0-1.3h0ZM233.3,23.9c0,.2.1.4.2.6.1,0,.3,0,.4.1,0,.2,0,.4-.1.5.4.2.7.4.8-.1,0,0-.1-.1-.2-.2.3.1.5.2.5,0-.2-.4-.5-.8-.8-1.1,0,.2,0,.5-.1.8-.2-.2-.4-.4-.6-.5h0ZM177.8,38.8c-.1,0-.2,0-.3,0,0,.2-.2.3.3,0ZM179.7,56.4c.3,0,.5-.2.8-.3-.4,0-.6,0-.8,0,0,0,.2.2,0,.2ZM171.8,55.6c-.1,0-.3,0-.4.1,0,0,0,0,0,.2.5,0,.9-.3.3-.3ZM177.5,55.5c0,.4.5.2,1.1,0-.1-.3-.6,0-1.2,0,0,0,0,0,.1,0ZM176.7,55.7c0,.2.2,0,.5-.1-.2,0-.4,0-.5.1ZM184.8,55c-.3,0,0,.4-.2.3-.2.4,1.7-.8.2-.3ZM177.8,54.6c.1.1.2.2.3.3.1-.1.1-.2.2-.3-.2,0-.3,0-.6,0ZM182.5,53.9c-.4,0-.6,0-.9,0,0,0,0,.1-.2.2.6-.1,1.2-.2,1.2-.3h0ZM181.3,54.2c-.3,0-.6.1-.7.2.2,0,.5-.1.7-.2ZM180,54.1c-.4,0-.6,0-1,0,.1,0,.2,0,.3,0,.3,0,.4,0,.7-.1ZM192.6,51.3c-.2.2-.6.3-.4.4.4-.1.6-.2.9-.4,0-.2-.2-.2-.6,0ZM206.3,47.1c.1.3.2.4.3.7,0-.3,0-.5,0-.8-.1,0-.1,0-.2,0ZM137.5,58.3c0-.3,0-.4-.1-.7-.1-.1-.2-.2-.3-.3.2.4.3.6.4,1.1h0ZM138.2,59c.3,0,.4.1.7.2-.1-.1-.3-.4-.3-.5-.2.1-.3.2-.4.3ZM243.4,386.5c-.1,0-.8.4-2.9,1.1.3,0,.4,0,.5,0,.5-.1,1.1-.4,2.2-.7-.4,0,0-.2.2-.3h0ZM243.4,386.5s0,0,0,0c0,0,0,0,0,0ZM241,387.5c-2.3.8,1.6-.2,0,0h0ZM251.3,383.6c-.9.5-1.9.9-2.9,1.4.7,0,3.3-1,2.4-.5,2.9-1.4,2.2-1.3.4-.8h0ZM253.8,381.9l-1.5.7c.3,0,.7-.2,1.5-.7ZM249.3,384.1c1.1-.5,2.1-1,3.1-1.5-.5,0-.6-.1-1.4.7.2-.3-.4.2-1.7.8ZM246.4,384.6c-5.6,2.2-4.6,2.4,1,.2-1.7.5-3.9,1.2-1-.2ZM269.2,375.5c.1-.2-1.1.1-1.4,0l-2,1.3c1.1-.5,3.1-1.5,3.4-1.4h0ZM267.8,375.6l2.9-1.9c-2.7,1.5-3.2,1.8-2.9,1.9ZM279.2,370.1c.9-.7,1.8-1.6,2.7-2.4l-1.2,1c-.5.5-1,.9-1.5,1.4h0ZM288.7,364c1.9-1.5,3.4-2.9,4.7-4.2-1.5,1.3-3.2,2.5-5.5,3.9-1,1.1,1.9-.8.8.3h0ZM293.5,359.7c.8-.7,1.5-1.4,2.2-2.2-.7.7-1.4,1.4-2.2,2.2ZM275.9,370.7c.3,0,.9-.1,2.6-1l-1.4.3c-.4.2-.8.5-1.2.7h0ZM277,370.1h0c.6-.4,1.1-.7,1.5-.9-.4.2-.9.5-1.5.9h0ZM278.5,369.1c.5-.3.9-.5,1-.6-.2.1-.6.3-1,.6ZM275.9,370.7c-.1,0-.2,0-.3.2.1,0,.2-.1.3-.2ZM270.6,373.1c.1,0,.8-.1,0,.5l1.7-1.1,1.6-1.1-1.6.9-1.6.8h0ZM275,370.7l.3-.4-1.5,1,1.2-.7h0ZM290.4,361.1c.6-.5,1.2-1.1,1.9-1.6.7-.6,1.4-1.2,2.1-1.8-1.7,1.3-3.5,2.5-5.1,3.8-.1.3-.7,1,1.1-.3h0ZM284,365.6c0,0,.2-.1.3-.2-.2,0-.4.2-.3.2ZM308.8,344.6c-.1,0-.2.1-.3.2h0c0,.1.3-.2.3-.2h0ZM289,361.6c-1.3.9-2,1.5-2.7,2.2.9-.7,1.9-1.5,3-2.3,0-.1,0-.2-.3.1h0ZM299.7,353.9c-.7.5-1.5,1-2.3,1.6.7-.4,2.1-1.3,2.3-1.6ZM284.8,365.2c0,0-.1,0-.2.1.5-.2.4-.2.2-.1ZM284.8,365.2c.6-.5,1.1-.9,1.6-1.4-.8.6-1.5,1.1-2.1,1.6.2,0,.4-.2.5-.2h0ZM304.6,348.8l-1.4,1.2.3-.4-1.1,1c1.3-1.1,2.4-1.8,4.2-3.2,1.6-1.9,1.9-2.4,1.9-2.6l-2.6,2.6-1.3,1.3ZM272.8,371.3c0,0,.2,0,.2,0,0,0,0,0-.2,0ZM309.2,345.2c.7-1,1.3-1.9,1.9-2.9-.5.7-1.1,1.4-1.7,2l-.2.9ZM314.8,339.1l1.2-1.7-1.3,1.2v.5ZM334.7,157.3v.9c.9,1.5,1.5,2.8,2,3.8-.9-2.4-1.7-5.2-2-4.7ZM350.7,269.2c.7-2.1,1.1-3.8,1.4-5.3-.4,1.3-.7,2.4-1,3.3-.3.9-.5,1.6-.4,2h0ZM235,90.5c.9.4,1.4.5,1.4.4-1-.4-1.6-.6-1.4-.4ZM352.8,260.9c.1-.5.2-1.1.3-1.6,0-.5,0-1.1,0-1.6,0,.4-.2.8-.3,1.1-.2,1.6-.5,3.2-.8,5.1.3-.9.5-2,.8-3h0ZM207.1,388.9c-.5,0-1.4.3-2.8.6.7-.2,1.8-.4,2.8-.6ZM333.2,313.7c-.8,1.4,0,.2,0,0h0ZM331.7,315.7c.4-.5.8-1.1,1.2-1.7-.2.3-.6.8-1.2,1.7ZM332.1,315.6c-.3.5-.5.9-.8,1.2,0,.2,0,0,.8-1.2ZM333.2,313.7c.2-.4.6-1,1.2-2-.5.8-1,1.5-1.4,2.2.2-.3.3-.4.2-.3h0ZM355.6,233.7c0,1.7-.3,3.1-.6,4,.2.7.1,2.7,0,4.9-.2,2.2-.5,4.6-.6,6.2l-.5.8c0,.5-.1,1-.2,1.5,0,.5-.1.9-.2,1.4-.1.9-.2,1.7-.3,2.4-.2,1.5-.3,2.7-.4,4-2.2,8.3-3.3,16.1-5.6,23.2h-.1c-.7,2.5-1.5,4.8-2.2,7.2.3-2-.2,1.5-1.3,3.5-.4,1.1-1,2.6-1.6,4.1-.7,1.5-1.5,3-2.2,4.2-.7,1.4-1.4,2.9-2.1,4.3,2-4.6-.3-.5-1.1,0-.1.3-.3.6-.5.9l-.8,2.1c-.4.5-.3,0-.1-.3-.5,1-1.1,2-1.6,2.9-1.2,2.3-2.8,5.1-3.2,6.4.2-.2.7-.8,1.3-1.5.1-.2.1-.2,0,0,0,0,0-.1.1-.2,0,0,0,.1-.1.2-.1.2-.2.6-.3.8-1,1.6-1.4,2.1-1.4,2.2,0,.1.3-.1.4-.1-1.5,1.6-2.5,3-3.5,4.2-.5.6-.9,1.2-1.4,1.8-.5.6-1.1,1.1-1.8,1.6,1.7-1.5.2.5-1.4,2.6-1.6,2.2-3.5,4.4-2.2,3.6-2.6,2-1.5,1.7-3.2,2.9,1.4-1.6,2.7-3.3,3.9-5-1.1,1-2.2,2-3.4,3.1-1.4,2.1,0,.8.1,1-2.6,3.3-5.5,6.3-8.4,9.1-.1.1-.2.3-.3.4-.3.4-.2.5-.2.6-.4.3-.8.5-1.2.7-2.8,2.6-5.6,5.1-8.2,7.4-.4.6-1.3,1.6-1.7,2.2,1.3-1.1,2.2-2,3-2.7s1.4-1.3,2-1.8c-1.7,1.6-3.4,3.4-5.2,4.9h0s0,0,0,0c.5-.5,1.8-1.6.1-.3,0,.1-.1.2-.1.3,0,0,0,0-.1.1-.3.2-.2.2,0,0h0s0,0,.1,0c-1,.7-2,1.4-3,2.2.9-.8,1.9-1.6,2.9-2.5-2.8,2-.6,0-.5-.2-.8.7-1.6,1.5-2.4,2.2-2.5,1.6.1-1-3,1.4,4.5-2.3-7.1,5.9-6.2,5.8-1.9.8-4.6,2.5-6.8,3.9-2.5,1.4-4.4,2.4-4,1.3-1.9,1.1-2.7,1.7-2.8,2,0,0,.1,0,.2,0,.4-.1.8-.1,1.2-.2-.2,0-.6.2-1,.4.2,0,.5-.1.7-.3-2.4,1.3-4.5,2.5-6.6,3.6-.1,0-.3.1-.4.2.5,0-1.9,1.5-3.2,2.3,1.5-1,1.4-1.1,1.2-1.2-.2.1-.5.2-.7.4-1,.5-1.9,1.1-2.9,1.7-.7.2-2.4,1.1-4.8,2.1-.3.1-.6.2-.8.4l-2.4,1.3c-1,.5-2,1.1-3,1.5.9-.4,1.7-.9,2.5-1.3l2.1-1.1c-2,.9-4.2,1.8-6.6,2.6-1.5.5-3,1.1-4.5,1.7-1.5.5-2.9.9-4.3,1.3-1.3.4-2.6.7-3.6,1-1,.2-1.9.3-2.5.4,3.4-.2-.1.4-3.1,1.5l2.9-.2-3.5.9-1.7.5-1.8.4c-1.4.4-1.8.4-1.8.4-1.2.2.1-.4-2.6,0-1.2.3-2.4.6-3.6.8,0,0,.1,0,.2-.1-.6.1-1.1.2-1.5.4-1,.3-1.7.6-3,.9h.8s-3.3.6-3.3.6c-2.4.4,8.4-2,.5-1,0,.2-4.6,1.5-6.8,1.4,4-.5,3.5-.8,2-.8-1.9.2-3.8.5-5.6.6.6.2,1.3.4,1.9.6-2,.2-4.1.3-6.1.4-1,0-2.1.1-3.1.2-1,0-2.1,0-3.1,0-2.1,0-4.2,0-6.3,0-.2,0-.4,0-.6,0l1,1c.1-.1-.2-.5,1.1-.5,0-.1,1.3.3-1.1.5l-2.8.2v-1.2c-1.3,0-2.6-.1-3.9-.1-2.1,0-4.2-.3-6.4-.5-2.1-.2-4.3-.3-6.4-.6-2.1-.3-4.3-.5-6.4-.8-2.1-.4-4.3-.7-6.4-1.1,0-.1-.6-.4-1.7-.6-1.1-.3-2.5-.6-4-.9-2.8-.6-5.5-1.4-4.6-1.6.2,0,.4.2.6.2,2.1.4,1.8.1.6-.3-1.2-.4-3.3-1.2-5-1.6,3.4,1.2-6.5-.8,1.9,1.7-2.2-.5-4.5-.9-6.7-1.4-1,.2-2.6-.1-4.6-.7-1-.3-2.1-.6-3.2-1-1.1-.4-2.3-.9-3.6-1.5-1.2-.5-2.5-1.1-3.8-1.6-1.3-.6-2.6-1.2-3.9-1.8-1.3-.6-2.6-1.2-3.9-1.7-1.3-.6-2.5-1.2-3.7-1.7.7.2.9.2,1,.2-2.1-.9-4.4-1.9-6.5-3.1-2.1-1.2-4.2-2.3-6-3.5-3.6-2.4-6.4-4.3-7.3-4.8l-.4-.9c-1.7-.9-3.1-1.7-4.3-2.3-1.2-.7-2.1-1.3-3.1-2-1-.7-2-1.4-3.2-2.4-1.2-.9-2.6-2.2-4.3-3.7.2,0,1.1.6,0-.4-2-1.1-3.9-2.4-8.7-6.8h.3c0,0-3.6-3.4-3.6-3.4-1.2-1.2-2.4-2.3-3.5-3.6.3-.3-.3-1.1-1.4-2.4-.6-.6-1.2-1.3-2-2.1-.7-.8-1.5-1.6-2.3-2.5-3.2-3.4-6.4-7.4-6.6-9.1-.8-.6-2.2-2.5-3.7-4.5-.7-1-1.5-2-2.2-3-.7-1-1.3-1.9-1.7-2.5,0,0,0-.3-.2-.8-.7-.7-1.4-1.7-2.1-2.8-.7-1.1-1.3-2.4-1.9-3.7-.6-1.3-1.2-2.6-1.8-3.8-.5-1.2-1-2.4-1.5-3.4-1.4-2.4-1.1-1.2-.8,0-.4-1.3-1.2-2.8-1.9-4.4-.7-1.6-1.5-3.2-2.2-4.7-.8-1.5-1.4-3-1.9-4.1-.5-1.2-.9-2.1-1-2.6-1.3-3.9,0-1.6,0-2.8-1.9-5.7-1.1,1.4-2.8-6.5.3.9.9,2.5.8,1.9-.2-.8-.3-1.7-.4-2.7,0-1-.1-2.1-.1-3.2,0-2.2-.3-4.3-.7-5.8,0,.7,0,1.4.1,2-.8-2.7-1-6-1.3-8.7-.1-2.7-.3-4.9-.9-5.2l-.4.6c-.2-2.4-.3-3.9-.3-4.9,0-1-.1-1.5-.2-2,0-.5-.1-1-.2-2,0-1-.2-2.5,0-4.9h0c-.2-4.1.3-6.4-.4-8.5v1.5c-.1-2.6,0-4.1,0-5.5,0-1.5.2-2.9.4-5.6,0-.6,0-3.2.3-4-.4-.2,0-3.3.5-6.7.2-1.7.6-3.4.9-4.9.3-1.5.6-2.7.7-3.2-.7,4.2,0,2.3.4,1.1-.1-2.6.3-4.3,1.5-7.6-.6-.7-1.5-1.6.5-8.3-.2,1.1-.6,2.7-.2,2.1.4-.6.6-2.2.8-2.8.4-.6-.2,1.6.3.9.2-1.2.3-2.3.7-3.3s.7-2.1,1.1-3.1c.4-1.1.8-2.2,1.3-3.4.5-1.2,1.1-2.6,1.7-4.2-.6,2.1.3.4.8-.2-.3-.4.7-2.5,1.7-4.2,1-1.7,1.8-3,.7-2.1,3-5.9,7.2-13.1,11.3-19.3,1-1.5,2-3,3-4.4,1-1.4,2-2.6,2.8-3.7.9-1.1,1.7-2.1,2.4-2.9.7-.8,1.3-1.4,1.8-1.9.6-.4,1.3-1.4,2.1-2.6.4-.6.8-1.1,1.2-1.7.4-.5.8-1.1,1.2-1.5v.5c2-2.6,2.8-3.6,3.7-4.7.9-1.1,2-2.2,4.4-5.1-1.9,2.6-.8,1.8,1.7-.2l3.3-4.1,1.2-.2c1.4-1.6,3.3-3,5.2-4.4.6-.9,2.1-2.4,3.9-3.8,2.1-1.7,4.1-3.4,4.6-3.9,2.4-.6,5.1-3.7,6.9-3.9.6-.5,1.4-1.1,2.3-1.7-1.2.3-1.7.1.2-.8.2,0,.3-.2.4-.3h1c.9-.7,1.8-1.3,2.6-1.8.9-.5,1.7-.9,2.3-1.3-.6.3-1.3.6-2,.8.8-.4,1.6-.7,2.4-1,.3-.1.5-.3.7-.4-.1,0-.2.2-.4.2,1.2-.5,2.4-1.1,4-2.2,1.8-.7,3.6-1.5,5.4-2.4,1.8-1,3.7-1.9,5.6-2.8,3.8-2,7.9-3.6,11.9-4.5-1.2.3-2.9.9-3.2,1.2,3.2-1.3,6.6-2.1,9.6-2.9,1.5-.4,2.9-.8,4.3-1.1,1.3-.3,2.5-.7,3.5-1.1l-.4-.4c2.4-.8,4.6-1.3,6.7-1.8,2.1-.5,4-1,6-1.3v-.6c1.6-.2,3.5-.5,5.6-.9,2.1-.3,4.3-.6,6.5-.9,2.2-.3,4.3-.4,6.1-.5,1.8,0,3.3,0,4.2.2.7-.3,2.8-.3,5.1-.3,2.3,0,4.8,0,6.5,0l.9.4c.9,0,1.6,0,2.4,0,3.1-.2-4.3-1.1,1.2-.8.5.3,1,.6,2,.9h0c1.6,0,2.9,0,4.2.1.6.1,1.3.2,1.9.3.6,0,1.4,0,2.7.2v.2s.1,0,.3,0c.5,0,1.1.2,1.6.2,2.1.3,4.2.5,6.3.7,0,0,.2,0,.2,0-.8-.3-1.4-.6-1.7-.7.9.3,1.6.5,2.4.8,1.7.2,3.4.5,5.1.7,1,.2,2,.3,3,.4,1,.2,1.9.4,2.9.6h0c2.6.6,5.2,1,7.8,1.7-2.1-.2,1.6.2,3.9.9.6.1,1.3.3,2.1.5.8.2,1.6.5,2.4.8,1.6.6,3.3,1.2,4.6,1.8,1.5.5,3,1.1,4.4,1.7,1.1.2,2.5.7,4.5,1.4-.9-.3-2.2-.7-2.1-.5.2,0,.4,0,.6.1,1.4.3,3.3,1,2.6,1-.3-.2-.4-.1-.6,0h0c.5.4-1.5-.3-.9.3,2.2.5,4,1.3,5.9,2.2,1,.4,2,1,3.1,1.6,0,0,0,0,.1,0-.3-.2-.8-.6-1.4-.9-.3,0-.2,0,0,0,0,0-.1,0-.2-.1,0,0,.1,0,.2.1.3,0,.7.2.9.2,3.6,1.8,2.3,1,2.3.8,3.6,2.5,6,3.4,8.5,5.5,0,0,0,0,0,0-1.2-1.1,1,0,3.2,1.4,2.4,1.5,5,3.1,4,1.9,2.5,2.4,2,1.2,3.4,3-1.9-1.5-4-2.5-6.1-3.6-.5-.2-.9-.4-1.3-.7,1.6,1,3.2,2.1,4.8,3.1,1.5,1,3,2.1,4.6,3.1,1.5,1,3,2,4.4,3.1.4.3.7.5,1.1.8-.2-.2-.3-.3-.4-.4,3.2,2.1,3.3,2,3.5,1.9.6.7,1,1.3,1.4,1.9.7.6,1.3,1.1,1.9,1.6,2,1.8,3.6,3.2,4.4,4.2.4.6,1.4,1.4,2.4,2.2-.2-.2-.4-.4-.7-.6-1.4-1.9,1.5.5,2.8,1-2.6-2.3-4.1-3.6-5.3-4.7l5.7,4.8h0s0,0-.1,0c-.5-.4-1.9-1.6-.4,0,.1,0,.3.1.4,0,0,0,.1,0,.1,0,.2.3.2.2,0,0h0,0c0,0,0,0-.1-.1.9.9,1.7,1.9,2.6,2.8-.9-.8-1.8-1.8-3-2.7,3.7,3.9-3.4-2.5,2,2.6-1.1-1-1.4-1.1-2-1.5.3.3.6.5.9.8h-.5c2.4,2,3.3,2.8,4.3,3.6,1,.9,2.1,1.9,4.8,4.3-2.1-1.6-1.8-1-.6.8l1.8,1.8c.9.7,1.8,1.5,2.7,2.3v1.1c1.6,1.4,3,3.2,4.2,5,.8.5,2.2,2.1,3.6,3.8,0,0,0,0,0,0-.5-.7-1-1.4-1.5-2.1.9,1.1,1.9,2.1,2.7,3.2-.5-.6-.5-.4-.5-.1,1.2,1.6,2.4,3.2,2.8,3.5.6,2.3,3.4,4.9,3.5,6.7.5.6,1,1.3,1.7,2.1-.2-1.1,0-1.7.8.2,0,.1.1.3.2.4v1c1.1,1.7,2.1,3.5,2.8,4.8-.2-.4-.3-.8-.5-1.2l-.5-.7c.1.2.2.3.4.4,0-.1-.1-.3-.2-.4,0,.2.1.3.2.5.3.4.5.7.5,1l-.4-.6c.2.4.3.8.5,1.1,0-.2,0-.3-.1-.6.7,1,1.2,2.1,1.8,3.1-.8-1.3-1.3-1.9-1-1.7-.4-.4-.6-.6-.7-.8,0,0,0,.1,0,.2.1.2.2.5.3.7,0-.1-.1-.2-.2-.4.4,1.2.9,2.4,1.9,3.9.2.6.5,1.1.7,1.7,1.2,2,.3,0-.3-1.6.7,1.4,1.2,2.5,1.6,3.4.3.8.5,1.3.4,1.4,0,.2-.5-.7-1.6-2.8,1.1,2.7,2.5,5.6,3.9,8.5,1.6,3.8,3.2,7.6,3.8,11.6-.2-1.2-.7-2.8-1-3.2,2,6.3,2.9,12.8,4.1,16.8l.4-.4c.5,2.4,1.1,4.4,1.5,6.4.3,2,.6,3.9.9,5.8h.5c.2,1.6.3,3.4.5,5.4.1,1,.2,2,.3,3.1,0,.5.1,1.1.1,1.6,0,.5,0,1.1,0,1.6,0,2.1.1,4.1.1,5.9h0ZM270.9,353.1l-.4.2s0,0,0,0l.4-.3h0ZM265.5,111.5s0,0,0,0c.6.6.9,1,0,0ZM236.9,83.2c.5.1.9.3,1.5.4-.2-.2,0-.3.2-.3l-3.1-.8c.4.2.8.4,1.4.7h0ZM312,130.2c-.9-.6-1.7-1.2-2.5-1.7.9.9,1.8,1.9,2.6,2.9.1-.4.2-.7.6-.6,0,0,0,0,0,0-.1,0-.3-.2-.4-.3h0c0,.1-.2-.2-.2-.2h0ZM256.3,103c.4.3.8.5,1.1.8-.4-.2-.7-.5-1.1-.8ZM266.8,112.1c.2.2.4.3.5.5-.2-.2-.4-.3-.5-.5ZM312.4,178.7c0,.2.1.5.2.8,0-.2,0-.4,0-.6l-.2-.2h0ZM314.1,180.4c-.2-.5-.4-1.1-.5-1.6.3,1.2,0,.8-.4.2-.1,0-.3,0-.4,0,.5.4.9.9,1.3,1.3h0ZM185.2,391.8h0,0ZM352.5,240.3c0-1.2-.2-2.6-.3-3.8,0,1.5,0,3-.1,4.5.1-.4.3-.9.5-.7h0ZM349.9,207.7c.3,1.9.6,3.7.9,5.6l.8.6-.7.2c.2,1.9.5,3.8.6,5.7,0-.1.1-.3.2-.6.2-1,0-3.5,0-5.8,0-1.2,0-2.3-.1-3.2,0-.9-.1-1.5-.1-1.6-.4-.7-.9-.9-1.5-.8h0ZM346.1,186.6l-.2-.4c0,0,0,.2,0,.3,0,0,0,.1.1.1h0ZM339.2,172.9c1.2,2.6,2.3,5.3,3.3,8.1,1.3,2,2.4,3.9,3.2,5.1,0-.2,0-.3,0-.4l-1.7-3.9v-1.4c-.5-.8-.9-1.6-1.3-2.3-.4-.7-.9-1.4-1.3-2.1-.7-1.1-1.5-2.2-2.2-3.1h0ZM320.9,140.2c.1,0,.2,0,.4.2-.6-.8-.3-.3-.4-.2ZM244.8,83.7c.4,0,.9,0,1.6.2-2-.6-2.1-.5-1.6-.2ZM238.2,81.3s0,0,.1,0c-1.8-.7-2.7-1.1-.1,0ZM232.6,80.2c-.4,0-.9-.2-1.2-.2,1,.3,2.1.6,2.9.8,1.4.5,2.4.8,3,1-3.9-1.2-2.1-.3-1.1.3,1.1,0,2,.2,2.9.5-.2-.2-.6-.4-1.3-.7-1.1-.4-2.1-.8-2.9-1.1-.9-.3-1.6-.4-2.3-.6h0ZM73.6,113c0,0,0-.2.2-.4-.8.7-.3.3-.2.4ZM21.4,197.3c.3-.8.5-1.5.7-2.1.2-.6.4-1.2.4-1.6-.6,1.4-.9,2.6-1.1,3.8ZM29.6,291.7c0-.9-1.4-3-1.8-4.1.5,2,.8,3.1,1.8,4.1ZM185,391.8c-.3,0-.8,0-1,0h0s0,0,0,0h0s.2-.2.2-.2c-.5-.1,0-.3,0-.5.1-.2-.4-.3-4.7-.4,2.6,0,5.2.2,7.8.3l-.7-.2,1.5.2h-.3c1.2,0,2.5,0,3.7,0-.7,0-1.4,0-2-.2,1.1,0,2.1,0,3.2,0l-1.1.2c.2,0,.4,0,.6,0l-2.8.7c.5,0,1,0,1.5,0,0,0,0,0,0,0h.3c.9,0,1.8-.2,2.3-.3l-.3.4h.9c.4-.2.8-.2,1.1-.3,0-.1,0-.2-.3-.2,1-.1,1.9-.2.5-.5,1,.1,2,0,3,0,0,0,0,0,0,0l3.8-.3c.3,0,.5,0,.8,0,1.3-.2,2.5-.5,3.8-.8.2,0,.4-.1.6-.1.2-.2.4-.5-.5-.3,2.1-.5,4-1,1.1-.6,5.8-.9,11.6-2.6,17.2-4.8,0,0-.2,0-.4-.1,1.9-.1,1.5-1,2.4-1.4.7,0,1.4-.1,2.1-.2.4-.2.7-.3,1.1-.5,0-.3-.4-.2-.4-.4,1.1-.6,2.3-1.1,3.4-1.6,1.1-.5,2.2-1,3.3-1.5s2.1-1,3.1-1.5c1-.6,1.9-1.2,2.7-1.8.4-.1.5,0,.6,0,.4-.2.7-.5,1.1-.7.2-.2.5-.4.8-.6,1.1-.8,2.3-1.6,1.5-1.5.6,0,1.2-.3,1.9-.7,4.2-2.8,8.3-5.8,12.3-8.9.5-.4,1-.9,1.6-1.3.9-.8,1.7-1.5,2.6-2.1,0-.2-.4,0-.7.2,2.6-1.6,2.7-2.3,3.3-3.3h-.2c0,0,.5-.3.5-.3.1-.2.3-.4.5-.6l.6-.4.8-.8c.4-.5.6-.6.6-.5.3-.3.2,0,.6-.1l.7-.5c1-.9,1.2-1.4,1.5-1.9-.1,0-.2,0-.2,0,.1-.1.3-.3.4-.4,0-.1.1-.3.2-.4l-.3.2,1-1.1c.3-.3,0,.2-.4.8.6-.6,1.2-1.2,1.8-1.8.1-.2.3-.4.5-.5.3-.3.6-.6.8-.9h0c2.4-2.6,4.9-5.2,7.3-8,3.1-3.6,5.8-7.2,7.9-10.8,1.4-1.6.8-.2,1.4-.8.2-.3.4-.5.6-.7.1-.1.2-.3.4-.5-1.8,1.8-.4-.5,1.1-2.9.1-.3.3-.5.5-.8-.2-1.2.8-2.8,2.1-4.6.7-1,1.4-2,2.1-3.1.7-1.1,1.3-2.2,1.7-3.3,0,.3,0,.4,0,.5.8-1.9,1.8-3.9,2.8-5.6,1-1.6,1.8-2.9,1.9-3.4h.4c.1-.3.2-.6.3-.9.2-1.3.4-2.1.7-3,.2-.5.4-1,.7-1.6.3-.6.7-1.3,1.1-2.3,0,0,0-.1,0-.2,0-.2.2-.4.4-.8,0-.9.3-2,1.1-3.9v.2c.6-1.4,1-2.8,1.5-4.2.1,0,.2,0,.4,0,.4-1.2.8-2.4,1.2-3.7,0,0,0-.1,0-.1.3-1.5.6-3.2,1.2-4,.2-.7.4-1.4.6-2.1.2-1.3.5-3,.5-4,0,0,.2,0,.3-.3-.2-.9.1-2.1.5-3.3.2-.6.5-1.2.7-1.8.2-.5.3-1,.4-1.4,0,0,0-.1,0-.2-.3.8-.7,1.7-1.1,2.5.2-1,.4-2,.6-3,0,0-.1.2-.2.3.1-.3.3-.7.3-1,0-.3.1-.7.2-1,.3-2.2,0-4.9.2-5.5.3-1.8.7-.6,1.1-1,.2-2.7-1.5.3-.4-3.2,0,.4,0,1.2.1.9.1-.5.4-1.1.8-1.7,0-.9,0-1.5-.1-2.7v.7c-.1,0,0-3.1,0-3.1.2-2.3,0,8.1.9.7,0,0-.2-1.2-.3-2.6,0-.7,0-1.4,0-2.1,0-.7,0-1.3.2-1.8,0,1.9,0,2.7,0,2.9.1.2.3-.3.4-1,.1-1.8.1-3.5.2-5.3l-.8,1.7c.3-7.2,0-14.5-.5-21.9-.6-.3-1.1-1.1-1.4-3.1.2.4.3,1.2.5.9.1-.3-.1-1-.2-1.2.1-.3.4.6.6.3-1-1.9-.5-3.5-1.3-6.4.4.8.4.2.6-.2,0,0,0,0,0-.1-.5-.1-.4-1.4-.4-2.3,0-.3,0-.5-.1-.8,0,0-.2,0-.3.2,0-1.5-.3-3.1-.6-4.8s-.7-3.4-1.1-5c-.8-3.1-1.5-5.7-1.5-7,0-.2-.1-.5-.2-.8,0-.3-.2-.6-.2-.8-.3-.5-.6-1.1-.8-1.6h.3v-.3c-1.4-2.1-.9-1.9-2.6-4.6.7.8.9.7.9.1-.3-.7-.6-1.4-.9-2l-.7-.9.2-.3c-.2-.4-.4-.9-.6-1.3-1.4-1.3-3.1-5.2-4.9-9.9,0-.1,0-.2-.1-.3-.1.2-.3.2-.5-.4,0,0,0-.1-.1-.2l.2-.4c-.2-.4-.3-.8-.5-1.2-.3-.4-.5-.9-.7-1.2,0,.3.1.6.2,1-.1-.4-.2-.8-.3-1.1,0-.1-.1-.2-.1-.3,0,0,0,.1.1.2-.1-.6-.4-1.1-.9-1.8-.4-1.6-1.6-3.1-2.6-4.7-1.1-1.6-2.2-3.1-2.7-4.9.2.5.5,1.2.8,1.3-.7-1.1-1.2-2.2-1.8-3.3-.3-.5-.6-1-.9-1.5-.5-.7-.9-1.4-1.4-2.1l-.3.3c-1.4-1.7-2.5-3.1-3.5-4.6l-.5.2c-.7-1.1-2-2.7-3.2-4.2-1.1-1.5-2.3-2.9-2.3-3.9-.7-.2-2.1-2.9-3.2-3.9v-.5c-1.1-1.5-2-2.3-2.9-3.1-1-1.8-2.3-3.1-3.6-4.4-.7-.6-1.3-1.2-2-1.8-.7-.6-1.3-1.2-1.9-1.8h0c0,0-2.7-2.3-2.7-2.3.9.4-.6-.3-1.4-1.1-1-.6-2.2-1.8-3-2.9l-1.6-1.5c1.5,1.1.9.2.5-.5-.3-.3-.7-.6-1-.8,0,0,0,0,0,0l-.5-.2c-.2-.4.4,0,.4-.1,0,0,0-.1-.1-.2,0,0,0,0-.1-.1-.9-.4-3.1-2.2-4.1-2.3,0,.2.2.5.5.8.1,0,.1,0,0,0,0,0,0,0,0,0,0,0,0,0,0,0-.1,0-.3,0-.4,0-1.3-1.2-.9-.6-1-.4-1.2-1.8-2.4-2-3.1-3.6.6,1-.4.3-1.4-.4-1-.8-2.1-1.5-1.8-.7-.8-1.4-.8-.6-1.3-1.6.8.7,1.8,1.1,2.7,1.6.5.2.9.4,1.4.6-2.9-1.9-5.5-3.6-6.1-4.8,0,0-.2,0-.3,0h0c-.5-.2-1.1-.5-1.9-.9.4.4.9.8,1.1,1-1.6-.7-1.7-.5-1.8-.4-.2-.4-.4-.8-.6-1.2-1.4-.7-2.9-1.5-4.2-2.2-.4,0-.9-.1-1.3,0,.7.3,1.2.6,1.7.8.4.2.8.5,1,.7-1-.5-2-.9-3-1.4h0s0,0,0,0c.3,0,1,.4.2,0,0,0-.2,0-.2,0,0,0,0,0,0,0-.1,0-.1,0,0,0h0s0,0,0,0c-.4-.3-.9-.6-1.4-1,.5.2,1,.5,1.6.7-1.2-.8-.3-.5,0-.5-.6-.3-1.2-.6-1.7-.8,0,0-.1-.2-.5-.5-2.4-.6-5.7-2.5-8.7-4.1h-.2c0,0-.6-.2-.6-.2l.8.2c-1.5-.8-3-1.5-4.2-1.9-.4-.1-.8-.2-1-.3-.1,0-.3,0-.4,0-.1,0-.2,0-.1,0,0,.1.5.5,1,.8-1.1-.6-2.6-1.1-4.1-1.6-1.5-.5-3.1-.9-4.7-1.2-.3,0-.6-.1-.9-.2.2,0,.4.2.6.3-.7-.2-1.2-.3-1.6-.5-.8-.2-1.6-.3-2.2-.4-1.2-.2-2.1-.3-2.5-.5-3.6-.9-1.2-.9-2.2-1.4-2.7-.5-2.6,0-2.6.2,0,.2-.3.4-3.9-.5.9,0,2.4.3,1.9,0-.8-.2-1.8-.5-2.9-.9h-1.2c-.7,0,.3,0,.7-.2-.3,0-.6-.2-.9-.3,0,0-.1,0-.2,0h0,0c0,0-.1,0-.2,0-1.2,0-2.2,0-3.2,0-1,0-1.9,0-2.9,0-1.8,0-3.5,0-5.2,0v-2.3c0,0-.2,0-.3,0-1.6,0-3.4,0-5.4,0-.4,0-1.3-.3-1.1-.5-1.9,0-4.3.7-5.9,1.1-1.6.5-2.6.9-1.9,1.1-1.1,0-2,.1-2.7.2-.7,0-1.3,0-1.8.1-1.1,0-2.1.2-4,.5,6.2,0-1.2,0-1.8.8-3.9.7-1.4-.1-3.2,0-.6.2-2.1.7-2.2.9-2.5-.1,4.4-2.2,1.5-2.3-1,0-3.6,0-6.1.4-2.4.3-4.7.6-5,.6-1.7,1-.6,3.2,2.3,3.4-.1.2-1,.3-2.1.4-.6,0-1.2,0-1.7.1-.6,0-1.1.2-1.5.2-2.5.3-4.3.9-6,1.6-1.7.7-3.2,1.4-5.2,1.9l2.9-1.3c-.4,0-2,.6-3.6,1.1-.8.3-1.6.6-2.3.9-.7.3-1.2.6-1.4.7-.1,0,.5-.6,1-1.1.4-.5.7-.9-.3-.7-1.8.6-3.5,1.3-5,2s-1.5.7-2.2,1.1c-.7.4-1.3.7-1.9,1.1-2.3,1.4-3.6,2.5-3.2,2.7l5.1-2.6c1.7-.8,3.5-1.6,5.2-2.3.3.2-1.6,1-3.4,1.9-.4.2-.9.4-1.3.6-.4.2-.8.4-1.1.6-.6.4-1,.7-.8.8l-4.8,1.9c-1.6.7-3.2,1.4-4.7,2.2,1.2-.6,4.7-2.5,3.2-2.1-4,2-2.1.9-4.9,2,2.2-1.4,5.1-3.7,8.1-5.6,1.5-1,2.9-2,4.1-2.8,1.2-.8,2.3-1.5,3-2-1.7.8-3.4,1.5-5,2.4l-1.4.2c-1.6.8-3.1,1.7-4.5,2.6-1.4,1-2.6,1.9-3.7,2.9-1.1.9-2,1.7-2.7,2.4-.7.7-1.2,1.3-1.6,1.7-3.6,1.8-3,0-2.2-.6-3.6,1.8-5,3.3-6.5,4.7-.7.7-1.5,1.4-2.5,2.2-1,.8-2.2,1.7-3.9,2.8l2.7-1.5c-.8.6-2.6,1.8-4.2,2.8-1.6,1-2.8,1.9-2.4,1.8-1.4.6-2.9.9-2,0l-2.3,2.3-1.2,1.3-1.2,1.3c.7-.8-.4-1.1-.2-1.5-2.2,1.8-3.1,4-1.6,3-2.4,1.5-3.3,2.1-4,2.7-.8.5-1.4,1-3.4,2.2-1.2,1.2.8.7,1.8,0-1.3,1.3-2.4,2.3-3.3,3.2-.9.9-1.6,1.5-2.3,2.1,4.1-4.6-.3-2.8,0-4.1l-3.7,5.8c-1.2,2-2.3,3.9-3.4,5.9.2-.4.2-1.9,0-1.9,0,.4-.7,1.3-1.7,2.7-1,1.4-2.3,3.2-3.8,5.1-1.5,1.9-3,4.1-4.5,6.1-.8,1-1.4,2-2.1,2.9-.6.9-1.2,1.8-1.8,2.6l.6-.9c.3-.7-.5.2-1.5,1.6-.5.7-1.1,1.5-1.5,2.4-.5.8-.9,1.6-1.2,2.2,0-.5.4-1,1-1.9-1.6,1.9-2.1,3.5-2.7,5.1-.5,1.6-1,3.2-2.6,5.2,2.2-4,2.4-4.9,2-4.9-.8,1.7-2.2,4.5-3.3,6.6-1,2.2-1.6,3.9-.7,3.2-1.2,2.1-2,4.1-2.4,3.7l-1.5,4.4c-.5,1.5-1,2.9-1.4,4.4.1-.7,0-1.4-.9,1.2.9-2.4,1.7-4.8,2.4-7,.4-1.1.7-2.1,1.1-2.9.4-.9.8-1.6,1.3-2.1-.5-.4-1.7,1.2-1.1-1.2-4,9.3-4.8,14.9-5.9,21.1l-1.5,4.1-1.3,4.2.2.4-1.1,1.3c0,1.1-.1,1.8-.2,2-.1.2-.2-.1-.2-.6-.2.9-.2,1.8-.2,2.2-.4.3-.6-1.4-.6-3.1.3-.7.6-1.5,1-2.3,0-1.8,0-3.1-.8-.8,0,.3,0,.8-.1,1.2,0-1.1,0-1.9-.4-1.1l-.6,3.4c-.2,1.1-.3,2.3-.5,3.4.2-.7.6-1.8,1.1-3.1-.3,4.3-.6,9.1.5,5.5l-.7,2.5c-.2.8-.4,1.7-.6,2.5,0,3,0,4.3-.1,5.7,0,1.4,0,3,0,6.6-.3.4-.4-1.6-.6-.3,0,1.3,0,2.8,0,4.3s-.2,3-.4,4.3c-.3,2.7-.4,5,0,5.5.3,4.3.6,1.8,1,4.5,0-.1-.3-.4-.2.4l.8,3.2c0,1.3-.6-2.9-.5.7.4,3.1,1,5.5,1.4,7.9.4,2.3.8,4.5,1.2,7.1,1.5,7.3.4-3.3,1.5,2.8-.2,1-.5,1.9.4,5.7.8,1.9,1,1.6,2.2,4.9h-.7c1,3.1,1.8,5.5,1.4,5.7,1.2,2.4,1.7,4.2,2.1,5.5.5,1.1.8,1.4.9,1.3s0-.8-.1-1.7c-.3-1.7-.8-4-.9-4.6.6,2.3,1.2,4.3,1.8,6,.6,1.7,1.1,3.1,1.2,4.5l-1.8-3.9c2.7,8.8,4.3,7.5,4.8,12-1.3-2.9-3.3-6.1-2.8-4.3l2.3,4c0,.6-1.2-2.3-.5-.3.3.5.9,1.4,1.4,2.2.6.8,1.2,1.6,1.5,2h0c1.2,2.2,2.4,4.4,3.8,6.5-.5-.8-.7-.7,0,.4,1,1.5,2,3,3.1,4.4-.5-.6-.6-.6-.4-.1.2.5.7,1.4,1.4,2.4,3.7,5.9,4.4,3.7,7,8.4-.5-.6-.6-.7-1.1-1.3l1.4,2.4c.7-.2,3.3,2.9,6,6,2.8,3,5.5,6,6.3,5.6,1.2,1.6,1.2,1.7.4,1-.4-.3-1-.9-1.8-1.5-.7-.7-1.6-1.5-2.6-2.3.8,1.1,1.7,2.2,2.5,3.4-1.2-1.2-2.1-2.3-3.4-3.6.8,1.1,1.7,2.2,2.6,3.1s1.8,1.8,2.7,2.6c1.8,1.5,3.4,2.8,4.7,3.7,1.4,1.5-1.9-.3,2.7,3.5,1.6,1.4,2.4,1.9,2.8,2,.3.1.2-.2,0-.5-.5-.7-1.3-1.7.7-.1l2.4,2.9c5.4,3.6,9.1,6.8,13.6,9.9,1.1.6,1.6.9,1.9,1,1.2.8,2.5,1.6,3.8,2.3,1.3.7,2.6,1.4,3.9,2,1.3.6,2.6,1.2,3.7,1.8,1.2.6,2.2,1.1,3.2,1.6-1-.3,2.1,1.5,2.4,1.9,1.2.5,2.4,1,3.7,1.5l3.7,1.4c-3.3-1.2-3.3-.8-4.1-.6,2.3.9,3.5,1.2,5,1.8-1-.3-2-.5-.9.1,2.6.9,5.3,1.6,8,2.4-.4-.2-1.3-.6-2.1-.9,1,.3,2.5.9,4.2,1.5,1.7.5,3.5,1.1,4.8,1.7-.3,0-1.3-.1-1.6,0-1.1-.6-2.1-.9-2.9-1.1-.8-.2-1.5-.3-2.2-.4,2.7,1,3.1,1,3,1.1,0,0-.4,0,.8.6,3.9,1.2,5.6,1.2,4.7.5,1.1.4,2,.7,2.8.9.8.2,1.6.5,2.3.6.7.2,1.5.4,2.3.5s1.8.4,3,.5l-1,.4,4.2.8h-3.6c4,1,4.4.9,5,.7.5-.2,1.2-.2,5.7.7v.5c1.7.2,2.9.1,4,.2,1.1,0,2.1,0,3.4.5,3.4.1-5.7-1.4,2.3-.5.7.2,1.8.5,3,.7,1.2.2,2.6.4,3.7.5,2.4,0-1.3-.6-3.2-.8,5.7.3,7.6.9,9.2,1.3.9.2,1.7.4,2.9.5.6,0,1.4.1,2.3.1.9,0,1.9,0,3.2,0h0ZM222.6,391.3h1.1c.7-.4,1.3-.7-1.1,0ZM341.1,297.5s0,0,0,.1c.8-1.7,1.2-2.5,0-.1ZM343.5,289.8c-.6,1.5-1.1,2.9-1.7,4.4-.5,1.2-1,2.4-1.5,3.5.1-.1.2-.3.4-.5,1.8-3.7,2.4-5.5,2.9-7.4h0ZM324.1,327.6l-.2.3c.1-.1.2-.2.2-.3ZM323.9,327.5c.1,0,.5-.3.2.1l1.8-2.6c-1,1.4-1.5,1.8-2,2.5h0ZM335.5,308.9c-.6,1,.1.9-.4,1.4-.2,1.4,3.2-7.2.4-1.4ZM206.1,74.5c0,0-.1,0-.2,0,.8.2,1.4.2,1.8,0-1.1-.2-2.1-.4-3.1-.6-.3-.1-.7-.2-1-.4h-.3c0,.1,0,.2.1.2-.5,0-1-.2-1.4-.2,1.1.2,2.1.5,3,.7.3,0,.7.2,1.1.3h0Z"/>
</svg>