<?xml version="1.0" encoding="UTF-8"?><svg id="Layer_1" xmlns="http://www.w3.org/2000/svg" viewBox="0 0 297.33 29.55"><defs><style>.cls-1{fill:#c9aa6b;}</style></defs><polygon class="cls-1" points="210.05 12.99 210.05 .36 208.05 .36 208.05 12.99 196.05 12.99 196.05 .36 194.05 .36 194.05 12.99 189.57 12.99 189.57 .36 187.57 .36 187.57 12.99 183.09 12.99 183.09 .36 181.09 .36 181.09 12.99 172.33 12.99 171.01 12.99 171.01 10.08 169.01 10.08 169.01 12.99 167.66 12.99 165.68 12.99 164.56 12.99 164.56 10.08 162.56 10.08 162.56 12.99 161.01 12.99 158.92 12.99 157.41 12.99 157.41 10.08 155.41 10.08 155.41 12.99 154.25 12.99 142.43 12.99 147.16 .72 145.29 0 140.28 12.99 135.38 12.99 140.11 .72 138.25 0 133.24 12.99 129.08 12.99 133.81 .72 131.94 0 126.94 12.99 122.26 12.99 126.99 .72 125.12 0 120.11 12.99 115.15 12.99 119.88 .72 118.01 0 113 12.99 102.24 12.99 102.24 .36 100.24 .36 100.24 12.99 95.76 12.99 95.76 .36 93.76 .36 93.76 12.99 89.28 12.99 89.28 .36 87.28 .36 87.28 12.99 6.7 12.99 6.7 14.99 112.23 14.99 106.9 28.84 108.77 29.55 114.38 14.99 119.34 14.99 114.01 28.84 115.88 29.55 121.49 14.99 126.17 14.99 120.83 28.84 122.7 29.55 128.31 14.99 132.47 14.99 127.14 28.84 129 29.55 134.61 14.99 139.51 14.99 134.18 28.84 136.04 29.55 141.65 14.99 154.25 14.99 155.41 14.99 155.41 17.86 157.41 17.86 157.41 14.99 158.92 14.99 161.01 14.99 162.56 14.99 162.56 17.86 164.56 17.86 164.56 14.99 165.68 14.99 167.66 14.99 169.01 14.99 169.01 17.86 171.01 17.86 171.01 14.99 172.33 14.99 290.63 14.99 290.63 12.99 210.05 12.99"/></svg>